G04 EAGLE Gerber RS-274X export*
G75*
%MOMM*%
%FSLAX34Y34*%
%LPD*%
%INTop Copper*%
%IPPOS*%
%AMOC8*
5,1,8,0,0,1.08239X$1,22.5*%
G01*
%ADD10C,0.152400*%
%ADD11P,1.429621X8X22.500000*%
%ADD12R,1.600000X1.800000*%
%ADD13C,1.905000*%
%ADD14P,2.061953X8X202.500000*%
%ADD15P,2.061953X8X292.500000*%
%ADD16C,1.524000*%
%ADD17C,1.676400*%
%ADD18P,1.649562X8X22.500000*%
%ADD19P,1.429621X8X202.500000*%
%ADD20P,1.429621X8X112.500000*%
%ADD21C,1.117600*%
%ADD22C,1.320800*%
%ADD23C,1.308000*%
%ADD24R,0.635000X1.270000*%
%ADD25R,1.000000X2.000000*%
%ADD26C,2.667000*%
%ADD27R,1.200000X1.200000*%
%ADD28R,1.300000X1.500000*%
%ADD29R,1.500000X1.300000*%
%ADD30P,1.407107X8X22.500000*%
%ADD31C,0.355600*%

G36*
X994518Y10168D02*
X994518Y10168D01*
X994566Y10167D01*
X994639Y10188D01*
X994713Y10200D01*
X994756Y10223D01*
X994802Y10237D01*
X994864Y10280D01*
X994931Y10316D01*
X994964Y10350D01*
X995003Y10378D01*
X995048Y10439D01*
X995100Y10494D01*
X995120Y10537D01*
X995149Y10576D01*
X995172Y10648D01*
X995204Y10717D01*
X995209Y10765D01*
X995224Y10810D01*
X995223Y10886D01*
X995231Y10961D01*
X995221Y11008D01*
X995220Y11056D01*
X995195Y11128D01*
X995179Y11202D01*
X995154Y11243D01*
X995138Y11288D01*
X995091Y11348D01*
X995052Y11413D01*
X995016Y11444D01*
X994986Y11482D01*
X994883Y11558D01*
X994866Y11573D01*
X994859Y11575D01*
X994851Y11581D01*
X990391Y14156D01*
X985706Y18841D01*
X982394Y24578D01*
X980679Y30978D01*
X980679Y37602D01*
X982394Y44002D01*
X985706Y49739D01*
X990391Y54424D01*
X996128Y57736D01*
X1002528Y59451D01*
X1009152Y59451D01*
X1015552Y57736D01*
X1021289Y54424D01*
X1025974Y49739D01*
X1026519Y48795D01*
X1026549Y48758D01*
X1026572Y48715D01*
X1026626Y48663D01*
X1026675Y48604D01*
X1026715Y48579D01*
X1026750Y48546D01*
X1026819Y48514D01*
X1026883Y48474D01*
X1026929Y48463D01*
X1026973Y48442D01*
X1027048Y48434D01*
X1027122Y48416D01*
X1027170Y48420D01*
X1027217Y48415D01*
X1027292Y48431D01*
X1027367Y48438D01*
X1027411Y48457D01*
X1027458Y48467D01*
X1027523Y48506D01*
X1027592Y48537D01*
X1027628Y48569D01*
X1027669Y48594D01*
X1027718Y48651D01*
X1027774Y48702D01*
X1027798Y48744D01*
X1027829Y48781D01*
X1027857Y48851D01*
X1027894Y48917D01*
X1027903Y48964D01*
X1027921Y49009D01*
X1027935Y49137D01*
X1027939Y49159D01*
X1027938Y49165D01*
X1027939Y49175D01*
X1027939Y309458D01*
X1027924Y309552D01*
X1027915Y309647D01*
X1027904Y309673D01*
X1027900Y309701D01*
X1027855Y309785D01*
X1027817Y309872D01*
X1027798Y309893D01*
X1027784Y309918D01*
X1027715Y309984D01*
X1027651Y310054D01*
X1027627Y310068D01*
X1027606Y310087D01*
X1027520Y310128D01*
X1027436Y310174D01*
X1027409Y310179D01*
X1027383Y310191D01*
X1027288Y310202D01*
X1027195Y310219D01*
X1027167Y310215D01*
X1027139Y310218D01*
X1027045Y310198D01*
X1026951Y310185D01*
X1026919Y310170D01*
X1026898Y310166D01*
X1026870Y310149D01*
X1026797Y310117D01*
X1023172Y308024D01*
X1016772Y306309D01*
X1010148Y306309D01*
X1003748Y308024D01*
X998011Y311336D01*
X993326Y316021D01*
X990014Y321758D01*
X988299Y328158D01*
X988299Y334782D01*
X990014Y341182D01*
X992488Y345467D01*
X992522Y345556D01*
X992562Y345643D01*
X992565Y345671D01*
X992575Y345697D01*
X992579Y345793D01*
X992589Y345887D01*
X992583Y345915D01*
X992584Y345943D01*
X992557Y346035D01*
X992537Y346128D01*
X992522Y346152D01*
X992514Y346179D01*
X992460Y346257D01*
X992411Y346339D01*
X992389Y346357D01*
X992373Y346380D01*
X992296Y346437D01*
X992224Y346499D01*
X992198Y346509D01*
X992175Y346526D01*
X992084Y346555D01*
X991996Y346591D01*
X991961Y346595D01*
X991941Y346601D01*
X991908Y346601D01*
X991829Y346609D01*
X689352Y346609D01*
X689332Y346606D01*
X689313Y346608D01*
X689211Y346586D01*
X689109Y346570D01*
X689092Y346560D01*
X689072Y346556D01*
X688983Y346503D01*
X688892Y346454D01*
X688878Y346440D01*
X688861Y346430D01*
X688794Y346351D01*
X688722Y346276D01*
X688714Y346258D01*
X688701Y346243D01*
X688662Y346147D01*
X688619Y346053D01*
X688617Y346033D01*
X688609Y346015D01*
X688591Y345848D01*
X688591Y332958D01*
X688605Y332868D01*
X688613Y332777D01*
X688625Y332747D01*
X688630Y332715D01*
X688673Y332635D01*
X688709Y332551D01*
X688735Y332519D01*
X688746Y332498D01*
X688769Y332476D01*
X688797Y332440D01*
X688798Y332440D01*
X688814Y332420D01*
X691399Y329835D01*
X693078Y328156D01*
X693929Y326102D01*
X693929Y321875D01*
X693943Y321785D01*
X693951Y321694D01*
X693963Y321664D01*
X693968Y321632D01*
X694011Y321552D01*
X694047Y321468D01*
X694073Y321436D01*
X694084Y321415D01*
X694107Y321393D01*
X694152Y321337D01*
X698755Y316734D01*
X698755Y308106D01*
X692654Y302005D01*
X684026Y302005D01*
X679423Y306608D01*
X679349Y306661D01*
X679280Y306721D01*
X679250Y306733D01*
X679223Y306752D01*
X679136Y306779D01*
X679052Y306813D01*
X679011Y306817D01*
X678988Y306824D01*
X678956Y306823D01*
X678885Y306831D01*
X667572Y306831D01*
X667482Y306817D01*
X667391Y306809D01*
X667362Y306797D01*
X667330Y306792D01*
X667249Y306749D01*
X667165Y306713D01*
X667133Y306687D01*
X667112Y306676D01*
X667090Y306653D01*
X667034Y306608D01*
X640676Y280250D01*
X638622Y279399D01*
X633074Y279399D01*
X632959Y279381D01*
X632843Y279363D01*
X632837Y279361D01*
X632831Y279360D01*
X632729Y279305D01*
X632624Y279252D01*
X632619Y279247D01*
X632614Y279244D01*
X632534Y279160D01*
X632452Y279076D01*
X632448Y279070D01*
X632444Y279066D01*
X632437Y279049D01*
X632371Y278929D01*
X632148Y278391D01*
X630576Y276819D01*
X628522Y275968D01*
X626298Y275968D01*
X624244Y276819D01*
X622672Y278391D01*
X621821Y280445D01*
X621821Y282358D01*
X621806Y282448D01*
X621799Y282539D01*
X621787Y282569D01*
X621781Y282600D01*
X621739Y282681D01*
X621703Y282765D01*
X621677Y282797D01*
X621666Y282818D01*
X621643Y282840D01*
X621598Y282896D01*
X616996Y287498D01*
X616938Y287540D01*
X616886Y287589D01*
X616839Y287611D01*
X616797Y287641D01*
X616728Y287663D01*
X616663Y287693D01*
X616611Y287699D01*
X616561Y287714D01*
X616490Y287712D01*
X616419Y287720D01*
X616368Y287709D01*
X616316Y287707D01*
X616248Y287683D01*
X616178Y287668D01*
X616133Y287641D01*
X616085Y287623D01*
X616029Y287578D01*
X615967Y287541D01*
X615933Y287502D01*
X615893Y287469D01*
X615854Y287409D01*
X615807Y287355D01*
X615788Y287306D01*
X615760Y287262D01*
X615742Y287193D01*
X615715Y287126D01*
X615707Y287055D01*
X615699Y287024D01*
X615701Y287001D01*
X615697Y286960D01*
X615697Y284768D01*
X615595Y284522D01*
X615580Y284458D01*
X615555Y284397D01*
X615546Y284315D01*
X615539Y284283D01*
X615540Y284263D01*
X615537Y284231D01*
X615537Y259360D01*
X615551Y259270D01*
X615559Y259179D01*
X615571Y259149D01*
X615576Y259117D01*
X615619Y259037D01*
X615655Y258953D01*
X615681Y258921D01*
X615692Y258900D01*
X615715Y258878D01*
X615760Y258822D01*
X697792Y176789D01*
X697831Y176761D01*
X697864Y176726D01*
X697931Y176690D01*
X697992Y176646D01*
X698038Y176632D01*
X698080Y176609D01*
X698155Y176596D01*
X698227Y176573D01*
X698275Y176575D01*
X698322Y176566D01*
X698397Y176578D01*
X698473Y176580D01*
X698518Y176596D01*
X698565Y176603D01*
X698633Y176638D01*
X698704Y176664D01*
X698741Y176694D01*
X698784Y176716D01*
X698837Y176770D01*
X698896Y176818D01*
X698922Y176858D01*
X698955Y176893D01*
X698988Y176961D01*
X699029Y177025D01*
X699041Y177071D01*
X699061Y177115D01*
X699071Y177190D01*
X699089Y177263D01*
X699085Y177311D01*
X699091Y177359D01*
X699072Y177487D01*
X699070Y177509D01*
X699067Y177515D01*
X699066Y177525D01*
X697859Y182028D01*
X697859Y188652D01*
X699574Y195052D01*
X702886Y200789D01*
X707571Y205474D01*
X713308Y208786D01*
X719708Y210501D01*
X726332Y210501D01*
X732732Y208786D01*
X738469Y205474D01*
X743154Y200789D01*
X746466Y195052D01*
X748181Y188652D01*
X748181Y182028D01*
X746466Y175628D01*
X743154Y169891D01*
X738553Y165290D01*
X738511Y165232D01*
X738462Y165180D01*
X738440Y165133D01*
X738409Y165091D01*
X738388Y165022D01*
X738358Y164957D01*
X738352Y164905D01*
X738337Y164855D01*
X738339Y164784D01*
X738331Y164713D01*
X738342Y164662D01*
X738343Y164610D01*
X738368Y164542D01*
X738383Y164472D01*
X738410Y164427D01*
X738428Y164379D01*
X738473Y164323D01*
X738509Y164261D01*
X738549Y164227D01*
X738582Y164187D01*
X738642Y164148D01*
X738696Y164101D01*
X738745Y164082D01*
X738788Y164054D01*
X738858Y164036D01*
X738924Y164009D01*
X738996Y164001D01*
X739027Y163993D01*
X739050Y163995D01*
X739091Y163991D01*
X769972Y163991D01*
X772026Y163140D01*
X816014Y119152D01*
X816865Y117098D01*
X816865Y93582D01*
X816014Y91528D01*
X809500Y85014D01*
X807446Y84163D01*
X790594Y84163D01*
X788540Y85014D01*
X786860Y86693D01*
X785373Y88180D01*
X783694Y89860D01*
X783197Y91059D01*
X783135Y91159D01*
X783076Y91259D01*
X783071Y91263D01*
X783068Y91268D01*
X782977Y91343D01*
X782889Y91419D01*
X782883Y91421D01*
X782878Y91425D01*
X782770Y91467D01*
X782661Y91511D01*
X782653Y91512D01*
X782648Y91513D01*
X782630Y91514D01*
X782494Y91529D01*
X777442Y91529D01*
X777058Y91913D01*
X777042Y91924D01*
X777030Y91940D01*
X776942Y91996D01*
X776859Y92056D01*
X776840Y92062D01*
X776823Y92073D01*
X776722Y92098D01*
X776623Y92128D01*
X776604Y92128D01*
X776584Y92133D01*
X776481Y92125D01*
X776378Y92122D01*
X776359Y92115D01*
X776339Y92114D01*
X776244Y92073D01*
X776147Y92038D01*
X776131Y92025D01*
X776113Y92017D01*
X775982Y91913D01*
X775598Y91529D01*
X762442Y91529D01*
X762058Y91913D01*
X762042Y91924D01*
X762030Y91940D01*
X761942Y91996D01*
X761859Y92056D01*
X761840Y92062D01*
X761823Y92073D01*
X761722Y92098D01*
X761623Y92128D01*
X761604Y92128D01*
X761584Y92133D01*
X761481Y92125D01*
X761378Y92122D01*
X761359Y92115D01*
X761339Y92114D01*
X761244Y92073D01*
X761147Y92038D01*
X761131Y92025D01*
X761113Y92017D01*
X760982Y91913D01*
X760598Y91529D01*
X747442Y91529D01*
X747058Y91913D01*
X747042Y91924D01*
X747030Y91940D01*
X746942Y91996D01*
X746859Y92056D01*
X746840Y92062D01*
X746823Y92073D01*
X746722Y92098D01*
X746623Y92128D01*
X746604Y92128D01*
X746584Y92133D01*
X746481Y92125D01*
X746378Y92122D01*
X746359Y92115D01*
X746339Y92114D01*
X746244Y92073D01*
X746147Y92038D01*
X746131Y92025D01*
X746113Y92017D01*
X745982Y91913D01*
X745598Y91529D01*
X732442Y91529D01*
X732058Y91913D01*
X732042Y91924D01*
X732030Y91940D01*
X731942Y91996D01*
X731859Y92056D01*
X731840Y92062D01*
X731823Y92073D01*
X731722Y92098D01*
X731623Y92128D01*
X731604Y92128D01*
X731584Y92133D01*
X731481Y92125D01*
X731378Y92122D01*
X731359Y92115D01*
X731339Y92114D01*
X731244Y92073D01*
X731147Y92038D01*
X731131Y92025D01*
X731113Y92017D01*
X730982Y91913D01*
X730598Y91529D01*
X730370Y91529D01*
X730350Y91526D01*
X730331Y91528D01*
X730229Y91506D01*
X730127Y91490D01*
X730110Y91480D01*
X730090Y91476D01*
X730001Y91423D01*
X729910Y91374D01*
X729896Y91360D01*
X729879Y91350D01*
X729812Y91271D01*
X729740Y91196D01*
X729732Y91178D01*
X729719Y91163D01*
X729680Y91067D01*
X729637Y90973D01*
X729635Y90953D01*
X729627Y90935D01*
X729609Y90768D01*
X729609Y71398D01*
X728758Y69344D01*
X727079Y67665D01*
X705476Y46062D01*
X703422Y45211D01*
X511359Y45211D01*
X511288Y45200D01*
X511216Y45198D01*
X511168Y45180D01*
X511116Y45172D01*
X511053Y45138D01*
X510985Y45113D01*
X510945Y45081D01*
X510899Y45056D01*
X510850Y45004D01*
X510793Y44959D01*
X510765Y44916D01*
X510730Y44878D01*
X510699Y44813D01*
X510660Y44752D01*
X510648Y44702D01*
X510626Y44655D01*
X510618Y44584D01*
X510601Y44514D01*
X510605Y44462D01*
X510599Y44411D01*
X510614Y44340D01*
X510620Y44268D01*
X510640Y44221D01*
X510651Y44170D01*
X510688Y44109D01*
X512319Y40172D01*
X512319Y36028D01*
X510733Y32200D01*
X507804Y29271D01*
X503976Y27685D01*
X486624Y27685D01*
X482796Y29271D01*
X479867Y32200D01*
X478281Y36028D01*
X478281Y40172D01*
X479867Y44000D01*
X480920Y45053D01*
X480932Y45069D01*
X480948Y45082D01*
X481004Y45169D01*
X481064Y45253D01*
X481070Y45272D01*
X481081Y45289D01*
X481106Y45389D01*
X481136Y45488D01*
X481136Y45508D01*
X481141Y45527D01*
X481133Y45630D01*
X481130Y45734D01*
X481123Y45753D01*
X481122Y45772D01*
X481081Y45867D01*
X481046Y45965D01*
X481033Y45981D01*
X481025Y45999D01*
X480920Y46130D01*
X471766Y55284D01*
X470915Y57338D01*
X470915Y58076D01*
X470901Y58166D01*
X470893Y58257D01*
X470881Y58287D01*
X470876Y58319D01*
X470833Y58399D01*
X470797Y58483D01*
X470771Y58515D01*
X470760Y58536D01*
X470737Y58558D01*
X470692Y58614D01*
X443190Y86116D01*
X443111Y86173D01*
X443036Y86235D01*
X443012Y86244D01*
X442991Y86259D01*
X442898Y86288D01*
X442807Y86323D01*
X442781Y86324D01*
X442756Y86332D01*
X442658Y86329D01*
X442561Y86333D01*
X442536Y86326D01*
X442510Y86325D01*
X442418Y86292D01*
X442325Y86265D01*
X442303Y86250D01*
X442279Y86241D01*
X442203Y86180D01*
X442123Y86125D01*
X442107Y86104D01*
X442087Y86087D01*
X442034Y86005D01*
X441976Y85927D01*
X441968Y85902D01*
X441954Y85880D01*
X441930Y85786D01*
X441900Y85693D01*
X441900Y85667D01*
X441894Y85642D01*
X441901Y85545D01*
X441902Y85447D01*
X441911Y85416D01*
X441913Y85397D01*
X441926Y85366D01*
X441949Y85286D01*
X442151Y84799D01*
X442151Y67601D01*
X440575Y63797D01*
X437663Y60885D01*
X433859Y59309D01*
X429741Y59309D01*
X425937Y60885D01*
X423025Y63797D01*
X421449Y67601D01*
X421449Y84799D01*
X423025Y88603D01*
X425937Y91515D01*
X429741Y93091D01*
X433859Y93091D01*
X434346Y92889D01*
X434441Y92867D01*
X434534Y92838D01*
X434560Y92839D01*
X434586Y92833D01*
X434683Y92842D01*
X434780Y92844D01*
X434805Y92853D01*
X434831Y92856D01*
X434920Y92895D01*
X435011Y92929D01*
X435032Y92945D01*
X435055Y92956D01*
X435127Y93022D01*
X435203Y93082D01*
X435217Y93104D01*
X435237Y93122D01*
X435283Y93207D01*
X435336Y93289D01*
X435343Y93315D01*
X435355Y93338D01*
X435372Y93433D01*
X435396Y93528D01*
X435394Y93554D01*
X435399Y93580D01*
X435385Y93676D01*
X435377Y93773D01*
X435367Y93797D01*
X435363Y93823D01*
X435319Y93910D01*
X435281Y93999D01*
X435260Y94025D01*
X435252Y94042D01*
X435228Y94065D01*
X435176Y94130D01*
X431360Y97946D01*
X431286Y97999D01*
X431217Y98059D01*
X431186Y98071D01*
X431160Y98090D01*
X431073Y98117D01*
X430988Y98151D01*
X430948Y98155D01*
X430925Y98162D01*
X430893Y98161D01*
X430822Y98169D01*
X336697Y98169D01*
X336607Y98155D01*
X336516Y98147D01*
X336486Y98135D01*
X336454Y98130D01*
X336373Y98087D01*
X336289Y98051D01*
X336257Y98025D01*
X336237Y98014D01*
X336214Y97991D01*
X336158Y97946D01*
X332388Y94176D01*
X332362Y94139D01*
X332328Y94108D01*
X332290Y94040D01*
X332245Y93977D01*
X332231Y93933D01*
X332209Y93893D01*
X332195Y93816D01*
X332173Y93742D01*
X332174Y93696D01*
X332166Y93650D01*
X332177Y93573D01*
X332179Y93496D01*
X332195Y93453D01*
X332201Y93407D01*
X332237Y93338D01*
X332263Y93265D01*
X332292Y93229D01*
X332313Y93188D01*
X332368Y93133D01*
X332417Y93073D01*
X332456Y93048D01*
X332488Y93016D01*
X332608Y92950D01*
X332624Y92940D01*
X332629Y92938D01*
X332635Y92935D01*
X336063Y91515D01*
X338975Y88603D01*
X340551Y84799D01*
X340551Y67601D01*
X338975Y63797D01*
X337428Y62250D01*
X337387Y62192D01*
X337337Y62140D01*
X337315Y62093D01*
X337285Y62051D01*
X337264Y61982D01*
X337234Y61917D01*
X337228Y61865D01*
X337213Y61815D01*
X337214Y61744D01*
X337206Y61673D01*
X337218Y61622D01*
X337219Y61570D01*
X337244Y61502D01*
X337259Y61432D01*
X337285Y61387D01*
X337303Y61339D01*
X337348Y61283D01*
X337385Y61221D01*
X337424Y61187D01*
X337457Y61147D01*
X337517Y61108D01*
X337572Y61061D01*
X337620Y61042D01*
X337664Y61014D01*
X337733Y60996D01*
X340011Y58718D01*
X340011Y43562D01*
X337627Y41178D01*
X337616Y41162D01*
X337600Y41150D01*
X337544Y41062D01*
X337484Y40979D01*
X337478Y40960D01*
X337467Y40943D01*
X337442Y40842D01*
X337412Y40743D01*
X337412Y40724D01*
X337407Y40704D01*
X337415Y40601D01*
X337418Y40498D01*
X337425Y40479D01*
X337426Y40459D01*
X337467Y40364D01*
X337502Y40267D01*
X337515Y40251D01*
X337523Y40233D01*
X337627Y40102D01*
X340011Y37718D01*
X340011Y28548D01*
X340025Y28458D01*
X340033Y28367D01*
X340045Y28337D01*
X340050Y28305D01*
X340093Y28225D01*
X340129Y28141D01*
X340155Y28109D01*
X340166Y28088D01*
X340189Y28066D01*
X340234Y28010D01*
X342112Y26132D01*
X342186Y26079D01*
X342255Y26019D01*
X342285Y26007D01*
X342312Y25988D01*
X342399Y25961D01*
X342484Y25927D01*
X342524Y25923D01*
X342547Y25916D01*
X342579Y25917D01*
X342650Y25909D01*
X362968Y25909D01*
X362988Y25912D01*
X363007Y25910D01*
X363109Y25932D01*
X363211Y25948D01*
X363228Y25958D01*
X363248Y25962D01*
X363337Y26015D01*
X363428Y26064D01*
X363442Y26078D01*
X363459Y26088D01*
X363526Y26167D01*
X363598Y26242D01*
X363606Y26260D01*
X363619Y26275D01*
X363658Y26371D01*
X363701Y26465D01*
X363703Y26485D01*
X363711Y26503D01*
X363729Y26670D01*
X363729Y29398D01*
X365962Y31631D01*
X382118Y31631D01*
X383900Y29849D01*
X383916Y29838D01*
X383929Y29822D01*
X384016Y29766D01*
X384100Y29706D01*
X384119Y29700D01*
X384135Y29689D01*
X384236Y29664D01*
X384335Y29634D01*
X384355Y29634D01*
X384374Y29629D01*
X384477Y29637D01*
X384580Y29640D01*
X384599Y29647D01*
X384619Y29648D01*
X384714Y29689D01*
X384811Y29724D01*
X384827Y29737D01*
X384846Y29745D01*
X384976Y29850D01*
X384980Y29853D01*
X385559Y30188D01*
X386206Y30361D01*
X391517Y30361D01*
X391517Y21082D01*
X391520Y21062D01*
X391518Y21043D01*
X391540Y20941D01*
X391557Y20839D01*
X391566Y20822D01*
X391570Y20802D01*
X391623Y20713D01*
X391672Y20622D01*
X391686Y20608D01*
X391696Y20591D01*
X391775Y20524D01*
X391850Y20453D01*
X391868Y20444D01*
X391883Y20431D01*
X391979Y20392D01*
X392073Y20349D01*
X392093Y20347D01*
X392111Y20339D01*
X392278Y20321D01*
X393041Y20321D01*
X393041Y19558D01*
X393044Y19538D01*
X393042Y19519D01*
X393064Y19417D01*
X393081Y19315D01*
X393090Y19298D01*
X393094Y19278D01*
X393147Y19189D01*
X393196Y19098D01*
X393210Y19084D01*
X393220Y19067D01*
X393299Y19000D01*
X393374Y18929D01*
X393392Y18920D01*
X393407Y18907D01*
X393503Y18868D01*
X393597Y18825D01*
X393617Y18823D01*
X393635Y18815D01*
X393802Y18797D01*
X402081Y18797D01*
X402081Y12486D01*
X401908Y11839D01*
X401598Y11303D01*
X401564Y11213D01*
X401524Y11127D01*
X401521Y11099D01*
X401511Y11073D01*
X401507Y10977D01*
X401497Y10883D01*
X401503Y10855D01*
X401502Y10827D01*
X401529Y10735D01*
X401549Y10642D01*
X401563Y10618D01*
X401571Y10591D01*
X401626Y10513D01*
X401675Y10431D01*
X401697Y10413D01*
X401713Y10390D01*
X401790Y10333D01*
X401862Y10271D01*
X401888Y10261D01*
X401911Y10244D01*
X402002Y10215D01*
X402090Y10179D01*
X402126Y10175D01*
X402145Y10169D01*
X402178Y10169D01*
X402257Y10161D01*
X994471Y10161D01*
X994518Y10168D01*
G37*
G36*
X202799Y10165D02*
X202799Y10165D01*
X202823Y10162D01*
X202920Y10184D01*
X203018Y10200D01*
X203039Y10212D01*
X203063Y10217D01*
X203148Y10269D01*
X203236Y10316D01*
X203252Y10333D01*
X203273Y10346D01*
X203336Y10422D01*
X203405Y10494D01*
X203415Y10516D01*
X203430Y10534D01*
X203467Y10627D01*
X203509Y10717D01*
X203511Y10741D01*
X203520Y10763D01*
X203525Y10863D01*
X203536Y10961D01*
X203530Y10985D01*
X203532Y11009D01*
X203504Y11105D01*
X203483Y11202D01*
X203471Y11223D01*
X203464Y11246D01*
X203408Y11328D01*
X203357Y11413D01*
X203339Y11429D01*
X203325Y11448D01*
X203246Y11508D01*
X203170Y11573D01*
X203148Y11582D01*
X203129Y11596D01*
X202972Y11657D01*
X202729Y11722D01*
X202150Y12057D01*
X201677Y12530D01*
X201342Y13109D01*
X201169Y13756D01*
X201169Y20067D01*
X209448Y20067D01*
X209468Y20070D01*
X209487Y20068D01*
X209589Y20090D01*
X209691Y20107D01*
X209708Y20116D01*
X209728Y20120D01*
X209817Y20173D01*
X209908Y20222D01*
X209922Y20236D01*
X209939Y20246D01*
X210006Y20325D01*
X210077Y20400D01*
X210086Y20418D01*
X210099Y20433D01*
X210138Y20529D01*
X210181Y20623D01*
X210183Y20643D01*
X210191Y20661D01*
X210209Y20828D01*
X210209Y21591D01*
X210972Y21591D01*
X210992Y21594D01*
X211011Y21592D01*
X211113Y21614D01*
X211215Y21631D01*
X211232Y21640D01*
X211252Y21644D01*
X211341Y21697D01*
X211432Y21746D01*
X211446Y21760D01*
X211463Y21770D01*
X211530Y21849D01*
X211601Y21924D01*
X211610Y21942D01*
X211623Y21957D01*
X211662Y22053D01*
X211705Y22147D01*
X211707Y22167D01*
X211715Y22185D01*
X211733Y22352D01*
X211733Y31631D01*
X217044Y31631D01*
X217691Y31458D01*
X218270Y31123D01*
X218274Y31120D01*
X218290Y31108D01*
X218302Y31092D01*
X218389Y31036D01*
X218473Y30976D01*
X218492Y30970D01*
X218509Y30959D01*
X218610Y30934D01*
X218708Y30904D01*
X218728Y30904D01*
X218748Y30899D01*
X218851Y30907D01*
X218954Y30910D01*
X218973Y30917D01*
X218993Y30918D01*
X219088Y30959D01*
X219185Y30994D01*
X219201Y31007D01*
X219219Y31015D01*
X219350Y31119D01*
X221132Y32901D01*
X237288Y32901D01*
X239521Y30668D01*
X239521Y27940D01*
X239524Y27920D01*
X239522Y27901D01*
X239544Y27799D01*
X239560Y27697D01*
X239570Y27680D01*
X239574Y27660D01*
X239627Y27571D01*
X239676Y27480D01*
X239690Y27466D01*
X239700Y27449D01*
X239779Y27382D01*
X239854Y27310D01*
X239872Y27302D01*
X239887Y27289D01*
X239983Y27250D01*
X240077Y27207D01*
X240097Y27205D01*
X240115Y27197D01*
X240282Y27179D01*
X244378Y27179D01*
X244449Y27190D01*
X244520Y27192D01*
X244569Y27210D01*
X244621Y27218D01*
X244684Y27252D01*
X244751Y27277D01*
X244792Y27309D01*
X244838Y27334D01*
X244887Y27386D01*
X244943Y27430D01*
X244972Y27474D01*
X245007Y27512D01*
X245038Y27577D01*
X245076Y27637D01*
X245089Y27688D01*
X245111Y27735D01*
X245119Y27806D01*
X245137Y27876D01*
X245132Y27928D01*
X245138Y27979D01*
X245123Y28050D01*
X245117Y28121D01*
X245097Y28169D01*
X245086Y28220D01*
X245049Y28281D01*
X245021Y28347D01*
X244976Y28403D01*
X244960Y28431D01*
X244942Y28446D01*
X244916Y28478D01*
X244310Y29085D01*
X242569Y33286D01*
X242569Y53074D01*
X244310Y57275D01*
X247490Y60455D01*
X247502Y60472D01*
X247517Y60484D01*
X247573Y60571D01*
X247633Y60655D01*
X247639Y60674D01*
X247650Y60691D01*
X247675Y60791D01*
X247706Y60890D01*
X247705Y60910D01*
X247710Y60929D01*
X247702Y61032D01*
X247699Y61136D01*
X247693Y61155D01*
X247691Y61175D01*
X247651Y61269D01*
X247615Y61367D01*
X247602Y61383D01*
X247595Y61401D01*
X247490Y61532D01*
X245225Y63797D01*
X243649Y67601D01*
X243649Y84799D01*
X245225Y88603D01*
X248137Y91515D01*
X251941Y93091D01*
X256059Y93091D01*
X259863Y91515D01*
X262775Y88603D01*
X264351Y84799D01*
X264351Y67601D01*
X262775Y63797D01*
X260510Y61532D01*
X260498Y61516D01*
X260483Y61503D01*
X260427Y61416D01*
X260367Y61332D01*
X260361Y61313D01*
X260350Y61296D01*
X260325Y61196D01*
X260294Y61097D01*
X260295Y61077D01*
X260290Y61058D01*
X260298Y60955D01*
X260301Y60851D01*
X260307Y60832D01*
X260309Y60813D01*
X260349Y60718D01*
X260385Y60620D01*
X260398Y60605D01*
X260405Y60586D01*
X260510Y60455D01*
X263690Y57275D01*
X265431Y53074D01*
X265431Y33286D01*
X263690Y29085D01*
X263084Y28478D01*
X263042Y28420D01*
X262993Y28368D01*
X262971Y28321D01*
X262940Y28279D01*
X262919Y28210D01*
X262889Y28145D01*
X262883Y28093D01*
X262868Y28043D01*
X262870Y27972D01*
X262862Y27901D01*
X262873Y27850D01*
X262874Y27798D01*
X262899Y27730D01*
X262914Y27660D01*
X262941Y27615D01*
X262959Y27567D01*
X263004Y27511D01*
X263040Y27449D01*
X263080Y27415D01*
X263112Y27375D01*
X263173Y27336D01*
X263227Y27289D01*
X263275Y27270D01*
X263319Y27242D01*
X263389Y27224D01*
X263455Y27197D01*
X263527Y27189D01*
X263558Y27181D01*
X263581Y27183D01*
X263622Y27179D01*
X269778Y27179D01*
X269849Y27190D01*
X269920Y27192D01*
X269969Y27210D01*
X270021Y27218D01*
X270084Y27252D01*
X270151Y27277D01*
X270192Y27309D01*
X270238Y27334D01*
X270287Y27386D01*
X270343Y27430D01*
X270372Y27474D01*
X270407Y27512D01*
X270438Y27577D01*
X270476Y27637D01*
X270489Y27688D01*
X270511Y27735D01*
X270519Y27806D01*
X270537Y27876D01*
X270532Y27928D01*
X270538Y27979D01*
X270523Y28050D01*
X270517Y28121D01*
X270497Y28169D01*
X270486Y28220D01*
X270449Y28281D01*
X270421Y28347D01*
X270376Y28403D01*
X270360Y28431D01*
X270342Y28446D01*
X270316Y28478D01*
X269710Y29085D01*
X267969Y33286D01*
X267969Y53074D01*
X269710Y57275D01*
X272890Y60455D01*
X272902Y60472D01*
X272917Y60484D01*
X272973Y60571D01*
X273033Y60655D01*
X273039Y60674D01*
X273050Y60691D01*
X273075Y60791D01*
X273106Y60890D01*
X273105Y60910D01*
X273110Y60929D01*
X273102Y61032D01*
X273099Y61136D01*
X273093Y61155D01*
X273091Y61175D01*
X273051Y61269D01*
X273015Y61367D01*
X273002Y61383D01*
X272995Y61401D01*
X272890Y61532D01*
X270625Y63797D01*
X269049Y67601D01*
X269049Y84799D01*
X270625Y88603D01*
X273537Y91515D01*
X277341Y93091D01*
X281459Y93091D01*
X285263Y91515D01*
X288175Y88603D01*
X289751Y84799D01*
X289751Y67601D01*
X288175Y63797D01*
X285910Y61532D01*
X285898Y61516D01*
X285883Y61503D01*
X285827Y61416D01*
X285767Y61332D01*
X285761Y61313D01*
X285750Y61296D01*
X285725Y61196D01*
X285694Y61097D01*
X285695Y61077D01*
X285690Y61058D01*
X285698Y60955D01*
X285701Y60851D01*
X285707Y60832D01*
X285709Y60813D01*
X285749Y60718D01*
X285785Y60620D01*
X285798Y60605D01*
X285805Y60586D01*
X285910Y60455D01*
X289090Y57275D01*
X290831Y53074D01*
X290831Y33286D01*
X289090Y29085D01*
X288484Y28478D01*
X288442Y28420D01*
X288393Y28368D01*
X288371Y28321D01*
X288340Y28279D01*
X288319Y28210D01*
X288289Y28145D01*
X288283Y28093D01*
X288268Y28043D01*
X288270Y27972D01*
X288262Y27901D01*
X288273Y27850D01*
X288274Y27798D01*
X288299Y27730D01*
X288314Y27660D01*
X288341Y27615D01*
X288359Y27567D01*
X288404Y27511D01*
X288440Y27449D01*
X288480Y27415D01*
X288512Y27375D01*
X288573Y27336D01*
X288627Y27289D01*
X288675Y27270D01*
X288719Y27242D01*
X288789Y27224D01*
X288855Y27197D01*
X288927Y27189D01*
X288958Y27181D01*
X288981Y27183D01*
X289022Y27179D01*
X293620Y27179D01*
X293710Y27193D01*
X293801Y27201D01*
X293831Y27213D01*
X293862Y27218D01*
X293943Y27261D01*
X294027Y27297D01*
X294059Y27323D01*
X294080Y27334D01*
X294102Y27357D01*
X294158Y27402D01*
X294766Y28010D01*
X294819Y28084D01*
X294879Y28153D01*
X294891Y28184D01*
X294910Y28210D01*
X294937Y28297D01*
X294971Y28382D01*
X294975Y28422D01*
X294982Y28445D01*
X294981Y28477D01*
X294989Y28548D01*
X294989Y37718D01*
X297373Y40102D01*
X297384Y40118D01*
X297400Y40130D01*
X297431Y40179D01*
X297434Y40183D01*
X297437Y40189D01*
X297456Y40218D01*
X297516Y40301D01*
X297522Y40320D01*
X297533Y40337D01*
X297558Y40438D01*
X297588Y40537D01*
X297588Y40556D01*
X297593Y40576D01*
X297585Y40679D01*
X297582Y40782D01*
X297575Y40801D01*
X297574Y40821D01*
X297533Y40916D01*
X297498Y41013D01*
X297485Y41029D01*
X297477Y41047D01*
X297373Y41178D01*
X294989Y43562D01*
X294989Y58718D01*
X297258Y60988D01*
X297276Y60990D01*
X297339Y61024D01*
X297407Y61049D01*
X297447Y61081D01*
X297493Y61106D01*
X297543Y61158D01*
X297599Y61202D01*
X297627Y61246D01*
X297663Y61284D01*
X297693Y61349D01*
X297732Y61409D01*
X297744Y61460D01*
X297766Y61507D01*
X297774Y61578D01*
X297792Y61648D01*
X297788Y61700D01*
X297794Y61751D01*
X297778Y61822D01*
X297773Y61893D01*
X297752Y61941D01*
X297741Y61992D01*
X297704Y62053D01*
X297676Y62119D01*
X297632Y62175D01*
X297615Y62203D01*
X297597Y62218D01*
X297572Y62250D01*
X296025Y63797D01*
X294449Y67601D01*
X294449Y84799D01*
X296025Y88603D01*
X298937Y91515D01*
X302741Y93091D01*
X306859Y93091D01*
X310663Y91515D01*
X311753Y90425D01*
X311769Y90413D01*
X311782Y90398D01*
X311869Y90342D01*
X311953Y90281D01*
X311972Y90276D01*
X311989Y90265D01*
X312089Y90240D01*
X312188Y90209D01*
X312208Y90210D01*
X312227Y90205D01*
X312330Y90213D01*
X312434Y90215D01*
X312453Y90222D01*
X312472Y90224D01*
X312567Y90264D01*
X312665Y90300D01*
X312681Y90312D01*
X312699Y90320D01*
X312830Y90425D01*
X327910Y105506D01*
X327952Y105564D01*
X328002Y105616D01*
X328024Y105663D01*
X328054Y105705D01*
X328075Y105774D01*
X328105Y105839D01*
X328111Y105891D01*
X328126Y105941D01*
X328124Y106012D01*
X328132Y106083D01*
X328121Y106134D01*
X328120Y106186D01*
X328095Y106254D01*
X328080Y106324D01*
X328053Y106369D01*
X328036Y106417D01*
X327991Y106473D01*
X327954Y106535D01*
X327914Y106569D01*
X327882Y106609D01*
X327822Y106648D01*
X327767Y106695D01*
X327719Y106714D01*
X327675Y106742D01*
X327605Y106760D01*
X327539Y106787D01*
X327468Y106795D01*
X327436Y106803D01*
X327413Y106801D01*
X327372Y106805D01*
X142133Y106805D01*
X142043Y106791D01*
X141952Y106783D01*
X141922Y106771D01*
X141890Y106766D01*
X141809Y106723D01*
X141725Y106687D01*
X141693Y106661D01*
X141673Y106650D01*
X141650Y106627D01*
X141594Y106582D01*
X129188Y94176D01*
X129162Y94139D01*
X129128Y94108D01*
X129090Y94040D01*
X129045Y93977D01*
X129031Y93933D01*
X129009Y93893D01*
X128995Y93816D01*
X128973Y93742D01*
X128974Y93696D01*
X128966Y93650D01*
X128977Y93573D01*
X128979Y93496D01*
X128995Y93453D01*
X129001Y93407D01*
X129037Y93338D01*
X129063Y93265D01*
X129092Y93229D01*
X129113Y93188D01*
X129168Y93133D01*
X129217Y93073D01*
X129256Y93048D01*
X129288Y93016D01*
X129408Y92950D01*
X129424Y92940D01*
X129429Y92938D01*
X129435Y92935D01*
X132863Y91515D01*
X135775Y88603D01*
X137351Y84799D01*
X137351Y67601D01*
X135775Y63797D01*
X132863Y60885D01*
X129059Y59309D01*
X124941Y59309D01*
X121137Y60885D01*
X118225Y63797D01*
X116649Y67601D01*
X116649Y79799D01*
X116638Y79870D01*
X116636Y79942D01*
X116618Y79991D01*
X116610Y80042D01*
X116576Y80105D01*
X116551Y80173D01*
X116519Y80214D01*
X116494Y80260D01*
X116443Y80309D01*
X116398Y80365D01*
X116354Y80393D01*
X116316Y80429D01*
X116251Y80459D01*
X116191Y80498D01*
X116140Y80511D01*
X116093Y80533D01*
X116022Y80540D01*
X115952Y80558D01*
X115900Y80554D01*
X115849Y80560D01*
X115778Y80544D01*
X115707Y80539D01*
X115659Y80518D01*
X115608Y80507D01*
X115547Y80471D01*
X115481Y80443D01*
X115425Y80398D01*
X115397Y80381D01*
X115382Y80363D01*
X115350Y80338D01*
X112174Y77162D01*
X112121Y77088D01*
X112061Y77018D01*
X112049Y76988D01*
X112030Y76962D01*
X112003Y76875D01*
X111969Y76790D01*
X111965Y76749D01*
X111958Y76727D01*
X111959Y76695D01*
X111951Y76623D01*
X111951Y67601D01*
X110375Y63797D01*
X107463Y60885D01*
X103659Y59309D01*
X99541Y59309D01*
X95737Y60885D01*
X92825Y63797D01*
X91249Y67601D01*
X91249Y84799D01*
X92825Y88603D01*
X95737Y91515D01*
X99541Y93091D01*
X103659Y93091D01*
X107463Y91515D01*
X108553Y90425D01*
X108569Y90413D01*
X108582Y90398D01*
X108669Y90342D01*
X108753Y90281D01*
X108772Y90276D01*
X108789Y90265D01*
X108889Y90240D01*
X108988Y90209D01*
X109008Y90210D01*
X109027Y90205D01*
X109130Y90213D01*
X109234Y90215D01*
X109253Y90222D01*
X109272Y90224D01*
X109367Y90264D01*
X109465Y90300D01*
X109481Y90312D01*
X109499Y90320D01*
X109630Y90425D01*
X131950Y112746D01*
X131992Y112804D01*
X132042Y112856D01*
X132064Y112903D01*
X132094Y112945D01*
X132115Y113014D01*
X132145Y113079D01*
X132151Y113131D01*
X132166Y113181D01*
X132164Y113252D01*
X132172Y113323D01*
X132161Y113374D01*
X132160Y113426D01*
X132135Y113494D01*
X132120Y113564D01*
X132093Y113608D01*
X132076Y113657D01*
X132031Y113713D01*
X131994Y113775D01*
X131954Y113809D01*
X131922Y113849D01*
X131862Y113888D01*
X131807Y113935D01*
X131759Y113954D01*
X131715Y113982D01*
X131645Y114000D01*
X131579Y114027D01*
X131508Y114035D01*
X131476Y114043D01*
X131453Y114041D01*
X131412Y114045D01*
X130306Y114045D01*
X124205Y120146D01*
X124205Y128774D01*
X130306Y134875D01*
X138934Y134875D01*
X145035Y128774D01*
X145035Y120146D01*
X144171Y119282D01*
X144129Y119224D01*
X144080Y119172D01*
X144058Y119125D01*
X144027Y119083D01*
X144006Y119014D01*
X143976Y118949D01*
X143970Y118897D01*
X143955Y118847D01*
X143957Y118776D01*
X143949Y118705D01*
X143960Y118654D01*
X143961Y118602D01*
X143986Y118534D01*
X144001Y118464D01*
X144028Y118419D01*
X144046Y118371D01*
X144091Y118315D01*
X144127Y118253D01*
X144167Y118219D01*
X144200Y118179D01*
X144260Y118140D01*
X144314Y118093D01*
X144363Y118074D01*
X144406Y118046D01*
X144476Y118028D01*
X144542Y118001D01*
X144614Y117993D01*
X144645Y117985D01*
X144668Y117987D01*
X144709Y117983D01*
X411365Y117983D01*
X411436Y117994D01*
X411509Y117996D01*
X411557Y118014D01*
X411608Y118022D01*
X411672Y118056D01*
X411740Y118081D01*
X411780Y118113D01*
X411825Y118138D01*
X411875Y118190D01*
X411931Y118235D01*
X411959Y118279D01*
X411995Y118316D01*
X412025Y118381D01*
X412064Y118442D01*
X412077Y118492D01*
X412098Y118539D01*
X412106Y118611D01*
X412124Y118681D01*
X412120Y118732D01*
X412125Y118783D01*
X412114Y118835D01*
X412114Y134928D01*
X414347Y137161D01*
X423853Y137161D01*
X424912Y136102D01*
X424928Y136091D01*
X424940Y136075D01*
X425028Y136019D01*
X425111Y135959D01*
X425130Y135953D01*
X425147Y135942D01*
X425248Y135917D01*
X425347Y135887D01*
X425366Y135887D01*
X425386Y135882D01*
X425489Y135890D01*
X425592Y135893D01*
X425611Y135900D01*
X425631Y135901D01*
X425726Y135942D01*
X425823Y135977D01*
X425839Y135990D01*
X425857Y135998D01*
X425988Y136102D01*
X427047Y137161D01*
X436553Y137161D01*
X438786Y134928D01*
X438786Y119072D01*
X438106Y118392D01*
X438080Y118355D01*
X438046Y118324D01*
X438008Y118256D01*
X437963Y118193D01*
X437949Y118149D01*
X437927Y118108D01*
X437913Y118032D01*
X437891Y117957D01*
X437892Y117912D01*
X437884Y117866D01*
X437895Y117789D01*
X437897Y117712D01*
X437913Y117668D01*
X437919Y117623D01*
X437955Y117554D01*
X437981Y117481D01*
X438010Y117445D01*
X438031Y117404D01*
X438086Y117349D01*
X438135Y117289D01*
X438174Y117264D01*
X438207Y117232D01*
X438326Y117166D01*
X438342Y117156D01*
X438347Y117154D01*
X438354Y117151D01*
X438399Y117132D01*
X473011Y82520D01*
X473085Y82467D01*
X473155Y82407D01*
X473185Y82395D01*
X473211Y82376D01*
X473298Y82349D01*
X473383Y82315D01*
X473424Y82311D01*
X473446Y82304D01*
X473478Y82305D01*
X473549Y82297D01*
X480686Y82297D01*
X480803Y82316D01*
X480923Y82335D01*
X480925Y82336D01*
X480928Y82336D01*
X481033Y82392D01*
X481141Y82448D01*
X481143Y82450D01*
X481146Y82452D01*
X481228Y82538D01*
X481312Y82625D01*
X481313Y82628D01*
X481315Y82630D01*
X481365Y82738D01*
X481417Y82847D01*
X481418Y82850D01*
X481419Y82853D01*
X481432Y82970D01*
X481446Y83091D01*
X481446Y83094D01*
X481446Y83097D01*
X481421Y83214D01*
X481396Y83332D01*
X481394Y83335D01*
X481394Y83338D01*
X481388Y83347D01*
X481319Y83481D01*
X480592Y84568D01*
X479903Y86233D01*
X479675Y87377D01*
X494538Y87377D01*
X494558Y87380D01*
X494577Y87378D01*
X494679Y87400D01*
X494781Y87417D01*
X494798Y87426D01*
X494818Y87430D01*
X494907Y87483D01*
X494998Y87532D01*
X495012Y87546D01*
X495029Y87556D01*
X495096Y87635D01*
X495167Y87710D01*
X495176Y87728D01*
X495189Y87743D01*
X495227Y87839D01*
X495271Y87933D01*
X495273Y87953D01*
X495281Y87971D01*
X495299Y88138D01*
X495299Y88901D01*
X495301Y88901D01*
X495301Y88138D01*
X495304Y88118D01*
X495302Y88099D01*
X495324Y87997D01*
X495341Y87895D01*
X495350Y87878D01*
X495354Y87858D01*
X495407Y87769D01*
X495456Y87678D01*
X495470Y87664D01*
X495480Y87647D01*
X495559Y87580D01*
X495634Y87509D01*
X495652Y87500D01*
X495667Y87487D01*
X495763Y87448D01*
X495857Y87405D01*
X495877Y87403D01*
X495895Y87395D01*
X496062Y87377D01*
X510925Y87377D01*
X510697Y86233D01*
X510008Y84568D01*
X509281Y83481D01*
X509232Y83372D01*
X509181Y83263D01*
X509181Y83260D01*
X509180Y83257D01*
X509167Y83137D01*
X509154Y83019D01*
X509155Y83015D01*
X509154Y83012D01*
X509181Y82896D01*
X509206Y82778D01*
X509208Y82775D01*
X509209Y82772D01*
X509271Y82670D01*
X509333Y82567D01*
X509335Y82565D01*
X509337Y82562D01*
X509428Y82485D01*
X509519Y82407D01*
X509522Y82406D01*
X509525Y82404D01*
X509635Y82360D01*
X509748Y82315D01*
X509751Y82315D01*
X509754Y82314D01*
X509764Y82313D01*
X509914Y82297D01*
X657670Y82297D01*
X657690Y82300D01*
X657709Y82298D01*
X657811Y82320D01*
X657913Y82336D01*
X657930Y82346D01*
X657950Y82350D01*
X658039Y82403D01*
X658130Y82452D01*
X658144Y82466D01*
X658161Y82476D01*
X658228Y82555D01*
X658300Y82630D01*
X658308Y82648D01*
X658321Y82663D01*
X658360Y82759D01*
X658403Y82853D01*
X658405Y82873D01*
X658413Y82891D01*
X658431Y83058D01*
X658431Y90768D01*
X658428Y90788D01*
X658430Y90807D01*
X658408Y90909D01*
X658392Y91011D01*
X658382Y91028D01*
X658378Y91048D01*
X658325Y91137D01*
X658276Y91228D01*
X658262Y91242D01*
X658252Y91259D01*
X658173Y91326D01*
X658098Y91398D01*
X658080Y91406D01*
X658065Y91419D01*
X657969Y91458D01*
X657875Y91501D01*
X657855Y91503D01*
X657837Y91511D01*
X657670Y91529D01*
X657442Y91529D01*
X655209Y93762D01*
X655209Y116918D01*
X657442Y119151D01*
X670598Y119151D01*
X670982Y118767D01*
X670998Y118756D01*
X671010Y118740D01*
X671097Y118684D01*
X671181Y118624D01*
X671200Y118618D01*
X671217Y118607D01*
X671318Y118582D01*
X671417Y118552D01*
X671436Y118552D01*
X671456Y118547D01*
X671559Y118555D01*
X671662Y118558D01*
X671681Y118565D01*
X671701Y118566D01*
X671796Y118607D01*
X671893Y118642D01*
X671909Y118655D01*
X671927Y118663D01*
X672058Y118767D01*
X672442Y119151D01*
X685598Y119151D01*
X686994Y117755D01*
X687029Y117730D01*
X687059Y117697D01*
X687129Y117658D01*
X687193Y117612D01*
X687235Y117599D01*
X687274Y117578D01*
X687352Y117563D01*
X687429Y117540D01*
X687472Y117541D01*
X687516Y117533D01*
X687595Y117544D01*
X687674Y117546D01*
X687716Y117561D01*
X687759Y117567D01*
X687892Y117625D01*
X687905Y117630D01*
X687908Y117632D01*
X687913Y117634D01*
X688039Y117708D01*
X688686Y117881D01*
X692497Y117881D01*
X692497Y106102D01*
X692500Y106082D01*
X692498Y106063D01*
X692520Y105961D01*
X692537Y105859D01*
X692546Y105842D01*
X692550Y105822D01*
X692603Y105733D01*
X692652Y105642D01*
X692666Y105628D01*
X692676Y105611D01*
X692755Y105544D01*
X692830Y105473D01*
X692848Y105464D01*
X692863Y105451D01*
X692959Y105412D01*
X693053Y105369D01*
X693073Y105367D01*
X693091Y105359D01*
X693258Y105341D01*
X694782Y105341D01*
X694802Y105344D01*
X694821Y105342D01*
X694923Y105364D01*
X695025Y105381D01*
X695042Y105390D01*
X695062Y105394D01*
X695151Y105447D01*
X695242Y105496D01*
X695256Y105510D01*
X695273Y105520D01*
X695340Y105599D01*
X695411Y105674D01*
X695420Y105692D01*
X695433Y105707D01*
X695472Y105803D01*
X695515Y105897D01*
X695517Y105917D01*
X695525Y105935D01*
X695543Y106102D01*
X695543Y117881D01*
X699354Y117881D01*
X700001Y117708D01*
X700127Y117634D01*
X700168Y117619D01*
X700205Y117595D01*
X700283Y117576D01*
X700357Y117547D01*
X700401Y117546D01*
X700444Y117535D01*
X700523Y117541D01*
X700603Y117538D01*
X700645Y117551D01*
X700689Y117554D01*
X700762Y117586D01*
X700839Y117608D01*
X700875Y117633D01*
X700915Y117651D01*
X701029Y117741D01*
X701040Y117750D01*
X701042Y117752D01*
X701046Y117755D01*
X702442Y119151D01*
X715598Y119151D01*
X715982Y118767D01*
X715998Y118756D01*
X716010Y118740D01*
X716097Y118684D01*
X716181Y118624D01*
X716200Y118618D01*
X716217Y118607D01*
X716318Y118582D01*
X716417Y118552D01*
X716436Y118552D01*
X716456Y118547D01*
X716559Y118555D01*
X716662Y118558D01*
X716681Y118565D01*
X716701Y118566D01*
X716796Y118607D01*
X716893Y118642D01*
X716909Y118655D01*
X716927Y118663D01*
X717058Y118767D01*
X717442Y119151D01*
X730598Y119151D01*
X730982Y118767D01*
X730998Y118756D01*
X731010Y118740D01*
X731097Y118684D01*
X731181Y118624D01*
X731200Y118618D01*
X731217Y118607D01*
X731318Y118582D01*
X731417Y118552D01*
X731436Y118552D01*
X731456Y118547D01*
X731559Y118555D01*
X731662Y118558D01*
X731681Y118565D01*
X731701Y118566D01*
X731796Y118607D01*
X731893Y118642D01*
X731909Y118655D01*
X731927Y118663D01*
X732058Y118767D01*
X732442Y119151D01*
X745598Y119151D01*
X745982Y118767D01*
X745998Y118756D01*
X746010Y118740D01*
X746097Y118684D01*
X746181Y118624D01*
X746200Y118618D01*
X746217Y118607D01*
X746318Y118582D01*
X746417Y118552D01*
X746436Y118552D01*
X746456Y118547D01*
X746559Y118555D01*
X746662Y118558D01*
X746681Y118565D01*
X746701Y118566D01*
X746796Y118607D01*
X746893Y118642D01*
X746909Y118655D01*
X746927Y118663D01*
X747058Y118767D01*
X747442Y119151D01*
X760598Y119151D01*
X760982Y118767D01*
X760998Y118756D01*
X761010Y118740D01*
X761097Y118684D01*
X761181Y118624D01*
X761200Y118618D01*
X761217Y118607D01*
X761318Y118582D01*
X761417Y118552D01*
X761436Y118552D01*
X761456Y118547D01*
X761559Y118555D01*
X761662Y118558D01*
X761681Y118565D01*
X761701Y118566D01*
X761796Y118607D01*
X761893Y118642D01*
X761909Y118655D01*
X761927Y118663D01*
X762058Y118767D01*
X762442Y119151D01*
X775598Y119151D01*
X775982Y118767D01*
X775998Y118756D01*
X776010Y118740D01*
X776097Y118684D01*
X776181Y118624D01*
X776200Y118618D01*
X776217Y118607D01*
X776318Y118582D01*
X776417Y118552D01*
X776436Y118552D01*
X776456Y118547D01*
X776559Y118555D01*
X776662Y118558D01*
X776681Y118565D01*
X776701Y118566D01*
X776796Y118607D01*
X776893Y118642D01*
X776909Y118655D01*
X776927Y118663D01*
X777058Y118767D01*
X777442Y119151D01*
X783370Y119151D01*
X783441Y119162D01*
X783513Y119164D01*
X783562Y119182D01*
X783613Y119190D01*
X783677Y119224D01*
X783744Y119249D01*
X783785Y119281D01*
X783831Y119306D01*
X783880Y119358D01*
X783936Y119402D01*
X783964Y119446D01*
X784000Y119484D01*
X784030Y119549D01*
X784069Y119609D01*
X784082Y119660D01*
X784104Y119707D01*
X784111Y119778D01*
X784129Y119848D01*
X784125Y119900D01*
X784131Y119951D01*
X784115Y120022D01*
X784110Y120093D01*
X784089Y120141D01*
X784078Y120192D01*
X784042Y120253D01*
X784014Y120319D01*
X783969Y120375D01*
X783952Y120403D01*
X783934Y120418D01*
X783909Y120450D01*
X780353Y124006D01*
X780279Y124059D01*
X780209Y124119D01*
X780179Y124131D01*
X780153Y124150D01*
X780066Y124177D01*
X779981Y124211D01*
X779940Y124215D01*
X779918Y124222D01*
X779886Y124221D01*
X779814Y124229D01*
X554673Y124229D01*
X554583Y124215D01*
X554492Y124207D01*
X554463Y124195D01*
X554431Y124190D01*
X554350Y124147D01*
X554266Y124111D01*
X554234Y124085D01*
X554213Y124074D01*
X554191Y124051D01*
X554135Y124006D01*
X533341Y103212D01*
X531287Y102361D01*
X485100Y102361D01*
X483046Y103212D01*
X481367Y104891D01*
X481366Y104891D01*
X469889Y116368D01*
X468210Y118048D01*
X467359Y120102D01*
X467359Y167550D01*
X467345Y167640D01*
X467337Y167731D01*
X467325Y167761D01*
X467320Y167792D01*
X467277Y167873D01*
X467241Y167957D01*
X467215Y167989D01*
X467204Y168010D01*
X467181Y168032D01*
X467136Y168088D01*
X431104Y204120D01*
X431030Y204173D01*
X430961Y204233D01*
X430930Y204245D01*
X430904Y204264D01*
X430817Y204291D01*
X430732Y204325D01*
X430692Y204329D01*
X430669Y204336D01*
X430637Y204335D01*
X430566Y204343D01*
X324065Y204343D01*
X322011Y205194D01*
X320332Y206873D01*
X320331Y206873D01*
X315013Y212191D01*
X313334Y213871D01*
X313159Y214293D01*
X313135Y214332D01*
X313119Y214375D01*
X313071Y214435D01*
X313030Y214502D01*
X312994Y214531D01*
X312966Y214567D01*
X312900Y214609D01*
X312840Y214658D01*
X312797Y214675D01*
X312759Y214700D01*
X312683Y214719D01*
X312611Y214747D01*
X312565Y214749D01*
X312520Y214760D01*
X312443Y214754D01*
X312365Y214757D01*
X312321Y214744D01*
X312275Y214741D01*
X312204Y214710D01*
X312129Y214689D01*
X312091Y214662D01*
X312049Y214644D01*
X311942Y214559D01*
X311927Y214548D01*
X311924Y214544D01*
X311918Y214540D01*
X310663Y213285D01*
X306859Y211709D01*
X302741Y211709D01*
X298937Y213285D01*
X296025Y216197D01*
X294449Y220001D01*
X294449Y237199D01*
X295869Y240627D01*
X295880Y240671D01*
X295899Y240713D01*
X295907Y240790D01*
X295925Y240866D01*
X295921Y240912D01*
X295926Y240957D01*
X295909Y241034D01*
X295902Y241111D01*
X295884Y241153D01*
X295874Y241198D01*
X295834Y241265D01*
X295802Y241336D01*
X295771Y241370D01*
X295748Y241409D01*
X295688Y241460D01*
X295636Y241517D01*
X295596Y241539D01*
X295561Y241569D01*
X295488Y241598D01*
X295420Y241635D01*
X295375Y241644D01*
X295333Y241661D01*
X295197Y241676D01*
X295178Y241679D01*
X295173Y241678D01*
X295166Y241679D01*
X289034Y241679D01*
X288989Y241672D01*
X288943Y241674D01*
X288868Y241652D01*
X288791Y241640D01*
X288751Y241618D01*
X288707Y241605D01*
X288643Y241561D01*
X288574Y241524D01*
X288543Y241491D01*
X288505Y241465D01*
X288458Y241402D01*
X288405Y241346D01*
X288385Y241304D01*
X288358Y241268D01*
X288334Y241194D01*
X288301Y241123D01*
X288296Y241077D01*
X288282Y241034D01*
X288283Y240956D01*
X288274Y240879D01*
X288284Y240834D01*
X288284Y240788D01*
X288322Y240656D01*
X288326Y240638D01*
X288329Y240634D01*
X288331Y240627D01*
X289751Y237199D01*
X289751Y220001D01*
X288175Y216197D01*
X285263Y213285D01*
X281459Y211709D01*
X277341Y211709D01*
X273537Y213285D01*
X270625Y216197D01*
X269049Y220001D01*
X269049Y237199D01*
X270469Y240627D01*
X270480Y240671D01*
X270499Y240713D01*
X270507Y240790D01*
X270525Y240866D01*
X270521Y240912D01*
X270526Y240957D01*
X270509Y241034D01*
X270502Y241111D01*
X270484Y241153D01*
X270474Y241198D01*
X270434Y241265D01*
X270402Y241336D01*
X270371Y241370D01*
X270348Y241409D01*
X270288Y241460D01*
X270236Y241517D01*
X270196Y241539D01*
X270161Y241569D01*
X270088Y241598D01*
X270020Y241635D01*
X269975Y241644D01*
X269933Y241661D01*
X269797Y241676D01*
X269778Y241679D01*
X269773Y241678D01*
X269766Y241679D01*
X263634Y241679D01*
X263589Y241672D01*
X263543Y241674D01*
X263468Y241652D01*
X263391Y241640D01*
X263351Y241618D01*
X263307Y241605D01*
X263243Y241561D01*
X263174Y241524D01*
X263143Y241491D01*
X263105Y241465D01*
X263058Y241402D01*
X263005Y241346D01*
X262985Y241304D01*
X262958Y241268D01*
X262934Y241194D01*
X262901Y241123D01*
X262896Y241077D01*
X262882Y241034D01*
X262883Y240956D01*
X262874Y240879D01*
X262884Y240834D01*
X262884Y240788D01*
X262922Y240656D01*
X262926Y240638D01*
X262929Y240634D01*
X262931Y240627D01*
X264351Y237199D01*
X264351Y220001D01*
X262775Y216197D01*
X259863Y213285D01*
X256059Y211709D01*
X251941Y211709D01*
X248137Y213285D01*
X245225Y216197D01*
X243649Y220001D01*
X243649Y237199D01*
X245069Y240627D01*
X245080Y240671D01*
X245099Y240713D01*
X245107Y240790D01*
X245125Y240866D01*
X245121Y240912D01*
X245126Y240957D01*
X245109Y241034D01*
X245102Y241111D01*
X245084Y241153D01*
X245074Y241198D01*
X245034Y241265D01*
X245002Y241336D01*
X244971Y241370D01*
X244948Y241409D01*
X244888Y241460D01*
X244836Y241517D01*
X244796Y241539D01*
X244761Y241569D01*
X244688Y241598D01*
X244620Y241635D01*
X244575Y241644D01*
X244533Y241661D01*
X244397Y241676D01*
X244378Y241679D01*
X244373Y241678D01*
X244366Y241679D01*
X238234Y241679D01*
X238189Y241672D01*
X238143Y241674D01*
X238068Y241652D01*
X237991Y241640D01*
X237951Y241618D01*
X237907Y241605D01*
X237843Y241561D01*
X237774Y241524D01*
X237743Y241491D01*
X237705Y241465D01*
X237658Y241402D01*
X237605Y241346D01*
X237585Y241304D01*
X237558Y241268D01*
X237534Y241194D01*
X237501Y241123D01*
X237496Y241077D01*
X237482Y241034D01*
X237483Y240956D01*
X237474Y240879D01*
X237484Y240834D01*
X237484Y240788D01*
X237522Y240656D01*
X237526Y240638D01*
X237529Y240634D01*
X237531Y240627D01*
X238951Y237199D01*
X238951Y220001D01*
X237375Y216197D01*
X234463Y213285D01*
X230659Y211709D01*
X226494Y211709D01*
X226489Y211711D01*
X226375Y211739D01*
X226369Y211739D01*
X226363Y211740D01*
X226246Y211729D01*
X226130Y211720D01*
X226124Y211718D01*
X226118Y211717D01*
X226010Y211669D01*
X225904Y211624D01*
X225898Y211619D01*
X225893Y211617D01*
X225879Y211604D01*
X225773Y211519D01*
X215362Y201108D01*
X215309Y201034D01*
X215249Y200965D01*
X215237Y200934D01*
X215218Y200908D01*
X215191Y200821D01*
X215157Y200736D01*
X215153Y200696D01*
X215146Y200673D01*
X215147Y200641D01*
X215139Y200570D01*
X215139Y163842D01*
X215146Y163799D01*
X215144Y163756D01*
X215165Y163678D01*
X215178Y163599D01*
X215199Y163561D01*
X215210Y163519D01*
X215256Y163453D01*
X215294Y163382D01*
X215325Y163352D01*
X215349Y163316D01*
X215463Y163221D01*
X215472Y163212D01*
X215475Y163211D01*
X215478Y163208D01*
X217002Y162192D01*
X217110Y162143D01*
X217219Y162093D01*
X217223Y162092D01*
X217226Y162091D01*
X217345Y162079D01*
X217463Y162065D01*
X217467Y162066D01*
X217470Y162066D01*
X217587Y162092D01*
X217704Y162118D01*
X217707Y162120D01*
X217710Y162120D01*
X217812Y162182D01*
X217915Y162244D01*
X217917Y162247D01*
X217920Y162248D01*
X217997Y162340D01*
X218075Y162431D01*
X218076Y162434D01*
X218078Y162437D01*
X218122Y162547D01*
X218167Y162659D01*
X218167Y162663D01*
X218168Y162666D01*
X218169Y162678D01*
X218185Y162826D01*
X218185Y168144D01*
X224286Y174245D01*
X232914Y174245D01*
X239015Y168144D01*
X239015Y159516D01*
X232914Y153415D01*
X232682Y153415D01*
X232658Y153411D01*
X232635Y153414D01*
X232537Y153392D01*
X232439Y153376D01*
X232418Y153365D01*
X232395Y153359D01*
X232310Y153307D01*
X232221Y153260D01*
X232205Y153244D01*
X232185Y153231D01*
X232121Y153154D01*
X232052Y153082D01*
X232042Y153061D01*
X232027Y153043D01*
X231991Y152950D01*
X231948Y152859D01*
X231946Y152836D01*
X231937Y152814D01*
X231932Y152714D01*
X231921Y152615D01*
X231926Y152592D01*
X231925Y152568D01*
X231952Y152472D01*
X231974Y152374D01*
X231986Y152354D01*
X231992Y152332D01*
X232048Y152249D01*
X232100Y152163D01*
X232118Y152148D01*
X232131Y152128D01*
X232259Y152021D01*
X248674Y141078D01*
X248736Y141050D01*
X248793Y141013D01*
X248847Y140999D01*
X248898Y140976D01*
X248966Y140969D01*
X249032Y140953D01*
X249087Y140957D01*
X249142Y140951D01*
X249209Y140966D01*
X249277Y140972D01*
X249328Y140993D01*
X249382Y141006D01*
X249440Y141041D01*
X249503Y141068D01*
X249564Y141117D01*
X249592Y141134D01*
X249606Y141150D01*
X249634Y141173D01*
X249686Y141225D01*
X258314Y141225D01*
X264415Y135124D01*
X264415Y126496D01*
X258314Y120395D01*
X249686Y120395D01*
X243585Y126496D01*
X243585Y130629D01*
X243578Y130672D01*
X243580Y130715D01*
X243559Y130792D01*
X243546Y130872D01*
X243525Y130910D01*
X243514Y130951D01*
X243468Y131018D01*
X243430Y131089D01*
X243399Y131119D01*
X243375Y131154D01*
X243261Y131250D01*
X243252Y131258D01*
X243249Y131260D01*
X243246Y131262D01*
X206967Y155448D01*
X206945Y155458D01*
X206837Y155518D01*
X206384Y155705D01*
X206043Y156047D01*
X206024Y156060D01*
X205927Y156142D01*
X205525Y156410D01*
X205253Y156817D01*
X205236Y156834D01*
X205158Y156931D01*
X204812Y157278D01*
X204627Y157724D01*
X204615Y157744D01*
X204557Y157856D01*
X204288Y158257D01*
X204192Y158737D01*
X204183Y158760D01*
X204149Y158879D01*
X203961Y159332D01*
X203961Y159815D01*
X203958Y159837D01*
X203946Y159964D01*
X203852Y160437D01*
X203947Y160918D01*
X203948Y160942D01*
X203961Y161065D01*
X203961Y204312D01*
X204812Y206366D01*
X218026Y219580D01*
X218079Y219654D01*
X218139Y219723D01*
X218151Y219754D01*
X218170Y219780D01*
X218197Y219867D01*
X218231Y219952D01*
X218235Y219992D01*
X218242Y220015D01*
X218241Y220047D01*
X218249Y220118D01*
X218249Y237199D01*
X219669Y240627D01*
X219680Y240671D01*
X219699Y240713D01*
X219707Y240790D01*
X219725Y240866D01*
X219721Y240912D01*
X219726Y240957D01*
X219709Y241034D01*
X219702Y241111D01*
X219684Y241153D01*
X219674Y241198D01*
X219634Y241265D01*
X219602Y241336D01*
X219571Y241370D01*
X219548Y241409D01*
X219488Y241460D01*
X219436Y241517D01*
X219396Y241539D01*
X219361Y241569D01*
X219288Y241598D01*
X219220Y241635D01*
X219175Y241644D01*
X219133Y241661D01*
X218997Y241676D01*
X218978Y241679D01*
X218973Y241678D01*
X218966Y241679D01*
X212834Y241679D01*
X212789Y241672D01*
X212743Y241674D01*
X212668Y241652D01*
X212591Y241640D01*
X212551Y241618D01*
X212507Y241605D01*
X212443Y241561D01*
X212374Y241524D01*
X212343Y241491D01*
X212305Y241465D01*
X212258Y241402D01*
X212205Y241346D01*
X212185Y241304D01*
X212158Y241268D01*
X212134Y241194D01*
X212101Y241123D01*
X212096Y241077D01*
X212082Y241034D01*
X212083Y240956D01*
X212074Y240879D01*
X212084Y240834D01*
X212084Y240788D01*
X212122Y240656D01*
X212126Y240638D01*
X212129Y240634D01*
X212131Y240627D01*
X213551Y237199D01*
X213551Y220001D01*
X211975Y216197D01*
X209063Y213285D01*
X205259Y211709D01*
X201141Y211709D01*
X197337Y213285D01*
X194425Y216197D01*
X192849Y220001D01*
X192849Y237199D01*
X194269Y240627D01*
X194280Y240671D01*
X194299Y240713D01*
X194307Y240790D01*
X194325Y240866D01*
X194321Y240912D01*
X194326Y240957D01*
X194309Y241034D01*
X194302Y241111D01*
X194284Y241153D01*
X194274Y241198D01*
X194234Y241265D01*
X194202Y241336D01*
X194171Y241370D01*
X194148Y241409D01*
X194088Y241460D01*
X194036Y241517D01*
X193996Y241539D01*
X193961Y241569D01*
X193888Y241598D01*
X193820Y241635D01*
X193775Y241644D01*
X193733Y241661D01*
X193597Y241676D01*
X193578Y241679D01*
X193573Y241678D01*
X193566Y241679D01*
X187434Y241679D01*
X187389Y241672D01*
X187343Y241674D01*
X187268Y241652D01*
X187191Y241640D01*
X187151Y241618D01*
X187107Y241605D01*
X187043Y241561D01*
X186974Y241524D01*
X186943Y241491D01*
X186905Y241465D01*
X186858Y241402D01*
X186805Y241346D01*
X186785Y241304D01*
X186758Y241268D01*
X186734Y241194D01*
X186701Y241123D01*
X186696Y241077D01*
X186682Y241034D01*
X186683Y240956D01*
X186674Y240879D01*
X186684Y240834D01*
X186684Y240788D01*
X186722Y240656D01*
X186726Y240638D01*
X186729Y240634D01*
X186731Y240627D01*
X188151Y237199D01*
X188151Y220001D01*
X186575Y216197D01*
X183663Y213285D01*
X179859Y211709D01*
X175741Y211709D01*
X171937Y213285D01*
X171701Y213521D01*
X171685Y213532D01*
X171672Y213548D01*
X171585Y213604D01*
X171501Y213664D01*
X171482Y213670D01*
X171466Y213681D01*
X171365Y213706D01*
X171266Y213737D01*
X171246Y213736D01*
X171227Y213741D01*
X171124Y213733D01*
X171020Y213730D01*
X171002Y213723D01*
X170982Y213722D01*
X170887Y213681D01*
X170789Y213646D01*
X170774Y213633D01*
X170755Y213626D01*
X170624Y213521D01*
X162298Y205194D01*
X161634Y204919D01*
X161551Y204868D01*
X161490Y204835D01*
X161480Y204835D01*
X161448Y204826D01*
X161429Y204825D01*
X161399Y204812D01*
X161319Y204789D01*
X160244Y204343D01*
X120865Y204343D01*
X118811Y205194D01*
X117132Y206873D01*
X117131Y206873D01*
X111813Y212191D01*
X110134Y213871D01*
X109959Y214293D01*
X109935Y214332D01*
X109919Y214375D01*
X109871Y214436D01*
X109830Y214502D01*
X109794Y214531D01*
X109766Y214567D01*
X109700Y214609D01*
X109640Y214658D01*
X109597Y214675D01*
X109559Y214700D01*
X109483Y214719D01*
X109411Y214747D01*
X109365Y214749D01*
X109320Y214760D01*
X109243Y214754D01*
X109165Y214757D01*
X109121Y214744D01*
X109075Y214741D01*
X109003Y214710D01*
X108929Y214689D01*
X108891Y214662D01*
X108849Y214644D01*
X108742Y214559D01*
X108727Y214548D01*
X108724Y214544D01*
X108718Y214540D01*
X107463Y213285D01*
X103659Y211709D01*
X99541Y211709D01*
X95737Y213285D01*
X92825Y216197D01*
X91249Y220001D01*
X91249Y237199D01*
X92825Y241003D01*
X95737Y243915D01*
X99541Y245491D01*
X103659Y245491D01*
X107463Y243915D01*
X107984Y243394D01*
X108042Y243353D01*
X108094Y243303D01*
X108141Y243281D01*
X108183Y243251D01*
X108252Y243230D01*
X108317Y243200D01*
X108369Y243194D01*
X108419Y243179D01*
X108490Y243180D01*
X108561Y243172D01*
X108612Y243184D01*
X108664Y243185D01*
X108732Y243209D01*
X108802Y243225D01*
X108847Y243251D01*
X108895Y243269D01*
X108951Y243314D01*
X109013Y243351D01*
X109047Y243390D01*
X109087Y243423D01*
X109126Y243483D01*
X109173Y243538D01*
X109192Y243586D01*
X109220Y243630D01*
X109238Y243699D01*
X109265Y243766D01*
X109273Y243837D01*
X109281Y243868D01*
X109279Y243892D01*
X109283Y243933D01*
X109283Y255146D01*
X110134Y257200D01*
X111813Y258879D01*
X139330Y286396D01*
X141009Y288075D01*
X142384Y288644D01*
X142423Y288668D01*
X142466Y288684D01*
X142527Y288733D01*
X142593Y288774D01*
X142622Y288809D01*
X142658Y288838D01*
X142700Y288903D01*
X142750Y288963D01*
X142766Y289006D01*
X142791Y289045D01*
X142810Y289120D01*
X142838Y289193D01*
X142840Y289239D01*
X142851Y289283D01*
X142845Y289361D01*
X142848Y289439D01*
X142835Y289483D01*
X142832Y289529D01*
X142801Y289600D01*
X142780Y289675D01*
X142753Y289713D01*
X142735Y289755D01*
X142650Y289862D01*
X142639Y289877D01*
X142635Y289880D01*
X142631Y289886D01*
X139064Y293452D01*
X139064Y296927D01*
X150368Y296927D01*
X150388Y296930D01*
X150407Y296928D01*
X150509Y296950D01*
X150611Y296967D01*
X150628Y296976D01*
X150648Y296980D01*
X150737Y297033D01*
X150828Y297082D01*
X150842Y297096D01*
X150859Y297106D01*
X150926Y297185D01*
X150997Y297260D01*
X151006Y297278D01*
X151019Y297293D01*
X151057Y297389D01*
X151101Y297483D01*
X151103Y297503D01*
X151111Y297521D01*
X151129Y297688D01*
X151129Y298451D01*
X151131Y298451D01*
X151131Y297688D01*
X151134Y297668D01*
X151132Y297649D01*
X151154Y297547D01*
X151171Y297445D01*
X151180Y297428D01*
X151184Y297408D01*
X151237Y297319D01*
X151286Y297228D01*
X151300Y297214D01*
X151310Y297197D01*
X151389Y297130D01*
X151464Y297059D01*
X151482Y297050D01*
X151497Y297037D01*
X151593Y296998D01*
X151687Y296955D01*
X151707Y296953D01*
X151725Y296945D01*
X151892Y296927D01*
X163196Y296927D01*
X163196Y293452D01*
X159969Y290225D01*
X159927Y290167D01*
X159878Y290115D01*
X159856Y290068D01*
X159825Y290026D01*
X159804Y289957D01*
X159774Y289892D01*
X159768Y289840D01*
X159753Y289790D01*
X159755Y289719D01*
X159747Y289648D01*
X159758Y289597D01*
X159759Y289545D01*
X159784Y289477D01*
X159799Y289407D01*
X159826Y289362D01*
X159844Y289314D01*
X159889Y289258D01*
X159925Y289196D01*
X159965Y289162D01*
X159997Y289122D01*
X160058Y289083D01*
X160112Y289036D01*
X160161Y289017D01*
X160204Y288989D01*
X160274Y288971D01*
X160340Y288944D01*
X160412Y288936D01*
X160443Y288928D01*
X160466Y288930D01*
X160507Y288926D01*
X162814Y288926D01*
X162904Y288940D01*
X162995Y288948D01*
X163024Y288960D01*
X163056Y288965D01*
X163137Y289008D01*
X163221Y289044D01*
X163253Y289070D01*
X163274Y289081D01*
X163296Y289104D01*
X163352Y289149D01*
X192504Y318301D01*
X194558Y319152D01*
X242443Y319152D01*
X242463Y319155D01*
X242482Y319153D01*
X242584Y319175D01*
X242686Y319191D01*
X242703Y319201D01*
X242723Y319205D01*
X242812Y319258D01*
X242903Y319307D01*
X242917Y319321D01*
X242934Y319331D01*
X243001Y319410D01*
X243073Y319485D01*
X243081Y319503D01*
X243094Y319518D01*
X243133Y319614D01*
X243176Y319708D01*
X243178Y319728D01*
X243186Y319746D01*
X243204Y319913D01*
X243204Y323963D01*
X245235Y328864D01*
X248986Y332615D01*
X253887Y334646D01*
X259193Y334646D01*
X264094Y332615D01*
X267845Y328864D01*
X268465Y327369D01*
X268527Y327269D01*
X268586Y327169D01*
X268591Y327165D01*
X268594Y327160D01*
X268685Y327085D01*
X268773Y327009D01*
X268779Y327007D01*
X268784Y327003D01*
X268893Y326961D01*
X269001Y326917D01*
X269009Y326916D01*
X269014Y326915D01*
X269032Y326914D01*
X269168Y326899D01*
X341442Y326899D01*
X341556Y326918D01*
X341673Y326935D01*
X341678Y326937D01*
X341684Y326938D01*
X341787Y326993D01*
X341892Y327046D01*
X341896Y327051D01*
X341902Y327054D01*
X341982Y327138D01*
X342064Y327222D01*
X342068Y327228D01*
X342071Y327232D01*
X342079Y327249D01*
X342145Y327369D01*
X343370Y330325D01*
X346585Y333540D01*
X350786Y335281D01*
X355334Y335281D01*
X359535Y333540D01*
X362750Y330325D01*
X364491Y326124D01*
X364491Y306336D01*
X362750Y302135D01*
X360366Y299750D01*
X360324Y299692D01*
X360275Y299640D01*
X360253Y299593D01*
X360222Y299551D01*
X360201Y299482D01*
X360171Y299417D01*
X360165Y299365D01*
X360150Y299315D01*
X360152Y299244D01*
X360144Y299173D01*
X360155Y299122D01*
X360156Y299070D01*
X360181Y299002D01*
X360196Y298932D01*
X360223Y298887D01*
X360241Y298839D01*
X360286Y298783D01*
X360322Y298721D01*
X360362Y298687D01*
X360394Y298647D01*
X360455Y298608D01*
X360509Y298561D01*
X360557Y298542D01*
X360601Y298514D01*
X360671Y298496D01*
X360737Y298469D01*
X360809Y298461D01*
X360840Y298453D01*
X360863Y298455D01*
X360904Y298451D01*
X370616Y298451D01*
X370687Y298462D01*
X370758Y298464D01*
X370807Y298482D01*
X370859Y298490D01*
X370922Y298524D01*
X370989Y298549D01*
X371030Y298581D01*
X371076Y298606D01*
X371125Y298658D01*
X371181Y298702D01*
X371210Y298746D01*
X371245Y298784D01*
X371276Y298849D01*
X371314Y298909D01*
X371327Y298960D01*
X371349Y299007D01*
X371357Y299078D01*
X371375Y299148D01*
X371370Y299200D01*
X371376Y299251D01*
X371361Y299322D01*
X371355Y299393D01*
X371335Y299441D01*
X371324Y299492D01*
X371287Y299553D01*
X371259Y299619D01*
X371214Y299675D01*
X371198Y299703D01*
X371180Y299718D01*
X371154Y299750D01*
X368770Y302135D01*
X367029Y306336D01*
X367029Y326124D01*
X368770Y330325D01*
X371985Y333540D01*
X376186Y335281D01*
X380734Y335281D01*
X384935Y333540D01*
X388150Y330325D01*
X389891Y326124D01*
X389891Y306336D01*
X388150Y302135D01*
X385766Y299750D01*
X385724Y299692D01*
X385675Y299640D01*
X385653Y299593D01*
X385622Y299551D01*
X385601Y299482D01*
X385571Y299417D01*
X385565Y299365D01*
X385550Y299315D01*
X385552Y299244D01*
X385544Y299173D01*
X385555Y299122D01*
X385556Y299070D01*
X385581Y299002D01*
X385596Y298932D01*
X385623Y298887D01*
X385641Y298839D01*
X385686Y298783D01*
X385722Y298721D01*
X385762Y298687D01*
X385794Y298647D01*
X385855Y298608D01*
X385909Y298561D01*
X385957Y298542D01*
X386001Y298514D01*
X386071Y298496D01*
X386137Y298469D01*
X386209Y298461D01*
X386240Y298453D01*
X386263Y298455D01*
X386304Y298451D01*
X396016Y298451D01*
X396087Y298462D01*
X396158Y298464D01*
X396207Y298482D01*
X396259Y298490D01*
X396322Y298524D01*
X396389Y298549D01*
X396430Y298581D01*
X396476Y298606D01*
X396525Y298658D01*
X396581Y298702D01*
X396610Y298746D01*
X396645Y298784D01*
X396676Y298849D01*
X396714Y298909D01*
X396727Y298960D01*
X396749Y299007D01*
X396757Y299078D01*
X396775Y299148D01*
X396770Y299200D01*
X396776Y299251D01*
X396761Y299322D01*
X396755Y299393D01*
X396735Y299441D01*
X396724Y299492D01*
X396687Y299553D01*
X396659Y299619D01*
X396614Y299675D01*
X396598Y299703D01*
X396580Y299718D01*
X396554Y299750D01*
X394170Y302135D01*
X392429Y306336D01*
X392429Y326124D01*
X394170Y330325D01*
X397385Y333540D01*
X401586Y335281D01*
X406134Y335281D01*
X410335Y333540D01*
X413550Y330325D01*
X415291Y326124D01*
X415291Y306336D01*
X413550Y302135D01*
X411166Y299750D01*
X411124Y299692D01*
X411075Y299640D01*
X411053Y299593D01*
X411022Y299551D01*
X411001Y299482D01*
X410971Y299417D01*
X410965Y299365D01*
X410950Y299315D01*
X410952Y299244D01*
X410944Y299173D01*
X410955Y299122D01*
X410956Y299070D01*
X410981Y299002D01*
X410996Y298932D01*
X411023Y298887D01*
X411041Y298839D01*
X411086Y298783D01*
X411122Y298721D01*
X411162Y298687D01*
X411194Y298647D01*
X411255Y298608D01*
X411309Y298561D01*
X411357Y298542D01*
X411401Y298514D01*
X411471Y298496D01*
X411537Y298469D01*
X411609Y298461D01*
X411640Y298453D01*
X411663Y298455D01*
X411704Y298451D01*
X423647Y298451D01*
X423714Y298462D01*
X423782Y298463D01*
X423835Y298481D01*
X423890Y298490D01*
X423950Y298522D01*
X424014Y298545D01*
X424058Y298579D01*
X424107Y298606D01*
X424154Y298655D01*
X424207Y298697D01*
X424238Y298743D01*
X424276Y298784D01*
X424305Y298845D01*
X424342Y298902D01*
X424357Y298956D01*
X424380Y299007D01*
X424388Y299074D01*
X424405Y299140D01*
X424401Y299196D01*
X424407Y299251D01*
X424393Y299318D01*
X424388Y299385D01*
X424367Y299437D01*
X424355Y299492D01*
X424320Y299550D01*
X424294Y299613D01*
X424257Y299655D01*
X424229Y299703D01*
X424177Y299747D01*
X424133Y299798D01*
X424067Y299841D01*
X424042Y299863D01*
X424022Y299871D01*
X423992Y299890D01*
X423935Y299920D01*
X422641Y300860D01*
X421510Y301991D01*
X420570Y303285D01*
X419844Y304710D01*
X419349Y306231D01*
X419099Y307810D01*
X419099Y314707D01*
X428498Y314707D01*
X428518Y314710D01*
X428537Y314708D01*
X428639Y314730D01*
X428741Y314747D01*
X428758Y314756D01*
X428778Y314760D01*
X428867Y314813D01*
X428958Y314862D01*
X428972Y314876D01*
X428989Y314886D01*
X429056Y314965D01*
X429127Y315040D01*
X429136Y315058D01*
X429149Y315073D01*
X429187Y315169D01*
X429231Y315263D01*
X429233Y315283D01*
X429241Y315301D01*
X429259Y315468D01*
X429259Y316231D01*
X429261Y316231D01*
X429261Y315468D01*
X429264Y315448D01*
X429262Y315429D01*
X429284Y315327D01*
X429301Y315225D01*
X429310Y315208D01*
X429314Y315188D01*
X429367Y315099D01*
X429416Y315008D01*
X429430Y314994D01*
X429440Y314977D01*
X429519Y314910D01*
X429594Y314839D01*
X429612Y314830D01*
X429627Y314817D01*
X429723Y314778D01*
X429817Y314735D01*
X429837Y314733D01*
X429855Y314725D01*
X430022Y314707D01*
X439421Y314707D01*
X439421Y307810D01*
X439171Y306231D01*
X438676Y304710D01*
X437950Y303285D01*
X437010Y301991D01*
X435879Y300860D01*
X434585Y299920D01*
X434528Y299890D01*
X434473Y299850D01*
X434413Y299818D01*
X434374Y299778D01*
X434329Y299745D01*
X434290Y299689D01*
X434244Y299640D01*
X434220Y299589D01*
X434188Y299544D01*
X434169Y299479D01*
X434140Y299417D01*
X434134Y299361D01*
X434118Y299308D01*
X434120Y299240D01*
X434113Y299173D01*
X434125Y299118D01*
X434127Y299062D01*
X434151Y298999D01*
X434165Y298932D01*
X434194Y298884D01*
X434214Y298832D01*
X434256Y298779D01*
X434291Y298721D01*
X434334Y298685D01*
X434369Y298641D01*
X434427Y298605D01*
X434478Y298561D01*
X434530Y298540D01*
X434577Y298510D01*
X434643Y298495D01*
X434706Y298469D01*
X434785Y298461D01*
X434817Y298453D01*
X434837Y298455D01*
X434873Y298451D01*
X439526Y298451D01*
X439617Y298465D01*
X439707Y298473D01*
X439737Y298485D01*
X439769Y298490D01*
X439850Y298533D01*
X439934Y298569D01*
X439966Y298595D01*
X439987Y298606D01*
X440009Y298629D01*
X440065Y298674D01*
X478546Y337155D01*
X478588Y337213D01*
X478637Y337265D01*
X478659Y337312D01*
X478689Y337354D01*
X478710Y337423D01*
X478741Y337488D01*
X478746Y337540D01*
X478762Y337590D01*
X478760Y337661D01*
X478768Y337732D01*
X478757Y337783D01*
X478755Y337835D01*
X478731Y337903D01*
X478715Y337973D01*
X478689Y338018D01*
X478671Y338066D01*
X478626Y338122D01*
X478589Y338184D01*
X478550Y338218D01*
X478517Y338258D01*
X478457Y338297D01*
X478402Y338344D01*
X478354Y338363D01*
X478310Y338391D01*
X478241Y338409D01*
X478174Y338436D01*
X478103Y338444D01*
X478072Y338452D01*
X478048Y338450D01*
X478007Y338454D01*
X242750Y338454D01*
X242660Y338440D01*
X242569Y338432D01*
X242539Y338420D01*
X242507Y338415D01*
X242427Y338372D01*
X242343Y338336D01*
X242311Y338310D01*
X242290Y338299D01*
X242268Y338276D01*
X242212Y338231D01*
X229951Y325970D01*
X227897Y325119D01*
X112728Y325119D01*
X112657Y325108D01*
X112586Y325106D01*
X112537Y325088D01*
X112485Y325080D01*
X112422Y325046D01*
X112355Y325021D01*
X112314Y324989D01*
X112268Y324964D01*
X112218Y324912D01*
X112162Y324868D01*
X112134Y324824D01*
X112098Y324786D01*
X112068Y324721D01*
X112029Y324661D01*
X112017Y324610D01*
X111995Y324563D01*
X111987Y324492D01*
X111969Y324422D01*
X111973Y324370D01*
X111968Y324319D01*
X111983Y324248D01*
X111989Y324177D01*
X112009Y324129D01*
X112020Y324078D01*
X112057Y324017D01*
X112085Y323951D01*
X112130Y323895D01*
X112146Y323867D01*
X112164Y323852D01*
X112190Y323820D01*
X114301Y321709D01*
X114301Y319023D01*
X104902Y319023D01*
X104882Y319020D01*
X104863Y319022D01*
X104761Y319000D01*
X104659Y318983D01*
X104642Y318974D01*
X104622Y318970D01*
X104533Y318917D01*
X104442Y318868D01*
X104428Y318854D01*
X104411Y318844D01*
X104344Y318765D01*
X104273Y318690D01*
X104264Y318672D01*
X104251Y318657D01*
X104213Y318561D01*
X104169Y318467D01*
X104167Y318447D01*
X104159Y318429D01*
X104141Y318262D01*
X104141Y317499D01*
X104139Y317499D01*
X104139Y318262D01*
X104136Y318282D01*
X104138Y318301D01*
X104116Y318403D01*
X104099Y318505D01*
X104090Y318522D01*
X104086Y318542D01*
X104033Y318631D01*
X103984Y318722D01*
X103970Y318736D01*
X103960Y318753D01*
X103881Y318820D01*
X103806Y318891D01*
X103788Y318900D01*
X103773Y318913D01*
X103677Y318952D01*
X103583Y318995D01*
X103563Y318997D01*
X103545Y319005D01*
X103378Y319023D01*
X93979Y319023D01*
X93979Y321709D01*
X96090Y323820D01*
X96132Y323878D01*
X96182Y323930D01*
X96203Y323977D01*
X96234Y324019D01*
X96255Y324088D01*
X96285Y324153D01*
X96291Y324205D01*
X96306Y324255D01*
X96304Y324326D01*
X96312Y324397D01*
X96301Y324448D01*
X96300Y324500D01*
X96275Y324568D01*
X96260Y324638D01*
X96233Y324683D01*
X96215Y324731D01*
X96171Y324787D01*
X96134Y324849D01*
X96094Y324883D01*
X96062Y324923D01*
X96001Y324962D01*
X95947Y325009D01*
X95899Y325028D01*
X95855Y325056D01*
X95785Y325074D01*
X95719Y325101D01*
X95647Y325109D01*
X95616Y325117D01*
X95593Y325115D01*
X95552Y325119D01*
X87328Y325119D01*
X87257Y325108D01*
X87186Y325106D01*
X87137Y325088D01*
X87085Y325080D01*
X87022Y325046D01*
X86955Y325021D01*
X86914Y324989D01*
X86868Y324964D01*
X86818Y324912D01*
X86762Y324868D01*
X86734Y324824D01*
X86698Y324786D01*
X86668Y324721D01*
X86629Y324661D01*
X86617Y324610D01*
X86595Y324563D01*
X86587Y324492D01*
X86569Y324422D01*
X86573Y324370D01*
X86568Y324319D01*
X86583Y324248D01*
X86589Y324177D01*
X86609Y324129D01*
X86620Y324078D01*
X86657Y324017D01*
X86685Y323951D01*
X86730Y323895D01*
X86746Y323867D01*
X86764Y323852D01*
X86790Y323820D01*
X88901Y321709D01*
X88901Y319023D01*
X79502Y319023D01*
X79482Y319020D01*
X79463Y319022D01*
X79361Y319000D01*
X79259Y318983D01*
X79242Y318974D01*
X79222Y318970D01*
X79133Y318917D01*
X79042Y318868D01*
X79028Y318854D01*
X79011Y318844D01*
X78944Y318765D01*
X78873Y318690D01*
X78864Y318672D01*
X78851Y318657D01*
X78813Y318561D01*
X78769Y318467D01*
X78767Y318447D01*
X78759Y318429D01*
X78741Y318262D01*
X78741Y317499D01*
X77978Y317499D01*
X77958Y317496D01*
X77939Y317498D01*
X77837Y317476D01*
X77735Y317459D01*
X77718Y317450D01*
X77698Y317446D01*
X77609Y317393D01*
X77518Y317344D01*
X77504Y317330D01*
X77487Y317320D01*
X77420Y317241D01*
X77349Y317166D01*
X77340Y317148D01*
X77327Y317133D01*
X77288Y317037D01*
X77245Y316943D01*
X77243Y316923D01*
X77235Y316905D01*
X77217Y316738D01*
X77217Y307339D01*
X74531Y307339D01*
X72420Y309450D01*
X72362Y309492D01*
X72310Y309542D01*
X72263Y309563D01*
X72221Y309594D01*
X72152Y309615D01*
X72087Y309645D01*
X72035Y309651D01*
X71985Y309666D01*
X71914Y309664D01*
X71843Y309672D01*
X71792Y309661D01*
X71740Y309660D01*
X71672Y309635D01*
X71602Y309620D01*
X71557Y309593D01*
X71509Y309575D01*
X71453Y309531D01*
X71391Y309494D01*
X71357Y309454D01*
X71317Y309422D01*
X71278Y309361D01*
X71231Y309307D01*
X71212Y309259D01*
X71184Y309215D01*
X71166Y309145D01*
X71139Y309079D01*
X71131Y309007D01*
X71123Y308976D01*
X71125Y308953D01*
X71121Y308912D01*
X71121Y302484D01*
X71132Y302413D01*
X71134Y302342D01*
X71152Y302293D01*
X71160Y302241D01*
X71194Y302178D01*
X71219Y302111D01*
X71251Y302070D01*
X71276Y302024D01*
X71328Y301975D01*
X71372Y301919D01*
X71416Y301890D01*
X71454Y301855D01*
X71519Y301824D01*
X71579Y301786D01*
X71630Y301773D01*
X71677Y301751D01*
X71748Y301743D01*
X71818Y301725D01*
X71870Y301730D01*
X71921Y301724D01*
X71992Y301739D01*
X72063Y301745D01*
X72111Y301765D01*
X72162Y301776D01*
X72223Y301813D01*
X72289Y301841D01*
X72345Y301886D01*
X72373Y301902D01*
X72388Y301920D01*
X72420Y301946D01*
X74005Y303531D01*
X83475Y303531D01*
X90171Y296835D01*
X90171Y287365D01*
X83475Y280669D01*
X74005Y280669D01*
X72420Y282254D01*
X72362Y282296D01*
X72310Y282345D01*
X72263Y282367D01*
X72221Y282398D01*
X72152Y282419D01*
X72087Y282449D01*
X72035Y282455D01*
X71985Y282470D01*
X71914Y282468D01*
X71843Y282476D01*
X71792Y282465D01*
X71740Y282464D01*
X71672Y282439D01*
X71602Y282424D01*
X71557Y282397D01*
X71509Y282379D01*
X71453Y282334D01*
X71391Y282298D01*
X71357Y282258D01*
X71317Y282226D01*
X71278Y282165D01*
X71231Y282111D01*
X71212Y282063D01*
X71184Y282019D01*
X71166Y281949D01*
X71139Y281883D01*
X71131Y281811D01*
X71123Y281780D01*
X71125Y281757D01*
X71121Y281716D01*
X71121Y269043D01*
X71136Y268953D01*
X71143Y268862D01*
X71155Y268832D01*
X71160Y268800D01*
X71203Y268720D01*
X71239Y268636D01*
X71265Y268604D01*
X71276Y268583D01*
X71299Y268561D01*
X71344Y268505D01*
X73915Y265934D01*
X73915Y257306D01*
X67814Y251205D01*
X59186Y251205D01*
X53085Y257306D01*
X53085Y265934D01*
X59187Y272036D01*
X59202Y272038D01*
X59221Y272036D01*
X59323Y272058D01*
X59425Y272074D01*
X59442Y272084D01*
X59462Y272088D01*
X59551Y272141D01*
X59642Y272190D01*
X59656Y272204D01*
X59673Y272214D01*
X59740Y272293D01*
X59812Y272368D01*
X59820Y272386D01*
X59833Y272401D01*
X59872Y272497D01*
X59915Y272591D01*
X59917Y272611D01*
X59925Y272629D01*
X59943Y272796D01*
X59943Y324083D01*
X60794Y326137D01*
X70103Y335446D01*
X72157Y336297D01*
X224155Y336297D01*
X224245Y336311D01*
X224336Y336319D01*
X224365Y336331D01*
X224397Y336336D01*
X224478Y336379D01*
X224562Y336415D01*
X224594Y336441D01*
X224615Y336452D01*
X224637Y336475D01*
X224693Y336520D01*
X233483Y345310D01*
X233525Y345368D01*
X233574Y345420D01*
X233596Y345467D01*
X233627Y345509D01*
X233648Y345578D01*
X233678Y345643D01*
X233684Y345695D01*
X233699Y345745D01*
X233697Y345816D01*
X233705Y345887D01*
X233694Y345938D01*
X233693Y345990D01*
X233668Y346058D01*
X233653Y346128D01*
X233626Y346173D01*
X233608Y346221D01*
X233563Y346277D01*
X233527Y346339D01*
X233487Y346373D01*
X233454Y346413D01*
X233394Y346452D01*
X233340Y346499D01*
X233291Y346518D01*
X233247Y346546D01*
X233178Y346564D01*
X233111Y346591D01*
X233040Y346599D01*
X233009Y346607D01*
X232986Y346605D01*
X232945Y346609D01*
X47031Y346609D01*
X46937Y346594D01*
X46842Y346585D01*
X46816Y346574D01*
X46788Y346570D01*
X46704Y346525D01*
X46617Y346487D01*
X46596Y346468D01*
X46571Y346454D01*
X46505Y346385D01*
X46435Y346321D01*
X46421Y346297D01*
X46401Y346276D01*
X46361Y346190D01*
X46315Y346106D01*
X46310Y346079D01*
X46298Y346053D01*
X46287Y345958D01*
X46270Y345865D01*
X46274Y345837D01*
X46271Y345809D01*
X46291Y345715D01*
X46304Y345621D01*
X46319Y345589D01*
X46323Y345568D01*
X46340Y345540D01*
X46372Y345467D01*
X48846Y341182D01*
X50561Y334782D01*
X50561Y328158D01*
X48846Y321758D01*
X45534Y316021D01*
X40849Y311336D01*
X35112Y308024D01*
X28712Y306309D01*
X22088Y306309D01*
X15688Y308024D01*
X11303Y310556D01*
X11214Y310590D01*
X11127Y310630D01*
X11099Y310633D01*
X11073Y310643D01*
X10977Y310647D01*
X10883Y310657D01*
X10855Y310651D01*
X10827Y310652D01*
X10735Y310625D01*
X10642Y310605D01*
X10618Y310590D01*
X10591Y310582D01*
X10513Y310527D01*
X10431Y310479D01*
X10413Y310457D01*
X10390Y310441D01*
X10333Y310364D01*
X10271Y310292D01*
X10261Y310265D01*
X10244Y310243D01*
X10215Y310152D01*
X10179Y310063D01*
X10175Y310028D01*
X10169Y310008D01*
X10169Y309975D01*
X10161Y309897D01*
X10161Y46973D01*
X10176Y46879D01*
X10185Y46784D01*
X10196Y46758D01*
X10200Y46730D01*
X10245Y46646D01*
X10283Y46559D01*
X10302Y46538D01*
X10316Y46513D01*
X10385Y46448D01*
X10449Y46377D01*
X10473Y46363D01*
X10494Y46344D01*
X10580Y46304D01*
X10664Y46257D01*
X10691Y46252D01*
X10717Y46240D01*
X10812Y46230D01*
X10905Y46212D01*
X10933Y46216D01*
X10961Y46213D01*
X11055Y46233D01*
X11149Y46247D01*
X11181Y46261D01*
X11202Y46265D01*
X11230Y46282D01*
X11303Y46314D01*
X15688Y48846D01*
X22088Y50561D01*
X28712Y50561D01*
X35112Y48846D01*
X40849Y45534D01*
X45534Y40849D01*
X48846Y35112D01*
X50561Y28712D01*
X50561Y22088D01*
X48846Y15688D01*
X46314Y11303D01*
X46280Y11214D01*
X46240Y11127D01*
X46237Y11099D01*
X46227Y11073D01*
X46223Y10977D01*
X46213Y10883D01*
X46219Y10855D01*
X46218Y10827D01*
X46245Y10735D01*
X46265Y10642D01*
X46280Y10618D01*
X46288Y10591D01*
X46343Y10513D01*
X46391Y10431D01*
X46413Y10413D01*
X46429Y10390D01*
X46506Y10333D01*
X46578Y10271D01*
X46605Y10261D01*
X46627Y10244D01*
X46718Y10215D01*
X46807Y10179D01*
X46842Y10175D01*
X46862Y10169D01*
X46895Y10169D01*
X46973Y10161D01*
X202775Y10161D01*
X202799Y10165D01*
G37*
G36*
X527635Y113553D02*
X527635Y113553D01*
X527726Y113561D01*
X527756Y113573D01*
X527788Y113578D01*
X527868Y113621D01*
X527952Y113657D01*
X527984Y113683D01*
X528005Y113694D01*
X528027Y113717D01*
X528083Y113762D01*
X548877Y134556D01*
X550931Y135407D01*
X782114Y135407D01*
X782185Y135418D01*
X782257Y135420D01*
X782306Y135438D01*
X782357Y135446D01*
X782421Y135480D01*
X782488Y135505D01*
X782529Y135537D01*
X782575Y135562D01*
X782624Y135614D01*
X782680Y135658D01*
X782708Y135702D01*
X782744Y135740D01*
X782774Y135805D01*
X782813Y135865D01*
X782826Y135916D01*
X782848Y135963D01*
X782855Y136034D01*
X782873Y136104D01*
X782869Y136156D01*
X782875Y136207D01*
X782859Y136278D01*
X782854Y136349D01*
X782833Y136397D01*
X782822Y136448D01*
X782786Y136509D01*
X782758Y136575D01*
X782713Y136631D01*
X782696Y136659D01*
X782678Y136674D01*
X782653Y136706D01*
X766769Y152590D01*
X766695Y152643D01*
X766625Y152703D01*
X766595Y152715D01*
X766569Y152734D01*
X766482Y152761D01*
X766397Y152795D01*
X766356Y152799D01*
X766334Y152806D01*
X766302Y152805D01*
X766230Y152813D01*
X707164Y152813D01*
X705110Y153664D01*
X605131Y253643D01*
X604280Y255697D01*
X604280Y257921D01*
X604301Y257972D01*
X604316Y258035D01*
X604341Y258096D01*
X604350Y258179D01*
X604357Y258211D01*
X604356Y258230D01*
X604359Y258263D01*
X604359Y286832D01*
X604461Y287078D01*
X604476Y287142D01*
X604501Y287203D01*
X604510Y287286D01*
X604517Y287318D01*
X604516Y287337D01*
X604519Y287369D01*
X604519Y316531D01*
X604505Y316621D01*
X604497Y316712D01*
X604485Y316741D01*
X604480Y316773D01*
X604437Y316854D01*
X604401Y316938D01*
X604375Y316970D01*
X604364Y316991D01*
X604341Y317013D01*
X604296Y317069D01*
X597924Y323441D01*
X597918Y323446D01*
X597913Y323452D01*
X597817Y323518D01*
X597724Y323585D01*
X597717Y323587D01*
X597710Y323592D01*
X597599Y323623D01*
X597489Y323657D01*
X597481Y323657D01*
X597474Y323659D01*
X597358Y323654D01*
X597243Y323651D01*
X597236Y323648D01*
X597228Y323648D01*
X597121Y323606D01*
X597012Y323566D01*
X597006Y323561D01*
X596999Y323558D01*
X596910Y323485D01*
X596820Y323413D01*
X596816Y323406D01*
X596810Y323401D01*
X596750Y323302D01*
X596687Y323206D01*
X596685Y323198D01*
X596681Y323191D01*
X596655Y323079D01*
X596627Y322967D01*
X596628Y322959D01*
X596626Y322951D01*
X596634Y322784D01*
X596741Y322110D01*
X596741Y315213D01*
X587342Y315213D01*
X587322Y315210D01*
X587303Y315212D01*
X587201Y315190D01*
X587099Y315173D01*
X587082Y315164D01*
X587062Y315160D01*
X586973Y315107D01*
X586882Y315058D01*
X586868Y315044D01*
X586851Y315034D01*
X586784Y314955D01*
X586713Y314880D01*
X586704Y314862D01*
X586691Y314847D01*
X586653Y314751D01*
X586609Y314657D01*
X586607Y314637D01*
X586599Y314619D01*
X586581Y314452D01*
X586581Y313689D01*
X586579Y313689D01*
X586579Y314452D01*
X586576Y314472D01*
X586578Y314491D01*
X586556Y314593D01*
X586539Y314695D01*
X586530Y314712D01*
X586526Y314732D01*
X586473Y314821D01*
X586424Y314912D01*
X586410Y314926D01*
X586400Y314943D01*
X586321Y315010D01*
X586246Y315081D01*
X586228Y315090D01*
X586213Y315103D01*
X586117Y315142D01*
X586023Y315185D01*
X586003Y315187D01*
X585985Y315195D01*
X585818Y315213D01*
X576419Y315213D01*
X576419Y322110D01*
X576669Y323689D01*
X577164Y325210D01*
X577890Y326635D01*
X578830Y327929D01*
X579961Y329060D01*
X580332Y329330D01*
X580338Y329336D01*
X580345Y329340D01*
X580424Y329423D01*
X580505Y329505D01*
X580509Y329512D01*
X580514Y329518D01*
X580563Y329623D01*
X580614Y329726D01*
X580615Y329734D01*
X580618Y329741D01*
X580631Y329855D01*
X580646Y329970D01*
X580644Y329978D01*
X580645Y329985D01*
X580621Y330098D01*
X580599Y330211D01*
X580595Y330218D01*
X580593Y330226D01*
X580534Y330324D01*
X580477Y330425D01*
X580471Y330430D01*
X580467Y330437D01*
X580380Y330511D01*
X580293Y330588D01*
X580286Y330592D01*
X580280Y330597D01*
X580172Y330640D01*
X580067Y330685D01*
X580059Y330686D01*
X580052Y330689D01*
X579885Y330707D01*
X569786Y330707D01*
X569715Y330696D01*
X569644Y330694D01*
X569595Y330676D01*
X569543Y330668D01*
X569480Y330634D01*
X569413Y330609D01*
X569372Y330577D01*
X569326Y330552D01*
X569277Y330500D01*
X569221Y330456D01*
X569192Y330412D01*
X569157Y330374D01*
X569126Y330309D01*
X569088Y330249D01*
X569075Y330198D01*
X569053Y330151D01*
X569045Y330080D01*
X569027Y330010D01*
X569032Y329958D01*
X569026Y329907D01*
X569041Y329836D01*
X569047Y329765D01*
X569067Y329717D01*
X569078Y329666D01*
X569115Y329605D01*
X569143Y329539D01*
X569188Y329483D01*
X569204Y329455D01*
X569222Y329440D01*
X569248Y329408D01*
X570870Y327785D01*
X572611Y323584D01*
X572611Y303796D01*
X570870Y299595D01*
X567655Y296380D01*
X563454Y294639D01*
X558906Y294639D01*
X554705Y296380D01*
X551490Y299595D01*
X549749Y303796D01*
X549749Y323584D01*
X551490Y327785D01*
X553112Y329408D01*
X553154Y329466D01*
X553203Y329518D01*
X553225Y329565D01*
X553256Y329607D01*
X553277Y329676D01*
X553307Y329741D01*
X553313Y329793D01*
X553328Y329843D01*
X553326Y329914D01*
X553334Y329985D01*
X553323Y330036D01*
X553322Y330088D01*
X553297Y330156D01*
X553282Y330226D01*
X553255Y330271D01*
X553237Y330319D01*
X553192Y330375D01*
X553156Y330437D01*
X553116Y330471D01*
X553084Y330511D01*
X553023Y330550D01*
X552969Y330597D01*
X552921Y330616D01*
X552877Y330644D01*
X552807Y330662D01*
X552741Y330689D01*
X552669Y330697D01*
X552638Y330705D01*
X552615Y330703D01*
X552574Y330707D01*
X492854Y330707D01*
X492758Y330692D01*
X492661Y330682D01*
X492637Y330672D01*
X492611Y330668D01*
X492525Y330622D01*
X492436Y330582D01*
X492417Y330565D01*
X492394Y330552D01*
X492327Y330482D01*
X492255Y330416D01*
X492243Y330393D01*
X492225Y330374D01*
X492184Y330286D01*
X492137Y330200D01*
X492132Y330175D01*
X492121Y330151D01*
X492110Y330054D01*
X492093Y329958D01*
X492097Y329932D01*
X492094Y329907D01*
X492115Y329811D01*
X492129Y329715D01*
X492141Y329692D01*
X492146Y329666D01*
X492196Y329583D01*
X492240Y329496D01*
X492259Y329477D01*
X492272Y329455D01*
X492346Y329392D01*
X492416Y329324D01*
X492444Y329308D01*
X492459Y329295D01*
X492490Y329283D01*
X492563Y329243D01*
X495544Y328008D01*
X498188Y325364D01*
X499619Y321910D01*
X499619Y318170D01*
X498188Y314716D01*
X495544Y312072D01*
X492090Y310641D01*
X489040Y310641D01*
X488950Y310627D01*
X488859Y310619D01*
X488829Y310607D01*
X488797Y310602D01*
X488717Y310559D01*
X488633Y310523D01*
X488601Y310497D01*
X488580Y310486D01*
X488558Y310463D01*
X488502Y310418D01*
X474442Y296358D01*
X474389Y296284D01*
X474329Y296215D01*
X474317Y296184D01*
X474298Y296158D01*
X474271Y296071D01*
X474237Y295986D01*
X474233Y295946D01*
X474226Y295923D01*
X474227Y295891D01*
X474219Y295820D01*
X474219Y292770D01*
X472788Y289316D01*
X470144Y286672D01*
X466690Y285241D01*
X462950Y285241D01*
X459496Y286672D01*
X456852Y289316D01*
X455421Y292770D01*
X455421Y296385D01*
X455410Y296456D01*
X455408Y296528D01*
X455390Y296577D01*
X455382Y296628D01*
X455348Y296691D01*
X455323Y296759D01*
X455291Y296799D01*
X455266Y296845D01*
X455215Y296895D01*
X455170Y296951D01*
X455126Y296979D01*
X455088Y297015D01*
X455023Y297045D01*
X454963Y297084D01*
X454912Y297096D01*
X454865Y297118D01*
X454794Y297126D01*
X454724Y297144D01*
X454672Y297140D01*
X454621Y297145D01*
X454550Y297130D01*
X454479Y297125D01*
X454431Y297104D01*
X454380Y297093D01*
X454319Y297056D01*
X454253Y297028D01*
X454197Y296983D01*
X454169Y296967D01*
X454154Y296949D01*
X454122Y296923D01*
X447002Y289803D01*
X445322Y288124D01*
X443268Y287273D01*
X344836Y287273D01*
X342782Y288124D01*
X328108Y302798D01*
X328034Y302851D01*
X327965Y302911D01*
X327934Y302923D01*
X327908Y302942D01*
X327821Y302969D01*
X327736Y303003D01*
X327696Y303007D01*
X327673Y303014D01*
X327641Y303013D01*
X327570Y303021D01*
X315990Y303021D01*
X315919Y303010D01*
X315848Y303008D01*
X315799Y302990D01*
X315747Y302982D01*
X315684Y302948D01*
X315617Y302923D01*
X315576Y302891D01*
X315530Y302866D01*
X315481Y302814D01*
X315425Y302770D01*
X315396Y302726D01*
X315361Y302688D01*
X315330Y302623D01*
X315292Y302563D01*
X315279Y302512D01*
X315257Y302465D01*
X315249Y302394D01*
X315232Y302324D01*
X315236Y302272D01*
X315230Y302221D01*
X315245Y302150D01*
X315251Y302079D01*
X315271Y302031D01*
X315282Y301980D01*
X315319Y301919D01*
X315347Y301853D01*
X315392Y301797D01*
X315408Y301769D01*
X315426Y301754D01*
X315452Y301722D01*
X316381Y300793D01*
X316381Y292251D01*
X314480Y290350D01*
X314438Y290292D01*
X314389Y290240D01*
X314367Y290193D01*
X314336Y290151D01*
X314315Y290082D01*
X314285Y290017D01*
X314279Y289965D01*
X314264Y289915D01*
X314266Y289844D01*
X314258Y289773D01*
X314269Y289722D01*
X314270Y289670D01*
X314295Y289602D01*
X314310Y289532D01*
X314337Y289487D01*
X314355Y289439D01*
X314400Y289383D01*
X314436Y289321D01*
X314476Y289287D01*
X314508Y289247D01*
X314569Y289208D01*
X314623Y289161D01*
X314672Y289142D01*
X314715Y289114D01*
X314785Y289096D01*
X314851Y289069D01*
X314923Y289061D01*
X314954Y289053D01*
X314977Y289055D01*
X315018Y289051D01*
X317688Y289051D01*
X319921Y286818D01*
X319921Y285090D01*
X319924Y285070D01*
X319922Y285051D01*
X319944Y284949D01*
X319960Y284847D01*
X319970Y284830D01*
X319974Y284810D01*
X320027Y284721D01*
X320076Y284630D01*
X320090Y284616D01*
X320100Y284599D01*
X320179Y284532D01*
X320254Y284460D01*
X320272Y284452D01*
X320287Y284439D01*
X320383Y284400D01*
X320477Y284357D01*
X320497Y284355D01*
X320515Y284347D01*
X320682Y284329D01*
X320898Y284329D01*
X320918Y284332D01*
X320937Y284330D01*
X321039Y284352D01*
X321141Y284368D01*
X321158Y284378D01*
X321178Y284382D01*
X321267Y284435D01*
X321358Y284484D01*
X321372Y284498D01*
X321389Y284508D01*
X321456Y284587D01*
X321528Y284662D01*
X321536Y284680D01*
X321549Y284695D01*
X321588Y284791D01*
X321631Y284885D01*
X321633Y284905D01*
X321641Y284923D01*
X321659Y285090D01*
X321659Y286048D01*
X323892Y288281D01*
X339048Y288281D01*
X341281Y286048D01*
X341281Y270892D01*
X338897Y268508D01*
X338886Y268492D01*
X338870Y268480D01*
X338814Y268392D01*
X338754Y268309D01*
X338748Y268290D01*
X338737Y268273D01*
X338712Y268172D01*
X338682Y268073D01*
X338682Y268054D01*
X338677Y268034D01*
X338685Y267931D01*
X338688Y267828D01*
X338695Y267809D01*
X338696Y267789D01*
X338737Y267694D01*
X338772Y267597D01*
X338785Y267581D01*
X338793Y267563D01*
X338897Y267432D01*
X341281Y265048D01*
X341281Y249892D01*
X339048Y247659D01*
X337820Y247659D01*
X337800Y247656D01*
X337781Y247658D01*
X337679Y247636D01*
X337577Y247620D01*
X337560Y247610D01*
X337540Y247606D01*
X337451Y247553D01*
X337360Y247504D01*
X337346Y247490D01*
X337329Y247480D01*
X337262Y247401D01*
X337190Y247326D01*
X337182Y247308D01*
X337169Y247293D01*
X337130Y247197D01*
X337087Y247103D01*
X337085Y247083D01*
X337077Y247065D01*
X337059Y246898D01*
X337059Y243235D01*
X337073Y243145D01*
X337081Y243054D01*
X337093Y243024D01*
X337098Y242992D01*
X337141Y242911D01*
X337177Y242827D01*
X337203Y242795D01*
X337214Y242775D01*
X337237Y242752D01*
X337282Y242696D01*
X338975Y241003D01*
X340551Y237199D01*
X340551Y220001D01*
X339131Y216573D01*
X339120Y216529D01*
X339101Y216487D01*
X339093Y216410D01*
X339075Y216334D01*
X339079Y216288D01*
X339074Y216243D01*
X339091Y216166D01*
X339098Y216089D01*
X339116Y216047D01*
X339126Y216002D01*
X339166Y215935D01*
X339198Y215864D01*
X339229Y215830D01*
X339252Y215791D01*
X339312Y215740D01*
X339364Y215683D01*
X339404Y215661D01*
X339439Y215631D01*
X339512Y215602D01*
X339580Y215565D01*
X339625Y215556D01*
X339667Y215539D01*
X339803Y215524D01*
X339822Y215521D01*
X339827Y215522D01*
X339834Y215521D01*
X347624Y215521D01*
X347742Y215540D01*
X347861Y215559D01*
X347864Y215560D01*
X347867Y215560D01*
X347972Y215616D01*
X348079Y215672D01*
X348081Y215674D01*
X348084Y215676D01*
X348166Y215762D01*
X348250Y215849D01*
X348251Y215852D01*
X348253Y215854D01*
X348303Y215962D01*
X348355Y216071D01*
X348356Y216074D01*
X348357Y216077D01*
X348370Y216195D01*
X348384Y216315D01*
X348384Y216318D01*
X348384Y216321D01*
X348359Y216438D01*
X348334Y216556D01*
X348332Y216559D01*
X348332Y216562D01*
X348326Y216571D01*
X348257Y216705D01*
X347553Y217759D01*
X346868Y219411D01*
X346519Y221166D01*
X346519Y227077D01*
X354838Y227077D01*
X354858Y227080D01*
X354877Y227078D01*
X354979Y227100D01*
X355081Y227117D01*
X355098Y227126D01*
X355118Y227130D01*
X355207Y227183D01*
X355298Y227232D01*
X355312Y227246D01*
X355329Y227256D01*
X355396Y227335D01*
X355467Y227410D01*
X355476Y227428D01*
X355489Y227443D01*
X355527Y227539D01*
X355571Y227633D01*
X355573Y227653D01*
X355581Y227671D01*
X355599Y227838D01*
X355599Y228601D01*
X355601Y228601D01*
X355601Y227838D01*
X355604Y227818D01*
X355602Y227799D01*
X355624Y227697D01*
X355641Y227595D01*
X355650Y227578D01*
X355654Y227558D01*
X355707Y227469D01*
X355756Y227378D01*
X355770Y227364D01*
X355780Y227347D01*
X355859Y227280D01*
X355934Y227209D01*
X355952Y227200D01*
X355967Y227187D01*
X356063Y227148D01*
X356157Y227105D01*
X356177Y227103D01*
X356195Y227095D01*
X356362Y227077D01*
X364681Y227077D01*
X364681Y221166D01*
X364332Y219411D01*
X363647Y217759D01*
X363574Y217649D01*
X362943Y216705D01*
X362894Y216596D01*
X362843Y216487D01*
X362843Y216484D01*
X362841Y216481D01*
X362829Y216361D01*
X362816Y216243D01*
X362817Y216239D01*
X362816Y216236D01*
X362843Y216120D01*
X362868Y216002D01*
X362870Y215999D01*
X362870Y215996D01*
X362933Y215894D01*
X362994Y215791D01*
X362997Y215789D01*
X362998Y215786D01*
X363090Y215709D01*
X363181Y215631D01*
X363184Y215630D01*
X363187Y215628D01*
X363297Y215584D01*
X363409Y215539D01*
X363413Y215539D01*
X363415Y215538D01*
X363426Y215537D01*
X363576Y215521D01*
X371366Y215521D01*
X371411Y215528D01*
X371457Y215526D01*
X371532Y215548D01*
X371609Y215560D01*
X371649Y215582D01*
X371693Y215595D01*
X371757Y215639D01*
X371826Y215676D01*
X371857Y215709D01*
X371895Y215735D01*
X371942Y215798D01*
X371995Y215854D01*
X372015Y215896D01*
X372042Y215932D01*
X372066Y216006D01*
X372099Y216077D01*
X372104Y216123D01*
X372118Y216166D01*
X372117Y216244D01*
X372126Y216321D01*
X372116Y216366D01*
X372116Y216412D01*
X372078Y216544D01*
X372074Y216562D01*
X372071Y216566D01*
X372069Y216573D01*
X370649Y220001D01*
X370649Y237199D01*
X372225Y241003D01*
X375137Y243915D01*
X378941Y245491D01*
X383059Y245491D01*
X384031Y245088D01*
X384126Y245066D01*
X384219Y245037D01*
X384245Y245038D01*
X384271Y245032D01*
X384368Y245041D01*
X384465Y245043D01*
X384490Y245052D01*
X384516Y245055D01*
X384604Y245094D01*
X384696Y245128D01*
X384716Y245144D01*
X384740Y245155D01*
X384812Y245221D01*
X384888Y245282D01*
X384902Y245304D01*
X384921Y245321D01*
X384968Y245406D01*
X385021Y245488D01*
X385027Y245514D01*
X385040Y245537D01*
X385057Y245633D01*
X385081Y245727D01*
X385079Y245753D01*
X385084Y245779D01*
X385070Y245875D01*
X385062Y245972D01*
X385052Y245996D01*
X385048Y246022D01*
X385004Y246109D01*
X384966Y246199D01*
X384945Y246224D01*
X384936Y246241D01*
X384913Y246265D01*
X384861Y246330D01*
X382731Y248459D01*
X382731Y257001D01*
X388771Y263041D01*
X397313Y263041D01*
X401812Y258542D01*
X401886Y258489D01*
X401955Y258429D01*
X401985Y258417D01*
X402012Y258398D01*
X402099Y258371D01*
X402183Y258337D01*
X402224Y258333D01*
X402247Y258326D01*
X402279Y258327D01*
X402350Y258319D01*
X542200Y258319D01*
X542290Y258333D01*
X542381Y258341D01*
X542411Y258353D01*
X542442Y258358D01*
X542523Y258401D01*
X542607Y258437D01*
X542639Y258463D01*
X542660Y258474D01*
X542668Y258483D01*
X542669Y258483D01*
X542684Y258498D01*
X542738Y258542D01*
X543209Y259013D01*
X543221Y259029D01*
X543237Y259042D01*
X543292Y259129D01*
X543353Y259212D01*
X543359Y259232D01*
X543369Y259249D01*
X543395Y259349D01*
X543425Y259448D01*
X543424Y259468D01*
X543429Y259487D01*
X543421Y259590D01*
X543419Y259693D01*
X543412Y259712D01*
X543410Y259733D01*
X543409Y259735D01*
X543409Y268431D01*
X549449Y274471D01*
X557991Y274471D01*
X564031Y268431D01*
X564031Y259889D01*
X557991Y253849D01*
X554168Y253849D01*
X554078Y253835D01*
X553987Y253827D01*
X553957Y253815D01*
X553926Y253810D01*
X553845Y253767D01*
X553761Y253731D01*
X553729Y253705D01*
X553708Y253694D01*
X553686Y253671D01*
X553630Y253626D01*
X547996Y247992D01*
X545942Y247141D01*
X530950Y247141D01*
X530860Y247127D01*
X530769Y247119D01*
X530739Y247107D01*
X530708Y247102D01*
X530627Y247059D01*
X530543Y247023D01*
X530511Y246997D01*
X530490Y246986D01*
X530468Y246963D01*
X530412Y246918D01*
X499842Y216348D01*
X499789Y216274D01*
X499729Y216205D01*
X499717Y216174D01*
X499698Y216148D01*
X499671Y216061D01*
X499637Y215976D01*
X499633Y215936D01*
X499626Y215913D01*
X499627Y215881D01*
X499619Y215810D01*
X499619Y190754D01*
X499622Y190734D01*
X499620Y190715D01*
X499642Y190613D01*
X499658Y190511D01*
X499668Y190494D01*
X499672Y190474D01*
X499725Y190385D01*
X499774Y190294D01*
X499788Y190280D01*
X499798Y190263D01*
X499877Y190196D01*
X499952Y190124D01*
X499970Y190116D01*
X499985Y190103D01*
X500081Y190064D01*
X500175Y190021D01*
X500195Y190019D01*
X500213Y190011D01*
X500380Y189993D01*
X506107Y189993D01*
X510589Y188136D01*
X514018Y184707D01*
X515875Y180225D01*
X515875Y175375D01*
X514018Y170893D01*
X510589Y167464D01*
X506107Y165607D01*
X484493Y165607D01*
X480011Y167464D01*
X479836Y167639D01*
X479778Y167680D01*
X479726Y167730D01*
X479679Y167752D01*
X479637Y167782D01*
X479568Y167803D01*
X479503Y167833D01*
X479451Y167839D01*
X479401Y167855D01*
X479330Y167853D01*
X479259Y167861D01*
X479208Y167849D01*
X479156Y167848D01*
X479088Y167824D01*
X479018Y167808D01*
X478973Y167782D01*
X478925Y167764D01*
X478869Y167719D01*
X478807Y167682D01*
X478773Y167643D01*
X478733Y167610D01*
X478694Y167550D01*
X478647Y167495D01*
X478628Y167447D01*
X478600Y167403D01*
X478582Y167334D01*
X478555Y167267D01*
X478547Y167196D01*
X478539Y167165D01*
X478541Y167141D01*
X478537Y167100D01*
X478537Y161304D01*
X478548Y161232D01*
X478550Y161160D01*
X478568Y161112D01*
X478576Y161061D01*
X478610Y160997D01*
X478635Y160929D01*
X478668Y160889D01*
X478692Y160843D01*
X478744Y160794D01*
X478789Y160737D01*
X478833Y160710D01*
X478870Y160674D01*
X478936Y160644D01*
X478997Y160605D01*
X479046Y160592D01*
X479093Y160570D01*
X479165Y160563D01*
X479235Y160545D01*
X479286Y160549D01*
X479337Y160543D01*
X479408Y160559D01*
X479480Y160565D01*
X479528Y160585D01*
X479578Y160596D01*
X479606Y160613D01*
X479608Y160613D01*
X479651Y160637D01*
X479707Y160661D01*
X479741Y160689D01*
X479754Y160696D01*
X481193Y161742D01*
X482725Y162522D01*
X484360Y163054D01*
X486058Y163323D01*
X493777Y163323D01*
X493777Y153162D01*
X493780Y153142D01*
X493778Y153123D01*
X493800Y153021D01*
X493817Y152919D01*
X493826Y152902D01*
X493830Y152882D01*
X493883Y152793D01*
X493932Y152702D01*
X493946Y152688D01*
X493956Y152671D01*
X494035Y152604D01*
X494110Y152533D01*
X494128Y152524D01*
X494143Y152511D01*
X494239Y152473D01*
X494333Y152429D01*
X494353Y152427D01*
X494371Y152419D01*
X494538Y152401D01*
X495301Y152401D01*
X495301Y152399D01*
X494538Y152399D01*
X494518Y152396D01*
X494499Y152398D01*
X494397Y152376D01*
X494295Y152359D01*
X494278Y152350D01*
X494258Y152346D01*
X494169Y152293D01*
X494078Y152244D01*
X494064Y152230D01*
X494047Y152220D01*
X493980Y152141D01*
X493909Y152066D01*
X493900Y152048D01*
X493887Y152033D01*
X493848Y151937D01*
X493805Y151843D01*
X493803Y151823D01*
X493795Y151805D01*
X493777Y151638D01*
X493777Y141477D01*
X486058Y141477D01*
X484360Y141746D01*
X482725Y142278D01*
X481193Y143058D01*
X479754Y144104D01*
X479744Y144109D01*
X479726Y144126D01*
X479679Y144148D01*
X479638Y144178D01*
X479569Y144199D01*
X479503Y144230D01*
X479452Y144235D01*
X479403Y144250D01*
X479330Y144249D01*
X479259Y144257D01*
X479208Y144246D01*
X479157Y144244D01*
X479089Y144220D01*
X479018Y144204D01*
X478974Y144178D01*
X478926Y144160D01*
X478869Y144115D01*
X478807Y144078D01*
X478774Y144039D01*
X478733Y144007D01*
X478694Y143946D01*
X478647Y143891D01*
X478628Y143844D01*
X478600Y143800D01*
X478582Y143730D01*
X478555Y143663D01*
X478547Y143593D01*
X478540Y143562D01*
X478541Y143538D01*
X478537Y143496D01*
X478537Y137700D01*
X478548Y137629D01*
X478550Y137557D01*
X478568Y137508D01*
X478576Y137457D01*
X478610Y137394D01*
X478635Y137326D01*
X478667Y137286D01*
X478692Y137240D01*
X478743Y137190D01*
X478788Y137134D01*
X478832Y137106D01*
X478870Y137070D01*
X478935Y137040D01*
X478995Y137001D01*
X479046Y136988D01*
X479093Y136967D01*
X479164Y136959D01*
X479234Y136941D01*
X479286Y136945D01*
X479337Y136939D01*
X479408Y136955D01*
X479479Y136960D01*
X479527Y136981D01*
X479578Y136992D01*
X479639Y137028D01*
X479705Y137057D01*
X479761Y137101D01*
X479789Y137118D01*
X479804Y137136D01*
X479836Y137161D01*
X480011Y137336D01*
X484493Y139193D01*
X506107Y139193D01*
X510589Y137336D01*
X514018Y133907D01*
X514370Y133059D01*
X514431Y132959D01*
X514491Y132859D01*
X514496Y132855D01*
X514499Y132850D01*
X514589Y132775D01*
X514678Y132699D01*
X514684Y132697D01*
X514689Y132693D01*
X514797Y132651D01*
X514906Y132607D01*
X514914Y132606D01*
X514918Y132605D01*
X514937Y132604D01*
X515073Y132589D01*
X515202Y132589D01*
X515292Y132603D01*
X515383Y132611D01*
X515413Y132623D01*
X515445Y132628D01*
X515525Y132671D01*
X515609Y132707D01*
X515641Y132733D01*
X515662Y132744D01*
X515684Y132767D01*
X515740Y132812D01*
X518969Y136041D01*
X525743Y136041D01*
X525814Y136052D01*
X525885Y136054D01*
X525934Y136072D01*
X525986Y136080D01*
X526049Y136114D01*
X526116Y136139D01*
X526157Y136171D01*
X526203Y136196D01*
X526252Y136247D01*
X526308Y136292D01*
X526337Y136336D01*
X526372Y136374D01*
X526403Y136439D01*
X526441Y136499D01*
X526454Y136550D01*
X526476Y136597D01*
X526484Y136668D01*
X526501Y136738D01*
X526497Y136790D01*
X526503Y136841D01*
X526488Y136912D01*
X526482Y136983D01*
X526462Y137031D01*
X526451Y137082D01*
X526414Y137143D01*
X526386Y137209D01*
X526341Y137265D01*
X526325Y137293D01*
X526307Y137308D01*
X526281Y137340D01*
X526264Y137357D01*
X526264Y145899D01*
X532338Y151973D01*
X532373Y151978D01*
X532390Y151988D01*
X532410Y151992D01*
X532499Y152045D01*
X532590Y152094D01*
X532604Y152108D01*
X532621Y152118D01*
X532688Y152197D01*
X532760Y152272D01*
X532768Y152290D01*
X532781Y152305D01*
X532820Y152401D01*
X532863Y152495D01*
X532865Y152515D01*
X532873Y152533D01*
X532891Y152700D01*
X532891Y214065D01*
X532877Y214155D01*
X532869Y214246D01*
X532857Y214276D01*
X532852Y214308D01*
X532809Y214388D01*
X532773Y214472D01*
X532747Y214504D01*
X532736Y214525D01*
X532713Y214547D01*
X532668Y214603D01*
X528065Y219206D01*
X528065Y227834D01*
X534166Y233935D01*
X542794Y233935D01*
X548895Y227834D01*
X548895Y219206D01*
X544292Y214603D01*
X544239Y214529D01*
X544179Y214460D01*
X544167Y214430D01*
X544148Y214403D01*
X544121Y214316D01*
X544087Y214232D01*
X544083Y214191D01*
X544076Y214168D01*
X544077Y214136D01*
X544069Y214065D01*
X544069Y149031D01*
X544083Y148941D01*
X544091Y148850D01*
X544103Y148820D01*
X544108Y148788D01*
X544151Y148708D01*
X544187Y148624D01*
X544213Y148592D01*
X544224Y148571D01*
X544247Y148549D01*
X544292Y148493D01*
X546886Y145899D01*
X546886Y137357D01*
X540846Y131317D01*
X534072Y131317D01*
X534001Y131306D01*
X533930Y131304D01*
X533881Y131286D01*
X533829Y131278D01*
X533766Y131244D01*
X533699Y131219D01*
X533658Y131187D01*
X533612Y131162D01*
X533563Y131111D01*
X533507Y131066D01*
X533478Y131022D01*
X533443Y130984D01*
X533412Y130919D01*
X533374Y130859D01*
X533361Y130808D01*
X533339Y130761D01*
X533331Y130690D01*
X533314Y130620D01*
X533318Y130568D01*
X533312Y130517D01*
X533327Y130446D01*
X533333Y130375D01*
X533353Y130327D01*
X533364Y130276D01*
X533401Y130215D01*
X533429Y130149D01*
X533474Y130093D01*
X533490Y130065D01*
X533508Y130050D01*
X533534Y130018D01*
X533551Y130001D01*
X533551Y121459D01*
X527511Y115419D01*
X518969Y115419D01*
X514695Y119693D01*
X514679Y119705D01*
X514666Y119721D01*
X514579Y119777D01*
X514495Y119837D01*
X514476Y119843D01*
X514460Y119854D01*
X514359Y119879D01*
X514260Y119909D01*
X514240Y119909D01*
X514221Y119914D01*
X514118Y119906D01*
X514014Y119903D01*
X513996Y119896D01*
X513976Y119894D01*
X513881Y119854D01*
X513783Y119818D01*
X513768Y119806D01*
X513749Y119798D01*
X513618Y119693D01*
X510589Y116664D01*
X506580Y115003D01*
X506498Y114952D01*
X506412Y114906D01*
X506394Y114887D01*
X506371Y114874D01*
X506309Y114799D01*
X506242Y114728D01*
X506231Y114704D01*
X506215Y114684D01*
X506180Y114593D01*
X506139Y114505D01*
X506136Y114479D01*
X506126Y114455D01*
X506122Y114357D01*
X506112Y114261D01*
X506117Y114235D01*
X506116Y114209D01*
X506143Y114115D01*
X506164Y114020D01*
X506177Y113998D01*
X506185Y113973D01*
X506240Y113893D01*
X506290Y113809D01*
X506310Y113792D01*
X506325Y113771D01*
X506403Y113712D01*
X506477Y113649D01*
X506501Y113639D01*
X506522Y113624D01*
X506615Y113594D01*
X506705Y113557D01*
X506738Y113554D01*
X506756Y113548D01*
X506789Y113548D01*
X506872Y113539D01*
X527545Y113539D01*
X527635Y113553D01*
G37*
%LPC*%
G36*
X657442Y241529D02*
X657442Y241529D01*
X655209Y243762D01*
X655209Y266918D01*
X657442Y269151D01*
X670598Y269151D01*
X671994Y267755D01*
X672029Y267730D01*
X672059Y267697D01*
X672129Y267658D01*
X672193Y267612D01*
X672235Y267599D01*
X672274Y267578D01*
X672352Y267563D01*
X672429Y267540D01*
X672472Y267541D01*
X672516Y267533D01*
X672595Y267544D01*
X672674Y267546D01*
X672716Y267561D01*
X672759Y267567D01*
X672892Y267625D01*
X672905Y267630D01*
X672908Y267632D01*
X672913Y267634D01*
X673039Y267708D01*
X673686Y267881D01*
X677497Y267881D01*
X677497Y256102D01*
X677500Y256082D01*
X677498Y256063D01*
X677520Y255961D01*
X677537Y255859D01*
X677546Y255842D01*
X677550Y255822D01*
X677603Y255733D01*
X677652Y255642D01*
X677666Y255628D01*
X677676Y255611D01*
X677755Y255544D01*
X677830Y255473D01*
X677848Y255464D01*
X677863Y255451D01*
X677959Y255412D01*
X678053Y255369D01*
X678073Y255367D01*
X678091Y255359D01*
X678258Y255341D01*
X679782Y255341D01*
X679802Y255344D01*
X679821Y255342D01*
X679923Y255364D01*
X680025Y255381D01*
X680042Y255390D01*
X680062Y255394D01*
X680151Y255447D01*
X680242Y255496D01*
X680256Y255510D01*
X680273Y255520D01*
X680340Y255599D01*
X680411Y255674D01*
X680420Y255692D01*
X680433Y255707D01*
X680472Y255803D01*
X680515Y255897D01*
X680517Y255917D01*
X680525Y255935D01*
X680543Y256102D01*
X680543Y267881D01*
X684354Y267881D01*
X685001Y267708D01*
X685127Y267634D01*
X685168Y267619D01*
X685205Y267595D01*
X685283Y267576D01*
X685357Y267547D01*
X685401Y267546D01*
X685444Y267535D01*
X685523Y267541D01*
X685603Y267538D01*
X685645Y267551D01*
X685689Y267554D01*
X685762Y267586D01*
X685839Y267608D01*
X685875Y267633D01*
X685915Y267651D01*
X686029Y267741D01*
X686040Y267750D01*
X686042Y267752D01*
X686046Y267755D01*
X687442Y269151D01*
X700598Y269151D01*
X700982Y268767D01*
X700998Y268756D01*
X701010Y268740D01*
X701098Y268684D01*
X701181Y268624D01*
X701200Y268618D01*
X701217Y268607D01*
X701318Y268582D01*
X701417Y268552D01*
X701436Y268552D01*
X701456Y268547D01*
X701559Y268555D01*
X701662Y268558D01*
X701681Y268565D01*
X701701Y268566D01*
X701796Y268607D01*
X701893Y268642D01*
X701909Y268655D01*
X701927Y268663D01*
X702058Y268767D01*
X702442Y269151D01*
X715598Y269151D01*
X715982Y268767D01*
X715998Y268756D01*
X716010Y268740D01*
X716098Y268684D01*
X716181Y268624D01*
X716200Y268618D01*
X716217Y268607D01*
X716318Y268582D01*
X716417Y268552D01*
X716436Y268552D01*
X716456Y268547D01*
X716559Y268555D01*
X716662Y268558D01*
X716681Y268565D01*
X716701Y268566D01*
X716796Y268607D01*
X716893Y268642D01*
X716909Y268655D01*
X716927Y268663D01*
X717058Y268767D01*
X717442Y269151D01*
X730598Y269151D01*
X730982Y268767D01*
X730998Y268756D01*
X731010Y268740D01*
X731098Y268684D01*
X731181Y268624D01*
X731200Y268618D01*
X731217Y268607D01*
X731318Y268582D01*
X731417Y268552D01*
X731436Y268552D01*
X731456Y268547D01*
X731559Y268555D01*
X731662Y268558D01*
X731681Y268565D01*
X731701Y268566D01*
X731796Y268607D01*
X731893Y268642D01*
X731909Y268655D01*
X731927Y268663D01*
X732058Y268767D01*
X732442Y269151D01*
X745598Y269151D01*
X745982Y268767D01*
X745998Y268756D01*
X746010Y268740D01*
X746098Y268684D01*
X746181Y268624D01*
X746200Y268618D01*
X746217Y268607D01*
X746318Y268582D01*
X746417Y268552D01*
X746436Y268552D01*
X746456Y268547D01*
X746559Y268555D01*
X746662Y268558D01*
X746681Y268565D01*
X746701Y268566D01*
X746796Y268607D01*
X746893Y268642D01*
X746909Y268655D01*
X746927Y268663D01*
X747058Y268767D01*
X747442Y269151D01*
X760598Y269151D01*
X760982Y268767D01*
X760998Y268756D01*
X761010Y268740D01*
X761097Y268684D01*
X761181Y268624D01*
X761200Y268618D01*
X761217Y268607D01*
X761318Y268582D01*
X761417Y268552D01*
X761437Y268552D01*
X761456Y268547D01*
X761559Y268555D01*
X761662Y268558D01*
X761681Y268565D01*
X761701Y268566D01*
X761796Y268607D01*
X761893Y268642D01*
X761909Y268655D01*
X761927Y268663D01*
X762058Y268767D01*
X762538Y269248D01*
X762586Y269314D01*
X762591Y269319D01*
X762592Y269323D01*
X762651Y269391D01*
X762663Y269421D01*
X762682Y269447D01*
X762709Y269534D01*
X762743Y269619D01*
X762747Y269660D01*
X762754Y269682D01*
X762753Y269715D01*
X762761Y269786D01*
X762761Y274162D01*
X763612Y276216D01*
X777884Y290488D01*
X779938Y291339D01*
X786648Y291339D01*
X786668Y291342D01*
X786687Y291340D01*
X786789Y291362D01*
X786891Y291378D01*
X786908Y291388D01*
X786928Y291392D01*
X787017Y291445D01*
X787108Y291494D01*
X787122Y291508D01*
X787139Y291518D01*
X787206Y291597D01*
X787278Y291672D01*
X787286Y291690D01*
X787299Y291705D01*
X787338Y291801D01*
X787381Y291895D01*
X787383Y291915D01*
X787391Y291933D01*
X787409Y292100D01*
X787409Y294598D01*
X789642Y296831D01*
X804798Y296831D01*
X807182Y294447D01*
X807198Y294436D01*
X807210Y294420D01*
X807298Y294364D01*
X807381Y294304D01*
X807400Y294298D01*
X807417Y294287D01*
X807518Y294262D01*
X807617Y294232D01*
X807636Y294232D01*
X807656Y294227D01*
X807759Y294235D01*
X807862Y294238D01*
X807881Y294245D01*
X807901Y294246D01*
X807996Y294287D01*
X808093Y294322D01*
X808109Y294335D01*
X808127Y294343D01*
X808258Y294447D01*
X810642Y296831D01*
X815816Y296831D01*
X815880Y296841D01*
X815946Y296842D01*
X816026Y296865D01*
X816058Y296870D01*
X816075Y296880D01*
X816107Y296889D01*
X816388Y297005D01*
X816399Y297012D01*
X816529Y297082D01*
X816889Y297331D01*
X817412Y297443D01*
X817440Y297454D01*
X817544Y297484D01*
X818038Y297689D01*
X818476Y297689D01*
X818487Y297691D01*
X818635Y297706D01*
X819063Y297798D01*
X819589Y297701D01*
X819619Y297701D01*
X819727Y297689D01*
X834904Y297689D01*
X834994Y297703D01*
X835085Y297711D01*
X835115Y297723D01*
X835147Y297728D01*
X835228Y297771D01*
X835312Y297807D01*
X835344Y297833D01*
X835364Y297844D01*
X835387Y297867D01*
X835442Y297912D01*
X835862Y298331D01*
X852018Y298331D01*
X853800Y296549D01*
X853816Y296538D01*
X853829Y296522D01*
X853916Y296466D01*
X854000Y296406D01*
X854019Y296400D01*
X854035Y296389D01*
X854136Y296364D01*
X854235Y296334D01*
X854255Y296334D01*
X854274Y296329D01*
X854377Y296337D01*
X854480Y296340D01*
X854499Y296347D01*
X854519Y296348D01*
X854614Y296389D01*
X854711Y296424D01*
X854727Y296437D01*
X854746Y296445D01*
X854876Y296550D01*
X854880Y296553D01*
X855459Y296888D01*
X856106Y297061D01*
X861417Y297061D01*
X861417Y287782D01*
X861420Y287762D01*
X861418Y287743D01*
X861440Y287641D01*
X861457Y287539D01*
X861466Y287522D01*
X861470Y287502D01*
X861523Y287413D01*
X861572Y287322D01*
X861586Y287308D01*
X861596Y287291D01*
X861675Y287224D01*
X861750Y287153D01*
X861768Y287144D01*
X861783Y287131D01*
X861879Y287092D01*
X861973Y287049D01*
X861993Y287047D01*
X862011Y287039D01*
X862178Y287021D01*
X862941Y287021D01*
X862941Y287019D01*
X862178Y287019D01*
X862158Y287016D01*
X862139Y287018D01*
X862037Y286996D01*
X861935Y286979D01*
X861918Y286970D01*
X861898Y286966D01*
X861809Y286913D01*
X861718Y286864D01*
X861704Y286850D01*
X861687Y286840D01*
X861620Y286761D01*
X861549Y286686D01*
X861540Y286668D01*
X861527Y286653D01*
X861488Y286557D01*
X861445Y286463D01*
X861443Y286443D01*
X861435Y286425D01*
X861417Y286258D01*
X861417Y276979D01*
X856106Y276979D01*
X855459Y277152D01*
X854880Y277487D01*
X854876Y277491D01*
X854860Y277502D01*
X854848Y277518D01*
X854760Y277574D01*
X854677Y277634D01*
X854658Y277640D01*
X854641Y277651D01*
X854540Y277676D01*
X854441Y277706D01*
X854422Y277706D01*
X854402Y277711D01*
X854299Y277703D01*
X854196Y277700D01*
X854177Y277693D01*
X854157Y277692D01*
X854062Y277651D01*
X853965Y277616D01*
X853949Y277603D01*
X853931Y277595D01*
X853800Y277491D01*
X852018Y275709D01*
X835862Y275709D01*
X833629Y277942D01*
X833629Y285750D01*
X833627Y285763D01*
X833628Y285773D01*
X833627Y285778D01*
X833628Y285789D01*
X833606Y285891D01*
X833590Y285993D01*
X833580Y286010D01*
X833576Y286030D01*
X833523Y286119D01*
X833474Y286210D01*
X833460Y286224D01*
X833450Y286241D01*
X833371Y286308D01*
X833296Y286380D01*
X833278Y286388D01*
X833263Y286401D01*
X833167Y286440D01*
X833073Y286483D01*
X833053Y286485D01*
X833035Y286493D01*
X832868Y286511D01*
X828792Y286511D01*
X828772Y286508D01*
X828753Y286510D01*
X828651Y286488D01*
X828549Y286472D01*
X828532Y286462D01*
X828512Y286458D01*
X828423Y286405D01*
X828332Y286356D01*
X828318Y286342D01*
X828301Y286332D01*
X828234Y286253D01*
X828162Y286178D01*
X828154Y286160D01*
X828141Y286145D01*
X828102Y286049D01*
X828059Y285955D01*
X828057Y285935D01*
X828049Y285917D01*
X828031Y285750D01*
X828031Y279442D01*
X825798Y277209D01*
X810642Y277209D01*
X808258Y279593D01*
X808242Y279604D01*
X808230Y279620D01*
X808142Y279676D01*
X808059Y279736D01*
X808040Y279742D01*
X808023Y279753D01*
X807922Y279778D01*
X807823Y279808D01*
X807804Y279808D01*
X807784Y279813D01*
X807681Y279805D01*
X807578Y279802D01*
X807559Y279795D01*
X807539Y279794D01*
X807444Y279753D01*
X807347Y279718D01*
X807331Y279705D01*
X807313Y279697D01*
X807182Y279593D01*
X804798Y277209D01*
X789642Y277209D01*
X787407Y279443D01*
X787386Y279541D01*
X787370Y279643D01*
X787360Y279660D01*
X787356Y279680D01*
X787303Y279769D01*
X787254Y279860D01*
X787240Y279874D01*
X787230Y279891D01*
X787151Y279958D01*
X787076Y280030D01*
X787058Y280038D01*
X787043Y280051D01*
X786947Y280090D01*
X786853Y280133D01*
X786833Y280135D01*
X786815Y280143D01*
X786648Y280161D01*
X783680Y280161D01*
X783590Y280147D01*
X783499Y280139D01*
X783469Y280127D01*
X783438Y280122D01*
X783357Y280079D01*
X783273Y280043D01*
X783241Y280017D01*
X783220Y280006D01*
X783198Y279983D01*
X783142Y279938D01*
X774162Y270958D01*
X774109Y270884D01*
X774049Y270815D01*
X774037Y270784D01*
X774018Y270758D01*
X773991Y270671D01*
X773957Y270586D01*
X773953Y270546D01*
X773946Y270523D01*
X773947Y270491D01*
X773939Y270420D01*
X773939Y269912D01*
X773942Y269892D01*
X773940Y269873D01*
X773962Y269771D01*
X773978Y269669D01*
X773988Y269652D01*
X773992Y269632D01*
X774045Y269543D01*
X774094Y269452D01*
X774108Y269438D01*
X774118Y269421D01*
X774197Y269354D01*
X774272Y269282D01*
X774290Y269274D01*
X774305Y269261D01*
X774401Y269222D01*
X774495Y269179D01*
X774515Y269177D01*
X774533Y269169D01*
X774700Y269151D01*
X775598Y269151D01*
X775982Y268767D01*
X775998Y268756D01*
X776010Y268740D01*
X776098Y268684D01*
X776181Y268624D01*
X776200Y268618D01*
X776217Y268607D01*
X776318Y268582D01*
X776417Y268552D01*
X776436Y268552D01*
X776456Y268547D01*
X776559Y268555D01*
X776662Y268558D01*
X776681Y268565D01*
X776701Y268566D01*
X776796Y268607D01*
X776893Y268642D01*
X776909Y268655D01*
X776927Y268663D01*
X777058Y268767D01*
X777442Y269151D01*
X790598Y269151D01*
X790982Y268767D01*
X790998Y268756D01*
X791010Y268740D01*
X791098Y268684D01*
X791181Y268624D01*
X791200Y268618D01*
X791217Y268607D01*
X791318Y268582D01*
X791417Y268552D01*
X791436Y268552D01*
X791456Y268547D01*
X791559Y268555D01*
X791662Y268558D01*
X791681Y268565D01*
X791701Y268566D01*
X791796Y268607D01*
X791893Y268642D01*
X791909Y268655D01*
X791927Y268663D01*
X792058Y268767D01*
X792442Y269151D01*
X805598Y269151D01*
X807831Y266918D01*
X807831Y243762D01*
X805598Y241529D01*
X792442Y241529D01*
X792058Y241913D01*
X792042Y241924D01*
X792030Y241940D01*
X791943Y241996D01*
X791859Y242056D01*
X791840Y242062D01*
X791823Y242073D01*
X791722Y242098D01*
X791623Y242128D01*
X791604Y242128D01*
X791584Y242133D01*
X791481Y242125D01*
X791378Y242122D01*
X791359Y242115D01*
X791339Y242114D01*
X791244Y242073D01*
X791147Y242038D01*
X791131Y242025D01*
X791113Y242017D01*
X790982Y241913D01*
X790598Y241529D01*
X777442Y241529D01*
X777058Y241913D01*
X777042Y241924D01*
X777030Y241940D01*
X776943Y241996D01*
X776859Y242056D01*
X776840Y242062D01*
X776823Y242073D01*
X776722Y242098D01*
X776623Y242128D01*
X776604Y242128D01*
X776584Y242133D01*
X776481Y242125D01*
X776378Y242122D01*
X776359Y242115D01*
X776339Y242114D01*
X776244Y242073D01*
X776147Y242038D01*
X776131Y242025D01*
X776113Y242017D01*
X775982Y241913D01*
X775598Y241529D01*
X762442Y241529D01*
X762058Y241913D01*
X762042Y241924D01*
X762030Y241940D01*
X761943Y241996D01*
X761859Y242056D01*
X761840Y242062D01*
X761823Y242073D01*
X761722Y242098D01*
X761623Y242128D01*
X761604Y242128D01*
X761584Y242133D01*
X761481Y242125D01*
X761378Y242122D01*
X761359Y242115D01*
X761339Y242114D01*
X761244Y242073D01*
X761147Y242038D01*
X761131Y242025D01*
X761113Y242017D01*
X760982Y241913D01*
X760598Y241529D01*
X747442Y241529D01*
X747058Y241913D01*
X747042Y241924D01*
X747030Y241940D01*
X746943Y241996D01*
X746859Y242056D01*
X746840Y242062D01*
X746823Y242073D01*
X746722Y242098D01*
X746623Y242128D01*
X746604Y242128D01*
X746584Y242133D01*
X746481Y242125D01*
X746378Y242122D01*
X746359Y242115D01*
X746339Y242114D01*
X746244Y242073D01*
X746147Y242038D01*
X746131Y242025D01*
X746113Y242017D01*
X745982Y241913D01*
X745598Y241529D01*
X732442Y241529D01*
X732058Y241913D01*
X732042Y241924D01*
X732030Y241940D01*
X731943Y241996D01*
X731859Y242056D01*
X731840Y242062D01*
X731823Y242073D01*
X731722Y242098D01*
X731623Y242128D01*
X731604Y242128D01*
X731584Y242133D01*
X731481Y242125D01*
X731378Y242122D01*
X731359Y242115D01*
X731339Y242114D01*
X731244Y242073D01*
X731147Y242038D01*
X731131Y242025D01*
X731113Y242017D01*
X730982Y241913D01*
X730598Y241529D01*
X717442Y241529D01*
X717058Y241913D01*
X717042Y241924D01*
X717030Y241940D01*
X716943Y241996D01*
X716859Y242056D01*
X716840Y242062D01*
X716823Y242073D01*
X716722Y242098D01*
X716623Y242128D01*
X716604Y242128D01*
X716584Y242133D01*
X716481Y242125D01*
X716378Y242122D01*
X716359Y242115D01*
X716339Y242114D01*
X716244Y242073D01*
X716147Y242038D01*
X716131Y242025D01*
X716113Y242017D01*
X715982Y241913D01*
X715598Y241529D01*
X702442Y241529D01*
X702058Y241913D01*
X702042Y241924D01*
X702030Y241940D01*
X701943Y241996D01*
X701859Y242056D01*
X701840Y242062D01*
X701823Y242073D01*
X701722Y242098D01*
X701623Y242128D01*
X701604Y242128D01*
X701584Y242133D01*
X701481Y242125D01*
X701378Y242122D01*
X701359Y242115D01*
X701339Y242114D01*
X701244Y242073D01*
X701147Y242038D01*
X701131Y242025D01*
X701113Y242017D01*
X700982Y241913D01*
X700598Y241529D01*
X687442Y241529D01*
X686046Y242925D01*
X686011Y242950D01*
X685981Y242983D01*
X685911Y243022D01*
X685847Y243068D01*
X685805Y243081D01*
X685766Y243102D01*
X685688Y243117D01*
X685611Y243140D01*
X685568Y243139D01*
X685524Y243147D01*
X685445Y243136D01*
X685366Y243134D01*
X685324Y243119D01*
X685281Y243113D01*
X685148Y243055D01*
X685135Y243050D01*
X685132Y243048D01*
X685127Y243046D01*
X685001Y242972D01*
X684354Y242799D01*
X680543Y242799D01*
X680543Y254578D01*
X680540Y254598D01*
X680542Y254617D01*
X680520Y254719D01*
X680503Y254821D01*
X680494Y254838D01*
X680490Y254858D01*
X680437Y254947D01*
X680388Y255038D01*
X680374Y255052D01*
X680364Y255069D01*
X680285Y255136D01*
X680210Y255207D01*
X680192Y255216D01*
X680177Y255229D01*
X680081Y255268D01*
X679987Y255311D01*
X679967Y255313D01*
X679949Y255321D01*
X679782Y255339D01*
X678258Y255339D01*
X678238Y255336D01*
X678219Y255338D01*
X678117Y255316D01*
X678015Y255299D01*
X677998Y255290D01*
X677978Y255286D01*
X677889Y255233D01*
X677798Y255184D01*
X677784Y255170D01*
X677767Y255160D01*
X677700Y255081D01*
X677629Y255006D01*
X677620Y254988D01*
X677607Y254973D01*
X677568Y254877D01*
X677525Y254783D01*
X677523Y254763D01*
X677515Y254745D01*
X677497Y254578D01*
X677497Y242799D01*
X673686Y242799D01*
X673039Y242972D01*
X672913Y243046D01*
X672872Y243061D01*
X672835Y243085D01*
X672757Y243104D01*
X672683Y243133D01*
X672639Y243134D01*
X672596Y243145D01*
X672517Y243139D01*
X672437Y243142D01*
X672395Y243129D01*
X672351Y243126D01*
X672278Y243094D01*
X672201Y243072D01*
X672165Y243047D01*
X672125Y243029D01*
X672011Y242939D01*
X672000Y242930D01*
X671998Y242928D01*
X671994Y242925D01*
X670598Y241529D01*
X657442Y241529D01*
G37*
%LPD*%
G36*
X297828Y252860D02*
X297828Y252860D01*
X297847Y252858D01*
X297949Y252880D01*
X298051Y252896D01*
X298068Y252906D01*
X298088Y252910D01*
X298177Y252963D01*
X298268Y253012D01*
X298282Y253026D01*
X298299Y253036D01*
X298366Y253115D01*
X298438Y253190D01*
X298446Y253208D01*
X298459Y253223D01*
X298498Y253319D01*
X298541Y253413D01*
X298543Y253433D01*
X298551Y253451D01*
X298569Y253618D01*
X298569Y258217D01*
X307848Y258217D01*
X307868Y258220D01*
X307887Y258218D01*
X307989Y258240D01*
X308091Y258257D01*
X308108Y258266D01*
X308128Y258270D01*
X308217Y258323D01*
X308308Y258372D01*
X308322Y258386D01*
X308339Y258396D01*
X308406Y258475D01*
X308477Y258550D01*
X308486Y258568D01*
X308499Y258583D01*
X308538Y258679D01*
X308581Y258773D01*
X308583Y258793D01*
X308591Y258811D01*
X308609Y258978D01*
X308609Y260502D01*
X308606Y260522D01*
X308608Y260541D01*
X308586Y260643D01*
X308569Y260745D01*
X308560Y260762D01*
X308556Y260782D01*
X308503Y260871D01*
X308454Y260962D01*
X308440Y260976D01*
X308430Y260993D01*
X308351Y261060D01*
X308276Y261131D01*
X308258Y261140D01*
X308243Y261153D01*
X308147Y261192D01*
X308053Y261235D01*
X308033Y261237D01*
X308015Y261245D01*
X307848Y261263D01*
X298569Y261263D01*
X298569Y266574D01*
X298742Y267221D01*
X299077Y267800D01*
X299080Y267804D01*
X299092Y267820D01*
X299108Y267832D01*
X299164Y267919D01*
X299224Y268003D01*
X299230Y268022D01*
X299241Y268039D01*
X299266Y268140D01*
X299296Y268238D01*
X299296Y268258D01*
X299301Y268278D01*
X299293Y268381D01*
X299290Y268484D01*
X299283Y268503D01*
X299282Y268523D01*
X299241Y268618D01*
X299206Y268715D01*
X299193Y268731D01*
X299185Y268749D01*
X299081Y268880D01*
X297299Y270662D01*
X297299Y286818D01*
X298707Y288227D01*
X298719Y288243D01*
X298735Y288255D01*
X298791Y288342D01*
X298851Y288426D01*
X298857Y288445D01*
X298868Y288462D01*
X298893Y288563D01*
X298923Y288661D01*
X298923Y288681D01*
X298928Y288701D01*
X298920Y288804D01*
X298917Y288907D01*
X298910Y288926D01*
X298908Y288946D01*
X298868Y289041D01*
X298866Y289046D01*
X298864Y289058D01*
X298859Y289066D01*
X298832Y289138D01*
X298820Y289154D01*
X298812Y289172D01*
X298746Y289255D01*
X298737Y289269D01*
X298728Y289277D01*
X298707Y289303D01*
X295730Y292281D01*
X295720Y292343D01*
X295710Y292360D01*
X295706Y292380D01*
X295653Y292469D01*
X295604Y292560D01*
X295590Y292574D01*
X295580Y292591D01*
X295501Y292658D01*
X295426Y292730D01*
X295408Y292738D01*
X295393Y292751D01*
X295297Y292790D01*
X295203Y292833D01*
X295183Y292835D01*
X295165Y292843D01*
X294998Y292861D01*
X214558Y292861D01*
X214443Y292842D01*
X214327Y292825D01*
X214322Y292823D01*
X214315Y292822D01*
X214213Y292767D01*
X214108Y292714D01*
X214104Y292709D01*
X214098Y292706D01*
X214018Y292622D01*
X213936Y292538D01*
X213932Y292532D01*
X213929Y292528D01*
X213921Y292511D01*
X213855Y292391D01*
X213235Y290896D01*
X209484Y287145D01*
X204583Y285114D01*
X199277Y285114D01*
X194376Y287145D01*
X190625Y290896D01*
X188594Y295797D01*
X188594Y296746D01*
X188583Y296817D01*
X188581Y296888D01*
X188563Y296937D01*
X188555Y296989D01*
X188521Y297052D01*
X188496Y297119D01*
X188464Y297160D01*
X188439Y297206D01*
X188387Y297255D01*
X188343Y297311D01*
X188299Y297340D01*
X188261Y297375D01*
X188196Y297406D01*
X188136Y297444D01*
X188085Y297457D01*
X188038Y297479D01*
X187967Y297487D01*
X187897Y297504D01*
X187845Y297500D01*
X187794Y297506D01*
X187723Y297491D01*
X187652Y297485D01*
X187604Y297465D01*
X187553Y297454D01*
X187492Y297417D01*
X187426Y297389D01*
X187370Y297344D01*
X187342Y297328D01*
X187327Y297310D01*
X187295Y297284D01*
X168610Y278599D01*
X166556Y277748D01*
X146805Y277748D01*
X146715Y277734D01*
X146624Y277726D01*
X146594Y277714D01*
X146562Y277709D01*
X146482Y277666D01*
X146398Y277630D01*
X146366Y277604D01*
X146345Y277593D01*
X146323Y277570D01*
X146267Y277525D01*
X142076Y273334D01*
X142034Y273276D01*
X141985Y273224D01*
X141963Y273177D01*
X141932Y273135D01*
X141911Y273066D01*
X141881Y273001D01*
X141875Y272949D01*
X141860Y272899D01*
X141862Y272828D01*
X141854Y272757D01*
X141865Y272706D01*
X141866Y272654D01*
X141891Y272586D01*
X141906Y272516D01*
X141933Y272472D01*
X141951Y272423D01*
X141996Y272367D01*
X142032Y272305D01*
X142072Y272271D01*
X142104Y272231D01*
X142165Y272192D01*
X142219Y272145D01*
X142268Y272126D01*
X142311Y272098D01*
X142381Y272080D01*
X142447Y272053D01*
X142519Y272045D01*
X142550Y272037D01*
X142573Y272039D01*
X142614Y272035D01*
X144014Y272035D01*
X150115Y265934D01*
X150115Y257306D01*
X146965Y254156D01*
X146923Y254098D01*
X146874Y254046D01*
X146852Y253999D01*
X146821Y253957D01*
X146800Y253888D01*
X146770Y253823D01*
X146764Y253771D01*
X146749Y253721D01*
X146751Y253650D01*
X146743Y253579D01*
X146754Y253528D01*
X146755Y253476D01*
X146780Y253408D01*
X146795Y253338D01*
X146822Y253293D01*
X146840Y253245D01*
X146885Y253189D01*
X146921Y253127D01*
X146961Y253093D01*
X146994Y253053D01*
X147054Y253014D01*
X147108Y252967D01*
X147157Y252948D01*
X147200Y252920D01*
X147270Y252902D01*
X147336Y252875D01*
X147408Y252867D01*
X147439Y252859D01*
X147462Y252861D01*
X147503Y252857D01*
X297808Y252857D01*
X297828Y252860D01*
G37*
%LPC*%
G36*
X341929Y125729D02*
X341929Y125729D01*
X335145Y127547D01*
X329064Y131058D01*
X324098Y136024D01*
X320587Y142105D01*
X318769Y148889D01*
X318769Y155911D01*
X320587Y162695D01*
X324098Y168776D01*
X329064Y173742D01*
X335145Y177253D01*
X341929Y179071D01*
X348951Y179071D01*
X355735Y177253D01*
X361816Y173742D01*
X366782Y168776D01*
X370293Y162695D01*
X372111Y155911D01*
X372111Y148889D01*
X370293Y142105D01*
X366782Y136024D01*
X361816Y131058D01*
X355735Y127547D01*
X348951Y125729D01*
X341929Y125729D01*
G37*
%LPD*%
%LPC*%
G36*
X880446Y314410D02*
X880446Y314410D01*
X879765Y315658D01*
X879762Y315662D01*
X879760Y315667D01*
X879687Y315758D01*
X879614Y315852D01*
X879609Y315855D01*
X879606Y315859D01*
X879507Y315923D01*
X879409Y315988D01*
X879404Y315989D01*
X879399Y315992D01*
X879284Y316021D01*
X879171Y316051D01*
X879166Y316050D01*
X879161Y316052D01*
X879043Y316043D01*
X878926Y316035D01*
X878921Y316033D01*
X878916Y316033D01*
X878808Y315987D01*
X878698Y315942D01*
X878694Y315938D01*
X878689Y315936D01*
X878558Y315831D01*
X876416Y313689D01*
X872628Y313689D01*
X869949Y316368D01*
X869949Y324457D01*
X869947Y324471D01*
X869948Y324493D01*
X869862Y326305D01*
X869885Y326340D01*
X869903Y326411D01*
X869931Y326479D01*
X869938Y326548D01*
X869946Y326578D01*
X869944Y326603D01*
X869949Y326646D01*
X869949Y336412D01*
X872628Y339091D01*
X876416Y339091D01*
X878530Y336976D01*
X878561Y336954D01*
X878587Y336926D01*
X878661Y336883D01*
X878730Y336833D01*
X878767Y336822D01*
X878800Y336803D01*
X878883Y336786D01*
X878965Y336761D01*
X879003Y336762D01*
X879041Y336754D01*
X879125Y336765D01*
X879211Y336767D01*
X879247Y336780D01*
X879285Y336785D01*
X879362Y336822D01*
X879442Y336851D01*
X879472Y336875D01*
X879506Y336892D01*
X879632Y337003D01*
X881444Y338995D01*
X885228Y339176D01*
X886228Y338266D01*
X886229Y338265D01*
X886230Y338264D01*
X886335Y338197D01*
X886434Y338132D01*
X886436Y338132D01*
X886437Y338131D01*
X886556Y338101D01*
X886673Y338071D01*
X886674Y338071D01*
X886676Y338071D01*
X886795Y338080D01*
X886918Y338089D01*
X886919Y338090D01*
X886921Y338090D01*
X887030Y338136D01*
X887145Y338185D01*
X887146Y338186D01*
X887147Y338186D01*
X887278Y338291D01*
X888078Y339091D01*
X899091Y339091D01*
X900947Y337235D01*
X900983Y337209D01*
X901012Y337177D01*
X901082Y337138D01*
X901147Y337091D01*
X901189Y337078D01*
X901227Y337057D01*
X901306Y337042D01*
X901382Y337019D01*
X901426Y337020D01*
X901469Y337012D01*
X901548Y337023D01*
X901628Y337025D01*
X901669Y337040D01*
X901713Y337046D01*
X901846Y337105D01*
X901859Y337109D01*
X901862Y337112D01*
X901866Y337114D01*
X905291Y339091D01*
X909677Y339091D01*
X912966Y337192D01*
X913007Y337176D01*
X913044Y337152D01*
X913122Y337133D01*
X913196Y337105D01*
X913240Y337103D01*
X913283Y337092D01*
X913362Y337099D01*
X913442Y337096D01*
X913484Y337108D01*
X913528Y337111D01*
X913601Y337143D01*
X913678Y337165D01*
X913714Y337191D01*
X913754Y337208D01*
X913868Y337299D01*
X913879Y337307D01*
X913881Y337309D01*
X913885Y337313D01*
X915663Y339091D01*
X928483Y339091D01*
X930767Y336807D01*
X930783Y336795D01*
X930795Y336780D01*
X930883Y336723D01*
X930966Y336663D01*
X930985Y336657D01*
X931002Y336647D01*
X931103Y336621D01*
X931201Y336591D01*
X931221Y336591D01*
X931241Y336586D01*
X931344Y336594D01*
X931447Y336597D01*
X931466Y336604D01*
X931486Y336606D01*
X931581Y336646D01*
X931678Y336682D01*
X931694Y336694D01*
X931712Y336702D01*
X931843Y336807D01*
X934127Y339091D01*
X937915Y339091D01*
X939292Y337714D01*
X939308Y337703D01*
X939321Y337687D01*
X939386Y337645D01*
X939428Y337609D01*
X939452Y337599D01*
X939492Y337571D01*
X939511Y337565D01*
X939528Y337554D01*
X939625Y337529D01*
X939657Y337517D01*
X939673Y337515D01*
X939727Y337498D01*
X939747Y337499D01*
X939766Y337494D01*
X939823Y337498D01*
X939837Y337498D01*
X939852Y337501D01*
X939869Y337502D01*
X939973Y337505D01*
X939992Y337511D01*
X940011Y337513D01*
X940064Y337535D01*
X940080Y337538D01*
X940116Y337557D01*
X940204Y337589D01*
X940219Y337602D01*
X940238Y337609D01*
X940282Y337645D01*
X940298Y337653D01*
X940314Y337670D01*
X940369Y337714D01*
X941745Y339091D01*
X952758Y339091D01*
X955437Y336412D01*
X955437Y332624D01*
X953354Y330541D01*
X953342Y330525D01*
X953327Y330512D01*
X953270Y330425D01*
X953210Y330341D01*
X953204Y330322D01*
X953194Y330305D01*
X953168Y330205D01*
X953138Y330106D01*
X953138Y330086D01*
X953133Y330067D01*
X953141Y329964D01*
X953144Y329860D01*
X953151Y329841D01*
X953153Y329821D01*
X953193Y329727D01*
X953229Y329629D01*
X953241Y329613D01*
X953249Y329595D01*
X953354Y329464D01*
X953631Y329187D01*
X953631Y325399D01*
X952366Y324134D01*
X952324Y324076D01*
X952275Y324024D01*
X952253Y323977D01*
X952222Y323935D01*
X952201Y323866D01*
X952171Y323801D01*
X952165Y323749D01*
X952150Y323699D01*
X952152Y323628D01*
X952144Y323557D01*
X952155Y323506D01*
X952156Y323454D01*
X952181Y323386D01*
X952196Y323316D01*
X952223Y323271D01*
X952241Y323223D01*
X952286Y323167D01*
X952322Y323105D01*
X952362Y323071D01*
X952395Y323031D01*
X952455Y322992D01*
X952509Y322945D01*
X952558Y322926D01*
X952601Y322898D01*
X952671Y322880D01*
X952737Y322853D01*
X952740Y322853D01*
X955437Y320156D01*
X955437Y316368D01*
X952758Y313689D01*
X941745Y313689D01*
X939524Y315911D01*
X939428Y315979D01*
X939331Y316051D01*
X939327Y316052D01*
X939324Y316054D01*
X939211Y316089D01*
X939097Y316126D01*
X939093Y316125D01*
X939089Y316127D01*
X938969Y316124D01*
X938851Y316122D01*
X938847Y316120D01*
X938843Y316120D01*
X938731Y316079D01*
X938619Y316040D01*
X938616Y316037D01*
X938612Y316036D01*
X938519Y315961D01*
X938467Y315921D01*
X934602Y313689D01*
X928709Y313689D01*
X926876Y315522D01*
X926860Y315533D01*
X926848Y315549D01*
X926760Y315605D01*
X926676Y315665D01*
X926657Y315671D01*
X926641Y315682D01*
X926540Y315707D01*
X926441Y315738D01*
X926421Y315737D01*
X926402Y315742D01*
X926299Y315734D01*
X926195Y315731D01*
X926177Y315724D01*
X926157Y315723D01*
X926062Y315683D01*
X925964Y315647D01*
X925949Y315634D01*
X925931Y315627D01*
X925800Y315522D01*
X923967Y313689D01*
X920179Y313689D01*
X917500Y316368D01*
X917500Y319109D01*
X917492Y319156D01*
X917494Y319204D01*
X917473Y319277D01*
X917460Y319352D01*
X917438Y319394D01*
X917424Y319440D01*
X917381Y319502D01*
X917345Y319569D01*
X917311Y319602D01*
X917283Y319641D01*
X917222Y319686D01*
X917167Y319738D01*
X917124Y319759D01*
X917085Y319787D01*
X917013Y319810D01*
X916944Y319842D01*
X916896Y319847D01*
X916851Y319862D01*
X916775Y319861D01*
X916700Y319869D01*
X916653Y319859D01*
X916605Y319858D01*
X916533Y319833D01*
X916459Y319817D01*
X916418Y319792D01*
X916373Y319776D01*
X916313Y319730D01*
X916248Y319691D01*
X916217Y319654D01*
X916179Y319625D01*
X916103Y319521D01*
X916088Y319504D01*
X916086Y319498D01*
X916080Y319490D01*
X914137Y316124D01*
X909919Y313689D01*
X905049Y313689D01*
X901778Y315578D01*
X901737Y315593D01*
X901700Y315617D01*
X901622Y315637D01*
X901547Y315665D01*
X901504Y315666D01*
X901461Y315677D01*
X901382Y315671D01*
X901302Y315674D01*
X901260Y315661D01*
X901216Y315658D01*
X901142Y315627D01*
X901066Y315604D01*
X901030Y315579D01*
X900990Y315562D01*
X900876Y315471D01*
X900864Y315463D01*
X900863Y315460D01*
X900859Y315457D01*
X899091Y313689D01*
X888078Y313689D01*
X887295Y314472D01*
X887267Y314492D01*
X887245Y314518D01*
X887168Y314564D01*
X887096Y314616D01*
X887063Y314626D01*
X887033Y314643D01*
X886946Y314662D01*
X886860Y314688D01*
X886826Y314687D01*
X886792Y314694D01*
X886704Y314684D01*
X886615Y314682D01*
X886582Y314670D01*
X886548Y314666D01*
X886392Y314602D01*
X884080Y313341D01*
X880446Y314410D01*
G37*
%LPD*%
%LPC*%
G36*
X854668Y30043D02*
X854668Y30043D01*
X854121Y31139D01*
X854110Y31154D01*
X854103Y31172D01*
X854038Y31253D01*
X853976Y31338D01*
X853961Y31349D01*
X853949Y31364D01*
X853861Y31420D01*
X853776Y31481D01*
X853758Y31486D01*
X853742Y31497D01*
X853641Y31522D01*
X853541Y31553D01*
X853522Y31552D01*
X853504Y31557D01*
X853400Y31548D01*
X853295Y31545D01*
X853277Y31539D01*
X853259Y31537D01*
X853163Y31497D01*
X853064Y31460D01*
X853050Y31449D01*
X853032Y31441D01*
X852901Y31336D01*
X850774Y29209D01*
X846986Y29209D01*
X844307Y31888D01*
X844307Y37418D01*
X844292Y37512D01*
X844284Y37607D01*
X844272Y37633D01*
X844268Y37661D01*
X844223Y37745D01*
X844185Y37833D01*
X844166Y37853D01*
X844153Y37878D01*
X844084Y37944D01*
X844019Y38015D01*
X843995Y38028D01*
X843974Y38048D01*
X843888Y38088D01*
X843805Y38134D01*
X843777Y38140D01*
X843751Y38151D01*
X843656Y38162D01*
X843563Y38179D01*
X843535Y38175D01*
X843507Y38179D01*
X843414Y38158D01*
X843319Y38145D01*
X843287Y38131D01*
X843266Y38126D01*
X843238Y38109D01*
X843166Y38078D01*
X840319Y36434D01*
X838702Y36434D01*
X838683Y36431D01*
X838663Y36433D01*
X838562Y36411D01*
X838460Y36394D01*
X838442Y36385D01*
X838423Y36381D01*
X838334Y36328D01*
X838242Y36279D01*
X838229Y36265D01*
X838211Y36255D01*
X838144Y36176D01*
X838073Y36101D01*
X838064Y36083D01*
X838052Y36068D01*
X838013Y35972D01*
X837969Y35878D01*
X837967Y35858D01*
X837960Y35840D01*
X837941Y35673D01*
X837941Y31888D01*
X835262Y29209D01*
X831474Y29209D01*
X830859Y29825D01*
X830786Y29877D01*
X830717Y29936D01*
X830686Y29949D01*
X830659Y29968D01*
X830573Y29995D01*
X830489Y30029D01*
X830456Y30031D01*
X830424Y30041D01*
X830334Y30038D01*
X830244Y30044D01*
X830202Y30035D01*
X830178Y30034D01*
X830148Y30023D01*
X830080Y30009D01*
X826588Y28845D01*
X823200Y30539D01*
X822462Y32753D01*
X822453Y32771D01*
X822448Y32792D01*
X822395Y32880D01*
X822348Y32970D01*
X822333Y32985D01*
X822322Y33003D01*
X822244Y33070D01*
X822170Y33140D01*
X822151Y33149D01*
X822135Y33163D01*
X822040Y33201D01*
X821947Y33245D01*
X821926Y33247D01*
X821907Y33255D01*
X821740Y33273D01*
X821301Y33273D01*
X821280Y33270D01*
X821260Y33272D01*
X821159Y33250D01*
X821058Y33234D01*
X821040Y33224D01*
X821019Y33219D01*
X820931Y33166D01*
X820841Y33118D01*
X820827Y33103D01*
X820809Y33092D01*
X820742Y33014D01*
X820672Y32940D01*
X820663Y32921D01*
X820649Y32905D01*
X820579Y32753D01*
X819841Y30539D01*
X816453Y28845D01*
X812859Y30043D01*
X811165Y33431D01*
X812845Y38471D01*
X812851Y38509D01*
X812865Y38545D01*
X812884Y38712D01*
X812884Y39740D01*
X813333Y40189D01*
X813387Y40264D01*
X813447Y40334D01*
X813463Y40370D01*
X813476Y40389D01*
X813486Y40420D01*
X813517Y40487D01*
X816620Y49797D01*
X816626Y49834D01*
X816640Y49869D01*
X816646Y49955D01*
X816659Y50040D01*
X816653Y50077D01*
X816656Y50115D01*
X816620Y50279D01*
X816584Y50389D01*
X817261Y51744D01*
X817271Y51775D01*
X817302Y51844D01*
X817782Y53281D01*
X817885Y53333D01*
X817916Y53355D01*
X817951Y53369D01*
X818015Y53426D01*
X818085Y53477D01*
X818107Y53508D01*
X818135Y53532D01*
X818226Y53673D01*
X818278Y53777D01*
X819715Y54256D01*
X819744Y54271D01*
X819815Y54297D01*
X821170Y54975D01*
X821280Y54938D01*
X821317Y54932D01*
X821352Y54918D01*
X821438Y54913D01*
X821523Y54899D01*
X821560Y54905D01*
X821597Y54903D01*
X821761Y54938D01*
X821872Y54975D01*
X823227Y54297D01*
X823258Y54288D01*
X823326Y54256D01*
X824764Y53777D01*
X824815Y53673D01*
X824838Y53643D01*
X824852Y53608D01*
X824909Y53544D01*
X824960Y53474D01*
X824990Y53452D01*
X825015Y53424D01*
X825156Y53333D01*
X825260Y53281D01*
X825739Y51844D01*
X825754Y51815D01*
X825780Y51744D01*
X826458Y50389D01*
X826421Y50279D01*
X826415Y50242D01*
X826401Y50207D01*
X826396Y50121D01*
X826382Y50036D01*
X826388Y49999D01*
X826386Y49961D01*
X826421Y49797D01*
X827312Y47123D01*
X827313Y47123D01*
X827313Y47121D01*
X827371Y47012D01*
X827427Y46906D01*
X827427Y46905D01*
X827428Y46904D01*
X827518Y46818D01*
X827605Y46736D01*
X827605Y46735D01*
X827606Y46735D01*
X827719Y46682D01*
X827827Y46632D01*
X827828Y46632D01*
X827829Y46631D01*
X827945Y46618D01*
X828072Y46604D01*
X828073Y46604D01*
X828074Y46604D01*
X828189Y46629D01*
X828312Y46655D01*
X828313Y46656D01*
X828314Y46656D01*
X828417Y46718D01*
X828524Y46781D01*
X828524Y46782D01*
X828525Y46782D01*
X828606Y46877D01*
X828684Y46968D01*
X828685Y46969D01*
X828732Y47086D01*
X828777Y47195D01*
X828777Y47196D01*
X828777Y47197D01*
X828796Y47364D01*
X828796Y51932D01*
X831474Y54611D01*
X840319Y54611D01*
X844040Y52462D01*
X844081Y52447D01*
X844118Y52423D01*
X844195Y52404D01*
X844270Y52376D01*
X844314Y52374D01*
X844356Y52363D01*
X844436Y52369D01*
X844516Y52366D01*
X844558Y52379D01*
X844602Y52382D01*
X844675Y52414D01*
X844752Y52436D01*
X844788Y52461D01*
X844828Y52479D01*
X844942Y52570D01*
X844953Y52578D01*
X844955Y52580D01*
X844959Y52583D01*
X846986Y54611D01*
X855831Y54611D01*
X860049Y52176D01*
X860281Y51774D01*
X860341Y51700D01*
X860396Y51622D01*
X860419Y51605D01*
X860437Y51583D01*
X860517Y51533D01*
X860594Y51476D01*
X860621Y51468D01*
X860645Y51453D01*
X860737Y51431D01*
X860828Y51401D01*
X860857Y51402D01*
X860884Y51395D01*
X860979Y51404D01*
X861074Y51405D01*
X861101Y51415D01*
X861129Y51417D01*
X861216Y51455D01*
X861306Y51487D01*
X861328Y51504D01*
X861354Y51516D01*
X861425Y51580D01*
X861500Y51639D01*
X861521Y51667D01*
X861536Y51681D01*
X861552Y51710D01*
X861599Y51774D01*
X861971Y52418D01*
X865770Y54611D01*
X867963Y54611D01*
X869886Y54611D01*
X869902Y54598D01*
X869938Y54581D01*
X869956Y54568D01*
X869987Y54558D01*
X870054Y54527D01*
X873298Y53446D01*
X874770Y52342D01*
X876286Y51205D01*
X876821Y47455D01*
X874795Y44753D01*
X874761Y44687D01*
X874718Y44626D01*
X874704Y44579D01*
X874681Y44535D01*
X874670Y44461D01*
X874649Y44390D01*
X874651Y44341D01*
X874643Y44292D01*
X874655Y44219D01*
X874658Y44144D01*
X874676Y44098D01*
X874684Y44050D01*
X874719Y43984D01*
X874746Y43914D01*
X874777Y43876D01*
X874800Y43833D01*
X874855Y43782D01*
X874902Y43724D01*
X874957Y43686D01*
X874980Y43665D01*
X875002Y43654D01*
X875038Y43629D01*
X875078Y43589D01*
X875126Y43526D01*
X875174Y43490D01*
X875195Y43469D01*
X875219Y43456D01*
X875260Y43425D01*
X875331Y43384D01*
X877503Y39583D01*
X877503Y35201D01*
X875309Y31402D01*
X871511Y29209D01*
X866877Y29209D01*
X862655Y30968D01*
X862608Y30979D01*
X862565Y31000D01*
X862489Y31008D01*
X862415Y31025D01*
X862368Y31021D01*
X862320Y31026D01*
X862246Y31010D01*
X862170Y31003D01*
X862127Y30983D01*
X862080Y30973D01*
X862015Y30934D01*
X861945Y30903D01*
X861910Y30871D01*
X861869Y30846D01*
X861820Y30788D01*
X861764Y30737D01*
X861741Y30695D01*
X861710Y30659D01*
X861656Y30542D01*
X858262Y28845D01*
X854668Y30043D01*
G37*
%LPD*%
%LPC*%
G36*
X890539Y28882D02*
X890539Y28882D01*
X890502Y28888D01*
X890467Y28902D01*
X890381Y28907D01*
X890296Y28921D01*
X890259Y28915D01*
X890221Y28917D01*
X890057Y28882D01*
X889947Y28845D01*
X888592Y29523D01*
X888561Y29532D01*
X888492Y29564D01*
X887055Y30043D01*
X887003Y30147D01*
X886981Y30177D01*
X886967Y30212D01*
X886910Y30276D01*
X886859Y30346D01*
X886829Y30368D01*
X886804Y30396D01*
X886663Y30487D01*
X886559Y30539D01*
X886080Y31976D01*
X886065Y32005D01*
X886039Y32076D01*
X885361Y33431D01*
X885398Y33541D01*
X885399Y33550D01*
X885401Y33554D01*
X885404Y33579D01*
X885418Y33613D01*
X885423Y33699D01*
X885437Y33784D01*
X885431Y33821D01*
X885433Y33859D01*
X885398Y34023D01*
X881749Y44970D01*
X883443Y48358D01*
X887037Y49556D01*
X889958Y48096D01*
X889979Y48089D01*
X889997Y48077D01*
X890096Y48053D01*
X890192Y48023D01*
X890215Y48023D01*
X890236Y48018D01*
X890337Y48026D01*
X890438Y48028D01*
X890459Y48036D01*
X890481Y48038D01*
X890638Y48096D01*
X893560Y49556D01*
X894276Y49318D01*
X894295Y49315D01*
X894312Y49307D01*
X894415Y49295D01*
X894519Y49279D01*
X894537Y49282D01*
X894556Y49280D01*
X894658Y49302D01*
X894761Y49319D01*
X894778Y49328D01*
X894796Y49332D01*
X894886Y49385D01*
X894978Y49435D01*
X894991Y49448D01*
X895008Y49458D01*
X895076Y49537D01*
X895147Y49613D01*
X895155Y49631D01*
X895167Y49645D01*
X895207Y49742D01*
X895250Y49837D01*
X895252Y49855D01*
X895259Y49873D01*
X895278Y50040D01*
X895278Y51932D01*
X897956Y54611D01*
X907462Y54611D01*
X911261Y52418D01*
X913454Y48619D01*
X913454Y44232D01*
X912664Y42863D01*
X912640Y42800D01*
X912607Y42741D01*
X912597Y42686D01*
X912577Y42633D01*
X912574Y42565D01*
X912562Y42499D01*
X912570Y42443D01*
X912568Y42387D01*
X912587Y42322D01*
X912597Y42255D01*
X912628Y42183D01*
X912638Y42151D01*
X912650Y42134D01*
X912664Y42102D01*
X913454Y40733D01*
X913454Y40019D01*
X913458Y39999D01*
X913455Y39980D01*
X913477Y39878D01*
X913494Y39776D01*
X913503Y39759D01*
X913508Y39739D01*
X913561Y39650D01*
X913609Y39559D01*
X913624Y39545D01*
X913634Y39528D01*
X913713Y39461D01*
X913788Y39390D01*
X913806Y39381D01*
X913821Y39368D01*
X913917Y39329D01*
X914011Y39286D01*
X914030Y39284D01*
X914049Y39276D01*
X914216Y39258D01*
X916400Y39258D01*
X916420Y39261D01*
X916440Y39259D01*
X916541Y39281D01*
X916643Y39298D01*
X916661Y39307D01*
X916680Y39311D01*
X916769Y39364D01*
X916860Y39413D01*
X916874Y39427D01*
X916891Y39437D01*
X916959Y39516D01*
X917030Y39591D01*
X917038Y39609D01*
X917051Y39624D01*
X917090Y39720D01*
X917133Y39814D01*
X917136Y39834D01*
X917143Y39852D01*
X917162Y40019D01*
X917162Y43961D01*
X917165Y43971D01*
X918082Y47944D01*
X918834Y49488D01*
X918843Y49518D01*
X918870Y49575D01*
X919586Y51662D01*
X923714Y54611D01*
X928786Y54611D01*
X932914Y51662D01*
X933629Y49575D01*
X933644Y49548D01*
X933665Y49488D01*
X933789Y49234D01*
X933838Y49165D01*
X933879Y49092D01*
X933916Y49055D01*
X933931Y49033D01*
X933956Y49015D01*
X933998Y48973D01*
X934198Y48813D01*
X934243Y48403D01*
X934256Y48358D01*
X934259Y48312D01*
X934304Y48186D01*
X934310Y48166D01*
X934313Y48162D01*
X934316Y48154D01*
X934418Y47944D01*
X935335Y43971D01*
X935337Y43966D01*
X935337Y43961D01*
X935338Y43959D01*
X935338Y39859D01*
X935335Y39849D01*
X934418Y35875D01*
X933665Y34332D01*
X933656Y34302D01*
X933629Y34245D01*
X932914Y32158D01*
X928786Y29209D01*
X923714Y29209D01*
X920703Y31359D01*
X920631Y31395D01*
X920564Y31438D01*
X920522Y31449D01*
X920483Y31468D01*
X920403Y31479D01*
X920325Y31499D01*
X920282Y31495D01*
X920239Y31501D01*
X920160Y31486D01*
X920080Y31479D01*
X920040Y31462D01*
X919997Y31454D01*
X919927Y31415D01*
X919854Y31383D01*
X919809Y31347D01*
X919783Y31333D01*
X919765Y31312D01*
X919723Y31278D01*
X917654Y29209D01*
X912962Y29209D01*
X911120Y31051D01*
X911085Y31077D01*
X911055Y31109D01*
X910985Y31148D01*
X910921Y31195D01*
X910879Y31208D01*
X910840Y31229D01*
X910762Y31244D01*
X910685Y31267D01*
X910642Y31266D01*
X910599Y31274D01*
X910519Y31263D01*
X910440Y31261D01*
X910398Y31246D01*
X910355Y31240D01*
X910222Y31181D01*
X910209Y31176D01*
X910206Y31174D01*
X910201Y31172D01*
X906801Y29209D01*
X897956Y29209D01*
X895556Y31610D01*
X895496Y31653D01*
X895444Y31703D01*
X895397Y31724D01*
X895356Y31754D01*
X895286Y31775D01*
X895220Y31806D01*
X895169Y31811D01*
X895121Y31826D01*
X895048Y31824D01*
X894976Y31832D01*
X894926Y31821D01*
X894875Y31820D01*
X894807Y31795D01*
X894735Y31779D01*
X894692Y31753D01*
X894644Y31735D01*
X894587Y31690D01*
X894525Y31652D01*
X894492Y31614D01*
X894452Y31582D01*
X894412Y31520D01*
X894365Y31465D01*
X894336Y31402D01*
X894319Y31375D01*
X894313Y31351D01*
X894295Y31313D01*
X894037Y30539D01*
X893933Y30487D01*
X893903Y30465D01*
X893868Y30451D01*
X893804Y30394D01*
X893734Y30343D01*
X893712Y30312D01*
X893684Y30288D01*
X893593Y30147D01*
X893541Y30043D01*
X892104Y29564D01*
X892075Y29549D01*
X892004Y29523D01*
X890649Y28845D01*
X890539Y28882D01*
G37*
%LPD*%
%LPC*%
G36*
X74141Y211709D02*
X74141Y211709D01*
X70337Y213285D01*
X67425Y216197D01*
X65849Y220001D01*
X65849Y237199D01*
X67425Y241003D01*
X70337Y243915D01*
X74141Y245491D01*
X78259Y245491D01*
X82063Y243915D01*
X84975Y241003D01*
X86551Y237199D01*
X86551Y220001D01*
X84975Y216197D01*
X82063Y213285D01*
X78259Y211709D01*
X74141Y211709D01*
G37*
%LPD*%
%LPC*%
G36*
X353541Y59309D02*
X353541Y59309D01*
X349737Y60885D01*
X346825Y63797D01*
X345249Y67601D01*
X345249Y84799D01*
X346825Y88603D01*
X349737Y91515D01*
X353541Y93091D01*
X357659Y93091D01*
X361463Y91515D01*
X364375Y88603D01*
X365951Y84799D01*
X365951Y67601D01*
X364375Y63797D01*
X361463Y60885D01*
X357659Y59309D01*
X353541Y59309D01*
G37*
%LPD*%
%LPC*%
G36*
X74141Y59309D02*
X74141Y59309D01*
X70337Y60885D01*
X67425Y63797D01*
X65849Y67601D01*
X65849Y84799D01*
X67425Y88603D01*
X70337Y91515D01*
X74141Y93091D01*
X78259Y93091D01*
X82063Y91515D01*
X84975Y88603D01*
X86551Y84799D01*
X86551Y67601D01*
X84975Y63797D01*
X82063Y60885D01*
X78259Y59309D01*
X74141Y59309D01*
G37*
%LPD*%
%LPC*%
G36*
X150341Y59309D02*
X150341Y59309D01*
X146537Y60885D01*
X143625Y63797D01*
X142049Y67601D01*
X142049Y84799D01*
X143625Y88603D01*
X146537Y91515D01*
X150341Y93091D01*
X154459Y93091D01*
X158263Y91515D01*
X161175Y88603D01*
X162751Y84799D01*
X162751Y67601D01*
X161175Y63797D01*
X158263Y60885D01*
X154459Y59309D01*
X150341Y59309D01*
G37*
%LPD*%
%LPC*%
G36*
X201141Y59309D02*
X201141Y59309D01*
X197337Y60885D01*
X194425Y63797D01*
X192849Y67601D01*
X192849Y84799D01*
X194425Y88603D01*
X197337Y91515D01*
X201141Y93091D01*
X205259Y93091D01*
X209063Y91515D01*
X211975Y88603D01*
X213551Y84799D01*
X213551Y67601D01*
X211975Y63797D01*
X209063Y60885D01*
X205259Y59309D01*
X201141Y59309D01*
G37*
%LPD*%
%LPC*%
G36*
X226541Y59309D02*
X226541Y59309D01*
X222737Y60885D01*
X219825Y63797D01*
X218249Y67601D01*
X218249Y84799D01*
X219825Y88603D01*
X222737Y91515D01*
X226541Y93091D01*
X230659Y93091D01*
X234463Y91515D01*
X237375Y88603D01*
X238951Y84799D01*
X238951Y67601D01*
X237375Y63797D01*
X234463Y60885D01*
X230659Y59309D01*
X226541Y59309D01*
G37*
%LPD*%
%LPC*%
G36*
X378941Y59309D02*
X378941Y59309D01*
X375137Y60885D01*
X372225Y63797D01*
X370649Y67601D01*
X370649Y84799D01*
X372225Y88603D01*
X375137Y91515D01*
X378941Y93091D01*
X383059Y93091D01*
X386863Y91515D01*
X389775Y88603D01*
X391351Y84799D01*
X391351Y67601D01*
X389775Y63797D01*
X386863Y60885D01*
X383059Y59309D01*
X378941Y59309D01*
G37*
%LPD*%
%LPC*%
G36*
X175741Y59309D02*
X175741Y59309D01*
X171937Y60885D01*
X169025Y63797D01*
X167449Y67601D01*
X167449Y84799D01*
X169025Y88603D01*
X171937Y91515D01*
X175741Y93091D01*
X179859Y93091D01*
X183663Y91515D01*
X186575Y88603D01*
X188151Y84799D01*
X188151Y67601D01*
X186575Y63797D01*
X183663Y60885D01*
X179859Y59309D01*
X175741Y59309D01*
G37*
%LPD*%
%LPC*%
G36*
X414347Y142239D02*
X414347Y142239D01*
X412114Y144472D01*
X412114Y160328D01*
X414347Y162561D01*
X423853Y162561D01*
X424912Y161502D01*
X424928Y161491D01*
X424940Y161475D01*
X425028Y161419D01*
X425111Y161359D01*
X425130Y161353D01*
X425147Y161342D01*
X425248Y161317D01*
X425347Y161287D01*
X425366Y161287D01*
X425386Y161282D01*
X425489Y161290D01*
X425592Y161293D01*
X425611Y161300D01*
X425631Y161301D01*
X425726Y161342D01*
X425823Y161377D01*
X425839Y161390D01*
X425857Y161398D01*
X425988Y161502D01*
X427047Y162561D01*
X436553Y162561D01*
X438786Y160328D01*
X438786Y144472D01*
X436553Y142239D01*
X427047Y142239D01*
X425988Y143298D01*
X425972Y143309D01*
X425960Y143325D01*
X425872Y143381D01*
X425789Y143441D01*
X425770Y143447D01*
X425753Y143458D01*
X425652Y143483D01*
X425553Y143513D01*
X425534Y143513D01*
X425514Y143518D01*
X425411Y143510D01*
X425308Y143507D01*
X425289Y143500D01*
X425269Y143499D01*
X425174Y143458D01*
X425077Y143423D01*
X425061Y143410D01*
X425043Y143402D01*
X424912Y143298D01*
X423853Y142239D01*
X414347Y142239D01*
G37*
%LPD*%
%LPC*%
G36*
X414347Y167639D02*
X414347Y167639D01*
X412114Y169872D01*
X412114Y185728D01*
X414347Y187961D01*
X423853Y187961D01*
X424912Y186902D01*
X424928Y186891D01*
X424940Y186875D01*
X425028Y186819D01*
X425111Y186759D01*
X425130Y186753D01*
X425147Y186742D01*
X425248Y186717D01*
X425347Y186687D01*
X425366Y186687D01*
X425386Y186682D01*
X425489Y186690D01*
X425592Y186693D01*
X425611Y186700D01*
X425631Y186701D01*
X425726Y186742D01*
X425823Y186777D01*
X425839Y186790D01*
X425857Y186798D01*
X425988Y186902D01*
X427047Y187961D01*
X436553Y187961D01*
X438786Y185728D01*
X438786Y169872D01*
X436553Y167639D01*
X427047Y167639D01*
X425988Y168698D01*
X425972Y168709D01*
X425960Y168725D01*
X425872Y168781D01*
X425789Y168841D01*
X425770Y168847D01*
X425753Y168858D01*
X425652Y168883D01*
X425553Y168913D01*
X425534Y168913D01*
X425514Y168918D01*
X425411Y168910D01*
X425308Y168907D01*
X425289Y168900D01*
X425269Y168899D01*
X425174Y168858D01*
X425077Y168823D01*
X425061Y168810D01*
X425043Y168802D01*
X424912Y168698D01*
X423853Y167639D01*
X414347Y167639D01*
G37*
%LPD*%
%LPC*%
G36*
X980568Y158054D02*
X980568Y158054D01*
X976111Y159900D01*
X972700Y163311D01*
X970854Y167768D01*
X970854Y172592D01*
X972700Y177049D01*
X976111Y180460D01*
X980568Y182306D01*
X985392Y182306D01*
X989849Y180460D01*
X993260Y177049D01*
X995106Y172592D01*
X995106Y167768D01*
X993260Y163311D01*
X989849Y159900D01*
X985392Y158054D01*
X980568Y158054D01*
G37*
%LPD*%
%LPC*%
G36*
X99405Y280669D02*
X99405Y280669D01*
X92709Y287365D01*
X92709Y296835D01*
X99405Y303531D01*
X108875Y303531D01*
X115571Y296835D01*
X115571Y287365D01*
X108875Y280669D01*
X99405Y280669D01*
G37*
%LPD*%
%LPC*%
G36*
X38866Y149605D02*
X38866Y149605D01*
X32765Y155706D01*
X32765Y164334D01*
X38866Y170435D01*
X47494Y170435D01*
X53595Y164334D01*
X53595Y155706D01*
X47494Y149605D01*
X38866Y149605D01*
G37*
%LPD*%
%LPC*%
G36*
X33786Y185165D02*
X33786Y185165D01*
X27685Y191266D01*
X27685Y199894D01*
X33786Y205995D01*
X42414Y205995D01*
X48515Y199894D01*
X48515Y191266D01*
X42414Y185165D01*
X33786Y185165D01*
G37*
%LPD*%
%LPC*%
G36*
X427486Y32765D02*
X427486Y32765D01*
X421385Y38866D01*
X421385Y47494D01*
X427486Y53595D01*
X436114Y53595D01*
X442215Y47494D01*
X442215Y38866D01*
X436114Y32765D01*
X427486Y32765D01*
G37*
%LPD*%
%LPC*%
G36*
X238256Y182625D02*
X238256Y182625D01*
X232155Y188726D01*
X232155Y197354D01*
X238256Y203455D01*
X246884Y203455D01*
X252985Y197354D01*
X252985Y188726D01*
X246884Y182625D01*
X238256Y182625D01*
G37*
%LPD*%
%LPC*%
G36*
X351286Y32765D02*
X351286Y32765D01*
X345185Y38866D01*
X345185Y47494D01*
X351286Y53595D01*
X359914Y53595D01*
X366015Y47494D01*
X366015Y38866D01*
X359914Y32765D01*
X351286Y32765D01*
G37*
%LPD*%
%LPC*%
G36*
X148086Y153415D02*
X148086Y153415D01*
X141985Y159516D01*
X141985Y168144D01*
X148086Y174245D01*
X156714Y174245D01*
X162815Y168144D01*
X162815Y159516D01*
X156714Y153415D01*
X148086Y153415D01*
G37*
%LPD*%
%LPC*%
G36*
X435106Y262635D02*
X435106Y262635D01*
X429005Y268736D01*
X429005Y277364D01*
X435106Y283465D01*
X443734Y283465D01*
X449835Y277364D01*
X449835Y268736D01*
X443734Y262635D01*
X435106Y262635D01*
G37*
%LPD*%
%LPC*%
G36*
X115066Y149605D02*
X115066Y149605D01*
X108965Y155706D01*
X108965Y164334D01*
X115066Y170435D01*
X123694Y170435D01*
X129795Y164334D01*
X129795Y155706D01*
X123694Y149605D01*
X115066Y149605D01*
G37*
%LPD*%
%LPC*%
G36*
X706886Y303275D02*
X706886Y303275D01*
X700785Y309376D01*
X700785Y318004D01*
X706886Y324105D01*
X715514Y324105D01*
X721615Y318004D01*
X721615Y309376D01*
X715514Y303275D01*
X706886Y303275D01*
G37*
%LPD*%
%LPC*%
G36*
X173486Y120395D02*
X173486Y120395D01*
X167385Y126496D01*
X167385Y135124D01*
X173486Y141225D01*
X182114Y141225D01*
X188215Y135124D01*
X188215Y126496D01*
X182114Y120395D01*
X173486Y120395D01*
G37*
%LPD*%
%LPC*%
G36*
X54106Y114045D02*
X54106Y114045D01*
X48005Y120146D01*
X48005Y128774D01*
X54106Y134875D01*
X62734Y134875D01*
X68835Y128774D01*
X68835Y120146D01*
X62734Y114045D01*
X54106Y114045D01*
G37*
%LPD*%
%LPC*%
G36*
X162056Y182625D02*
X162056Y182625D01*
X155955Y188726D01*
X155955Y197354D01*
X162056Y203455D01*
X170684Y203455D01*
X176785Y197354D01*
X176785Y188726D01*
X170684Y182625D01*
X162056Y182625D01*
G37*
%LPD*%
G36*
X702690Y84332D02*
X702690Y84332D01*
X702709Y84330D01*
X702811Y84352D01*
X702913Y84368D01*
X702930Y84378D01*
X702950Y84382D01*
X703039Y84435D01*
X703130Y84484D01*
X703144Y84498D01*
X703161Y84508D01*
X703228Y84587D01*
X703300Y84662D01*
X703308Y84680D01*
X703321Y84695D01*
X703360Y84791D01*
X703403Y84885D01*
X703405Y84905D01*
X703413Y84923D01*
X703431Y85090D01*
X703431Y90768D01*
X703428Y90788D01*
X703430Y90807D01*
X703408Y90909D01*
X703392Y91011D01*
X703382Y91028D01*
X703378Y91048D01*
X703325Y91137D01*
X703276Y91228D01*
X703262Y91242D01*
X703252Y91259D01*
X703173Y91326D01*
X703098Y91398D01*
X703080Y91406D01*
X703065Y91419D01*
X702969Y91458D01*
X702875Y91501D01*
X702855Y91503D01*
X702837Y91511D01*
X702670Y91529D01*
X702442Y91529D01*
X701046Y92925D01*
X701011Y92950D01*
X700981Y92983D01*
X700934Y93009D01*
X700913Y93027D01*
X700893Y93035D01*
X700847Y93068D01*
X700805Y93081D01*
X700766Y93102D01*
X700690Y93117D01*
X700685Y93119D01*
X700681Y93119D01*
X700611Y93140D01*
X700568Y93139D01*
X700524Y93147D01*
X700445Y93136D01*
X700366Y93134D01*
X700324Y93119D01*
X700281Y93113D01*
X700148Y93055D01*
X700135Y93050D01*
X700132Y93048D01*
X700127Y93046D01*
X700001Y92972D01*
X699354Y92799D01*
X695543Y92799D01*
X695543Y104578D01*
X695541Y104589D01*
X695542Y104595D01*
X695541Y104603D01*
X695542Y104617D01*
X695520Y104719D01*
X695503Y104821D01*
X695494Y104838D01*
X695490Y104858D01*
X695437Y104947D01*
X695388Y105038D01*
X695374Y105052D01*
X695364Y105069D01*
X695285Y105136D01*
X695210Y105207D01*
X695192Y105216D01*
X695177Y105229D01*
X695081Y105268D01*
X694987Y105311D01*
X694967Y105313D01*
X694949Y105321D01*
X694782Y105339D01*
X693258Y105339D01*
X693238Y105336D01*
X693219Y105338D01*
X693117Y105316D01*
X693015Y105299D01*
X692998Y105290D01*
X692978Y105286D01*
X692889Y105233D01*
X692798Y105184D01*
X692784Y105170D01*
X692767Y105160D01*
X692700Y105081D01*
X692629Y105006D01*
X692620Y104988D01*
X692607Y104973D01*
X692568Y104877D01*
X692525Y104783D01*
X692523Y104763D01*
X692515Y104745D01*
X692497Y104578D01*
X692497Y92799D01*
X688686Y92799D01*
X688039Y92972D01*
X687913Y93046D01*
X687872Y93061D01*
X687835Y93085D01*
X687757Y93104D01*
X687683Y93133D01*
X687639Y93134D01*
X687596Y93145D01*
X687517Y93139D01*
X687437Y93142D01*
X687395Y93129D01*
X687351Y93126D01*
X687288Y93099D01*
X687279Y93097D01*
X687268Y93092D01*
X687201Y93072D01*
X687165Y93047D01*
X687125Y93029D01*
X687074Y92989D01*
X687061Y92982D01*
X687048Y92968D01*
X687011Y92939D01*
X687000Y92930D01*
X686998Y92928D01*
X686994Y92925D01*
X685598Y91529D01*
X672442Y91529D01*
X672058Y91913D01*
X672042Y91924D01*
X672030Y91940D01*
X671942Y91996D01*
X671859Y92056D01*
X671840Y92062D01*
X671823Y92073D01*
X671722Y92098D01*
X671623Y92128D01*
X671604Y92128D01*
X671584Y92133D01*
X671481Y92125D01*
X671378Y92122D01*
X671359Y92115D01*
X671339Y92114D01*
X671244Y92073D01*
X671147Y92038D01*
X671131Y92025D01*
X671113Y92017D01*
X670982Y91913D01*
X670598Y91529D01*
X670370Y91529D01*
X670350Y91526D01*
X670331Y91528D01*
X670229Y91506D01*
X670127Y91490D01*
X670110Y91480D01*
X670090Y91476D01*
X670001Y91423D01*
X669910Y91374D01*
X669896Y91360D01*
X669879Y91350D01*
X669812Y91271D01*
X669740Y91196D01*
X669732Y91178D01*
X669719Y91163D01*
X669680Y91067D01*
X669637Y90973D01*
X669635Y90953D01*
X669627Y90935D01*
X669609Y90768D01*
X669609Y85090D01*
X669612Y85070D01*
X669610Y85051D01*
X669632Y84949D01*
X669648Y84847D01*
X669658Y84830D01*
X669662Y84810D01*
X669715Y84721D01*
X669764Y84630D01*
X669778Y84616D01*
X669788Y84599D01*
X669867Y84532D01*
X669942Y84460D01*
X669960Y84452D01*
X669975Y84439D01*
X670071Y84400D01*
X670165Y84357D01*
X670185Y84355D01*
X670203Y84347D01*
X670370Y84329D01*
X702670Y84329D01*
X702690Y84332D01*
G37*
%LPC*%
G36*
X488350Y259841D02*
X488350Y259841D01*
X484896Y261272D01*
X482252Y263916D01*
X480821Y267370D01*
X480821Y271110D01*
X482252Y274564D01*
X484896Y277208D01*
X488350Y278639D01*
X492090Y278639D01*
X495544Y277208D01*
X498188Y274564D01*
X499619Y271110D01*
X499619Y267370D01*
X498188Y263916D01*
X495544Y261272D01*
X492090Y259841D01*
X488350Y259841D01*
G37*
%LPD*%
%LPC*%
G36*
X959004Y146204D02*
X959004Y146204D01*
X959004Y160493D01*
X960585Y160285D01*
X962595Y159746D01*
X964518Y158950D01*
X966320Y157910D01*
X967971Y156643D01*
X969443Y155171D01*
X970710Y153520D01*
X971750Y151718D01*
X972546Y149795D01*
X973085Y147785D01*
X973293Y146204D01*
X959004Y146204D01*
G37*
%LPD*%
%LPC*%
G36*
X1010002Y197202D02*
X1010002Y197202D01*
X1010002Y211491D01*
X1011583Y211283D01*
X1013593Y210744D01*
X1015516Y209948D01*
X1017318Y208908D01*
X1018969Y207641D01*
X1020441Y206169D01*
X1021708Y204518D01*
X1022748Y202716D01*
X1023544Y200793D01*
X1024083Y198783D01*
X1024291Y197202D01*
X1010002Y197202D01*
G37*
%LPD*%
%LPC*%
G36*
X1010002Y146204D02*
X1010002Y146204D01*
X1010002Y160493D01*
X1011583Y160285D01*
X1013593Y159746D01*
X1015516Y158950D01*
X1017318Y157910D01*
X1018969Y156643D01*
X1020441Y155171D01*
X1021708Y153520D01*
X1022748Y151718D01*
X1023544Y149795D01*
X1024083Y147785D01*
X1024291Y146204D01*
X1010002Y146204D01*
G37*
%LPD*%
%LPC*%
G36*
X959004Y197202D02*
X959004Y197202D01*
X959004Y211491D01*
X960585Y211283D01*
X962595Y210744D01*
X964518Y209948D01*
X966320Y208908D01*
X967971Y207641D01*
X969443Y206169D01*
X970710Y204518D01*
X971750Y202716D01*
X972546Y200793D01*
X973085Y198783D01*
X973293Y197202D01*
X959004Y197202D01*
G37*
%LPD*%
%LPC*%
G36*
X959004Y194156D02*
X959004Y194156D01*
X973293Y194156D01*
X973085Y192575D01*
X972546Y190565D01*
X971750Y188642D01*
X970710Y186840D01*
X969443Y185189D01*
X967971Y183717D01*
X966320Y182450D01*
X964518Y181410D01*
X962595Y180614D01*
X960585Y180075D01*
X959004Y179867D01*
X959004Y194156D01*
G37*
%LPD*%
%LPC*%
G36*
X992667Y197202D02*
X992667Y197202D01*
X992875Y198783D01*
X993414Y200793D01*
X994210Y202716D01*
X995250Y204518D01*
X996517Y206169D01*
X997989Y207641D01*
X999640Y208908D01*
X1001442Y209948D01*
X1003365Y210744D01*
X1005375Y211283D01*
X1006956Y211491D01*
X1006956Y197202D01*
X992667Y197202D01*
G37*
%LPD*%
%LPC*%
G36*
X941669Y197202D02*
X941669Y197202D01*
X941877Y198783D01*
X942416Y200793D01*
X943212Y202716D01*
X944252Y204518D01*
X945519Y206169D01*
X946991Y207641D01*
X948642Y208908D01*
X950444Y209948D01*
X952367Y210744D01*
X954377Y211283D01*
X955958Y211491D01*
X955958Y197202D01*
X941669Y197202D01*
G37*
%LPD*%
%LPC*%
G36*
X1010002Y194156D02*
X1010002Y194156D01*
X1024291Y194156D01*
X1024083Y192575D01*
X1023544Y190565D01*
X1022748Y188642D01*
X1021708Y186840D01*
X1020441Y185189D01*
X1018969Y183717D01*
X1017318Y182450D01*
X1015516Y181410D01*
X1013593Y180614D01*
X1011583Y180075D01*
X1010002Y179867D01*
X1010002Y194156D01*
G37*
%LPD*%
%LPC*%
G36*
X959004Y143158D02*
X959004Y143158D01*
X973293Y143158D01*
X973085Y141577D01*
X972546Y139567D01*
X971750Y137644D01*
X970710Y135842D01*
X969443Y134191D01*
X967971Y132719D01*
X966320Y131452D01*
X964518Y130412D01*
X962595Y129616D01*
X960585Y129077D01*
X959004Y128869D01*
X959004Y143158D01*
G37*
%LPD*%
%LPC*%
G36*
X992667Y146204D02*
X992667Y146204D01*
X992875Y147785D01*
X993414Y149795D01*
X994210Y151718D01*
X995250Y153520D01*
X996517Y155171D01*
X997989Y156643D01*
X999640Y157910D01*
X1001442Y158950D01*
X1003365Y159746D01*
X1005375Y160285D01*
X1006956Y160493D01*
X1006956Y146204D01*
X992667Y146204D01*
G37*
%LPD*%
%LPC*%
G36*
X941669Y146204D02*
X941669Y146204D01*
X941877Y147785D01*
X942416Y149795D01*
X943212Y151718D01*
X944252Y153520D01*
X945519Y155171D01*
X946991Y156643D01*
X948642Y157910D01*
X950444Y158950D01*
X952367Y159746D01*
X954377Y160285D01*
X955958Y160493D01*
X955958Y146204D01*
X941669Y146204D01*
G37*
%LPD*%
%LPC*%
G36*
X1010002Y143158D02*
X1010002Y143158D01*
X1024291Y143158D01*
X1024083Y141577D01*
X1023544Y139567D01*
X1022748Y137644D01*
X1021708Y135842D01*
X1020441Y134191D01*
X1018969Y132719D01*
X1017318Y131452D01*
X1015516Y130412D01*
X1013593Y129616D01*
X1011583Y129077D01*
X1010002Y128869D01*
X1010002Y143158D01*
G37*
%LPD*%
%LPC*%
G36*
X1005375Y180075D02*
X1005375Y180075D01*
X1003365Y180614D01*
X1001442Y181410D01*
X999640Y182450D01*
X997989Y183717D01*
X996517Y185189D01*
X995250Y186840D01*
X994210Y188642D01*
X993414Y190565D01*
X992875Y192575D01*
X992667Y194156D01*
X1006956Y194156D01*
X1006956Y179867D01*
X1005375Y180075D01*
G37*
%LPD*%
%LPC*%
G36*
X954377Y129077D02*
X954377Y129077D01*
X952367Y129616D01*
X950444Y130412D01*
X948642Y131452D01*
X946991Y132719D01*
X945519Y134191D01*
X944252Y135842D01*
X943212Y137644D01*
X942416Y139567D01*
X941877Y141577D01*
X941669Y143158D01*
X955958Y143158D01*
X955958Y128869D01*
X954377Y129077D01*
G37*
%LPD*%
%LPC*%
G36*
X954377Y180075D02*
X954377Y180075D01*
X952367Y180614D01*
X950444Y181410D01*
X948642Y182450D01*
X946991Y183717D01*
X945519Y185189D01*
X944252Y186840D01*
X943212Y188642D01*
X942416Y190565D01*
X941877Y192575D01*
X941669Y194156D01*
X955958Y194156D01*
X955958Y179867D01*
X954377Y180075D01*
G37*
%LPD*%
%LPC*%
G36*
X1005375Y129077D02*
X1005375Y129077D01*
X1003365Y129616D01*
X1001442Y130412D01*
X999640Y131452D01*
X997989Y132719D01*
X996517Y134191D01*
X995250Y135842D01*
X994210Y137644D01*
X993414Y139567D01*
X992875Y141577D01*
X992667Y143158D01*
X1006956Y143158D01*
X1006956Y128869D01*
X1005375Y129077D01*
G37*
%LPD*%
G36*
X322747Y242613D02*
X322747Y242613D01*
X322851Y242615D01*
X322870Y242622D01*
X322890Y242624D01*
X322984Y242664D01*
X323082Y242700D01*
X323098Y242712D01*
X323116Y242720D01*
X323247Y242825D01*
X324337Y243915D01*
X325411Y244360D01*
X325511Y244422D01*
X325611Y244482D01*
X325615Y244486D01*
X325620Y244490D01*
X325695Y244580D01*
X325771Y244668D01*
X325773Y244674D01*
X325777Y244679D01*
X325819Y244788D01*
X325863Y244897D01*
X325864Y244904D01*
X325865Y244909D01*
X325866Y244927D01*
X325881Y245063D01*
X325881Y246898D01*
X325878Y246918D01*
X325880Y246937D01*
X325858Y247039D01*
X325842Y247141D01*
X325832Y247158D01*
X325828Y247178D01*
X325775Y247267D01*
X325726Y247358D01*
X325712Y247372D01*
X325702Y247389D01*
X325623Y247456D01*
X325548Y247528D01*
X325530Y247536D01*
X325515Y247549D01*
X325419Y247588D01*
X325325Y247631D01*
X325305Y247633D01*
X325287Y247641D01*
X325120Y247659D01*
X323892Y247659D01*
X321659Y249892D01*
X321659Y265048D01*
X324043Y267432D01*
X324054Y267448D01*
X324070Y267460D01*
X324126Y267547D01*
X324186Y267631D01*
X324192Y267650D01*
X324203Y267667D01*
X324228Y267768D01*
X324258Y267867D01*
X324258Y267886D01*
X324263Y267906D01*
X324255Y268009D01*
X324252Y268112D01*
X324245Y268131D01*
X324244Y268151D01*
X324203Y268246D01*
X324168Y268343D01*
X324155Y268359D01*
X324147Y268377D01*
X324043Y268508D01*
X321659Y270892D01*
X321659Y272390D01*
X321656Y272410D01*
X321658Y272429D01*
X321636Y272531D01*
X321620Y272633D01*
X321610Y272650D01*
X321606Y272670D01*
X321553Y272759D01*
X321504Y272850D01*
X321490Y272864D01*
X321480Y272881D01*
X321401Y272948D01*
X321326Y273020D01*
X321308Y273028D01*
X321293Y273041D01*
X321197Y273080D01*
X321103Y273123D01*
X321083Y273125D01*
X321065Y273133D01*
X320898Y273151D01*
X320682Y273151D01*
X320662Y273148D01*
X320643Y273150D01*
X320541Y273128D01*
X320439Y273112D01*
X320422Y273102D01*
X320402Y273098D01*
X320313Y273045D01*
X320222Y272996D01*
X320208Y272982D01*
X320191Y272972D01*
X320124Y272893D01*
X320052Y272818D01*
X320044Y272800D01*
X320031Y272785D01*
X319992Y272689D01*
X319949Y272595D01*
X319947Y272575D01*
X319939Y272557D01*
X319921Y272390D01*
X319921Y270662D01*
X318139Y268880D01*
X318128Y268864D01*
X318112Y268851D01*
X318056Y268764D01*
X317996Y268680D01*
X317990Y268661D01*
X317979Y268645D01*
X317954Y268544D01*
X317924Y268445D01*
X317924Y268425D01*
X317919Y268406D01*
X317927Y268303D01*
X317930Y268200D01*
X317937Y268181D01*
X317938Y268161D01*
X317979Y268066D01*
X318014Y267969D01*
X318027Y267953D01*
X318035Y267934D01*
X318140Y267804D01*
X318143Y267800D01*
X318478Y267221D01*
X318651Y266574D01*
X318651Y261263D01*
X309372Y261263D01*
X309352Y261260D01*
X309333Y261262D01*
X309231Y261240D01*
X309129Y261223D01*
X309112Y261214D01*
X309092Y261210D01*
X309003Y261157D01*
X308912Y261108D01*
X308898Y261094D01*
X308881Y261084D01*
X308814Y261005D01*
X308743Y260930D01*
X308734Y260912D01*
X308721Y260897D01*
X308682Y260801D01*
X308639Y260707D01*
X308637Y260687D01*
X308629Y260669D01*
X308611Y260502D01*
X308611Y258978D01*
X308614Y258958D01*
X308612Y258939D01*
X308634Y258837D01*
X308651Y258735D01*
X308660Y258718D01*
X308664Y258698D01*
X308717Y258609D01*
X308766Y258518D01*
X308780Y258504D01*
X308790Y258487D01*
X308869Y258420D01*
X308944Y258349D01*
X308962Y258340D01*
X308977Y258327D01*
X309073Y258288D01*
X309167Y258245D01*
X309187Y258243D01*
X309205Y258235D01*
X309372Y258217D01*
X318651Y258217D01*
X318651Y252906D01*
X318478Y252259D01*
X318143Y251680D01*
X317670Y251207D01*
X317091Y250872D01*
X316444Y250699D01*
X316134Y250699D01*
X316063Y250688D01*
X315991Y250686D01*
X315942Y250668D01*
X315891Y250660D01*
X315828Y250626D01*
X315760Y250601D01*
X315720Y250569D01*
X315674Y250544D01*
X315624Y250492D01*
X315568Y250448D01*
X315540Y250404D01*
X315504Y250366D01*
X315474Y250301D01*
X315435Y250241D01*
X315423Y250190D01*
X315401Y250143D01*
X315393Y250072D01*
X315375Y250002D01*
X315379Y249950D01*
X315374Y249899D01*
X315389Y249828D01*
X315394Y249757D01*
X315415Y249709D01*
X315426Y249658D01*
X315463Y249597D01*
X315491Y249531D01*
X315535Y249475D01*
X315552Y249447D01*
X315570Y249432D01*
X315596Y249400D01*
X321131Y243865D01*
X322170Y242825D01*
X322186Y242813D01*
X322199Y242798D01*
X322286Y242742D01*
X322370Y242681D01*
X322389Y242676D01*
X322406Y242665D01*
X322506Y242640D01*
X322605Y242609D01*
X322625Y242610D01*
X322644Y242605D01*
X322747Y242613D01*
G37*
%LPC*%
G36*
X496823Y153923D02*
X496823Y153923D01*
X496823Y163323D01*
X504542Y163323D01*
X506240Y163054D01*
X507875Y162522D01*
X509407Y161742D01*
X510798Y160731D01*
X512013Y159516D01*
X513024Y158125D01*
X513804Y156593D01*
X514336Y154958D01*
X514500Y153923D01*
X496823Y153923D01*
G37*
%LPD*%
%LPC*%
G36*
X496823Y141477D02*
X496823Y141477D01*
X496823Y150877D01*
X514500Y150877D01*
X514336Y149842D01*
X513804Y148207D01*
X513024Y146675D01*
X512013Y145284D01*
X510798Y144069D01*
X509407Y143058D01*
X507875Y142278D01*
X506240Y141746D01*
X504542Y141477D01*
X496823Y141477D01*
G37*
%LPD*%
%LPC*%
G36*
X430783Y317753D02*
X430783Y317753D01*
X430783Y333896D01*
X431639Y333761D01*
X433160Y333266D01*
X434585Y332540D01*
X435879Y331600D01*
X437010Y330469D01*
X437950Y329175D01*
X438676Y327750D01*
X439171Y326229D01*
X439421Y324650D01*
X439421Y317753D01*
X430783Y317753D01*
G37*
%LPD*%
%LPC*%
G36*
X588103Y312167D02*
X588103Y312167D01*
X596741Y312167D01*
X596741Y305270D01*
X596491Y303691D01*
X595996Y302170D01*
X595270Y300745D01*
X594330Y299451D01*
X593199Y298320D01*
X591905Y297380D01*
X590480Y296654D01*
X588959Y296159D01*
X588103Y296024D01*
X588103Y312167D01*
G37*
%LPD*%
%LPC*%
G36*
X419099Y317753D02*
X419099Y317753D01*
X419099Y324650D01*
X419349Y326229D01*
X419844Y327750D01*
X420570Y329175D01*
X421510Y330469D01*
X422641Y331600D01*
X423935Y332540D01*
X425360Y333266D01*
X426881Y333761D01*
X427737Y333896D01*
X427737Y317753D01*
X419099Y317753D01*
G37*
%LPD*%
%LPC*%
G36*
X584201Y296159D02*
X584201Y296159D01*
X582680Y296654D01*
X581255Y297380D01*
X579961Y298320D01*
X578830Y299451D01*
X577890Y300745D01*
X577164Y302170D01*
X576669Y303691D01*
X576419Y305270D01*
X576419Y312167D01*
X585057Y312167D01*
X585057Y296024D01*
X584201Y296159D01*
G37*
%LPD*%
%LPC*%
G36*
X496823Y90423D02*
X496823Y90423D01*
X496823Y98045D01*
X502805Y98045D01*
X504571Y97693D01*
X506236Y97004D01*
X507734Y96003D01*
X509007Y94730D01*
X510008Y93232D01*
X510697Y91567D01*
X510925Y90423D01*
X496823Y90423D01*
G37*
%LPD*%
%LPC*%
G36*
X479675Y90423D02*
X479675Y90423D01*
X479903Y91567D01*
X480592Y93232D01*
X481593Y94730D01*
X482866Y96003D01*
X484364Y97004D01*
X486029Y97693D01*
X487795Y98045D01*
X493777Y98045D01*
X493777Y90423D01*
X479675Y90423D01*
G37*
%LPD*%
%LPC*%
G36*
X407923Y77723D02*
X407923Y77723D01*
X407923Y91696D01*
X409049Y91472D01*
X410701Y90787D01*
X412189Y89793D01*
X413453Y88529D01*
X414447Y87041D01*
X415132Y85389D01*
X415481Y83634D01*
X415481Y77723D01*
X407923Y77723D01*
G37*
%LPD*%
%LPC*%
G36*
X357123Y230123D02*
X357123Y230123D01*
X357123Y244096D01*
X358249Y243872D01*
X359901Y243187D01*
X361389Y242193D01*
X362653Y240929D01*
X363647Y239441D01*
X364332Y237789D01*
X364681Y236034D01*
X364681Y230123D01*
X357123Y230123D01*
G37*
%LPD*%
%LPC*%
G36*
X407923Y74677D02*
X407923Y74677D01*
X415481Y74677D01*
X415481Y68766D01*
X415132Y67011D01*
X414447Y65359D01*
X413453Y63871D01*
X412189Y62607D01*
X410701Y61613D01*
X409049Y60928D01*
X407923Y60704D01*
X407923Y74677D01*
G37*
%LPD*%
%LPC*%
G36*
X397319Y77723D02*
X397319Y77723D01*
X397319Y83634D01*
X397668Y85389D01*
X398353Y87041D01*
X399347Y88529D01*
X400611Y89793D01*
X402099Y90787D01*
X403751Y91472D01*
X404877Y91696D01*
X404877Y77723D01*
X397319Y77723D01*
G37*
%LPD*%
%LPC*%
G36*
X346519Y230123D02*
X346519Y230123D01*
X346519Y236034D01*
X346868Y237789D01*
X347553Y239441D01*
X348547Y240929D01*
X349811Y242193D01*
X351299Y243187D01*
X352951Y243872D01*
X354077Y244096D01*
X354077Y230123D01*
X346519Y230123D01*
G37*
%LPD*%
%LPC*%
G36*
X403751Y60928D02*
X403751Y60928D01*
X402099Y61613D01*
X400611Y62607D01*
X399347Y63871D01*
X398353Y65359D01*
X397668Y67011D01*
X397319Y68766D01*
X397319Y74677D01*
X404877Y74677D01*
X404877Y60704D01*
X403751Y60928D01*
G37*
%LPD*%
%LPC*%
G36*
X152653Y299973D02*
X152653Y299973D01*
X152653Y310516D01*
X156128Y310516D01*
X163196Y303448D01*
X163196Y299973D01*
X152653Y299973D01*
G37*
%LPD*%
%LPC*%
G36*
X258063Y272033D02*
X258063Y272033D01*
X258063Y282576D01*
X261538Y282576D01*
X268606Y275508D01*
X268606Y272033D01*
X258063Y272033D01*
G37*
%LPD*%
%LPC*%
G36*
X244474Y272033D02*
X244474Y272033D01*
X244474Y275508D01*
X251542Y282576D01*
X255017Y282576D01*
X255017Y272033D01*
X244474Y272033D01*
G37*
%LPD*%
%LPC*%
G36*
X258063Y258444D02*
X258063Y258444D01*
X258063Y268987D01*
X268606Y268987D01*
X268606Y265512D01*
X261538Y258444D01*
X258063Y258444D01*
G37*
%LPD*%
%LPC*%
G36*
X139064Y299973D02*
X139064Y299973D01*
X139064Y303448D01*
X146132Y310516D01*
X149607Y310516D01*
X149607Y299973D01*
X139064Y299973D01*
G37*
%LPD*%
%LPC*%
G36*
X251542Y258444D02*
X251542Y258444D01*
X244474Y265512D01*
X244474Y268987D01*
X255017Y268987D01*
X255017Y258444D01*
X251542Y258444D01*
G37*
%LPD*%
%LPC*%
G36*
X394563Y21843D02*
X394563Y21843D01*
X394563Y30361D01*
X399874Y30361D01*
X400521Y30188D01*
X401100Y29853D01*
X401573Y29380D01*
X401908Y28801D01*
X402081Y28154D01*
X402081Y21843D01*
X394563Y21843D01*
G37*
%LPD*%
%LPC*%
G36*
X864463Y288543D02*
X864463Y288543D01*
X864463Y297061D01*
X869774Y297061D01*
X870421Y296888D01*
X871000Y296553D01*
X871473Y296080D01*
X871808Y295501D01*
X871981Y294854D01*
X871981Y288543D01*
X864463Y288543D01*
G37*
%LPD*%
%LPC*%
G36*
X864463Y276979D02*
X864463Y276979D01*
X864463Y285497D01*
X871981Y285497D01*
X871981Y279186D01*
X871808Y278539D01*
X871473Y277960D01*
X871000Y277487D01*
X870421Y277152D01*
X869774Y276979D01*
X864463Y276979D01*
G37*
%LPD*%
%LPC*%
G36*
X201169Y23113D02*
X201169Y23113D01*
X201169Y29424D01*
X201342Y30071D01*
X201677Y30650D01*
X202150Y31123D01*
X202729Y31458D01*
X203376Y31631D01*
X208687Y31631D01*
X208687Y23113D01*
X201169Y23113D01*
G37*
%LPD*%
%LPC*%
G36*
X80263Y307339D02*
X80263Y307339D01*
X80263Y315977D01*
X88901Y315977D01*
X88901Y313291D01*
X82949Y307339D01*
X80263Y307339D01*
G37*
%LPD*%
%LPC*%
G36*
X105663Y307339D02*
X105663Y307339D01*
X105663Y315977D01*
X114301Y315977D01*
X114301Y313291D01*
X108349Y307339D01*
X105663Y307339D01*
G37*
%LPD*%
%LPC*%
G36*
X99931Y307339D02*
X99931Y307339D01*
X93979Y313291D01*
X93979Y315977D01*
X102617Y315977D01*
X102617Y307339D01*
X99931Y307339D01*
G37*
%LPD*%
%LPC*%
G36*
X364743Y274573D02*
X364743Y274573D01*
X364743Y282195D01*
X367008Y282195D01*
X372365Y276838D01*
X372365Y274573D01*
X364743Y274573D01*
G37*
%LPD*%
%LPC*%
G36*
X39623Y273303D02*
X39623Y273303D01*
X39623Y280925D01*
X41888Y280925D01*
X47245Y275568D01*
X47245Y273303D01*
X39623Y273303D01*
G37*
%LPD*%
%LPC*%
G36*
X763523Y315213D02*
X763523Y315213D01*
X763523Y322835D01*
X765788Y322835D01*
X771145Y317478D01*
X771145Y315213D01*
X763523Y315213D01*
G37*
%LPD*%
%LPC*%
G36*
X354075Y274573D02*
X354075Y274573D01*
X354075Y276838D01*
X359432Y282195D01*
X361697Y282195D01*
X361697Y274573D01*
X354075Y274573D01*
G37*
%LPD*%
%LPC*%
G36*
X752855Y315213D02*
X752855Y315213D01*
X752855Y317478D01*
X758212Y322835D01*
X760477Y322835D01*
X760477Y315213D01*
X752855Y315213D01*
G37*
%LPD*%
%LPC*%
G36*
X364743Y263905D02*
X364743Y263905D01*
X364743Y271527D01*
X372365Y271527D01*
X372365Y269262D01*
X367008Y263905D01*
X364743Y263905D01*
G37*
%LPD*%
%LPC*%
G36*
X39623Y262635D02*
X39623Y262635D01*
X39623Y270257D01*
X47245Y270257D01*
X47245Y267992D01*
X41888Y262635D01*
X39623Y262635D01*
G37*
%LPD*%
%LPC*%
G36*
X763523Y304545D02*
X763523Y304545D01*
X763523Y312167D01*
X771145Y312167D01*
X771145Y309902D01*
X765788Y304545D01*
X763523Y304545D01*
G37*
%LPD*%
%LPC*%
G36*
X28955Y273303D02*
X28955Y273303D01*
X28955Y275568D01*
X34312Y280925D01*
X36577Y280925D01*
X36577Y273303D01*
X28955Y273303D01*
G37*
%LPD*%
%LPC*%
G36*
X34312Y262635D02*
X34312Y262635D01*
X28955Y267992D01*
X28955Y270257D01*
X36577Y270257D01*
X36577Y262635D01*
X34312Y262635D01*
G37*
%LPD*%
%LPC*%
G36*
X758212Y304545D02*
X758212Y304545D01*
X752855Y309902D01*
X752855Y312167D01*
X760477Y312167D01*
X760477Y304545D01*
X758212Y304545D01*
G37*
%LPD*%
%LPC*%
G36*
X359432Y263905D02*
X359432Y263905D01*
X354075Y269262D01*
X354075Y271527D01*
X361697Y271527D01*
X361697Y263905D01*
X359432Y263905D01*
G37*
%LPD*%
%LPC*%
G36*
X363219Y273049D02*
X363219Y273049D01*
X363219Y273051D01*
X363221Y273051D01*
X363221Y273049D01*
X363219Y273049D01*
G37*
%LPD*%
%LPC*%
G36*
X38099Y271779D02*
X38099Y271779D01*
X38099Y271781D01*
X38101Y271781D01*
X38101Y271779D01*
X38099Y271779D01*
G37*
%LPD*%
%LPC*%
G36*
X1008478Y144680D02*
X1008478Y144680D01*
X1008478Y144682D01*
X1008480Y144682D01*
X1008480Y144680D01*
X1008478Y144680D01*
G37*
%LPD*%
%LPC*%
G36*
X256539Y270509D02*
X256539Y270509D01*
X256539Y270511D01*
X256541Y270511D01*
X256541Y270509D01*
X256539Y270509D01*
G37*
%LPD*%
%LPC*%
G36*
X406399Y76199D02*
X406399Y76199D01*
X406399Y76201D01*
X406401Y76201D01*
X406401Y76199D01*
X406399Y76199D01*
G37*
%LPD*%
%LPC*%
G36*
X761999Y313689D02*
X761999Y313689D01*
X761999Y313691D01*
X762001Y313691D01*
X762001Y313689D01*
X761999Y313689D01*
G37*
%LPD*%
%LPC*%
G36*
X957480Y195678D02*
X957480Y195678D01*
X957480Y195680D01*
X957482Y195680D01*
X957482Y195678D01*
X957480Y195678D01*
G37*
%LPD*%
%LPC*%
G36*
X1008478Y195678D02*
X1008478Y195678D01*
X1008478Y195680D01*
X1008480Y195680D01*
X1008480Y195678D01*
X1008478Y195678D01*
G37*
%LPD*%
%LPC*%
G36*
X957480Y144680D02*
X957480Y144680D01*
X957480Y144682D01*
X957482Y144682D01*
X957482Y144680D01*
X957480Y144680D01*
G37*
%LPD*%
D10*
X816102Y33782D02*
X821521Y50038D01*
X826939Y33782D01*
X825585Y37846D02*
X817457Y37846D01*
X833368Y33782D02*
X833368Y50038D01*
X837884Y50038D01*
X838017Y50036D01*
X838149Y50030D01*
X838281Y50020D01*
X838413Y50007D01*
X838545Y49989D01*
X838675Y49968D01*
X838806Y49943D01*
X838935Y49914D01*
X839063Y49881D01*
X839191Y49845D01*
X839317Y49805D01*
X839442Y49761D01*
X839566Y49713D01*
X839688Y49662D01*
X839809Y49607D01*
X839928Y49549D01*
X840046Y49487D01*
X840161Y49422D01*
X840275Y49353D01*
X840386Y49282D01*
X840495Y49206D01*
X840602Y49128D01*
X840707Y49047D01*
X840809Y48962D01*
X840909Y48875D01*
X841006Y48785D01*
X841101Y48692D01*
X841192Y48596D01*
X841281Y48498D01*
X841367Y48397D01*
X841450Y48293D01*
X841530Y48187D01*
X841606Y48079D01*
X841680Y47969D01*
X841750Y47856D01*
X841817Y47742D01*
X841880Y47625D01*
X841940Y47507D01*
X841997Y47387D01*
X842050Y47265D01*
X842099Y47142D01*
X842145Y47018D01*
X842187Y46892D01*
X842225Y46765D01*
X842260Y46637D01*
X842291Y46508D01*
X842318Y46379D01*
X842341Y46248D01*
X842361Y46117D01*
X842376Y45985D01*
X842388Y45853D01*
X842396Y45721D01*
X842400Y45588D01*
X842400Y45456D01*
X842396Y45323D01*
X842388Y45191D01*
X842376Y45059D01*
X842361Y44927D01*
X842341Y44796D01*
X842318Y44665D01*
X842291Y44536D01*
X842260Y44407D01*
X842225Y44279D01*
X842187Y44152D01*
X842145Y44026D01*
X842099Y43902D01*
X842050Y43779D01*
X841997Y43657D01*
X841940Y43537D01*
X841880Y43419D01*
X841817Y43302D01*
X841750Y43188D01*
X841680Y43075D01*
X841606Y42965D01*
X841530Y42857D01*
X841450Y42751D01*
X841367Y42647D01*
X841281Y42546D01*
X841192Y42448D01*
X841101Y42352D01*
X841006Y42259D01*
X840909Y42169D01*
X840809Y42082D01*
X840707Y41997D01*
X840602Y41916D01*
X840495Y41838D01*
X840386Y41762D01*
X840275Y41691D01*
X840161Y41622D01*
X840046Y41557D01*
X839928Y41495D01*
X839809Y41437D01*
X839688Y41382D01*
X839566Y41331D01*
X839442Y41283D01*
X839317Y41239D01*
X839191Y41199D01*
X839063Y41163D01*
X838935Y41130D01*
X838806Y41101D01*
X838675Y41076D01*
X838545Y41055D01*
X838413Y41037D01*
X838281Y41024D01*
X838149Y41014D01*
X838017Y41008D01*
X837884Y41006D01*
X837884Y41007D02*
X833368Y41007D01*
X848880Y33782D02*
X848880Y50038D01*
X853396Y50038D01*
X853529Y50036D01*
X853661Y50030D01*
X853793Y50020D01*
X853925Y50007D01*
X854057Y49989D01*
X854187Y49968D01*
X854318Y49943D01*
X854447Y49914D01*
X854575Y49881D01*
X854703Y49845D01*
X854829Y49805D01*
X854954Y49761D01*
X855078Y49713D01*
X855200Y49662D01*
X855321Y49607D01*
X855440Y49549D01*
X855558Y49487D01*
X855673Y49422D01*
X855787Y49353D01*
X855898Y49282D01*
X856007Y49206D01*
X856114Y49128D01*
X856219Y49047D01*
X856321Y48962D01*
X856421Y48875D01*
X856518Y48785D01*
X856613Y48692D01*
X856704Y48596D01*
X856793Y48498D01*
X856879Y48397D01*
X856962Y48293D01*
X857042Y48187D01*
X857118Y48079D01*
X857192Y47969D01*
X857262Y47856D01*
X857329Y47742D01*
X857392Y47625D01*
X857452Y47507D01*
X857509Y47387D01*
X857562Y47265D01*
X857611Y47142D01*
X857657Y47018D01*
X857699Y46892D01*
X857737Y46765D01*
X857772Y46637D01*
X857803Y46508D01*
X857830Y46379D01*
X857853Y46248D01*
X857873Y46117D01*
X857888Y45985D01*
X857900Y45853D01*
X857908Y45721D01*
X857912Y45588D01*
X857912Y45456D01*
X857908Y45323D01*
X857900Y45191D01*
X857888Y45059D01*
X857873Y44927D01*
X857853Y44796D01*
X857830Y44665D01*
X857803Y44536D01*
X857772Y44407D01*
X857737Y44279D01*
X857699Y44152D01*
X857657Y44026D01*
X857611Y43902D01*
X857562Y43779D01*
X857509Y43657D01*
X857452Y43537D01*
X857392Y43419D01*
X857329Y43302D01*
X857262Y43188D01*
X857192Y43075D01*
X857118Y42965D01*
X857042Y42857D01*
X856962Y42751D01*
X856879Y42647D01*
X856793Y42546D01*
X856704Y42448D01*
X856613Y42352D01*
X856518Y42259D01*
X856421Y42169D01*
X856321Y42082D01*
X856219Y41997D01*
X856114Y41916D01*
X856007Y41838D01*
X855898Y41762D01*
X855787Y41691D01*
X855673Y41622D01*
X855558Y41557D01*
X855440Y41495D01*
X855321Y41437D01*
X855200Y41382D01*
X855078Y41331D01*
X854954Y41283D01*
X854829Y41239D01*
X854703Y41199D01*
X854575Y41163D01*
X854447Y41130D01*
X854318Y41101D01*
X854187Y41076D01*
X854057Y41055D01*
X853925Y41037D01*
X853793Y41024D01*
X853661Y41014D01*
X853529Y41008D01*
X853396Y41006D01*
X853396Y41007D02*
X848880Y41007D01*
X854299Y41007D02*
X857911Y33782D01*
X869318Y33782D02*
X869436Y33784D01*
X869554Y33790D01*
X869672Y33799D01*
X869789Y33813D01*
X869906Y33830D01*
X870023Y33851D01*
X870138Y33876D01*
X870253Y33905D01*
X870367Y33938D01*
X870479Y33974D01*
X870590Y34014D01*
X870700Y34057D01*
X870809Y34104D01*
X870916Y34154D01*
X871021Y34209D01*
X871124Y34266D01*
X871225Y34327D01*
X871325Y34391D01*
X871422Y34458D01*
X871517Y34528D01*
X871609Y34602D01*
X871700Y34678D01*
X871787Y34758D01*
X871872Y34840D01*
X871954Y34925D01*
X872034Y35012D01*
X872110Y35103D01*
X872184Y35195D01*
X872254Y35290D01*
X872321Y35387D01*
X872385Y35487D01*
X872446Y35588D01*
X872503Y35691D01*
X872558Y35796D01*
X872608Y35903D01*
X872655Y36012D01*
X872698Y36122D01*
X872738Y36233D01*
X872774Y36345D01*
X872807Y36459D01*
X872836Y36574D01*
X872861Y36689D01*
X872882Y36806D01*
X872899Y36923D01*
X872913Y37040D01*
X872922Y37158D01*
X872928Y37276D01*
X872930Y37394D01*
X869318Y33782D02*
X869135Y33784D01*
X868953Y33791D01*
X868771Y33802D01*
X868589Y33817D01*
X868407Y33837D01*
X868226Y33860D01*
X868046Y33889D01*
X867866Y33921D01*
X867687Y33958D01*
X867510Y33999D01*
X867333Y34045D01*
X867157Y34094D01*
X866983Y34148D01*
X866809Y34206D01*
X866638Y34268D01*
X866468Y34334D01*
X866299Y34405D01*
X866132Y34479D01*
X865967Y34557D01*
X865804Y34639D01*
X865643Y34725D01*
X865484Y34815D01*
X865327Y34909D01*
X865173Y35006D01*
X865021Y35107D01*
X864871Y35212D01*
X864724Y35320D01*
X864580Y35431D01*
X864438Y35546D01*
X864299Y35665D01*
X864163Y35787D01*
X864030Y35912D01*
X863900Y36040D01*
X864351Y46426D02*
X864353Y46544D01*
X864359Y46662D01*
X864368Y46780D01*
X864382Y46897D01*
X864399Y47014D01*
X864420Y47131D01*
X864445Y47246D01*
X864474Y47361D01*
X864507Y47475D01*
X864543Y47587D01*
X864583Y47698D01*
X864626Y47808D01*
X864673Y47917D01*
X864723Y48024D01*
X864778Y48129D01*
X864835Y48232D01*
X864896Y48333D01*
X864960Y48433D01*
X865027Y48530D01*
X865097Y48625D01*
X865171Y48717D01*
X865247Y48808D01*
X865327Y48895D01*
X865409Y48980D01*
X865494Y49062D01*
X865581Y49142D01*
X865672Y49218D01*
X865764Y49292D01*
X865859Y49362D01*
X865956Y49429D01*
X866056Y49493D01*
X866157Y49554D01*
X866260Y49612D01*
X866365Y49666D01*
X866472Y49716D01*
X866581Y49763D01*
X866691Y49807D01*
X866802Y49846D01*
X866915Y49882D01*
X867028Y49915D01*
X867143Y49944D01*
X867258Y49969D01*
X867375Y49990D01*
X867492Y50007D01*
X867609Y50021D01*
X867727Y50030D01*
X867845Y50036D01*
X867963Y50038D01*
X868124Y50036D01*
X868286Y50030D01*
X868447Y50021D01*
X868608Y50007D01*
X868768Y49990D01*
X868928Y49969D01*
X869088Y49944D01*
X869247Y49915D01*
X869405Y49883D01*
X869562Y49847D01*
X869718Y49807D01*
X869874Y49763D01*
X870028Y49715D01*
X870181Y49664D01*
X870333Y49610D01*
X870484Y49551D01*
X870633Y49490D01*
X870780Y49424D01*
X870926Y49355D01*
X871071Y49283D01*
X871213Y49207D01*
X871354Y49128D01*
X871493Y49046D01*
X871629Y48960D01*
X871764Y48871D01*
X871897Y48779D01*
X872027Y48683D01*
X866156Y43265D02*
X866055Y43327D01*
X865955Y43392D01*
X865858Y43461D01*
X865763Y43533D01*
X865670Y43607D01*
X865580Y43685D01*
X865492Y43766D01*
X865407Y43849D01*
X865325Y43935D01*
X865246Y44024D01*
X865169Y44115D01*
X865096Y44209D01*
X865025Y44305D01*
X864958Y44403D01*
X864894Y44503D01*
X864833Y44606D01*
X864776Y44710D01*
X864722Y44816D01*
X864672Y44924D01*
X864625Y45033D01*
X864581Y45144D01*
X864541Y45256D01*
X864505Y45370D01*
X864473Y45484D01*
X864444Y45600D01*
X864419Y45716D01*
X864398Y45833D01*
X864381Y45951D01*
X864367Y46069D01*
X864358Y46188D01*
X864352Y46307D01*
X864350Y46426D01*
X871124Y40555D02*
X871225Y40493D01*
X871325Y40428D01*
X871422Y40359D01*
X871517Y40287D01*
X871610Y40213D01*
X871700Y40135D01*
X871788Y40054D01*
X871873Y39971D01*
X871955Y39885D01*
X872034Y39796D01*
X872111Y39705D01*
X872184Y39611D01*
X872255Y39515D01*
X872322Y39417D01*
X872386Y39317D01*
X872447Y39214D01*
X872504Y39110D01*
X872558Y39004D01*
X872608Y38896D01*
X872655Y38787D01*
X872699Y38676D01*
X872739Y38564D01*
X872775Y38450D01*
X872807Y38336D01*
X872836Y38220D01*
X872861Y38104D01*
X872882Y37987D01*
X872899Y37869D01*
X872913Y37751D01*
X872922Y37632D01*
X872928Y37513D01*
X872930Y37394D01*
X871124Y40555D02*
X866157Y43265D01*
X886686Y44619D02*
X890298Y33782D01*
X893911Y44619D01*
X899851Y33782D02*
X904366Y33782D01*
X904499Y33784D01*
X904631Y33790D01*
X904763Y33800D01*
X904895Y33813D01*
X905027Y33831D01*
X905157Y33852D01*
X905288Y33877D01*
X905417Y33906D01*
X905545Y33939D01*
X905673Y33975D01*
X905799Y34015D01*
X905924Y34059D01*
X906048Y34107D01*
X906170Y34158D01*
X906291Y34213D01*
X906410Y34271D01*
X906528Y34333D01*
X906643Y34398D01*
X906757Y34467D01*
X906868Y34538D01*
X906977Y34614D01*
X907084Y34692D01*
X907189Y34773D01*
X907291Y34858D01*
X907391Y34945D01*
X907488Y35035D01*
X907583Y35128D01*
X907674Y35224D01*
X907763Y35322D01*
X907849Y35423D01*
X907932Y35527D01*
X908012Y35633D01*
X908088Y35741D01*
X908162Y35851D01*
X908232Y35964D01*
X908299Y36078D01*
X908362Y36195D01*
X908422Y36313D01*
X908479Y36433D01*
X908532Y36555D01*
X908581Y36678D01*
X908627Y36802D01*
X908669Y36928D01*
X908707Y37055D01*
X908742Y37183D01*
X908773Y37312D01*
X908800Y37441D01*
X908823Y37572D01*
X908843Y37703D01*
X908858Y37835D01*
X908870Y37967D01*
X908878Y38099D01*
X908882Y38232D01*
X908882Y38364D01*
X908878Y38497D01*
X908870Y38629D01*
X908858Y38761D01*
X908843Y38893D01*
X908823Y39024D01*
X908800Y39155D01*
X908773Y39284D01*
X908742Y39413D01*
X908707Y39541D01*
X908669Y39668D01*
X908627Y39794D01*
X908581Y39918D01*
X908532Y40041D01*
X908479Y40163D01*
X908422Y40283D01*
X908362Y40401D01*
X908299Y40518D01*
X908232Y40632D01*
X908162Y40745D01*
X908088Y40855D01*
X908012Y40963D01*
X907932Y41069D01*
X907849Y41173D01*
X907763Y41274D01*
X907674Y41372D01*
X907583Y41468D01*
X907488Y41561D01*
X907391Y41651D01*
X907291Y41738D01*
X907189Y41823D01*
X907084Y41904D01*
X906977Y41982D01*
X906868Y42058D01*
X906757Y42129D01*
X906643Y42198D01*
X906528Y42263D01*
X906410Y42325D01*
X906291Y42383D01*
X906170Y42438D01*
X906048Y42489D01*
X905924Y42537D01*
X905799Y42581D01*
X905673Y42621D01*
X905545Y42657D01*
X905417Y42690D01*
X905288Y42719D01*
X905157Y42744D01*
X905027Y42765D01*
X904895Y42783D01*
X904763Y42796D01*
X904631Y42806D01*
X904499Y42812D01*
X904366Y42814D01*
X905269Y50038D02*
X899851Y50038D01*
X905269Y50038D02*
X905388Y50036D01*
X905508Y50030D01*
X905627Y50020D01*
X905745Y50006D01*
X905864Y49989D01*
X905981Y49967D01*
X906098Y49942D01*
X906213Y49912D01*
X906328Y49879D01*
X906442Y49842D01*
X906554Y49802D01*
X906665Y49757D01*
X906774Y49709D01*
X906882Y49658D01*
X906988Y49603D01*
X907092Y49544D01*
X907194Y49482D01*
X907294Y49417D01*
X907392Y49348D01*
X907488Y49276D01*
X907581Y49201D01*
X907671Y49124D01*
X907759Y49043D01*
X907844Y48959D01*
X907926Y48872D01*
X908006Y48783D01*
X908082Y48691D01*
X908156Y48597D01*
X908226Y48500D01*
X908293Y48402D01*
X908357Y48301D01*
X908417Y48197D01*
X908474Y48092D01*
X908527Y47985D01*
X908577Y47877D01*
X908623Y47767D01*
X908665Y47655D01*
X908704Y47542D01*
X908739Y47428D01*
X908770Y47313D01*
X908798Y47196D01*
X908821Y47079D01*
X908841Y46962D01*
X908857Y46843D01*
X908869Y46724D01*
X908877Y46605D01*
X908881Y46486D01*
X908881Y46366D01*
X908877Y46247D01*
X908869Y46128D01*
X908857Y46009D01*
X908841Y45890D01*
X908821Y45773D01*
X908798Y45656D01*
X908770Y45539D01*
X908739Y45424D01*
X908704Y45310D01*
X908665Y45197D01*
X908623Y45085D01*
X908577Y44975D01*
X908527Y44867D01*
X908474Y44760D01*
X908417Y44655D01*
X908357Y44551D01*
X908293Y44450D01*
X908226Y44352D01*
X908156Y44255D01*
X908082Y44161D01*
X908006Y44069D01*
X907926Y43980D01*
X907844Y43893D01*
X907759Y43809D01*
X907671Y43728D01*
X907581Y43651D01*
X907488Y43576D01*
X907392Y43504D01*
X907294Y43435D01*
X907194Y43370D01*
X907092Y43308D01*
X906988Y43249D01*
X906882Y43194D01*
X906774Y43143D01*
X906665Y43095D01*
X906554Y43050D01*
X906442Y43010D01*
X906328Y42973D01*
X906213Y42940D01*
X906098Y42910D01*
X905981Y42885D01*
X905864Y42863D01*
X905745Y42846D01*
X905627Y42832D01*
X905508Y42822D01*
X905388Y42816D01*
X905269Y42814D01*
X905269Y42813D02*
X901657Y42813D01*
X914856Y34685D02*
X914856Y33782D01*
X914856Y34685D02*
X915760Y34685D01*
X915760Y33782D01*
X914856Y33782D01*
X921734Y41910D02*
X921738Y42230D01*
X921749Y42549D01*
X921768Y42869D01*
X921795Y43187D01*
X921829Y43505D01*
X921871Y43822D01*
X921921Y44138D01*
X921978Y44453D01*
X922042Y44766D01*
X922114Y45078D01*
X922193Y45388D01*
X922280Y45695D01*
X922374Y46001D01*
X922475Y46304D01*
X922584Y46605D01*
X922699Y46903D01*
X922822Y47199D01*
X922952Y47491D01*
X923089Y47780D01*
X923089Y47781D02*
X923128Y47889D01*
X923171Y47996D01*
X923217Y48101D01*
X923268Y48205D01*
X923321Y48307D01*
X923378Y48407D01*
X923439Y48505D01*
X923503Y48600D01*
X923570Y48694D01*
X923641Y48785D01*
X923714Y48874D01*
X923791Y48960D01*
X923870Y49043D01*
X923952Y49124D01*
X924037Y49202D01*
X924125Y49276D01*
X924215Y49348D01*
X924307Y49416D01*
X924402Y49482D01*
X924499Y49544D01*
X924598Y49602D01*
X924700Y49658D01*
X924802Y49709D01*
X924907Y49757D01*
X925013Y49802D01*
X925121Y49843D01*
X925230Y49880D01*
X925340Y49913D01*
X925452Y49942D01*
X925564Y49968D01*
X925677Y49990D01*
X925791Y50007D01*
X925905Y50021D01*
X926020Y50031D01*
X926135Y50037D01*
X926250Y50039D01*
X926250Y50038D02*
X926365Y50036D01*
X926480Y50030D01*
X926595Y50020D01*
X926709Y50006D01*
X926823Y49989D01*
X926936Y49967D01*
X927048Y49941D01*
X927160Y49912D01*
X927270Y49879D01*
X927379Y49842D01*
X927487Y49801D01*
X927593Y49756D01*
X927698Y49708D01*
X927800Y49657D01*
X927901Y49601D01*
X928001Y49543D01*
X928098Y49481D01*
X928192Y49416D01*
X928285Y49347D01*
X928375Y49275D01*
X928463Y49201D01*
X928548Y49123D01*
X928630Y49042D01*
X928709Y48959D01*
X928786Y48873D01*
X928859Y48784D01*
X928930Y48693D01*
X928997Y48599D01*
X929061Y48504D01*
X929122Y48406D01*
X929179Y48306D01*
X929232Y48204D01*
X929283Y48100D01*
X929329Y47995D01*
X929372Y47888D01*
X929411Y47780D01*
X929410Y47780D02*
X929547Y47491D01*
X929677Y47199D01*
X929800Y46903D01*
X929915Y46605D01*
X930024Y46304D01*
X930125Y46001D01*
X930219Y45695D01*
X930306Y45388D01*
X930385Y45078D01*
X930457Y44766D01*
X930521Y44453D01*
X930578Y44138D01*
X930628Y43822D01*
X930670Y43505D01*
X930704Y43187D01*
X930731Y42869D01*
X930750Y42549D01*
X930761Y42230D01*
X930765Y41910D01*
X921735Y41910D02*
X921739Y41590D01*
X921750Y41271D01*
X921769Y40951D01*
X921796Y40633D01*
X921830Y40315D01*
X921872Y39998D01*
X921922Y39682D01*
X921979Y39367D01*
X922043Y39054D01*
X922115Y38742D01*
X922194Y38432D01*
X922281Y38125D01*
X922375Y37819D01*
X922476Y37516D01*
X922585Y37215D01*
X922700Y36917D01*
X922823Y36621D01*
X922953Y36329D01*
X923090Y36040D01*
X923089Y36040D02*
X923128Y35932D01*
X923171Y35825D01*
X923217Y35720D01*
X923268Y35616D01*
X923321Y35514D01*
X923378Y35414D01*
X923439Y35316D01*
X923503Y35221D01*
X923570Y35127D01*
X923641Y35036D01*
X923714Y34947D01*
X923791Y34861D01*
X923870Y34778D01*
X923952Y34697D01*
X924037Y34619D01*
X924125Y34545D01*
X924215Y34473D01*
X924308Y34404D01*
X924402Y34339D01*
X924499Y34277D01*
X924599Y34219D01*
X924700Y34163D01*
X924802Y34112D01*
X924907Y34064D01*
X925013Y34019D01*
X925121Y33978D01*
X925230Y33941D01*
X925340Y33908D01*
X925452Y33879D01*
X925564Y33853D01*
X925677Y33831D01*
X925791Y33814D01*
X925905Y33800D01*
X926020Y33790D01*
X926135Y33784D01*
X926250Y33782D01*
X929410Y36040D02*
X929547Y36329D01*
X929677Y36621D01*
X929800Y36917D01*
X929915Y37215D01*
X930024Y37516D01*
X930125Y37819D01*
X930219Y38125D01*
X930306Y38432D01*
X930385Y38742D01*
X930457Y39054D01*
X930521Y39367D01*
X930578Y39682D01*
X930628Y39998D01*
X930670Y40315D01*
X930704Y40633D01*
X930731Y40951D01*
X930750Y41271D01*
X930761Y41590D01*
X930765Y41910D01*
X929411Y36040D02*
X929372Y35932D01*
X929329Y35825D01*
X929283Y35720D01*
X929232Y35616D01*
X929179Y35514D01*
X929122Y35414D01*
X929061Y35316D01*
X928997Y35221D01*
X928930Y35127D01*
X928859Y35036D01*
X928786Y34947D01*
X928709Y34861D01*
X928630Y34778D01*
X928548Y34697D01*
X928463Y34619D01*
X928375Y34545D01*
X928285Y34473D01*
X928192Y34404D01*
X928098Y34339D01*
X928001Y34277D01*
X927901Y34219D01*
X927800Y34163D01*
X927697Y34112D01*
X927593Y34064D01*
X927487Y34019D01*
X927379Y33978D01*
X927270Y33941D01*
X927160Y33908D01*
X927048Y33879D01*
X926936Y33853D01*
X926823Y33831D01*
X926709Y33814D01*
X926595Y33800D01*
X926480Y33790D01*
X926365Y33784D01*
X926250Y33782D01*
X922637Y37394D02*
X929862Y46426D01*
X874522Y318262D02*
X874522Y334518D01*
X883553Y334518D02*
X874522Y324584D01*
X878134Y328196D02*
X883553Y318262D01*
X889972Y318262D02*
X897197Y318262D01*
X889972Y318262D02*
X889972Y334518D01*
X897197Y334518D01*
X895391Y327293D02*
X889972Y327293D01*
X902968Y322778D02*
X902970Y322911D01*
X902976Y323043D01*
X902986Y323175D01*
X902999Y323307D01*
X903017Y323439D01*
X903038Y323569D01*
X903063Y323700D01*
X903092Y323829D01*
X903125Y323957D01*
X903161Y324085D01*
X903201Y324211D01*
X903245Y324336D01*
X903293Y324460D01*
X903344Y324582D01*
X903399Y324703D01*
X903457Y324822D01*
X903519Y324940D01*
X903584Y325055D01*
X903653Y325169D01*
X903724Y325280D01*
X903800Y325389D01*
X903878Y325496D01*
X903959Y325601D01*
X904044Y325703D01*
X904131Y325803D01*
X904221Y325900D01*
X904314Y325995D01*
X904410Y326086D01*
X904508Y326175D01*
X904609Y326261D01*
X904713Y326344D01*
X904819Y326424D01*
X904927Y326500D01*
X905037Y326574D01*
X905150Y326644D01*
X905264Y326711D01*
X905381Y326774D01*
X905499Y326834D01*
X905619Y326891D01*
X905741Y326944D01*
X905864Y326993D01*
X905988Y327039D01*
X906114Y327081D01*
X906241Y327119D01*
X906369Y327154D01*
X906498Y327185D01*
X906627Y327212D01*
X906758Y327235D01*
X906889Y327255D01*
X907021Y327270D01*
X907153Y327282D01*
X907285Y327290D01*
X907418Y327294D01*
X907550Y327294D01*
X907683Y327290D01*
X907815Y327282D01*
X907947Y327270D01*
X908079Y327255D01*
X908210Y327235D01*
X908341Y327212D01*
X908470Y327185D01*
X908599Y327154D01*
X908727Y327119D01*
X908854Y327081D01*
X908980Y327039D01*
X909104Y326993D01*
X909227Y326944D01*
X909349Y326891D01*
X909469Y326834D01*
X909587Y326774D01*
X909704Y326711D01*
X909818Y326644D01*
X909931Y326574D01*
X910041Y326500D01*
X910149Y326424D01*
X910255Y326344D01*
X910359Y326261D01*
X910460Y326175D01*
X910558Y326086D01*
X910654Y325995D01*
X910747Y325900D01*
X910837Y325803D01*
X910924Y325703D01*
X911009Y325601D01*
X911090Y325496D01*
X911168Y325389D01*
X911244Y325280D01*
X911315Y325169D01*
X911384Y325055D01*
X911449Y324940D01*
X911511Y324822D01*
X911569Y324703D01*
X911624Y324582D01*
X911675Y324460D01*
X911723Y324336D01*
X911767Y324211D01*
X911807Y324085D01*
X911843Y323957D01*
X911876Y323829D01*
X911905Y323700D01*
X911930Y323569D01*
X911951Y323439D01*
X911969Y323307D01*
X911982Y323175D01*
X911992Y323043D01*
X911998Y322911D01*
X912000Y322778D01*
X911998Y322645D01*
X911992Y322513D01*
X911982Y322381D01*
X911969Y322249D01*
X911951Y322117D01*
X911930Y321987D01*
X911905Y321856D01*
X911876Y321727D01*
X911843Y321599D01*
X911807Y321471D01*
X911767Y321345D01*
X911723Y321220D01*
X911675Y321096D01*
X911624Y320974D01*
X911569Y320853D01*
X911511Y320734D01*
X911449Y320616D01*
X911384Y320501D01*
X911315Y320387D01*
X911244Y320276D01*
X911168Y320167D01*
X911090Y320060D01*
X911009Y319955D01*
X910924Y319853D01*
X910837Y319753D01*
X910747Y319656D01*
X910654Y319561D01*
X910558Y319470D01*
X910460Y319381D01*
X910359Y319295D01*
X910255Y319212D01*
X910149Y319132D01*
X910041Y319056D01*
X909931Y318982D01*
X909818Y318912D01*
X909704Y318845D01*
X909587Y318782D01*
X909469Y318722D01*
X909349Y318665D01*
X909227Y318612D01*
X909104Y318563D01*
X908980Y318517D01*
X908854Y318475D01*
X908727Y318437D01*
X908599Y318402D01*
X908470Y318371D01*
X908341Y318344D01*
X908210Y318321D01*
X908079Y318301D01*
X907947Y318286D01*
X907815Y318274D01*
X907683Y318266D01*
X907550Y318262D01*
X907418Y318262D01*
X907285Y318266D01*
X907153Y318274D01*
X907021Y318286D01*
X906889Y318301D01*
X906758Y318321D01*
X906627Y318344D01*
X906498Y318371D01*
X906369Y318402D01*
X906241Y318437D01*
X906114Y318475D01*
X905988Y318517D01*
X905864Y318563D01*
X905741Y318612D01*
X905619Y318665D01*
X905499Y318722D01*
X905381Y318782D01*
X905264Y318845D01*
X905150Y318912D01*
X905037Y318982D01*
X904927Y319056D01*
X904819Y319132D01*
X904713Y319212D01*
X904609Y319295D01*
X904508Y319381D01*
X904410Y319470D01*
X904314Y319561D01*
X904221Y319656D01*
X904131Y319753D01*
X904044Y319853D01*
X903959Y319955D01*
X903878Y320060D01*
X903800Y320167D01*
X903724Y320276D01*
X903653Y320387D01*
X903584Y320501D01*
X903519Y320616D01*
X903457Y320734D01*
X903399Y320853D01*
X903344Y320974D01*
X903293Y321096D01*
X903245Y321220D01*
X903201Y321345D01*
X903161Y321471D01*
X903125Y321599D01*
X903092Y321727D01*
X903063Y321856D01*
X903038Y321987D01*
X903017Y322117D01*
X902999Y322249D01*
X902986Y322381D01*
X902976Y322513D01*
X902970Y322645D01*
X902968Y322778D01*
X903872Y330906D02*
X903874Y331025D01*
X903880Y331145D01*
X903890Y331264D01*
X903904Y331382D01*
X903921Y331501D01*
X903943Y331618D01*
X903968Y331735D01*
X903998Y331850D01*
X904031Y331965D01*
X904068Y332079D01*
X904108Y332191D01*
X904153Y332302D01*
X904201Y332411D01*
X904252Y332519D01*
X904307Y332625D01*
X904366Y332729D01*
X904428Y332831D01*
X904493Y332931D01*
X904562Y333029D01*
X904634Y333125D01*
X904709Y333218D01*
X904786Y333308D01*
X904867Y333396D01*
X904951Y333481D01*
X905038Y333563D01*
X905127Y333643D01*
X905219Y333719D01*
X905313Y333793D01*
X905410Y333863D01*
X905508Y333930D01*
X905609Y333994D01*
X905713Y334054D01*
X905818Y334111D01*
X905925Y334164D01*
X906033Y334214D01*
X906143Y334260D01*
X906255Y334302D01*
X906368Y334341D01*
X906482Y334376D01*
X906597Y334407D01*
X906714Y334435D01*
X906831Y334458D01*
X906948Y334478D01*
X907067Y334494D01*
X907186Y334506D01*
X907305Y334514D01*
X907424Y334518D01*
X907544Y334518D01*
X907663Y334514D01*
X907782Y334506D01*
X907901Y334494D01*
X908020Y334478D01*
X908137Y334458D01*
X908254Y334435D01*
X908371Y334407D01*
X908486Y334376D01*
X908600Y334341D01*
X908713Y334302D01*
X908825Y334260D01*
X908935Y334214D01*
X909043Y334164D01*
X909150Y334111D01*
X909255Y334054D01*
X909359Y333994D01*
X909460Y333930D01*
X909558Y333863D01*
X909655Y333793D01*
X909749Y333719D01*
X909841Y333643D01*
X909930Y333563D01*
X910017Y333481D01*
X910101Y333396D01*
X910182Y333308D01*
X910259Y333218D01*
X910334Y333125D01*
X910406Y333029D01*
X910475Y332931D01*
X910540Y332831D01*
X910602Y332729D01*
X910661Y332625D01*
X910716Y332519D01*
X910767Y332411D01*
X910815Y332302D01*
X910860Y332191D01*
X910900Y332079D01*
X910937Y331965D01*
X910970Y331850D01*
X911000Y331735D01*
X911025Y331618D01*
X911047Y331501D01*
X911064Y331382D01*
X911078Y331264D01*
X911088Y331145D01*
X911094Y331025D01*
X911096Y330906D01*
X911094Y330787D01*
X911088Y330667D01*
X911078Y330548D01*
X911064Y330430D01*
X911047Y330311D01*
X911025Y330194D01*
X911000Y330077D01*
X910970Y329962D01*
X910937Y329847D01*
X910900Y329733D01*
X910860Y329621D01*
X910815Y329510D01*
X910767Y329401D01*
X910716Y329293D01*
X910661Y329187D01*
X910602Y329083D01*
X910540Y328981D01*
X910475Y328881D01*
X910406Y328783D01*
X910334Y328687D01*
X910259Y328594D01*
X910182Y328504D01*
X910101Y328416D01*
X910017Y328331D01*
X909930Y328249D01*
X909841Y328169D01*
X909749Y328093D01*
X909655Y328019D01*
X909558Y327949D01*
X909460Y327882D01*
X909359Y327818D01*
X909255Y327758D01*
X909150Y327701D01*
X909043Y327648D01*
X908935Y327598D01*
X908825Y327552D01*
X908713Y327510D01*
X908600Y327471D01*
X908486Y327436D01*
X908371Y327405D01*
X908254Y327377D01*
X908137Y327354D01*
X908020Y327334D01*
X907901Y327318D01*
X907782Y327306D01*
X907663Y327298D01*
X907544Y327294D01*
X907424Y327294D01*
X907305Y327298D01*
X907186Y327306D01*
X907067Y327318D01*
X906948Y327334D01*
X906831Y327354D01*
X906714Y327377D01*
X906597Y327405D01*
X906482Y327436D01*
X906368Y327471D01*
X906255Y327510D01*
X906143Y327552D01*
X906033Y327598D01*
X905925Y327648D01*
X905818Y327701D01*
X905713Y327758D01*
X905609Y327818D01*
X905508Y327882D01*
X905410Y327949D01*
X905313Y328019D01*
X905219Y328093D01*
X905127Y328169D01*
X905038Y328249D01*
X904951Y328331D01*
X904867Y328416D01*
X904786Y328504D01*
X904709Y328594D01*
X904634Y328687D01*
X904562Y328783D01*
X904493Y328881D01*
X904428Y328981D01*
X904366Y329083D01*
X904307Y329187D01*
X904252Y329293D01*
X904201Y329401D01*
X904153Y329510D01*
X904108Y329621D01*
X904068Y329733D01*
X904031Y329847D01*
X903998Y329962D01*
X903968Y330077D01*
X903943Y330194D01*
X903921Y330311D01*
X903904Y330430D01*
X903890Y330548D01*
X903880Y330667D01*
X903874Y330787D01*
X903872Y330906D01*
X922073Y334518D02*
X922073Y318262D01*
X917557Y334518D02*
X926589Y334518D01*
X936021Y334518D02*
X936021Y321874D01*
X936019Y321756D01*
X936013Y321638D01*
X936004Y321520D01*
X935990Y321403D01*
X935973Y321286D01*
X935952Y321169D01*
X935927Y321054D01*
X935898Y320939D01*
X935865Y320825D01*
X935829Y320713D01*
X935789Y320602D01*
X935746Y320492D01*
X935699Y320383D01*
X935649Y320276D01*
X935594Y320171D01*
X935537Y320068D01*
X935476Y319967D01*
X935412Y319867D01*
X935345Y319770D01*
X935275Y319675D01*
X935201Y319583D01*
X935125Y319492D01*
X935045Y319405D01*
X934963Y319320D01*
X934878Y319238D01*
X934791Y319158D01*
X934700Y319082D01*
X934608Y319008D01*
X934513Y318938D01*
X934416Y318871D01*
X934316Y318807D01*
X934215Y318746D01*
X934112Y318689D01*
X934007Y318634D01*
X933900Y318584D01*
X933791Y318537D01*
X933681Y318494D01*
X933570Y318454D01*
X933458Y318418D01*
X933344Y318385D01*
X933229Y318356D01*
X933114Y318331D01*
X932997Y318310D01*
X932880Y318293D01*
X932763Y318279D01*
X932645Y318270D01*
X932527Y318264D01*
X932409Y318262D01*
X930603Y318262D01*
X943639Y318262D02*
X950864Y318262D01*
X943639Y318262D02*
X943639Y334518D01*
X950864Y334518D01*
X949058Y327293D02*
X943639Y327293D01*
D11*
X637540Y312420D03*
X688340Y312420D03*
D12*
X648780Y336550D03*
X676780Y336550D03*
D13*
X201930Y298450D03*
D14*
X151130Y298450D03*
D11*
X711200Y313690D03*
X762000Y313690D03*
D13*
X256540Y321310D03*
D15*
X256540Y270510D03*
D16*
X353060Y308610D02*
X353060Y323850D01*
X378460Y323850D02*
X378460Y308610D01*
X403860Y308610D02*
X403860Y323850D01*
X429260Y323850D02*
X429260Y308610D01*
D17*
X486918Y177800D02*
X503682Y177800D01*
X503682Y152400D02*
X486918Y152400D01*
X486918Y127000D02*
X503682Y127000D01*
D18*
X78740Y317500D03*
X78740Y292100D03*
X104140Y317500D03*
X104140Y292100D03*
D16*
X279400Y50800D02*
X279400Y35560D01*
X254000Y35560D02*
X254000Y50800D01*
X586580Y306070D02*
X586580Y321310D01*
X561180Y321310D02*
X561180Y306070D01*
D19*
X228600Y163830D03*
X152400Y163830D03*
D11*
X462280Y223520D03*
X538480Y223520D03*
D19*
X431800Y43180D03*
X355600Y43180D03*
X119380Y160020D03*
X43180Y160020D03*
X242570Y193040D03*
X166370Y193040D03*
D20*
X38100Y195580D03*
X38100Y271780D03*
D19*
X254000Y130810D03*
X177800Y130810D03*
X134620Y124460D03*
X58420Y124460D03*
X139700Y261620D03*
X63500Y261620D03*
X439420Y273050D03*
X363220Y273050D03*
D21*
X490220Y320040D03*
X464820Y294640D03*
X490220Y269240D03*
D22*
X488696Y88900D02*
X501904Y88900D01*
X501904Y38100D02*
X488696Y38100D01*
X488696Y63500D02*
X501904Y63500D01*
D23*
X431800Y222060D02*
X431800Y235140D01*
X406400Y235140D02*
X406400Y222060D01*
X381000Y222060D02*
X381000Y235140D01*
X355600Y235140D02*
X355600Y222060D01*
X330200Y222060D02*
X330200Y235140D01*
X304800Y235140D02*
X304800Y222060D01*
X279400Y222060D02*
X279400Y235140D01*
X254000Y235140D02*
X254000Y222060D01*
X228600Y222060D02*
X228600Y235140D01*
X203200Y235140D02*
X203200Y222060D01*
X177800Y222060D02*
X177800Y235140D01*
X152400Y235140D02*
X152400Y222060D01*
X431800Y82740D02*
X431800Y69660D01*
X406400Y69660D02*
X406400Y82740D01*
X381000Y82740D02*
X381000Y69660D01*
X228600Y69660D02*
X228600Y82740D01*
X203200Y82740D02*
X203200Y69660D01*
X177800Y69660D02*
X177800Y82740D01*
X152400Y82740D02*
X152400Y69660D01*
X76200Y69660D02*
X76200Y82740D01*
X76200Y222060D02*
X76200Y235140D01*
X101600Y235140D02*
X101600Y222060D01*
X127000Y222060D02*
X127000Y235140D01*
X101600Y82740D02*
X101600Y69660D01*
X127000Y69660D02*
X127000Y82740D01*
X355600Y82740D02*
X355600Y69660D01*
X254000Y69660D02*
X254000Y82740D01*
X279400Y82740D02*
X279400Y69660D01*
X304800Y69660D02*
X304800Y82740D01*
X330200Y82740D02*
X330200Y69660D01*
D24*
X431800Y127000D03*
X419100Y127000D03*
X419100Y152400D03*
X419100Y177800D03*
X431800Y152400D03*
X431800Y177800D03*
D25*
X664020Y105340D03*
X679020Y105340D03*
X694020Y105340D03*
X709020Y105340D03*
X724020Y105340D03*
X739020Y105340D03*
X754020Y105340D03*
X769020Y105340D03*
X784020Y105340D03*
X799020Y105340D03*
X799020Y255340D03*
X784020Y255340D03*
X769020Y255340D03*
X754020Y255340D03*
X739020Y255340D03*
X724020Y255340D03*
X709020Y255340D03*
X694020Y255340D03*
X679020Y255340D03*
X664020Y255340D03*
D13*
X982980Y170180D03*
D26*
X957481Y195679D03*
X1008479Y195679D03*
X1008479Y144681D03*
X957481Y144681D03*
D27*
X818220Y287020D03*
X797220Y287020D03*
X304800Y30140D03*
X304800Y51140D03*
X331470Y278470D03*
X331470Y257470D03*
D28*
X862940Y287020D03*
X843940Y287020D03*
X210210Y21590D03*
X229210Y21590D03*
D29*
X308610Y259740D03*
X308610Y278740D03*
D27*
X330200Y30140D03*
X330200Y51140D03*
D28*
X393040Y20320D03*
X374040Y20320D03*
D30*
X289560Y262890D03*
X670560Y284480D03*
X527050Y269240D03*
X523240Y125730D03*
D31*
X521970Y127000D01*
X495300Y127000D01*
X347980Y321310D02*
X256540Y321310D01*
X347980Y321310D02*
X353060Y316230D01*
X331470Y257470D02*
X331470Y229870D01*
X330200Y228600D01*
X228600Y228600D02*
X228600Y222250D01*
X209550Y203200D01*
X209550Y160443D01*
X254000Y130810D01*
X627410Y284988D02*
X637510Y284988D01*
X73269Y330708D02*
X65532Y322971D01*
X664942Y312420D02*
X688340Y312420D01*
X65532Y263652D02*
X63500Y261620D01*
X637510Y284988D02*
X664942Y312420D01*
X65532Y322971D02*
X65532Y263652D01*
X617474Y294924D02*
X627410Y284988D01*
X617474Y294924D02*
X617474Y323482D01*
X226785Y330708D02*
X73269Y330708D01*
X226785Y330708D02*
X240120Y344043D01*
X596913Y344043D02*
X617474Y323482D01*
X596913Y344043D02*
X240120Y344043D01*
X627410Y284988D02*
X627410Y281557D01*
X676780Y336550D02*
X688340Y324990D01*
X688340Y312420D01*
X490220Y320040D02*
X464820Y294640D01*
X637540Y312420D02*
X637540Y325310D01*
X648780Y336550D01*
X788432Y93025D02*
X791705Y89752D01*
X806335Y89752D01*
X121976Y209932D02*
X114872Y217036D01*
X784020Y105340D02*
X788432Y100928D01*
X788432Y93025D01*
X485591Y336296D02*
X442157Y292862D01*
X806335Y89752D02*
X811276Y94693D01*
X811276Y115987D01*
X768861Y158402D01*
X177800Y228600D02*
X159132Y209932D01*
X121976Y209932D01*
X708276Y158402D02*
X768861Y158402D01*
X442157Y292862D02*
X345948Y292862D01*
X592973Y336296D02*
X610108Y319161D01*
X592973Y336296D02*
X485591Y336296D01*
X114872Y254034D02*
X114872Y217036D01*
X609869Y256809D02*
X708276Y158402D01*
X262800Y306197D02*
X250280Y306197D01*
X262800Y306197D02*
X265213Y308610D01*
X330200Y308610D01*
X165444Y283337D02*
X144175Y283337D01*
X165444Y283337D02*
X195670Y313563D01*
X242914Y313563D01*
X250280Y306197D01*
X330200Y308610D02*
X345948Y292862D01*
X144175Y283337D02*
X114872Y254034D01*
X610108Y285880D02*
X610108Y319161D01*
X610108Y285880D02*
X609948Y285720D01*
X609948Y256888D02*
X609869Y256809D01*
X609948Y256888D02*
X609948Y285720D01*
X325176Y209932D02*
X318072Y217036D01*
X472948Y121213D02*
X486211Y107950D01*
X794608Y117252D02*
X803910Y107950D01*
X128708Y228600D02*
X127000Y228600D01*
X128708Y228600D02*
X147376Y247268D01*
X472948Y170180D02*
X472948Y121213D01*
X318072Y239020D02*
X309824Y247268D01*
X318072Y239020D02*
X318072Y217036D01*
X486211Y107950D02*
X530175Y107950D01*
X309824Y247268D02*
X147376Y247268D01*
X530175Y107950D02*
X552043Y129818D01*
X782445Y129818D01*
X794608Y117655D01*
X794608Y117252D01*
X803910Y107950D02*
X796925Y100965D01*
X796925Y103245D01*
X799020Y105340D01*
X472948Y170180D02*
X433196Y209932D01*
X325176Y209932D01*
X494030Y179070D02*
X495300Y177800D01*
X494030Y179070D02*
X494030Y218440D01*
X528320Y252730D01*
X306070Y298450D02*
X201930Y298450D01*
X306070Y298450D02*
X306070Y296522D01*
D30*
X306070Y296522D03*
X393042Y252730D03*
D31*
X528320Y252730D01*
X566420Y308450D02*
X561180Y313690D01*
X566420Y308450D02*
X566420Y305372D01*
X544830Y252730D02*
X528320Y252730D01*
X544830Y252730D02*
X553720Y261620D01*
X553720Y264160D01*
D30*
X553720Y264160D03*
D31*
X538480Y223520D02*
X538480Y141628D01*
X536575Y141628D01*
D30*
X536575Y141628D03*
D31*
X535940Y63500D02*
X495300Y63500D01*
D30*
X535940Y63500D03*
D31*
X709020Y81640D02*
X709020Y105340D01*
X709020Y81640D02*
X706120Y78740D01*
X665480Y78740D01*
X664020Y80200D02*
X664020Y105340D01*
X664020Y80200D02*
X665480Y78740D01*
X103308Y76200D02*
X101600Y76200D01*
X435233Y112394D02*
X470919Y76708D01*
X663448Y76708D01*
X665480Y78740D01*
X139502Y112394D02*
X103308Y76200D01*
X139502Y112394D02*
X435233Y112394D01*
X819150Y292100D02*
X838200Y292100D01*
X819150Y292100D02*
X818220Y287020D01*
X838200Y292100D02*
X843940Y287020D01*
X296250Y21590D02*
X229210Y21590D01*
X296250Y21590D02*
X304800Y30140D01*
X308610Y278740D02*
X331200Y278740D01*
X331470Y278470D01*
X781050Y285750D02*
X793750Y285750D01*
X781050Y285750D02*
X768350Y273050D01*
X768350Y260350D01*
X793750Y285750D02*
X797220Y287020D01*
X768350Y260350D02*
X769020Y255340D01*
X304800Y76200D02*
X304800Y51140D01*
X304800Y76200D02*
X306508Y76200D01*
X334066Y103758D01*
X433452Y103758D01*
X476504Y60706D02*
X476504Y58450D01*
X484154Y50800D01*
X702310Y50800D01*
X724020Y72510D01*
X724020Y105340D01*
X476504Y60706D02*
X433452Y103758D01*
X340020Y20320D02*
X330200Y30140D01*
X340020Y20320D02*
X374040Y20320D01*
X330200Y51140D02*
X330200Y76200D01*
M02*
