G04 EAGLE Gerber RS-274X export*
G75*
%MOMM*%
%FSLAX34Y34*%
%LPD*%
%INBottom Copper*%
%IPPOS*%
%AMOC8*
5,1,8,0,0,1.08239X$1,22.5*%
G01*
%ADD10P,1.429621X8X22.500000*%
%ADD11C,1.905000*%
%ADD12P,2.061953X8X202.500000*%
%ADD13P,2.061953X8X292.500000*%
%ADD14C,1.524000*%
%ADD15C,1.676400*%
%ADD16P,1.649562X8X22.500000*%
%ADD17P,1.429621X8X202.500000*%
%ADD18P,1.429621X8X112.500000*%
%ADD19C,1.117600*%
%ADD20C,1.320800*%
%ADD21R,1.930400X3.810000*%
%ADD22R,3.810000X1.930400*%
%ADD23C,1.308000*%
%ADD24C,2.667000*%
%ADD25P,1.407107X8X22.500000*%
%ADD26C,0.355600*%
%ADD27C,1.210000*%

G36*
X361398Y91980D02*
X361398Y91980D01*
X361512Y91976D01*
X361716Y91994D01*
X361921Y92004D01*
X362033Y92024D01*
X362146Y92034D01*
X362346Y92078D01*
X362548Y92113D01*
X362657Y92147D01*
X362769Y92171D01*
X362961Y92240D01*
X363157Y92300D01*
X363262Y92347D01*
X363369Y92385D01*
X363551Y92477D01*
X363738Y92562D01*
X363836Y92621D01*
X363937Y92673D01*
X364107Y92787D01*
X364282Y92894D01*
X364371Y92965D01*
X364465Y93029D01*
X364613Y93159D01*
X364780Y93292D01*
X364867Y93382D01*
X364958Y93461D01*
X381390Y109893D01*
X383676Y112180D01*
X385730Y113031D01*
X471905Y113031D01*
X472101Y113043D01*
X472297Y113046D01*
X472419Y113063D01*
X472541Y113071D01*
X472734Y113107D01*
X472928Y113135D01*
X473046Y113167D01*
X473167Y113190D01*
X473353Y113250D01*
X473542Y113302D01*
X473656Y113349D01*
X473773Y113387D01*
X473950Y113470D01*
X474131Y113545D01*
X474238Y113605D01*
X474350Y113658D01*
X474515Y113763D01*
X474685Y113859D01*
X474784Y113933D01*
X474888Y113999D01*
X475039Y114123D01*
X475196Y114241D01*
X475284Y114326D01*
X475379Y114404D01*
X475513Y114547D01*
X475654Y114683D01*
X475731Y114779D01*
X475816Y114868D01*
X475931Y115027D01*
X476054Y115179D01*
X476118Y115284D01*
X476191Y115383D01*
X476285Y115555D01*
X476388Y115722D01*
X476439Y115834D01*
X476498Y115941D01*
X476571Y116123D01*
X476652Y116302D01*
X476688Y116419D01*
X476734Y116534D01*
X476783Y116723D01*
X476841Y116910D01*
X476862Y117031D01*
X476893Y117150D01*
X476918Y117345D01*
X476952Y117538D01*
X476958Y117660D01*
X476974Y117782D01*
X476974Y117979D01*
X476984Y118174D01*
X476975Y118296D01*
X476975Y118420D01*
X476951Y118614D01*
X476936Y118809D01*
X476912Y118930D01*
X476897Y119052D01*
X476848Y119242D01*
X476809Y119433D01*
X476770Y119547D01*
X476739Y119669D01*
X476661Y119868D01*
X476598Y120054D01*
X474725Y124575D01*
X474725Y129425D01*
X476582Y133907D01*
X479681Y137006D01*
X479784Y137123D01*
X479894Y137232D01*
X479994Y137362D01*
X480103Y137484D01*
X480190Y137612D01*
X480285Y137735D01*
X480369Y137876D01*
X480461Y138011D01*
X480531Y138149D01*
X480610Y138282D01*
X480676Y138433D01*
X480750Y138579D01*
X480803Y138724D01*
X480865Y138867D01*
X480911Y139024D01*
X480967Y139178D01*
X481000Y139329D01*
X481044Y139478D01*
X481070Y139640D01*
X481106Y139800D01*
X481121Y139954D01*
X481145Y140107D01*
X481151Y140271D01*
X481166Y140434D01*
X481162Y140589D01*
X481167Y140744D01*
X481152Y140907D01*
X481147Y141071D01*
X481123Y141224D01*
X481109Y141378D01*
X481073Y141539D01*
X481048Y141700D01*
X481005Y141849D01*
X480972Y142001D01*
X480917Y142155D01*
X480871Y142312D01*
X480810Y142455D01*
X480758Y142601D01*
X480684Y142747D01*
X480619Y142897D01*
X480540Y143031D01*
X480470Y143169D01*
X480378Y143305D01*
X480295Y143446D01*
X480201Y143569D01*
X480114Y143697D01*
X480009Y143817D01*
X479906Y143950D01*
X479787Y144070D01*
X479681Y144190D01*
X478587Y145284D01*
X477576Y146675D01*
X477247Y147321D01*
X495300Y147321D01*
X513353Y147321D01*
X513024Y146675D01*
X512013Y145284D01*
X510919Y144190D01*
X510816Y144073D01*
X510706Y143964D01*
X510606Y143835D01*
X510497Y143712D01*
X510410Y143584D01*
X510315Y143461D01*
X510231Y143320D01*
X510139Y143185D01*
X510069Y143047D01*
X509990Y142914D01*
X509924Y142763D01*
X509850Y142617D01*
X509797Y142471D01*
X509735Y142329D01*
X509689Y142172D01*
X509633Y142018D01*
X509600Y141867D01*
X509556Y141718D01*
X509530Y141556D01*
X509494Y141396D01*
X509479Y141242D01*
X509455Y141089D01*
X509449Y140925D01*
X509434Y140762D01*
X509438Y140607D01*
X509433Y140452D01*
X509448Y140289D01*
X509453Y140125D01*
X509477Y139972D01*
X509491Y139818D01*
X509527Y139658D01*
X509552Y139496D01*
X509595Y139347D01*
X509628Y139196D01*
X509683Y139041D01*
X509729Y138884D01*
X509790Y138741D01*
X509842Y138595D01*
X509916Y138449D01*
X509981Y138299D01*
X510060Y138165D01*
X510130Y138027D01*
X510221Y137891D01*
X510305Y137750D01*
X510400Y137627D01*
X510486Y137499D01*
X510591Y137379D01*
X510694Y137246D01*
X510814Y137126D01*
X510919Y137006D01*
X511835Y136090D01*
X511951Y135988D01*
X512061Y135878D01*
X512190Y135777D01*
X512313Y135669D01*
X512441Y135582D01*
X512563Y135486D01*
X512705Y135402D01*
X512840Y135310D01*
X512978Y135240D01*
X513111Y135161D01*
X513261Y135095D01*
X513408Y135021D01*
X513553Y134968D01*
X513695Y134906D01*
X513853Y134860D01*
X514007Y134805D01*
X514158Y134771D01*
X514307Y134727D01*
X514469Y134701D01*
X514629Y134665D01*
X514783Y134651D01*
X514936Y134626D01*
X515100Y134620D01*
X515263Y134605D01*
X515418Y134610D01*
X515573Y134604D01*
X515736Y134619D01*
X515900Y134624D01*
X516053Y134648D01*
X516207Y134663D01*
X516367Y134698D01*
X516529Y134723D01*
X516678Y134766D01*
X516829Y134800D01*
X516983Y134855D01*
X517141Y134900D01*
X517284Y134962D01*
X517429Y135014D01*
X517575Y135088D01*
X517726Y135153D01*
X517860Y135231D01*
X517998Y135301D01*
X518134Y135393D01*
X518275Y135476D01*
X518398Y135571D01*
X518526Y135657D01*
X518646Y135763D01*
X518779Y135866D01*
X518899Y135985D01*
X518962Y136041D01*
X521185Y136041D01*
X521340Y136050D01*
X521495Y136050D01*
X521657Y136070D01*
X521821Y136081D01*
X521973Y136110D01*
X522127Y136129D01*
X522286Y136169D01*
X522447Y136200D01*
X522594Y136248D01*
X522744Y136286D01*
X522897Y136346D01*
X523053Y136397D01*
X523193Y136462D01*
X523337Y136519D01*
X523481Y136598D01*
X523629Y136668D01*
X523760Y136750D01*
X523896Y136825D01*
X524029Y136921D01*
X524168Y137009D01*
X524287Y137107D01*
X524413Y137198D01*
X524532Y137310D01*
X524659Y137414D01*
X524765Y137527D01*
X524878Y137633D01*
X524983Y137759D01*
X525095Y137878D01*
X525187Y138004D01*
X525286Y138123D01*
X525374Y138261D01*
X525470Y138393D01*
X525545Y138529D01*
X525629Y138660D01*
X525699Y138808D01*
X525778Y138951D01*
X525835Y139095D01*
X525902Y139235D01*
X525953Y139391D01*
X526013Y139544D01*
X526052Y139694D01*
X526101Y139841D01*
X526132Y140002D01*
X526173Y140160D01*
X526192Y140314D01*
X526222Y140466D01*
X526232Y140625D01*
X526254Y140792D01*
X526254Y140961D01*
X526264Y141120D01*
X526264Y145899D01*
X532304Y151939D01*
X540846Y151939D01*
X546886Y145899D01*
X546886Y136398D01*
X546895Y136243D01*
X546895Y136088D01*
X546915Y135926D01*
X546926Y135762D01*
X546955Y135610D01*
X546974Y135456D01*
X547014Y135297D01*
X547045Y135136D01*
X547093Y134989D01*
X547131Y134839D01*
X547191Y134686D01*
X547242Y134530D01*
X547307Y134390D01*
X547364Y134246D01*
X547443Y134102D01*
X547513Y133954D01*
X547595Y133823D01*
X547670Y133687D01*
X547766Y133554D01*
X547854Y133415D01*
X547952Y133296D01*
X548043Y133170D01*
X548155Y133051D01*
X548259Y132924D01*
X548372Y132818D01*
X548478Y132705D01*
X548604Y132600D01*
X548723Y132488D01*
X548849Y132396D01*
X548968Y132297D01*
X549106Y132209D01*
X549238Y132113D01*
X549374Y132038D01*
X549505Y131954D01*
X549653Y131884D01*
X549796Y131805D01*
X549940Y131748D01*
X550080Y131681D01*
X550236Y131630D01*
X550389Y131570D01*
X550539Y131531D01*
X550686Y131482D01*
X550847Y131451D01*
X551005Y131410D01*
X551159Y131391D01*
X551311Y131361D01*
X551470Y131351D01*
X551637Y131329D01*
X551806Y131329D01*
X551965Y131319D01*
X591662Y131319D01*
X593716Y130468D01*
X596002Y128182D01*
X596002Y128181D01*
X601791Y122392D01*
X601846Y122344D01*
X601896Y122291D01*
X602085Y122133D01*
X602269Y121971D01*
X602329Y121930D01*
X602386Y121883D01*
X602593Y121751D01*
X602796Y121613D01*
X602861Y121580D01*
X602923Y121540D01*
X603145Y121435D01*
X603364Y121323D01*
X603432Y121299D01*
X603498Y121267D01*
X603732Y121191D01*
X603963Y121107D01*
X604034Y121091D01*
X604104Y121068D01*
X604345Y121022D01*
X604585Y120968D01*
X604657Y120961D01*
X604729Y120947D01*
X604960Y120932D01*
X605219Y120907D01*
X605302Y120910D01*
X605383Y120905D01*
X834035Y120905D01*
X834271Y120920D01*
X834508Y120927D01*
X834589Y120940D01*
X834671Y120945D01*
X834903Y120989D01*
X835138Y121026D01*
X835217Y121049D01*
X835297Y121064D01*
X835522Y121137D01*
X835750Y121203D01*
X835825Y121235D01*
X835903Y121261D01*
X836118Y121362D01*
X836335Y121455D01*
X836405Y121497D01*
X836480Y121532D01*
X836680Y121659D01*
X836884Y121779D01*
X836948Y121829D01*
X837018Y121873D01*
X837201Y122024D01*
X837388Y122168D01*
X837446Y122226D01*
X837509Y122278D01*
X837671Y122451D01*
X837839Y122618D01*
X837889Y122683D01*
X837946Y122742D01*
X838085Y122934D01*
X838230Y123121D01*
X838272Y123191D01*
X838321Y123257D01*
X838435Y123465D01*
X838556Y123668D01*
X838589Y123744D01*
X838628Y123815D01*
X838716Y124035D01*
X838810Y124253D01*
X838833Y124331D01*
X838864Y124408D01*
X838923Y124637D01*
X838989Y124864D01*
X839002Y124945D01*
X839023Y125024D01*
X839053Y125259D01*
X839091Y125493D01*
X839093Y125575D01*
X839104Y125656D01*
X839104Y125893D01*
X839112Y126130D01*
X839105Y126211D01*
X839105Y126294D01*
X839076Y126528D01*
X839054Y126764D01*
X839037Y126844D01*
X839026Y126926D01*
X838968Y127155D01*
X838917Y127386D01*
X838889Y127464D01*
X838869Y127543D01*
X838783Y127764D01*
X838703Y127987D01*
X838666Y128060D01*
X838636Y128136D01*
X838522Y128344D01*
X838416Y128555D01*
X838370Y128623D01*
X838330Y128695D01*
X838192Y128887D01*
X838059Y129083D01*
X838006Y129144D01*
X837957Y129212D01*
X837780Y129401D01*
X837627Y129576D01*
X834479Y132724D01*
X834478Y132724D01*
X832192Y135010D01*
X831341Y137064D01*
X831341Y218420D01*
X831332Y218574D01*
X831332Y218720D01*
X831332Y218730D01*
X831312Y218892D01*
X831301Y219056D01*
X831272Y219208D01*
X831253Y219362D01*
X831213Y219521D01*
X831182Y219682D01*
X831134Y219829D01*
X831096Y219979D01*
X831036Y220132D01*
X830985Y220288D01*
X830920Y220428D01*
X830863Y220572D01*
X830784Y220716D01*
X830714Y220864D01*
X830632Y220995D01*
X830557Y221131D01*
X830461Y221264D01*
X830373Y221403D01*
X830275Y221522D01*
X830184Y221648D01*
X830072Y221767D01*
X829968Y221894D01*
X829855Y222000D01*
X829749Y222113D01*
X829623Y222218D01*
X829504Y222330D01*
X829378Y222422D01*
X829259Y222521D01*
X829121Y222609D01*
X828989Y222705D01*
X828853Y222780D01*
X828722Y222864D01*
X828574Y222934D01*
X828431Y223013D01*
X828287Y223070D01*
X828147Y223137D01*
X827991Y223188D01*
X827838Y223248D01*
X827688Y223287D01*
X827541Y223336D01*
X827380Y223367D01*
X827222Y223408D01*
X827068Y223427D01*
X826916Y223457D01*
X826757Y223467D01*
X826590Y223489D01*
X826421Y223489D01*
X826262Y223499D01*
X804760Y223499D01*
X803359Y224079D01*
X802287Y225151D01*
X801707Y226552D01*
X801707Y266168D01*
X802287Y267569D01*
X803359Y268641D01*
X804760Y269221D01*
X826262Y269221D01*
X826417Y269230D01*
X826572Y269230D01*
X826734Y269250D01*
X826898Y269261D01*
X827050Y269290D01*
X827204Y269309D01*
X827363Y269349D01*
X827524Y269380D01*
X827671Y269428D01*
X827821Y269466D01*
X827974Y269526D01*
X828130Y269577D01*
X828270Y269642D01*
X828414Y269699D01*
X828558Y269778D01*
X828706Y269848D01*
X828837Y269930D01*
X828973Y270005D01*
X829106Y270101D01*
X829245Y270189D01*
X829364Y270287D01*
X829490Y270378D01*
X829609Y270490D01*
X829736Y270594D01*
X829842Y270707D01*
X829955Y270813D01*
X830060Y270939D01*
X830172Y271058D01*
X830264Y271184D01*
X830363Y271303D01*
X830451Y271441D01*
X830547Y271573D01*
X830622Y271709D01*
X830706Y271840D01*
X830776Y271988D01*
X830855Y272131D01*
X830912Y272275D01*
X830979Y272415D01*
X831030Y272571D01*
X831090Y272724D01*
X831129Y272874D01*
X831178Y273021D01*
X831209Y273182D01*
X831250Y273340D01*
X831269Y273494D01*
X831299Y273646D01*
X831309Y273805D01*
X831331Y273972D01*
X831331Y274141D01*
X831341Y274300D01*
X831341Y316891D01*
X831337Y316964D01*
X831339Y317037D01*
X831317Y317282D01*
X831301Y317527D01*
X831288Y317599D01*
X831281Y317671D01*
X831228Y317912D01*
X831182Y318153D01*
X831159Y318222D01*
X831144Y318294D01*
X831061Y318525D01*
X830985Y318759D01*
X830954Y318825D01*
X830930Y318894D01*
X830819Y319113D01*
X830714Y319336D01*
X830675Y319397D01*
X830642Y319462D01*
X830505Y319666D01*
X830373Y319874D01*
X830327Y319930D01*
X830286Y319991D01*
X830133Y320164D01*
X829968Y320365D01*
X829907Y320422D01*
X829854Y320483D01*
X813497Y336840D01*
X813442Y336888D01*
X813392Y336941D01*
X813203Y337099D01*
X813019Y337261D01*
X812959Y337302D01*
X812902Y337349D01*
X812695Y337481D01*
X812492Y337619D01*
X812427Y337652D01*
X812365Y337692D01*
X812143Y337797D01*
X811924Y337909D01*
X811856Y337933D01*
X811790Y337965D01*
X811556Y338041D01*
X811325Y338125D01*
X811254Y338141D01*
X811184Y338164D01*
X810943Y338210D01*
X810703Y338264D01*
X810631Y338271D01*
X810559Y338285D01*
X810328Y338300D01*
X810069Y338325D01*
X809986Y338322D01*
X809905Y338327D01*
X631799Y338327D01*
X631563Y338312D01*
X631326Y338305D01*
X631245Y338292D01*
X631163Y338287D01*
X630931Y338243D01*
X630696Y338206D01*
X630617Y338183D01*
X630537Y338168D01*
X630312Y338095D01*
X630084Y338029D01*
X630009Y337997D01*
X629931Y337971D01*
X629717Y337871D01*
X629499Y337777D01*
X629428Y337735D01*
X629354Y337700D01*
X629154Y337574D01*
X628950Y337453D01*
X628886Y337403D01*
X628816Y337359D01*
X628634Y337208D01*
X628446Y337064D01*
X628388Y337006D01*
X628325Y336954D01*
X628163Y336781D01*
X627995Y336614D01*
X627945Y336549D01*
X627888Y336490D01*
X627749Y336298D01*
X627604Y336111D01*
X627562Y336041D01*
X627513Y335975D01*
X627399Y335767D01*
X627278Y335564D01*
X627245Y335488D01*
X627206Y335417D01*
X627118Y335197D01*
X627024Y334979D01*
X627001Y334901D01*
X626970Y334824D01*
X626911Y334595D01*
X626845Y334368D01*
X626832Y334287D01*
X626811Y334208D01*
X626781Y333973D01*
X626743Y333739D01*
X626741Y333657D01*
X626730Y333576D01*
X626730Y333339D01*
X626722Y333102D01*
X626729Y333021D01*
X626729Y332938D01*
X626758Y332703D01*
X626780Y332468D01*
X626797Y332388D01*
X626808Y332306D01*
X626866Y332077D01*
X626917Y331846D01*
X626945Y331768D01*
X626965Y331689D01*
X627051Y331468D01*
X627131Y331245D01*
X627168Y331172D01*
X627198Y331096D01*
X627312Y330888D01*
X627418Y330677D01*
X627464Y330609D01*
X627504Y330537D01*
X627643Y330345D01*
X627775Y330149D01*
X627828Y330088D01*
X627877Y330020D01*
X628054Y329830D01*
X628207Y329656D01*
X633541Y324322D01*
X633596Y324274D01*
X633646Y324221D01*
X633835Y324064D01*
X634019Y323901D01*
X634080Y323860D01*
X634136Y323813D01*
X634343Y323681D01*
X634546Y323543D01*
X634611Y323510D01*
X634673Y323470D01*
X634895Y323365D01*
X635114Y323253D01*
X635182Y323229D01*
X635248Y323197D01*
X635482Y323121D01*
X635713Y323037D01*
X635784Y323021D01*
X635854Y322998D01*
X636095Y322952D01*
X636335Y322898D01*
X636407Y322891D01*
X636479Y322877D01*
X636710Y322862D01*
X636969Y322837D01*
X637052Y322840D01*
X637133Y322835D01*
X641854Y322835D01*
X647955Y316734D01*
X647955Y308106D01*
X641854Y302005D01*
X633226Y302005D01*
X627125Y308106D01*
X627125Y312827D01*
X627121Y312900D01*
X627123Y312973D01*
X627101Y313218D01*
X627085Y313463D01*
X627072Y313535D01*
X627065Y313607D01*
X627012Y313848D01*
X626966Y314089D01*
X626943Y314158D01*
X626928Y314230D01*
X626845Y314461D01*
X626769Y314695D01*
X626738Y314761D01*
X626714Y314830D01*
X626603Y315049D01*
X626498Y315272D01*
X626459Y315333D01*
X626426Y315398D01*
X626289Y315602D01*
X626157Y315810D01*
X626111Y315866D01*
X626070Y315927D01*
X625917Y316100D01*
X625752Y316301D01*
X625691Y316358D01*
X625638Y316419D01*
X613218Y328839D01*
X613163Y328887D01*
X613113Y328940D01*
X612924Y329098D01*
X612740Y329260D01*
X612680Y329301D01*
X612623Y329348D01*
X612416Y329480D01*
X612213Y329618D01*
X612148Y329651D01*
X612086Y329691D01*
X611864Y329796D01*
X611645Y329908D01*
X611577Y329932D01*
X611511Y329964D01*
X611277Y330040D01*
X611046Y330124D01*
X610975Y330140D01*
X610905Y330163D01*
X610664Y330209D01*
X610424Y330263D01*
X610352Y330270D01*
X610280Y330284D01*
X610049Y330299D01*
X609790Y330324D01*
X609707Y330321D01*
X609626Y330326D01*
X601325Y330326D01*
X601011Y330307D01*
X600696Y330287D01*
X600693Y330287D01*
X600689Y330286D01*
X600379Y330227D01*
X600070Y330169D01*
X600067Y330168D01*
X600063Y330167D01*
X599765Y330070D01*
X599464Y329973D01*
X599461Y329971D01*
X599457Y329970D01*
X599178Y329839D01*
X598887Y329703D01*
X598884Y329701D01*
X598881Y329699D01*
X598619Y329534D01*
X598348Y329362D01*
X598345Y329360D01*
X598342Y329358D01*
X598088Y329148D01*
X597856Y328957D01*
X597854Y328955D01*
X597851Y328953D01*
X597628Y328715D01*
X597419Y328494D01*
X597417Y328491D01*
X597415Y328489D01*
X597225Y328228D01*
X597043Y327979D01*
X597042Y327976D01*
X597040Y327974D01*
X596884Y327691D01*
X596735Y327422D01*
X596734Y327419D01*
X596732Y327416D01*
X596614Y327118D01*
X596499Y326830D01*
X596498Y326827D01*
X596497Y326823D01*
X596416Y326512D01*
X596339Y326214D01*
X596338Y326210D01*
X596337Y326207D01*
X596296Y325880D01*
X596257Y325582D01*
X596257Y325578D01*
X596256Y325575D01*
X596256Y325257D01*
X596255Y324945D01*
X596255Y324941D01*
X596255Y324937D01*
X596295Y324621D01*
X596333Y324312D01*
X596333Y324309D01*
X596334Y324305D01*
X596490Y323690D01*
X596741Y322110D01*
X596741Y318769D01*
X586580Y318769D01*
X586426Y318760D01*
X586271Y318760D01*
X586108Y318740D01*
X585944Y318729D01*
X585793Y318700D01*
X585639Y318681D01*
X585479Y318641D01*
X585319Y318610D01*
X585171Y318562D01*
X585021Y318524D01*
X584869Y318464D01*
X584713Y318414D01*
X584572Y318348D01*
X584428Y318291D01*
X584284Y318212D01*
X584136Y318143D01*
X584005Y318060D01*
X583869Y317985D01*
X583736Y317889D01*
X583598Y317801D01*
X583478Y317703D01*
X583353Y317612D01*
X583233Y317500D01*
X583107Y317396D01*
X583106Y317395D01*
X583000Y317282D01*
X582887Y317177D01*
X582782Y317051D01*
X582669Y316931D01*
X582578Y316806D01*
X582479Y316687D01*
X582391Y316549D01*
X582294Y316416D01*
X582220Y316281D01*
X582136Y316150D01*
X582066Y316002D01*
X581987Y315858D01*
X581930Y315714D01*
X581863Y315574D01*
X581812Y315418D01*
X581751Y315266D01*
X581713Y315116D01*
X581664Y314969D01*
X581633Y314808D01*
X581592Y314649D01*
X581572Y314496D01*
X581543Y314344D01*
X581533Y314185D01*
X581511Y314017D01*
X581511Y313849D01*
X581501Y313690D01*
X581501Y297254D01*
X581255Y297380D01*
X579961Y298320D01*
X578763Y299518D01*
X578622Y299700D01*
X578563Y299759D01*
X578510Y299824D01*
X578338Y299985D01*
X578172Y300151D01*
X578106Y300203D01*
X578045Y300260D01*
X577855Y300398D01*
X577669Y300543D01*
X577597Y300586D01*
X577530Y300635D01*
X577324Y300748D01*
X577122Y300868D01*
X577045Y300902D01*
X576972Y300942D01*
X576753Y301029D01*
X576538Y301123D01*
X576457Y301146D01*
X576380Y301177D01*
X576152Y301236D01*
X575926Y301302D01*
X575844Y301315D01*
X575763Y301336D01*
X575530Y301366D01*
X575297Y301403D01*
X575213Y301406D01*
X575131Y301416D01*
X574895Y301417D01*
X574660Y301425D01*
X574577Y301417D01*
X574493Y301417D01*
X574260Y301388D01*
X574026Y301366D01*
X573944Y301348D01*
X573861Y301338D01*
X573633Y301280D01*
X573404Y301229D01*
X573325Y301201D01*
X573244Y301181D01*
X573025Y301094D01*
X572804Y301015D01*
X572729Y300978D01*
X572651Y300947D01*
X572445Y300834D01*
X572235Y300728D01*
X572166Y300681D01*
X572092Y300641D01*
X571902Y300503D01*
X571707Y300372D01*
X571645Y300317D01*
X571576Y300267D01*
X571387Y300091D01*
X571215Y299939D01*
X567655Y296380D01*
X562914Y294416D01*
X562829Y294394D01*
X562676Y294334D01*
X562520Y294283D01*
X562380Y294218D01*
X562236Y294161D01*
X562092Y294082D01*
X561944Y294012D01*
X561813Y293930D01*
X561677Y293855D01*
X561544Y293759D01*
X561405Y293671D01*
X561286Y293573D01*
X561160Y293482D01*
X561041Y293370D01*
X560914Y293266D01*
X560808Y293153D01*
X560695Y293047D01*
X560590Y292921D01*
X560478Y292802D01*
X560386Y292676D01*
X560287Y292557D01*
X560199Y292419D01*
X560103Y292287D01*
X560028Y292151D01*
X559944Y292020D01*
X559874Y291872D01*
X559795Y291729D01*
X559738Y291585D01*
X559671Y291445D01*
X559620Y291289D01*
X559560Y291136D01*
X559521Y290986D01*
X559472Y290839D01*
X559441Y290678D01*
X559400Y290520D01*
X559381Y290366D01*
X559351Y290214D01*
X559341Y290055D01*
X559319Y289888D01*
X559319Y289719D01*
X559309Y289560D01*
X559309Y275257D01*
X559313Y275184D01*
X559311Y275111D01*
X559333Y274866D01*
X559349Y274621D01*
X559362Y274549D01*
X559369Y274476D01*
X559422Y274236D01*
X559468Y273995D01*
X559491Y273925D01*
X559506Y273854D01*
X559589Y273623D01*
X559665Y273389D01*
X559696Y273323D01*
X559720Y273254D01*
X559831Y273035D01*
X559936Y272812D01*
X559975Y272751D01*
X560008Y272686D01*
X560145Y272482D01*
X560277Y272274D01*
X560323Y272218D01*
X560364Y272157D01*
X560517Y271984D01*
X560682Y271783D01*
X560743Y271726D01*
X560796Y271665D01*
X564031Y268431D01*
X564031Y259688D01*
X564028Y259683D01*
X563982Y259615D01*
X563874Y259404D01*
X563760Y259197D01*
X563729Y259120D01*
X563692Y259047D01*
X563612Y258825D01*
X563524Y258604D01*
X563504Y258525D01*
X563476Y258448D01*
X563424Y258217D01*
X563365Y257988D01*
X563354Y257906D01*
X563337Y257826D01*
X563314Y257590D01*
X563284Y257356D01*
X563284Y257273D01*
X563276Y257192D01*
X563283Y256956D01*
X563283Y256718D01*
X563293Y256637D01*
X563295Y256555D01*
X563332Y256321D01*
X563361Y256086D01*
X563382Y256007D01*
X563394Y255926D01*
X563460Y255698D01*
X563519Y255469D01*
X563549Y255393D01*
X563571Y255314D01*
X563665Y255096D01*
X563752Y254876D01*
X563791Y254804D01*
X563824Y254729D01*
X563944Y254525D01*
X564058Y254317D01*
X564106Y254250D01*
X564147Y254180D01*
X564292Y253993D01*
X564431Y253800D01*
X564487Y253741D01*
X564537Y253676D01*
X564704Y253508D01*
X564866Y253335D01*
X564929Y253282D01*
X564987Y253224D01*
X565173Y253079D01*
X565355Y252927D01*
X565424Y252883D01*
X565489Y252833D01*
X565693Y252712D01*
X565892Y252584D01*
X565966Y252549D01*
X566037Y252507D01*
X566254Y252413D01*
X566468Y252311D01*
X566546Y252286D01*
X566621Y252253D01*
X566848Y252186D01*
X567073Y252112D01*
X567154Y252097D01*
X567233Y252074D01*
X567466Y252036D01*
X567699Y251991D01*
X567779Y251986D01*
X567862Y251973D01*
X568122Y251964D01*
X568353Y251949D01*
X574128Y251949D01*
X574283Y251958D01*
X574438Y251958D01*
X574600Y251978D01*
X574764Y251989D01*
X574916Y252018D01*
X575070Y252037D01*
X575229Y252077D01*
X575390Y252108D01*
X575537Y252156D01*
X575687Y252194D01*
X575840Y252254D01*
X575996Y252305D01*
X576136Y252370D01*
X576280Y252427D01*
X576424Y252506D01*
X576572Y252576D01*
X576703Y252658D01*
X576839Y252733D01*
X576972Y252829D01*
X577111Y252917D01*
X577230Y253015D01*
X577356Y253106D01*
X577475Y253218D01*
X577602Y253322D01*
X577708Y253435D01*
X577821Y253541D01*
X577926Y253667D01*
X578038Y253786D01*
X578130Y253912D01*
X578229Y254031D01*
X578317Y254169D01*
X578413Y254301D01*
X578488Y254437D01*
X578572Y254568D01*
X578642Y254716D01*
X578721Y254859D01*
X578778Y255003D01*
X578845Y255143D01*
X578896Y255299D01*
X578956Y255452D01*
X578995Y255602D01*
X579044Y255749D01*
X579075Y255910D01*
X579116Y256068D01*
X579135Y256222D01*
X579165Y256374D01*
X579175Y256533D01*
X579197Y256700D01*
X579197Y256869D01*
X579207Y257028D01*
X579207Y266168D01*
X579787Y267569D01*
X580859Y268641D01*
X582260Y269221D01*
X603080Y269221D01*
X604481Y268641D01*
X605553Y267569D01*
X606133Y266168D01*
X606133Y235489D01*
X606148Y235253D01*
X606155Y235016D01*
X606168Y234935D01*
X606173Y234853D01*
X606217Y234621D01*
X606254Y234386D01*
X606277Y234308D01*
X606292Y234227D01*
X606365Y234002D01*
X606431Y233774D01*
X606463Y233699D01*
X606489Y233621D01*
X606589Y233407D01*
X606683Y233189D01*
X606725Y233119D01*
X606760Y233044D01*
X606886Y232844D01*
X607007Y232640D01*
X607057Y232576D01*
X607101Y232506D01*
X607252Y232324D01*
X607396Y232136D01*
X607454Y232078D01*
X607506Y232015D01*
X607679Y231853D01*
X607846Y231685D01*
X607911Y231635D01*
X607970Y231578D01*
X608162Y231439D01*
X608349Y231294D01*
X608419Y231252D01*
X608485Y231203D01*
X608693Y231089D01*
X608896Y230968D01*
X608972Y230935D01*
X609043Y230896D01*
X609263Y230808D01*
X609481Y230714D01*
X609559Y230691D01*
X609636Y230660D01*
X609865Y230601D01*
X610092Y230535D01*
X610173Y230522D01*
X610252Y230501D01*
X610487Y230471D01*
X610721Y230433D01*
X610803Y230431D01*
X610884Y230420D01*
X611121Y230420D01*
X611358Y230412D01*
X611439Y230419D01*
X611522Y230419D01*
X611757Y230448D01*
X611992Y230470D01*
X612072Y230487D01*
X612154Y230498D01*
X612383Y230556D01*
X612614Y230607D01*
X612692Y230635D01*
X612771Y230655D01*
X612992Y230741D01*
X613215Y230821D01*
X613288Y230858D01*
X613364Y230888D01*
X613572Y231002D01*
X613783Y231108D01*
X613851Y231154D01*
X613923Y231194D01*
X614115Y231333D01*
X614311Y231465D01*
X614372Y231518D01*
X614440Y231567D01*
X614630Y231744D01*
X614804Y231897D01*
X622220Y239313D01*
X622268Y239368D01*
X622321Y239418D01*
X622478Y239606D01*
X622641Y239791D01*
X622682Y239852D01*
X622729Y239908D01*
X622861Y240115D01*
X622999Y240318D01*
X623032Y240383D01*
X623072Y240445D01*
X623177Y240667D01*
X623289Y240886D01*
X623313Y240954D01*
X623345Y241020D01*
X623422Y241254D01*
X623505Y241485D01*
X623521Y241556D01*
X623544Y241626D01*
X623590Y241867D01*
X623644Y242107D01*
X623651Y242179D01*
X623665Y242251D01*
X623680Y242482D01*
X623705Y242741D01*
X623702Y242824D01*
X623707Y242905D01*
X623707Y266168D01*
X624287Y267569D01*
X625359Y268641D01*
X626760Y269221D01*
X647580Y269221D01*
X648981Y268641D01*
X650053Y267569D01*
X650633Y266168D01*
X650633Y234989D01*
X650648Y234753D01*
X650655Y234516D01*
X650668Y234435D01*
X650673Y234353D01*
X650717Y234121D01*
X650754Y233886D01*
X650777Y233808D01*
X650792Y233727D01*
X650865Y233502D01*
X650931Y233274D01*
X650963Y233199D01*
X650989Y233121D01*
X651089Y232907D01*
X651183Y232689D01*
X651225Y232619D01*
X651260Y232544D01*
X651386Y232345D01*
X651507Y232140D01*
X651557Y232075D01*
X651601Y232006D01*
X651751Y231824D01*
X651896Y231636D01*
X651954Y231578D01*
X652006Y231515D01*
X652179Y231353D01*
X652346Y231185D01*
X652411Y231135D01*
X652470Y231078D01*
X652662Y230939D01*
X652849Y230794D01*
X652919Y230752D01*
X652985Y230703D01*
X653193Y230589D01*
X653396Y230468D01*
X653472Y230435D01*
X653543Y230396D01*
X653763Y230308D01*
X653981Y230214D01*
X654059Y230191D01*
X654136Y230160D01*
X654365Y230101D01*
X654592Y230035D01*
X654673Y230022D01*
X654752Y230001D01*
X654987Y229971D01*
X655221Y229933D01*
X655303Y229931D01*
X655384Y229920D01*
X655621Y229920D01*
X655858Y229912D01*
X655939Y229919D01*
X656022Y229919D01*
X656257Y229948D01*
X656492Y229970D01*
X656572Y229987D01*
X656654Y229998D01*
X656884Y230056D01*
X657114Y230107D01*
X657192Y230134D01*
X657271Y230155D01*
X657492Y230242D01*
X657715Y230321D01*
X657788Y230358D01*
X657864Y230388D01*
X658073Y230502D01*
X658283Y230608D01*
X658351Y230654D01*
X658423Y230694D01*
X658615Y230833D01*
X658811Y230965D01*
X658872Y231018D01*
X658940Y231067D01*
X659130Y231245D01*
X659304Y231397D01*
X666720Y238813D01*
X666768Y238868D01*
X666821Y238918D01*
X666979Y239107D01*
X667141Y239291D01*
X667182Y239351D01*
X667229Y239408D01*
X667361Y239615D01*
X667499Y239818D01*
X667532Y239883D01*
X667572Y239945D01*
X667677Y240167D01*
X667789Y240386D01*
X667813Y240454D01*
X667845Y240520D01*
X667921Y240754D01*
X668005Y240985D01*
X668021Y241056D01*
X668044Y241126D01*
X668090Y241367D01*
X668144Y241607D01*
X668151Y241679D01*
X668165Y241751D01*
X668180Y241982D01*
X668205Y242241D01*
X668202Y242324D01*
X668207Y242405D01*
X668207Y265668D01*
X668787Y267069D01*
X669859Y268141D01*
X671260Y268721D01*
X692080Y268721D01*
X693481Y268141D01*
X694553Y267069D01*
X695133Y265668D01*
X695133Y226052D01*
X694553Y224651D01*
X693481Y223579D01*
X692080Y222999D01*
X671260Y222999D01*
X671180Y223032D01*
X671072Y223069D01*
X670968Y223115D01*
X670771Y223172D01*
X670578Y223239D01*
X670466Y223262D01*
X670357Y223294D01*
X670154Y223326D01*
X669954Y223368D01*
X669840Y223377D01*
X669727Y223395D01*
X669523Y223402D01*
X669318Y223418D01*
X669205Y223413D01*
X669091Y223417D01*
X668887Y223398D01*
X668682Y223389D01*
X668570Y223369D01*
X668456Y223359D01*
X668256Y223315D01*
X668054Y223279D01*
X667945Y223246D01*
X667834Y223221D01*
X667641Y223153D01*
X667445Y223093D01*
X667341Y223046D01*
X667234Y223008D01*
X667051Y222915D01*
X666864Y222831D01*
X666767Y222771D01*
X666665Y222720D01*
X666496Y222606D01*
X666321Y222499D01*
X666232Y222427D01*
X666137Y222364D01*
X665989Y222234D01*
X665823Y222101D01*
X665735Y222011D01*
X665645Y221931D01*
X639282Y195569D01*
X636996Y193282D01*
X634942Y192431D01*
X610016Y192431D01*
X609943Y192427D01*
X609870Y192429D01*
X609625Y192407D01*
X609380Y192391D01*
X609309Y192378D01*
X609236Y192371D01*
X608996Y192318D01*
X608754Y192272D01*
X608685Y192249D01*
X608614Y192234D01*
X608382Y192151D01*
X608148Y192075D01*
X608082Y192044D01*
X608013Y192020D01*
X607794Y191909D01*
X607572Y191804D01*
X607510Y191765D01*
X607445Y191732D01*
X607241Y191595D01*
X607033Y191463D01*
X606977Y191417D01*
X606917Y191376D01*
X606743Y191223D01*
X606542Y191058D01*
X606485Y190997D01*
X606424Y190944D01*
X605307Y189826D01*
X603253Y188975D01*
X519852Y188975D01*
X519657Y188963D01*
X519461Y188960D01*
X519339Y188943D01*
X519216Y188935D01*
X519024Y188899D01*
X518830Y188871D01*
X518711Y188839D01*
X518590Y188816D01*
X518404Y188756D01*
X518215Y188704D01*
X518101Y188657D01*
X517984Y188619D01*
X517807Y188536D01*
X517626Y188461D01*
X517519Y188401D01*
X517408Y188348D01*
X517242Y188243D01*
X517072Y188147D01*
X516973Y188073D01*
X516869Y188007D01*
X516718Y187883D01*
X516562Y187765D01*
X516473Y187680D01*
X516378Y187602D01*
X516244Y187459D01*
X516103Y187323D01*
X516026Y187227D01*
X515942Y187138D01*
X515826Y186979D01*
X515703Y186827D01*
X515639Y186722D01*
X515567Y186623D01*
X515472Y186451D01*
X515369Y186284D01*
X515318Y186172D01*
X515259Y186065D01*
X515187Y185882D01*
X515106Y185704D01*
X515069Y185587D01*
X515024Y185472D01*
X514975Y185283D01*
X514916Y185096D01*
X514895Y184975D01*
X514864Y184856D01*
X514839Y184661D01*
X514805Y184468D01*
X514799Y184346D01*
X514783Y184224D01*
X514783Y184027D01*
X514773Y183832D01*
X514782Y183710D01*
X514782Y183586D01*
X514806Y183392D01*
X514821Y183197D01*
X514846Y183076D01*
X514861Y182954D01*
X514909Y182764D01*
X514948Y182572D01*
X514987Y182459D01*
X515018Y182337D01*
X515096Y182139D01*
X515159Y181952D01*
X515875Y180225D01*
X515875Y175375D01*
X514018Y170893D01*
X510919Y167794D01*
X510816Y167677D01*
X510707Y167568D01*
X510606Y167439D01*
X510497Y167316D01*
X510410Y167188D01*
X510315Y167065D01*
X510231Y166924D01*
X510139Y166789D01*
X510069Y166651D01*
X509990Y166518D01*
X509924Y166367D01*
X509850Y166221D01*
X509797Y166075D01*
X509735Y165933D01*
X509689Y165776D01*
X509634Y165622D01*
X509600Y165471D01*
X509556Y165322D01*
X509530Y165160D01*
X509494Y165000D01*
X509479Y164846D01*
X509455Y164693D01*
X509449Y164529D01*
X509434Y164366D01*
X509438Y164211D01*
X509433Y164056D01*
X509448Y163893D01*
X509453Y163729D01*
X509477Y163576D01*
X509491Y163422D01*
X509527Y163262D01*
X509552Y163100D01*
X509595Y162951D01*
X509628Y162800D01*
X509683Y162645D01*
X509729Y162488D01*
X509791Y162345D01*
X509842Y162199D01*
X509916Y162053D01*
X509981Y161903D01*
X510060Y161769D01*
X510130Y161631D01*
X510221Y161495D01*
X510305Y161354D01*
X510400Y161231D01*
X510486Y161103D01*
X510591Y160983D01*
X510695Y160850D01*
X510814Y160730D01*
X510919Y160610D01*
X512013Y159516D01*
X513024Y158125D01*
X513353Y157479D01*
X495300Y157479D01*
X477247Y157479D01*
X477576Y158125D01*
X478587Y159516D01*
X479681Y160610D01*
X479784Y160727D01*
X479894Y160836D01*
X479994Y160965D01*
X480103Y161088D01*
X480190Y161216D01*
X480285Y161339D01*
X480369Y161480D01*
X480461Y161615D01*
X480531Y161753D01*
X480610Y161886D01*
X480676Y162037D01*
X480750Y162183D01*
X480803Y162329D01*
X480865Y162471D01*
X480911Y162628D01*
X480967Y162782D01*
X481000Y162933D01*
X481044Y163082D01*
X481070Y163244D01*
X481106Y163404D01*
X481121Y163558D01*
X481145Y163711D01*
X481151Y163875D01*
X481166Y164038D01*
X481162Y164193D01*
X481167Y164348D01*
X481152Y164511D01*
X481147Y164675D01*
X481123Y164828D01*
X481109Y164982D01*
X481073Y165143D01*
X481048Y165304D01*
X481005Y165453D01*
X480972Y165604D01*
X480916Y165759D01*
X480871Y165916D01*
X480810Y166059D01*
X480758Y166205D01*
X480684Y166351D01*
X480619Y166501D01*
X480540Y166635D01*
X480470Y166773D01*
X480378Y166909D01*
X480295Y167050D01*
X480201Y167173D01*
X480114Y167301D01*
X480009Y167421D01*
X479906Y167554D01*
X479787Y167674D01*
X479681Y167794D01*
X476582Y170893D01*
X474725Y175375D01*
X474725Y180225D01*
X475441Y181952D01*
X475504Y182137D01*
X475576Y182320D01*
X475607Y182439D01*
X475647Y182555D01*
X475687Y182747D01*
X475736Y182936D01*
X475751Y183058D01*
X475776Y183179D01*
X475792Y183374D01*
X475817Y183568D01*
X475817Y183691D01*
X475827Y183814D01*
X475817Y184010D01*
X475818Y184206D01*
X475803Y184328D01*
X475797Y184450D01*
X475763Y184643D01*
X475739Y184838D01*
X475709Y184957D01*
X475688Y185078D01*
X475630Y185265D01*
X475582Y185455D01*
X475537Y185570D01*
X475501Y185687D01*
X475421Y185866D01*
X475349Y186048D01*
X475290Y186156D01*
X475239Y186268D01*
X475137Y186435D01*
X475043Y186607D01*
X474971Y186707D01*
X474907Y186812D01*
X474785Y186965D01*
X474670Y187124D01*
X474586Y187213D01*
X474509Y187310D01*
X474369Y187446D01*
X474235Y187589D01*
X474141Y187668D01*
X474052Y187754D01*
X473896Y187872D01*
X473745Y187997D01*
X473642Y188063D01*
X473543Y188137D01*
X473373Y188234D01*
X473208Y188340D01*
X473097Y188392D01*
X472990Y188453D01*
X472810Y188529D01*
X472633Y188613D01*
X472516Y188651D01*
X472402Y188698D01*
X472213Y188750D01*
X472027Y188812D01*
X471907Y188835D01*
X471788Y188868D01*
X471594Y188896D01*
X471402Y188933D01*
X471282Y188941D01*
X471157Y188959D01*
X470945Y188963D01*
X470748Y188975D01*
X350568Y188975D01*
X350278Y188957D01*
X349986Y188942D01*
X349959Y188937D01*
X349932Y188935D01*
X349646Y188881D01*
X349359Y188829D01*
X349333Y188821D01*
X349306Y188816D01*
X349029Y188726D01*
X348751Y188639D01*
X348726Y188628D01*
X348700Y188619D01*
X348436Y188495D01*
X348171Y188374D01*
X348148Y188360D01*
X348123Y188348D01*
X347877Y188192D01*
X347630Y188039D01*
X347608Y188022D01*
X347585Y188007D01*
X347360Y187822D01*
X347134Y187639D01*
X347115Y187619D01*
X347094Y187602D01*
X346894Y187389D01*
X346692Y187179D01*
X346676Y187157D01*
X346657Y187138D01*
X346486Y186902D01*
X346312Y186668D01*
X346298Y186645D01*
X346282Y186623D01*
X346142Y186368D01*
X345998Y186114D01*
X345988Y186089D01*
X345975Y186065D01*
X345867Y185793D01*
X345757Y185524D01*
X345749Y185498D01*
X345739Y185472D01*
X345667Y185192D01*
X345591Y184909D01*
X345587Y184882D01*
X345580Y184856D01*
X345543Y184564D01*
X345503Y184278D01*
X345503Y184251D01*
X345499Y184224D01*
X345498Y183931D01*
X345495Y183641D01*
X345498Y183614D01*
X345498Y183586D01*
X345534Y183296D01*
X345567Y183008D01*
X345573Y182982D01*
X345577Y182954D01*
X345648Y182672D01*
X345717Y182389D01*
X345727Y182363D01*
X345734Y182337D01*
X345840Y182066D01*
X345944Y181793D01*
X345957Y181769D01*
X345967Y181744D01*
X346107Y181488D01*
X346244Y181231D01*
X346259Y181209D01*
X346273Y181185D01*
X346444Y180948D01*
X346611Y180711D01*
X346630Y180691D01*
X346646Y180668D01*
X346844Y180456D01*
X347041Y180241D01*
X347062Y180223D01*
X347081Y180203D01*
X347304Y180017D01*
X347527Y179828D01*
X347550Y179813D01*
X347570Y179795D01*
X347816Y179639D01*
X348060Y179479D01*
X348084Y179467D01*
X348107Y179452D01*
X348372Y179327D01*
X348632Y179200D01*
X348658Y179191D01*
X348683Y179179D01*
X349026Y179067D01*
X349253Y178990D01*
X355734Y177253D01*
X361816Y173742D01*
X366782Y168776D01*
X370293Y162695D01*
X372111Y155911D01*
X372111Y148889D01*
X370293Y142105D01*
X366782Y136024D01*
X361816Y131058D01*
X355735Y127547D01*
X348951Y125729D01*
X341929Y125729D01*
X337666Y126871D01*
X337407Y126924D01*
X337150Y126981D01*
X337095Y126987D01*
X337042Y126997D01*
X336778Y127017D01*
X336515Y127042D01*
X336461Y127040D01*
X336406Y127044D01*
X336142Y127030D01*
X335879Y127022D01*
X335825Y127014D01*
X335770Y127011D01*
X335510Y126964D01*
X335249Y126923D01*
X335197Y126908D01*
X335143Y126899D01*
X334891Y126820D01*
X334637Y126746D01*
X334587Y126725D01*
X334535Y126708D01*
X334295Y126599D01*
X334052Y126494D01*
X334005Y126466D01*
X333955Y126444D01*
X333731Y126305D01*
X333503Y126171D01*
X333460Y126137D01*
X333413Y126108D01*
X333208Y125943D01*
X332999Y125781D01*
X332960Y125742D01*
X332918Y125708D01*
X332735Y125518D01*
X332548Y125331D01*
X332514Y125288D01*
X332476Y125249D01*
X332319Y125038D01*
X332156Y124829D01*
X332128Y124781D01*
X332096Y124738D01*
X331966Y124508D01*
X331831Y124281D01*
X331809Y124231D01*
X331782Y124183D01*
X331682Y123938D01*
X331576Y123697D01*
X331561Y123644D01*
X331540Y123594D01*
X331472Y123339D01*
X331397Y123085D01*
X331389Y123031D01*
X331374Y122978D01*
X331338Y122717D01*
X331296Y122456D01*
X331294Y122401D01*
X331287Y122347D01*
X331283Y122084D01*
X331274Y121819D01*
X331279Y121765D01*
X331279Y121710D01*
X331308Y121448D01*
X331333Y121185D01*
X331344Y121132D01*
X331350Y121077D01*
X331413Y120820D01*
X331470Y120563D01*
X331488Y120511D01*
X331501Y120458D01*
X331595Y120211D01*
X331684Y119963D01*
X331708Y119914D01*
X331728Y119863D01*
X331852Y119630D01*
X331971Y119394D01*
X332002Y119349D01*
X332027Y119300D01*
X332180Y119085D01*
X332327Y118866D01*
X332363Y118826D01*
X332395Y118780D01*
X332597Y118560D01*
X332760Y118374D01*
X348146Y102988D01*
X348997Y100934D01*
X348997Y98170D01*
X349006Y98015D01*
X349006Y97860D01*
X349026Y97698D01*
X349037Y97534D01*
X349066Y97382D01*
X349085Y97228D01*
X349125Y97069D01*
X349156Y96908D01*
X349204Y96761D01*
X349242Y96611D01*
X349302Y96458D01*
X349353Y96302D01*
X349418Y96162D01*
X349475Y96018D01*
X349554Y95874D01*
X349624Y95726D01*
X349706Y95595D01*
X349781Y95459D01*
X349877Y95326D01*
X349965Y95187D01*
X350063Y95068D01*
X350154Y94942D01*
X350266Y94823D01*
X350370Y94696D01*
X350483Y94590D01*
X350589Y94477D01*
X350715Y94372D01*
X350834Y94260D01*
X350960Y94168D01*
X351079Y94069D01*
X351217Y93981D01*
X351349Y93885D01*
X351485Y93810D01*
X351616Y93726D01*
X351764Y93656D01*
X351907Y93577D01*
X352051Y93520D01*
X352191Y93453D01*
X352347Y93402D01*
X352500Y93342D01*
X352650Y93303D01*
X352797Y93254D01*
X352958Y93223D01*
X353116Y93182D01*
X353270Y93163D01*
X353422Y93133D01*
X353581Y93123D01*
X353748Y93101D01*
X353917Y93101D01*
X354076Y93091D01*
X357659Y93091D01*
X359422Y92360D01*
X359530Y92323D01*
X359635Y92278D01*
X359831Y92220D01*
X360025Y92154D01*
X360137Y92131D01*
X360246Y92099D01*
X360448Y92066D01*
X360649Y92025D01*
X360763Y92016D01*
X360875Y91997D01*
X361080Y91990D01*
X361284Y91974D01*
X361398Y91980D01*
G37*
G36*
X212593Y10176D02*
X212593Y10176D01*
X212830Y10183D01*
X212911Y10196D01*
X212993Y10201D01*
X213225Y10245D01*
X213460Y10282D01*
X213538Y10305D01*
X213619Y10320D01*
X213844Y10393D01*
X214072Y10459D01*
X214147Y10491D01*
X214225Y10517D01*
X214439Y10617D01*
X214657Y10711D01*
X214727Y10753D01*
X214802Y10788D01*
X215002Y10914D01*
X215206Y11035D01*
X215270Y11085D01*
X215340Y11129D01*
X215522Y11280D01*
X215710Y11424D01*
X215768Y11482D01*
X215831Y11534D01*
X215993Y11707D01*
X216161Y11874D01*
X216211Y11939D01*
X216268Y11998D01*
X216407Y12190D01*
X216552Y12377D01*
X216594Y12447D01*
X216643Y12513D01*
X216757Y12721D01*
X216878Y12924D01*
X216911Y12999D01*
X216950Y13071D01*
X217038Y13292D01*
X217132Y13509D01*
X217155Y13587D01*
X217186Y13664D01*
X217245Y13893D01*
X217311Y14120D01*
X217324Y14201D01*
X217345Y14280D01*
X217375Y14515D01*
X217413Y14749D01*
X217415Y14831D01*
X217426Y14912D01*
X217426Y15149D01*
X217434Y15386D01*
X217427Y15467D01*
X217427Y15550D01*
X217398Y15785D01*
X217376Y16020D01*
X217358Y16100D01*
X217348Y16182D01*
X217290Y16412D01*
X217239Y16642D01*
X217211Y16720D01*
X217191Y16799D01*
X217104Y17020D01*
X217025Y17243D01*
X216988Y17316D01*
X216958Y17392D01*
X216844Y17601D01*
X216738Y17811D01*
X216692Y17879D01*
X216652Y17951D01*
X216513Y18143D01*
X216381Y18339D01*
X216328Y18400D01*
X216279Y18468D01*
X216101Y18658D01*
X215949Y18832D01*
X200748Y34032D01*
X199897Y36086D01*
X199897Y54440D01*
X199882Y54676D01*
X199875Y54913D01*
X199862Y54994D01*
X199857Y55075D01*
X199813Y55308D01*
X199776Y55542D01*
X199753Y55621D01*
X199738Y55701D01*
X199665Y55927D01*
X199599Y56154D01*
X199567Y56229D01*
X199541Y56307D01*
X199441Y56522D01*
X199347Y56739D01*
X199305Y56810D01*
X199270Y56884D01*
X199144Y57084D01*
X199023Y57288D01*
X198973Y57353D01*
X198929Y57422D01*
X198778Y57605D01*
X198634Y57792D01*
X198576Y57850D01*
X198524Y57913D01*
X198351Y58076D01*
X198184Y58243D01*
X198119Y58294D01*
X198060Y58350D01*
X197868Y58489D01*
X197681Y58635D01*
X197611Y58677D01*
X197545Y58725D01*
X197337Y58839D01*
X197134Y58960D01*
X197059Y58993D01*
X196987Y59033D01*
X196766Y59120D01*
X196549Y59215D01*
X196471Y59238D01*
X196394Y59268D01*
X196165Y59327D01*
X195938Y59394D01*
X195857Y59407D01*
X195778Y59427D01*
X195543Y59457D01*
X195309Y59495D01*
X195227Y59498D01*
X195146Y59508D01*
X194909Y59509D01*
X194672Y59517D01*
X194591Y59509D01*
X194508Y59509D01*
X194273Y59480D01*
X194038Y59459D01*
X193958Y59441D01*
X193876Y59431D01*
X193646Y59372D01*
X193416Y59321D01*
X193338Y59294D01*
X193259Y59274D01*
X193038Y59187D01*
X192815Y59107D01*
X192742Y59070D01*
X192666Y59040D01*
X192458Y58927D01*
X192247Y58820D01*
X192179Y58774D01*
X192107Y58735D01*
X191915Y58596D01*
X191719Y58464D01*
X191658Y58411D01*
X191590Y58362D01*
X191400Y58184D01*
X191226Y58031D01*
X181544Y48349D01*
X179257Y46062D01*
X177203Y45211D01*
X147478Y45211D01*
X145424Y46062D01*
X143138Y48348D01*
X143138Y48349D01*
X134944Y56542D01*
X134929Y56579D01*
X134849Y56721D01*
X134777Y56868D01*
X134691Y56998D01*
X134615Y57133D01*
X134517Y57264D01*
X134427Y57401D01*
X134326Y57519D01*
X134233Y57643D01*
X134120Y57761D01*
X134013Y57885D01*
X133898Y57990D01*
X133791Y58101D01*
X133663Y58204D01*
X133542Y58314D01*
X133415Y58404D01*
X133294Y58501D01*
X133155Y58587D01*
X133021Y58681D01*
X132884Y58754D01*
X132752Y58835D01*
X132603Y58903D01*
X132458Y58980D01*
X132313Y59035D01*
X132172Y59099D01*
X132016Y59147D01*
X131863Y59205D01*
X131712Y59242D01*
X131563Y59288D01*
X131403Y59316D01*
X131243Y59355D01*
X131089Y59372D01*
X130936Y59399D01*
X130773Y59407D01*
X130610Y59425D01*
X130455Y59423D01*
X130300Y59431D01*
X130136Y59419D01*
X129973Y59416D01*
X129819Y59395D01*
X129665Y59383D01*
X129504Y59350D01*
X129342Y59328D01*
X129275Y59309D01*
X124941Y59309D01*
X121137Y60885D01*
X117892Y64130D01*
X117775Y64233D01*
X117666Y64342D01*
X117537Y64443D01*
X117414Y64552D01*
X117286Y64639D01*
X117163Y64734D01*
X117022Y64818D01*
X116887Y64910D01*
X116749Y64980D01*
X116616Y65059D01*
X116465Y65125D01*
X116319Y65199D01*
X116173Y65252D01*
X116031Y65314D01*
X115874Y65360D01*
X115720Y65415D01*
X115569Y65449D01*
X115420Y65493D01*
X115258Y65519D01*
X115098Y65555D01*
X114944Y65570D01*
X114791Y65594D01*
X114627Y65600D01*
X114464Y65615D01*
X114309Y65611D01*
X114154Y65616D01*
X113991Y65601D01*
X113827Y65596D01*
X113674Y65572D01*
X113520Y65558D01*
X113360Y65522D01*
X113198Y65497D01*
X113049Y65454D01*
X112898Y65420D01*
X112743Y65366D01*
X112586Y65320D01*
X112443Y65258D01*
X112297Y65207D01*
X112151Y65133D01*
X112001Y65068D01*
X111867Y64989D01*
X111729Y64919D01*
X111593Y64827D01*
X111452Y64744D01*
X111329Y64649D01*
X111201Y64563D01*
X111081Y64457D01*
X110948Y64354D01*
X110828Y64236D01*
X110708Y64130D01*
X107463Y60885D01*
X103659Y59309D01*
X99541Y59309D01*
X95737Y60885D01*
X92492Y64130D01*
X92375Y64233D01*
X92266Y64342D01*
X92137Y64443D01*
X92014Y64552D01*
X91886Y64639D01*
X91763Y64734D01*
X91622Y64818D01*
X91487Y64910D01*
X91349Y64980D01*
X91216Y65059D01*
X91065Y65125D01*
X90919Y65199D01*
X90773Y65252D01*
X90631Y65314D01*
X90474Y65360D01*
X90320Y65415D01*
X90169Y65449D01*
X90020Y65493D01*
X89858Y65519D01*
X89698Y65555D01*
X89544Y65570D01*
X89391Y65594D01*
X89227Y65600D01*
X89064Y65615D01*
X88909Y65611D01*
X88754Y65616D01*
X88591Y65601D01*
X88427Y65596D01*
X88274Y65572D01*
X88120Y65558D01*
X87960Y65522D01*
X87798Y65497D01*
X87649Y65454D01*
X87498Y65420D01*
X87343Y65366D01*
X87186Y65320D01*
X87043Y65258D01*
X86897Y65207D01*
X86751Y65133D01*
X86601Y65068D01*
X86467Y64989D01*
X86329Y64919D01*
X86193Y64827D01*
X86052Y64744D01*
X85929Y64649D01*
X85801Y64563D01*
X85681Y64457D01*
X85548Y64354D01*
X85428Y64236D01*
X85308Y64130D01*
X82063Y60885D01*
X78259Y59309D01*
X74141Y59309D01*
X70337Y60885D01*
X67425Y63797D01*
X65849Y67601D01*
X65849Y84799D01*
X67425Y88603D01*
X70337Y91515D01*
X74141Y93091D01*
X78259Y93091D01*
X82063Y91515D01*
X85308Y88270D01*
X85425Y88167D01*
X85534Y88058D01*
X85663Y87957D01*
X85786Y87848D01*
X85914Y87761D01*
X86037Y87666D01*
X86178Y87582D01*
X86313Y87490D01*
X86451Y87420D01*
X86584Y87341D01*
X86735Y87275D01*
X86881Y87201D01*
X87026Y87148D01*
X87169Y87086D01*
X87326Y87040D01*
X87480Y86985D01*
X87631Y86951D01*
X87780Y86907D01*
X87942Y86881D01*
X88102Y86845D01*
X88256Y86830D01*
X88409Y86806D01*
X88573Y86800D01*
X88736Y86785D01*
X88891Y86789D01*
X89046Y86784D01*
X89209Y86799D01*
X89373Y86804D01*
X89526Y86828D01*
X89680Y86842D01*
X89840Y86878D01*
X90002Y86903D01*
X90151Y86946D01*
X90302Y86980D01*
X90457Y87034D01*
X90614Y87080D01*
X90757Y87142D01*
X90903Y87193D01*
X91049Y87267D01*
X91199Y87332D01*
X91333Y87411D01*
X91471Y87481D01*
X91607Y87573D01*
X91748Y87656D01*
X91871Y87751D01*
X91999Y87837D01*
X92119Y87942D01*
X92252Y88046D01*
X92372Y88165D01*
X92492Y88270D01*
X95737Y91515D01*
X99541Y93091D01*
X103659Y93091D01*
X107463Y91515D01*
X110708Y88270D01*
X110825Y88167D01*
X110934Y88058D01*
X111063Y87957D01*
X111186Y87848D01*
X111314Y87761D01*
X111437Y87666D01*
X111578Y87582D01*
X111713Y87490D01*
X111851Y87420D01*
X111984Y87341D01*
X112135Y87275D01*
X112281Y87201D01*
X112426Y87148D01*
X112569Y87086D01*
X112726Y87040D01*
X112880Y86985D01*
X113031Y86951D01*
X113180Y86907D01*
X113342Y86881D01*
X113502Y86845D01*
X113656Y86830D01*
X113809Y86806D01*
X113973Y86800D01*
X114136Y86785D01*
X114291Y86789D01*
X114446Y86784D01*
X114609Y86799D01*
X114773Y86804D01*
X114926Y86828D01*
X115080Y86842D01*
X115240Y86878D01*
X115402Y86903D01*
X115551Y86946D01*
X115702Y86980D01*
X115857Y87034D01*
X116014Y87080D01*
X116157Y87142D01*
X116303Y87193D01*
X116449Y87267D01*
X116599Y87332D01*
X116733Y87411D01*
X116871Y87481D01*
X117007Y87573D01*
X117148Y87656D01*
X117271Y87751D01*
X117399Y87837D01*
X117519Y87942D01*
X117652Y88046D01*
X117772Y88165D01*
X117892Y88270D01*
X121137Y91515D01*
X124941Y93091D01*
X129889Y93091D01*
X130002Y93098D01*
X130116Y93096D01*
X130320Y93118D01*
X130524Y93131D01*
X130636Y93152D01*
X130750Y93164D01*
X130949Y93212D01*
X131150Y93250D01*
X131259Y93285D01*
X131370Y93311D01*
X131562Y93383D01*
X131756Y93447D01*
X131860Y93495D01*
X131966Y93535D01*
X132147Y93630D01*
X132333Y93718D01*
X132429Y93779D01*
X132530Y93832D01*
X132698Y93949D01*
X132871Y94059D01*
X132959Y94131D01*
X133053Y94197D01*
X133204Y94334D01*
X133362Y94464D01*
X133441Y94547D01*
X133525Y94624D01*
X133658Y94779D01*
X133799Y94928D01*
X133866Y95021D01*
X133940Y95107D01*
X134053Y95278D01*
X134174Y95443D01*
X134229Y95543D01*
X134292Y95638D01*
X134379Y95815D01*
X134482Y96001D01*
X134528Y96118D01*
X134581Y96226D01*
X134962Y97146D01*
X143191Y105374D01*
X143347Y105552D01*
X143510Y105724D01*
X143558Y105791D01*
X143612Y105852D01*
X143745Y106048D01*
X143885Y106240D01*
X143924Y106311D01*
X143970Y106379D01*
X144078Y106590D01*
X144192Y106797D01*
X144223Y106874D01*
X144260Y106947D01*
X144340Y107169D01*
X144428Y107390D01*
X144448Y107469D01*
X144476Y107546D01*
X144528Y107777D01*
X144587Y108006D01*
X144597Y108088D01*
X144615Y108168D01*
X144638Y108403D01*
X144668Y108638D01*
X144668Y108721D01*
X144676Y108802D01*
X144669Y109038D01*
X144669Y109276D01*
X144659Y109357D01*
X144656Y109439D01*
X144620Y109673D01*
X144590Y109908D01*
X144570Y109987D01*
X144557Y110068D01*
X144492Y110296D01*
X144433Y110525D01*
X144403Y110601D01*
X144380Y110680D01*
X144287Y110897D01*
X144200Y111118D01*
X144161Y111190D01*
X144128Y111265D01*
X144008Y111469D01*
X143894Y111677D01*
X143846Y111744D01*
X143805Y111814D01*
X143660Y112002D01*
X143521Y112194D01*
X143465Y112254D01*
X143415Y112318D01*
X143248Y112486D01*
X143086Y112659D01*
X143023Y112712D01*
X142965Y112770D01*
X142779Y112915D01*
X142596Y113067D01*
X142527Y113111D01*
X142463Y113161D01*
X142259Y113282D01*
X142060Y113410D01*
X141985Y113445D01*
X141915Y113487D01*
X141698Y113581D01*
X141484Y113683D01*
X141406Y113708D01*
X141331Y113741D01*
X141103Y113808D01*
X140879Y113882D01*
X140798Y113897D01*
X140719Y113920D01*
X140486Y113958D01*
X140253Y114003D01*
X140173Y114008D01*
X140090Y114021D01*
X139830Y114030D01*
X139599Y114045D01*
X130306Y114045D01*
X124205Y120146D01*
X124205Y128774D01*
X130306Y134875D01*
X138934Y134875D01*
X141510Y132298D01*
X141565Y132250D01*
X141615Y132197D01*
X141804Y132039D01*
X141988Y131877D01*
X142048Y131836D01*
X142105Y131789D01*
X142312Y131657D01*
X142515Y131519D01*
X142580Y131486D01*
X142642Y131446D01*
X142864Y131341D01*
X143083Y131229D01*
X143151Y131205D01*
X143217Y131173D01*
X143451Y131097D01*
X143682Y131013D01*
X143753Y130997D01*
X143823Y130974D01*
X144064Y130928D01*
X144304Y130874D01*
X144376Y130867D01*
X144448Y130853D01*
X144679Y130838D01*
X144938Y130813D01*
X145021Y130816D01*
X145102Y130811D01*
X162306Y130811D01*
X162461Y130820D01*
X162616Y130820D01*
X162778Y130840D01*
X162942Y130851D01*
X163094Y130880D01*
X163248Y130899D01*
X163407Y130939D01*
X163568Y130970D01*
X163715Y131018D01*
X163865Y131056D01*
X164018Y131116D01*
X164174Y131167D01*
X164314Y131232D01*
X164458Y131289D01*
X164602Y131368D01*
X164750Y131438D01*
X164881Y131520D01*
X165017Y131595D01*
X165150Y131691D01*
X165289Y131779D01*
X165408Y131877D01*
X165534Y131968D01*
X165653Y132080D01*
X165780Y132184D01*
X165886Y132297D01*
X165999Y132403D01*
X166104Y132529D01*
X166216Y132648D01*
X166308Y132774D01*
X166407Y132893D01*
X166495Y133031D01*
X166591Y133163D01*
X166666Y133299D01*
X166750Y133430D01*
X166820Y133578D01*
X166899Y133721D01*
X166956Y133865D01*
X167023Y134005D01*
X167074Y134161D01*
X167134Y134314D01*
X167173Y134464D01*
X167222Y134611D01*
X167253Y134772D01*
X167294Y134930D01*
X167309Y135047D01*
X173486Y141225D01*
X182114Y141225D01*
X188215Y135124D01*
X188215Y127634D01*
X188224Y127479D01*
X188224Y127324D01*
X188244Y127162D01*
X188255Y126998D01*
X188284Y126846D01*
X188303Y126692D01*
X188343Y126533D01*
X188374Y126372D01*
X188422Y126225D01*
X188460Y126075D01*
X188520Y125922D01*
X188571Y125766D01*
X188636Y125626D01*
X188693Y125482D01*
X188772Y125338D01*
X188842Y125190D01*
X188924Y125059D01*
X188999Y124923D01*
X189095Y124790D01*
X189183Y124651D01*
X189281Y124532D01*
X189372Y124406D01*
X189484Y124287D01*
X189588Y124160D01*
X189701Y124054D01*
X189807Y123941D01*
X189933Y123836D01*
X190052Y123724D01*
X190178Y123632D01*
X190297Y123533D01*
X190435Y123445D01*
X190567Y123349D01*
X190703Y123274D01*
X190834Y123190D01*
X190982Y123120D01*
X191125Y123041D01*
X191269Y122984D01*
X191409Y122917D01*
X191565Y122866D01*
X191718Y122806D01*
X191868Y122767D01*
X192015Y122718D01*
X192176Y122687D01*
X192334Y122646D01*
X192488Y122627D01*
X192640Y122597D01*
X192799Y122587D01*
X192966Y122565D01*
X193135Y122565D01*
X193294Y122555D01*
X194559Y122555D01*
X194632Y122559D01*
X194705Y122557D01*
X194950Y122579D01*
X195195Y122595D01*
X195267Y122608D01*
X195340Y122615D01*
X195580Y122668D01*
X195821Y122714D01*
X195891Y122737D01*
X195962Y122752D01*
X196193Y122835D01*
X196427Y122911D01*
X196493Y122942D01*
X196562Y122966D01*
X196781Y123077D01*
X197004Y123182D01*
X197065Y123221D01*
X197130Y123254D01*
X197334Y123391D01*
X197542Y123523D01*
X197598Y123569D01*
X197659Y123610D01*
X197832Y123762D01*
X198033Y123928D01*
X198090Y123989D01*
X198151Y124042D01*
X222313Y148205D01*
X222416Y148321D01*
X222526Y148430D01*
X222627Y148560D01*
X222735Y148683D01*
X222822Y148811D01*
X222917Y148933D01*
X223001Y149074D01*
X223093Y149210D01*
X223163Y149348D01*
X223243Y149481D01*
X223308Y149631D01*
X223382Y149777D01*
X223435Y149923D01*
X223497Y150065D01*
X223543Y150222D01*
X223599Y150377D01*
X223632Y150528D01*
X223676Y150676D01*
X223702Y150838D01*
X223738Y150998D01*
X223753Y151153D01*
X223777Y151305D01*
X223783Y151469D01*
X223798Y151633D01*
X223794Y151787D01*
X223799Y151942D01*
X223784Y152106D01*
X223779Y152269D01*
X223755Y152422D01*
X223741Y152577D01*
X223705Y152737D01*
X223680Y152899D01*
X223637Y153048D01*
X223604Y153199D01*
X223549Y153353D01*
X223503Y153511D01*
X223442Y153653D01*
X223390Y153799D01*
X223316Y153945D01*
X223251Y154096D01*
X223172Y154230D01*
X223102Y154368D01*
X223011Y154503D01*
X222927Y154645D01*
X222832Y154768D01*
X222746Y154896D01*
X222641Y155015D01*
X222538Y155149D01*
X222419Y155268D01*
X222313Y155388D01*
X218185Y159516D01*
X218185Y168144D01*
X224286Y174245D01*
X232373Y174245D01*
X232445Y174249D01*
X232518Y174247D01*
X232763Y174269D01*
X233009Y174285D01*
X233080Y174298D01*
X233153Y174305D01*
X233393Y174358D01*
X233634Y174404D01*
X233704Y174426D01*
X233775Y174442D01*
X234006Y174525D01*
X234240Y174601D01*
X234307Y174632D01*
X234375Y174656D01*
X234595Y174767D01*
X234817Y174872D01*
X234879Y174911D01*
X234944Y174944D01*
X235148Y175081D01*
X235355Y175213D01*
X235411Y175259D01*
X235472Y175300D01*
X235646Y175453D01*
X235846Y175618D01*
X235904Y175679D01*
X235964Y175732D01*
X236965Y176733D01*
X237067Y176849D01*
X237177Y176959D01*
X237278Y177088D01*
X237386Y177211D01*
X237474Y177339D01*
X237569Y177461D01*
X237652Y177602D01*
X237745Y177738D01*
X237815Y177876D01*
X237894Y178009D01*
X237960Y178159D01*
X238034Y178305D01*
X238087Y178451D01*
X238149Y178593D01*
X238195Y178750D01*
X238250Y178905D01*
X238284Y179056D01*
X238328Y179205D01*
X238354Y179367D01*
X238390Y179527D01*
X238404Y179681D01*
X238429Y179834D01*
X238435Y179998D01*
X238450Y180161D01*
X238445Y180316D01*
X238451Y180471D01*
X238436Y180634D01*
X238431Y180798D01*
X238407Y180951D01*
X238392Y181105D01*
X238357Y181265D01*
X238332Y181427D01*
X238289Y181576D01*
X238255Y181727D01*
X238200Y181882D01*
X238155Y182039D01*
X238093Y182181D01*
X238041Y182327D01*
X237967Y182474D01*
X237902Y182624D01*
X237824Y182758D01*
X237754Y182896D01*
X237662Y183032D01*
X237579Y183173D01*
X237484Y183296D01*
X237398Y183424D01*
X237292Y183544D01*
X237189Y183677D01*
X237070Y183797D01*
X236965Y183916D01*
X232155Y188726D01*
X232155Y197354D01*
X239663Y204862D01*
X239847Y205071D01*
X240034Y205276D01*
X240058Y205309D01*
X240085Y205340D01*
X240241Y205570D01*
X240401Y205797D01*
X240420Y205833D01*
X240443Y205867D01*
X240569Y206115D01*
X240699Y206360D01*
X240714Y206398D01*
X240733Y206434D01*
X240827Y206696D01*
X240925Y206955D01*
X240935Y206995D01*
X240949Y207034D01*
X241009Y207304D01*
X241075Y207575D01*
X241079Y207615D01*
X241088Y207656D01*
X241114Y207931D01*
X241145Y208208D01*
X241145Y208249D01*
X241148Y208290D01*
X241140Y208567D01*
X241136Y208845D01*
X241130Y208886D01*
X241129Y208927D01*
X241086Y209201D01*
X241047Y209476D01*
X241036Y209515D01*
X241030Y209556D01*
X240953Y209823D01*
X240880Y210091D01*
X240865Y210129D01*
X240853Y210168D01*
X240743Y210423D01*
X240637Y210680D01*
X240617Y210715D01*
X240601Y210753D01*
X240460Y210993D01*
X240323Y211234D01*
X240298Y211267D01*
X240277Y211302D01*
X240107Y211522D01*
X239941Y211744D01*
X239913Y211774D01*
X239888Y211806D01*
X239692Y212002D01*
X239499Y212203D01*
X239467Y212228D01*
X239438Y212257D01*
X239220Y212427D01*
X239003Y212602D01*
X238968Y212624D01*
X238935Y212649D01*
X238696Y212791D01*
X238460Y212936D01*
X238423Y212953D01*
X238388Y212974D01*
X238133Y213085D01*
X237880Y213200D01*
X237841Y213212D01*
X237803Y213229D01*
X237537Y213307D01*
X237272Y213389D01*
X237231Y213396D01*
X237192Y213408D01*
X236917Y213452D01*
X236644Y213501D01*
X236604Y213503D01*
X236563Y213509D01*
X236285Y213519D01*
X236008Y213533D01*
X235967Y213529D01*
X235926Y213531D01*
X235650Y213505D01*
X235373Y213485D01*
X235332Y213476D01*
X235292Y213473D01*
X235021Y213413D01*
X234748Y213357D01*
X234710Y213344D01*
X234669Y213335D01*
X234366Y213227D01*
X234128Y213146D01*
X230659Y211709D01*
X226541Y211709D01*
X222737Y213285D01*
X219492Y216530D01*
X219375Y216633D01*
X219266Y216742D01*
X219137Y216843D01*
X219014Y216952D01*
X218886Y217039D01*
X218763Y217134D01*
X218622Y217218D01*
X218487Y217310D01*
X218349Y217380D01*
X218216Y217459D01*
X218065Y217525D01*
X217919Y217599D01*
X217774Y217652D01*
X217631Y217714D01*
X217474Y217760D01*
X217320Y217815D01*
X217169Y217849D01*
X217020Y217893D01*
X216858Y217919D01*
X216698Y217955D01*
X216544Y217970D01*
X216391Y217994D01*
X216227Y218000D01*
X216064Y218015D01*
X215909Y218011D01*
X215754Y218016D01*
X215591Y218001D01*
X215427Y217996D01*
X215274Y217972D01*
X215120Y217958D01*
X214960Y217922D01*
X214798Y217897D01*
X214649Y217854D01*
X214498Y217820D01*
X214343Y217766D01*
X214186Y217720D01*
X214043Y217658D01*
X213897Y217607D01*
X213751Y217533D01*
X213601Y217468D01*
X213467Y217389D01*
X213329Y217319D01*
X213193Y217227D01*
X213052Y217144D01*
X212929Y217049D01*
X212801Y216963D01*
X212681Y216858D01*
X212548Y216754D01*
X212428Y216635D01*
X212308Y216530D01*
X209063Y213285D01*
X205259Y211709D01*
X201141Y211709D01*
X197337Y213285D01*
X194092Y216530D01*
X193975Y216633D01*
X193866Y216742D01*
X193737Y216843D01*
X193614Y216952D01*
X193486Y217039D01*
X193363Y217134D01*
X193222Y217218D01*
X193087Y217310D01*
X192949Y217380D01*
X192816Y217459D01*
X192665Y217525D01*
X192519Y217599D01*
X192374Y217652D01*
X192231Y217714D01*
X192074Y217760D01*
X191920Y217815D01*
X191769Y217849D01*
X191620Y217893D01*
X191458Y217919D01*
X191298Y217955D01*
X191144Y217970D01*
X190991Y217994D01*
X190827Y218000D01*
X190664Y218015D01*
X190509Y218011D01*
X190354Y218016D01*
X190191Y218001D01*
X190027Y217996D01*
X189874Y217972D01*
X189720Y217958D01*
X189560Y217922D01*
X189398Y217897D01*
X189249Y217854D01*
X189098Y217820D01*
X188943Y217766D01*
X188786Y217720D01*
X188643Y217658D01*
X188497Y217607D01*
X188351Y217533D01*
X188201Y217468D01*
X188067Y217389D01*
X187929Y217319D01*
X187793Y217227D01*
X187652Y217144D01*
X187529Y217049D01*
X187401Y216963D01*
X187281Y216858D01*
X187148Y216754D01*
X187028Y216635D01*
X186908Y216530D01*
X183663Y213285D01*
X179859Y211709D01*
X175090Y211709D01*
X174828Y211734D01*
X174787Y211733D01*
X174746Y211736D01*
X174468Y211723D01*
X174191Y211715D01*
X174151Y211708D01*
X174109Y211706D01*
X173836Y211659D01*
X173562Y211616D01*
X173522Y211604D01*
X173482Y211597D01*
X173216Y211516D01*
X172950Y211439D01*
X172912Y211423D01*
X172873Y211410D01*
X172620Y211297D01*
X172365Y211187D01*
X172329Y211166D01*
X172292Y211149D01*
X172055Y211004D01*
X171816Y210863D01*
X171783Y210838D01*
X171748Y210816D01*
X171531Y210643D01*
X171312Y210473D01*
X171283Y210444D01*
X171250Y210419D01*
X171057Y210220D01*
X170860Y210024D01*
X170835Y209991D01*
X170806Y209962D01*
X170640Y209741D01*
X170469Y209521D01*
X170448Y209485D01*
X170423Y209453D01*
X170286Y209213D01*
X170143Y208973D01*
X170127Y208935D01*
X170107Y208900D01*
X170000Y208644D01*
X169889Y208389D01*
X169878Y208350D01*
X169862Y208312D01*
X169788Y208044D01*
X169710Y207778D01*
X169703Y207737D01*
X169692Y207697D01*
X169653Y207423D01*
X169609Y207149D01*
X169607Y207107D01*
X169601Y207067D01*
X169596Y206789D01*
X169587Y206512D01*
X169591Y206471D01*
X169590Y206430D01*
X169620Y206154D01*
X169645Y205877D01*
X169654Y205837D01*
X169658Y205796D01*
X169723Y205526D01*
X169782Y205255D01*
X169796Y205216D01*
X169806Y205176D01*
X169903Y204916D01*
X169996Y204655D01*
X170015Y204618D01*
X170029Y204580D01*
X170159Y204334D01*
X170284Y204086D01*
X170307Y204052D01*
X170326Y204016D01*
X170485Y203788D01*
X170640Y203558D01*
X170667Y203528D01*
X170691Y203494D01*
X170907Y203255D01*
X171073Y203066D01*
X176785Y197354D01*
X176785Y188726D01*
X170684Y182625D01*
X162027Y182625D01*
X161919Y182741D01*
X161766Y182916D01*
X158400Y186281D01*
X158345Y186329D01*
X158296Y186383D01*
X158107Y186540D01*
X157922Y186702D01*
X157862Y186744D01*
X157806Y186790D01*
X157599Y186922D01*
X157395Y187061D01*
X157331Y187094D01*
X157269Y187133D01*
X157047Y187239D01*
X156828Y187350D01*
X156759Y187375D01*
X156693Y187406D01*
X156460Y187483D01*
X156229Y187566D01*
X156157Y187582D01*
X156088Y187605D01*
X155847Y187652D01*
X155607Y187706D01*
X155534Y187713D01*
X155463Y187727D01*
X155231Y187741D01*
X154973Y187766D01*
X154889Y187764D01*
X154809Y187769D01*
X83597Y187769D01*
X81543Y188620D01*
X63440Y206723D01*
X63324Y206825D01*
X63215Y206935D01*
X63085Y207035D01*
X62962Y207144D01*
X62834Y207231D01*
X62712Y207326D01*
X62571Y207410D01*
X62436Y207502D01*
X62298Y207573D01*
X62164Y207652D01*
X62014Y207717D01*
X61868Y207792D01*
X61722Y207844D01*
X61580Y207906D01*
X61423Y207952D01*
X61269Y208008D01*
X61118Y208042D01*
X60969Y208085D01*
X60807Y208111D01*
X60647Y208147D01*
X60493Y208162D01*
X60340Y208186D01*
X60176Y208192D01*
X60013Y208208D01*
X59858Y208203D01*
X59703Y208208D01*
X59540Y208193D01*
X59376Y208188D01*
X59223Y208164D01*
X59068Y208150D01*
X58908Y208115D01*
X58746Y208089D01*
X58597Y208046D01*
X58446Y208013D01*
X58292Y207958D01*
X58134Y207912D01*
X57992Y207851D01*
X57846Y207799D01*
X57700Y207725D01*
X57549Y207660D01*
X57416Y207581D01*
X57278Y207511D01*
X57142Y207420D01*
X57000Y207336D01*
X56878Y207241D01*
X56749Y207155D01*
X56630Y207050D01*
X56496Y206947D01*
X56377Y206828D01*
X56257Y206723D01*
X50002Y200468D01*
X49954Y200413D01*
X49901Y200363D01*
X49743Y200174D01*
X49581Y199990D01*
X49540Y199930D01*
X49493Y199873D01*
X49361Y199666D01*
X49223Y199463D01*
X49190Y199398D01*
X49150Y199336D01*
X49045Y199114D01*
X48933Y198895D01*
X48909Y198827D01*
X48877Y198761D01*
X48801Y198527D01*
X48717Y198296D01*
X48701Y198225D01*
X48678Y198155D01*
X48632Y197914D01*
X48578Y197674D01*
X48571Y197602D01*
X48557Y197530D01*
X48542Y197299D01*
X48517Y197040D01*
X48520Y196957D01*
X48515Y196876D01*
X48515Y190916D01*
X48474Y190829D01*
X48362Y190610D01*
X48337Y190541D01*
X48306Y190475D01*
X48229Y190242D01*
X48146Y190011D01*
X48130Y189939D01*
X48107Y189870D01*
X48060Y189629D01*
X48006Y189389D01*
X47999Y189316D01*
X47985Y189245D01*
X47971Y189013D01*
X47946Y188755D01*
X47948Y188671D01*
X47943Y188591D01*
X47943Y172089D01*
X47948Y172016D01*
X47945Y171944D01*
X47968Y171699D01*
X47983Y171453D01*
X47997Y171382D01*
X48004Y171309D01*
X48056Y171069D01*
X48102Y170828D01*
X48125Y170758D01*
X48141Y170687D01*
X48223Y170456D01*
X48299Y170222D01*
X48330Y170155D01*
X48355Y170087D01*
X48465Y169868D01*
X48570Y169645D01*
X48609Y169583D01*
X48642Y169518D01*
X48779Y169315D01*
X48911Y169107D01*
X48958Y169050D01*
X48998Y168990D01*
X49151Y168816D01*
X49317Y168615D01*
X49378Y168558D01*
X49431Y168498D01*
X53595Y164334D01*
X53595Y158978D01*
X53599Y158905D01*
X53597Y158832D01*
X53619Y158587D01*
X53635Y158342D01*
X53648Y158270D01*
X53655Y158198D01*
X53708Y157957D01*
X53754Y157716D01*
X53776Y157647D01*
X53792Y157575D01*
X53875Y157344D01*
X53951Y157110D01*
X53982Y157044D01*
X54006Y156975D01*
X54117Y156756D01*
X54222Y156533D01*
X54261Y156472D01*
X54294Y156407D01*
X54431Y156203D01*
X54563Y155995D01*
X54609Y155939D01*
X54650Y155878D01*
X54803Y155705D01*
X54968Y155504D01*
X55029Y155447D01*
X55082Y155386D01*
X61824Y148644D01*
X62675Y146590D01*
X62675Y137037D01*
X62680Y136964D01*
X62677Y136891D01*
X62700Y136646D01*
X62715Y136401D01*
X62729Y136330D01*
X62736Y136257D01*
X62788Y136017D01*
X62834Y135776D01*
X62857Y135706D01*
X62873Y135635D01*
X62955Y135403D01*
X63031Y135169D01*
X63062Y135103D01*
X63087Y135035D01*
X63198Y134815D01*
X63302Y134593D01*
X63341Y134531D01*
X63374Y134466D01*
X63511Y134263D01*
X63643Y134055D01*
X63690Y133998D01*
X63730Y133938D01*
X63883Y133764D01*
X64049Y133563D01*
X64110Y133506D01*
X64163Y133446D01*
X68835Y128774D01*
X68835Y120146D01*
X62734Y114045D01*
X54106Y114045D01*
X48005Y120146D01*
X48005Y128774D01*
X50010Y130779D01*
X50058Y130833D01*
X50112Y130883D01*
X50269Y131072D01*
X50431Y131257D01*
X50473Y131317D01*
X50519Y131373D01*
X50651Y131580D01*
X50790Y131783D01*
X50823Y131849D01*
X50862Y131910D01*
X50968Y132132D01*
X51079Y132351D01*
X51104Y132419D01*
X51135Y132486D01*
X51212Y132720D01*
X51295Y132950D01*
X51311Y133022D01*
X51334Y133091D01*
X51381Y133332D01*
X51435Y133572D01*
X51442Y133645D01*
X51456Y133716D01*
X51470Y133948D01*
X51495Y134206D01*
X51493Y134290D01*
X51498Y134370D01*
X51498Y141060D01*
X51493Y141132D01*
X51496Y141205D01*
X51473Y141450D01*
X51458Y141696D01*
X51444Y141767D01*
X51437Y141840D01*
X51385Y142080D01*
X51339Y142321D01*
X51316Y142391D01*
X51300Y142462D01*
X51218Y142694D01*
X51142Y142927D01*
X51111Y142993D01*
X51086Y143062D01*
X50976Y143281D01*
X50871Y143504D01*
X50832Y143566D01*
X50799Y143631D01*
X50661Y143835D01*
X50530Y144042D01*
X50483Y144099D01*
X50443Y144159D01*
X50290Y144333D01*
X50124Y144533D01*
X50063Y144591D01*
X50010Y144651D01*
X46544Y148118D01*
X46489Y148166D01*
X46439Y148219D01*
X46250Y148376D01*
X46066Y148539D01*
X46006Y148580D01*
X45949Y148627D01*
X45743Y148759D01*
X45539Y148897D01*
X45474Y148930D01*
X45412Y148970D01*
X45190Y149075D01*
X44971Y149187D01*
X44903Y149211D01*
X44837Y149243D01*
X44603Y149320D01*
X44372Y149403D01*
X44301Y149419D01*
X44231Y149442D01*
X43990Y149488D01*
X43750Y149542D01*
X43678Y149549D01*
X43606Y149563D01*
X43375Y149578D01*
X43116Y149603D01*
X43033Y149600D01*
X42952Y149605D01*
X38866Y149605D01*
X32765Y155706D01*
X32765Y164334D01*
X35278Y166847D01*
X35326Y166901D01*
X35380Y166951D01*
X35537Y167140D01*
X35699Y167325D01*
X35740Y167385D01*
X35787Y167441D01*
X35920Y167648D01*
X36058Y167852D01*
X36091Y167916D01*
X36130Y167978D01*
X36235Y168200D01*
X36347Y168419D01*
X36372Y168488D01*
X36403Y168554D01*
X36480Y168787D01*
X36563Y169018D01*
X36579Y169090D01*
X36602Y169159D01*
X36649Y169400D01*
X36703Y169640D01*
X36710Y169713D01*
X36724Y169784D01*
X36738Y170016D01*
X36763Y170274D01*
X36761Y170358D01*
X36766Y170438D01*
X36766Y180086D01*
X36758Y180203D01*
X36759Y180232D01*
X36756Y180267D01*
X36756Y180396D01*
X36736Y180558D01*
X36726Y180722D01*
X36704Y180837D01*
X36701Y180866D01*
X36693Y180901D01*
X36678Y181028D01*
X36637Y181187D01*
X36607Y181348D01*
X36571Y181459D01*
X36564Y181488D01*
X36552Y181523D01*
X36521Y181645D01*
X36461Y181798D01*
X36410Y181954D01*
X36361Y182058D01*
X36350Y182089D01*
X36333Y182123D01*
X36287Y182238D01*
X36209Y182382D01*
X36139Y182530D01*
X36078Y182626D01*
X36063Y182657D01*
X36040Y182691D01*
X35982Y182797D01*
X35886Y182930D01*
X35798Y183069D01*
X35728Y183153D01*
X35706Y183185D01*
X35677Y183218D01*
X35608Y183314D01*
X35497Y183433D01*
X35392Y183560D01*
X35306Y183641D01*
X35274Y183678D01*
X35193Y183758D01*
X35174Y183779D01*
X35165Y183786D01*
X27685Y191266D01*
X27685Y199894D01*
X33786Y205995D01*
X37618Y205995D01*
X37691Y205999D01*
X37764Y205997D01*
X38009Y206019D01*
X38254Y206035D01*
X38326Y206048D01*
X38398Y206055D01*
X38639Y206108D01*
X38880Y206154D01*
X38949Y206177D01*
X39021Y206192D01*
X39252Y206275D01*
X39486Y206351D01*
X39552Y206382D01*
X39621Y206406D01*
X39840Y206517D01*
X40063Y206622D01*
X40124Y206661D01*
X40189Y206694D01*
X40393Y206831D01*
X40601Y206963D01*
X40657Y207009D01*
X40718Y207050D01*
X40891Y207203D01*
X41092Y207368D01*
X41149Y207429D01*
X41210Y207482D01*
X54396Y220669D01*
X55535Y221807D01*
X55583Y221862D01*
X55636Y221912D01*
X55793Y222101D01*
X55956Y222285D01*
X55997Y222345D01*
X56044Y222402D01*
X56176Y222609D01*
X56314Y222812D01*
X56347Y222877D01*
X56387Y222939D01*
X56492Y223161D01*
X56604Y223380D01*
X56628Y223448D01*
X56660Y223514D01*
X56736Y223748D01*
X56820Y223979D01*
X56836Y224050D01*
X56859Y224120D01*
X56905Y224361D01*
X56959Y224601D01*
X56966Y224673D01*
X56980Y224745D01*
X56995Y224976D01*
X57020Y225235D01*
X57017Y225318D01*
X57022Y225399D01*
X57022Y251265D01*
X57018Y251338D01*
X57020Y251411D01*
X56998Y251656D01*
X56982Y251901D01*
X56969Y251973D01*
X56962Y252046D01*
X56909Y252286D01*
X56863Y252527D01*
X56841Y252596D01*
X56825Y252668D01*
X56742Y252899D01*
X56666Y253133D01*
X56635Y253199D01*
X56611Y253268D01*
X56500Y253487D01*
X56395Y253710D01*
X56356Y253771D01*
X56323Y253836D01*
X56186Y254040D01*
X56054Y254248D01*
X56008Y254304D01*
X55967Y254365D01*
X55814Y254539D01*
X55649Y254739D01*
X55588Y254796D01*
X55535Y254857D01*
X53085Y257306D01*
X53085Y261570D01*
X53070Y261807D01*
X53063Y262043D01*
X53050Y262124D01*
X53045Y262206D01*
X53001Y262438D01*
X52964Y262673D01*
X52941Y262752D01*
X52926Y262832D01*
X52853Y263057D01*
X52787Y263285D01*
X52755Y263360D01*
X52729Y263438D01*
X52628Y263653D01*
X52535Y263870D01*
X52493Y263940D01*
X52458Y264015D01*
X52331Y264215D01*
X52211Y264419D01*
X52161Y264483D01*
X52117Y264553D01*
X51966Y264736D01*
X51822Y264923D01*
X51764Y264981D01*
X51712Y265044D01*
X51539Y265206D01*
X51372Y265374D01*
X51307Y265424D01*
X51248Y265481D01*
X51056Y265620D01*
X50869Y265766D01*
X50799Y265807D01*
X50733Y265856D01*
X50525Y265970D01*
X50322Y266091D01*
X50246Y266124D01*
X50175Y266163D01*
X49955Y266251D01*
X49737Y266345D01*
X49659Y266368D01*
X49582Y266399D01*
X49353Y266458D01*
X49126Y266525D01*
X49045Y266538D01*
X48966Y266558D01*
X48731Y266588D01*
X48497Y266626D01*
X48415Y266629D01*
X48334Y266639D01*
X48097Y266639D01*
X47860Y266647D01*
X47779Y266640D01*
X47696Y266640D01*
X47462Y266611D01*
X47226Y266589D01*
X47146Y266572D01*
X47064Y266561D01*
X46835Y266503D01*
X46604Y266452D01*
X46526Y266425D01*
X46447Y266404D01*
X46226Y266318D01*
X46003Y266238D01*
X45930Y266201D01*
X45854Y266171D01*
X45646Y266057D01*
X45435Y265951D01*
X45367Y265905D01*
X45295Y265865D01*
X45103Y265727D01*
X44907Y265594D01*
X44846Y265541D01*
X44778Y265492D01*
X44589Y265315D01*
X44414Y265162D01*
X43179Y263927D01*
X43179Y271780D01*
X43179Y279633D01*
X47245Y275568D01*
X47245Y272356D01*
X47260Y272120D01*
X47267Y271883D01*
X47280Y271802D01*
X47285Y271720D01*
X47329Y271488D01*
X47366Y271253D01*
X47389Y271174D01*
X47404Y271094D01*
X47477Y270869D01*
X47543Y270641D01*
X47575Y270566D01*
X47601Y270488D01*
X47701Y270274D01*
X47795Y270056D01*
X47837Y269985D01*
X47872Y269911D01*
X47998Y269711D01*
X48119Y269507D01*
X48169Y269443D01*
X48213Y269373D01*
X48364Y269190D01*
X48508Y269003D01*
X48566Y268945D01*
X48618Y268882D01*
X48791Y268720D01*
X48958Y268552D01*
X49023Y268501D01*
X49082Y268445D01*
X49274Y268306D01*
X49461Y268160D01*
X49531Y268119D01*
X49597Y268070D01*
X49805Y267956D01*
X50008Y267835D01*
X50084Y267802D01*
X50155Y267763D01*
X50375Y267675D01*
X50593Y267581D01*
X50671Y267558D01*
X50748Y267527D01*
X50977Y267468D01*
X51204Y267402D01*
X51285Y267388D01*
X51364Y267368D01*
X51599Y267338D01*
X51833Y267300D01*
X51915Y267297D01*
X51996Y267287D01*
X52233Y267287D01*
X52470Y267279D01*
X52551Y267286D01*
X52634Y267286D01*
X52869Y267315D01*
X53104Y267337D01*
X53184Y267354D01*
X53266Y267365D01*
X53495Y267423D01*
X53726Y267474D01*
X53804Y267501D01*
X53883Y267522D01*
X54104Y267608D01*
X54327Y267688D01*
X54400Y267725D01*
X54476Y267755D01*
X54684Y267869D01*
X54895Y267975D01*
X54963Y268021D01*
X55035Y268061D01*
X55227Y268199D01*
X55423Y268332D01*
X55484Y268385D01*
X55552Y268434D01*
X55741Y268611D01*
X55916Y268764D01*
X59186Y272035D01*
X66675Y272035D01*
X66830Y272044D01*
X66985Y272044D01*
X67147Y272064D01*
X67311Y272075D01*
X67463Y272104D01*
X67617Y272123D01*
X67776Y272163D01*
X67937Y272194D01*
X68084Y272242D01*
X68234Y272280D01*
X68387Y272340D01*
X68543Y272391D01*
X68683Y272456D01*
X68827Y272513D01*
X68971Y272592D01*
X69119Y272662D01*
X69250Y272744D01*
X69386Y272819D01*
X69519Y272915D01*
X69658Y273003D01*
X69777Y273101D01*
X69903Y273192D01*
X70022Y273304D01*
X70149Y273408D01*
X70255Y273521D01*
X70368Y273627D01*
X70473Y273753D01*
X70585Y273872D01*
X70677Y273998D01*
X70776Y274117D01*
X70864Y274255D01*
X70960Y274387D01*
X71035Y274523D01*
X71119Y274654D01*
X71189Y274802D01*
X71268Y274945D01*
X71325Y275089D01*
X71392Y275229D01*
X71443Y275385D01*
X71503Y275538D01*
X71542Y275688D01*
X71591Y275835D01*
X71622Y275996D01*
X71663Y276154D01*
X71682Y276308D01*
X71712Y276460D01*
X71722Y276619D01*
X71744Y276786D01*
X71744Y276955D01*
X71754Y277114D01*
X71754Y280816D01*
X71750Y280889D01*
X71752Y280962D01*
X71730Y281207D01*
X71714Y281452D01*
X71701Y281524D01*
X71694Y281597D01*
X71641Y281837D01*
X71595Y282078D01*
X71572Y282148D01*
X71557Y282219D01*
X71474Y282450D01*
X71398Y282684D01*
X71367Y282750D01*
X71343Y282819D01*
X71232Y283038D01*
X71127Y283261D01*
X71088Y283322D01*
X71055Y283388D01*
X70918Y283591D01*
X70786Y283799D01*
X70740Y283855D01*
X70699Y283916D01*
X70546Y284089D01*
X70381Y284290D01*
X70320Y284348D01*
X70267Y284408D01*
X67309Y287365D01*
X67309Y296835D01*
X72581Y302106D01*
X72683Y302223D01*
X72793Y302332D01*
X72894Y302462D01*
X73002Y302584D01*
X73089Y302712D01*
X73185Y302835D01*
X73268Y302976D01*
X73361Y303111D01*
X73431Y303249D01*
X73510Y303382D01*
X73576Y303533D01*
X73650Y303679D01*
X73702Y303824D01*
X73764Y303967D01*
X73811Y304124D01*
X73866Y304278D01*
X73900Y304429D01*
X73944Y304578D01*
X73970Y304740D01*
X74006Y304900D01*
X74020Y305054D01*
X74045Y305207D01*
X74050Y305371D01*
X74066Y305534D01*
X74061Y305689D01*
X74067Y305844D01*
X74052Y306007D01*
X74047Y306171D01*
X74023Y306324D01*
X74008Y306478D01*
X73973Y306638D01*
X73948Y306800D01*
X73905Y306949D01*
X73871Y307100D01*
X73816Y307255D01*
X73771Y307412D01*
X73709Y307555D01*
X73657Y307701D01*
X73583Y307847D01*
X73518Y307997D01*
X73440Y308131D01*
X73370Y308269D01*
X73278Y308405D01*
X73195Y308546D01*
X73100Y308669D01*
X73013Y308797D01*
X72908Y308917D01*
X72805Y309050D01*
X72686Y309170D01*
X72581Y309290D01*
X69450Y312421D01*
X78740Y312421D01*
X104140Y312421D01*
X113430Y312421D01*
X110299Y309290D01*
X110197Y309173D01*
X110087Y309064D01*
X109986Y308935D01*
X109878Y308812D01*
X109791Y308684D01*
X109695Y308561D01*
X109612Y308420D01*
X109519Y308285D01*
X109449Y308147D01*
X109370Y308014D01*
X109304Y307863D01*
X109230Y307717D01*
X109177Y307572D01*
X109116Y307429D01*
X109069Y307272D01*
X109014Y307118D01*
X108980Y306967D01*
X108936Y306818D01*
X108910Y306656D01*
X108874Y306496D01*
X108860Y306342D01*
X108835Y306189D01*
X108830Y306025D01*
X108814Y305862D01*
X108819Y305707D01*
X108813Y305552D01*
X108828Y305389D01*
X108833Y305225D01*
X108857Y305072D01*
X108872Y304918D01*
X108907Y304758D01*
X108932Y304596D01*
X108975Y304447D01*
X109009Y304296D01*
X109064Y304141D01*
X109109Y303984D01*
X109171Y303841D01*
X109223Y303695D01*
X109297Y303549D01*
X109362Y303399D01*
X109440Y303265D01*
X109510Y303127D01*
X109602Y302991D01*
X109685Y302850D01*
X109780Y302727D01*
X109867Y302599D01*
X109972Y302479D01*
X110075Y302346D01*
X110194Y302226D01*
X110299Y302106D01*
X115571Y296835D01*
X115571Y287365D01*
X110200Y281995D01*
X110152Y281940D01*
X110099Y281890D01*
X109941Y281701D01*
X109779Y281517D01*
X109738Y281457D01*
X109691Y281401D01*
X109559Y281193D01*
X109421Y280990D01*
X109388Y280925D01*
X109348Y280864D01*
X109243Y280642D01*
X109131Y280423D01*
X109107Y280354D01*
X109075Y280288D01*
X108999Y280054D01*
X108915Y279823D01*
X108899Y279752D01*
X108876Y279683D01*
X108830Y279441D01*
X108776Y279202D01*
X108769Y279129D01*
X108755Y279057D01*
X108740Y278826D01*
X108715Y278567D01*
X108718Y278484D01*
X108713Y278403D01*
X108713Y244769D01*
X108717Y244697D01*
X108715Y244624D01*
X108737Y244379D01*
X108753Y244133D01*
X108766Y244062D01*
X108773Y243989D01*
X108826Y243749D01*
X108872Y243508D01*
X108894Y243438D01*
X108910Y243367D01*
X108993Y243136D01*
X109069Y242902D01*
X109100Y242836D01*
X109124Y242767D01*
X109235Y242547D01*
X109340Y242325D01*
X109379Y242263D01*
X109412Y242198D01*
X109549Y241994D01*
X109681Y241787D01*
X109727Y241730D01*
X109768Y241670D01*
X109921Y241496D01*
X110086Y241296D01*
X110147Y241238D01*
X110200Y241178D01*
X110708Y240670D01*
X110825Y240567D01*
X110934Y240458D01*
X111063Y240357D01*
X111186Y240248D01*
X111314Y240161D01*
X111437Y240066D01*
X111578Y239982D01*
X111713Y239890D01*
X111851Y239820D01*
X111984Y239741D01*
X112135Y239675D01*
X112281Y239601D01*
X112427Y239548D01*
X112569Y239486D01*
X112726Y239440D01*
X112880Y239385D01*
X113031Y239351D01*
X113180Y239307D01*
X113342Y239281D01*
X113502Y239245D01*
X113656Y239230D01*
X113809Y239206D01*
X113973Y239200D01*
X114136Y239185D01*
X114291Y239189D01*
X114446Y239184D01*
X114609Y239199D01*
X114773Y239204D01*
X114926Y239228D01*
X115080Y239242D01*
X115240Y239278D01*
X115402Y239303D01*
X115551Y239346D01*
X115702Y239380D01*
X115857Y239435D01*
X116014Y239480D01*
X116157Y239541D01*
X116303Y239593D01*
X116449Y239667D01*
X116599Y239732D01*
X116733Y239811D01*
X116871Y239881D01*
X117007Y239973D01*
X117148Y240056D01*
X117271Y240151D01*
X117399Y240237D01*
X117519Y240342D01*
X117652Y240445D01*
X117772Y240565D01*
X117892Y240670D01*
X121137Y243915D01*
X124941Y245491D01*
X128838Y245491D01*
X129074Y245506D01*
X129311Y245513D01*
X129392Y245526D01*
X129474Y245531D01*
X129706Y245575D01*
X129941Y245612D01*
X130020Y245635D01*
X130100Y245650D01*
X130325Y245723D01*
X130553Y245789D01*
X130628Y245821D01*
X130706Y245847D01*
X130920Y245947D01*
X131138Y246041D01*
X131209Y246083D01*
X131283Y246118D01*
X131483Y246244D01*
X131687Y246365D01*
X131751Y246415D01*
X131821Y246459D01*
X132004Y246610D01*
X132191Y246754D01*
X132249Y246812D01*
X132312Y246864D01*
X132474Y247037D01*
X132642Y247204D01*
X132693Y247269D01*
X132749Y247328D01*
X132888Y247520D01*
X133034Y247707D01*
X133075Y247777D01*
X133124Y247843D01*
X133238Y248051D01*
X133359Y248254D01*
X133392Y248330D01*
X133431Y248401D01*
X133519Y248621D01*
X133613Y248839D01*
X133636Y248917D01*
X133667Y248994D01*
X133726Y249223D01*
X133792Y249450D01*
X133806Y249531D01*
X133826Y249610D01*
X133856Y249845D01*
X133894Y250079D01*
X133897Y250161D01*
X133907Y250242D01*
X133907Y250479D01*
X133915Y250716D01*
X133908Y250797D01*
X133908Y250880D01*
X133879Y251114D01*
X133857Y251350D01*
X133840Y251430D01*
X133829Y251512D01*
X133771Y251741D01*
X133720Y251972D01*
X133693Y252050D01*
X133672Y252129D01*
X133586Y252350D01*
X133506Y252573D01*
X133469Y252646D01*
X133439Y252722D01*
X133325Y252930D01*
X133219Y253141D01*
X133173Y253209D01*
X133133Y253281D01*
X132995Y253473D01*
X132862Y253669D01*
X132809Y253730D01*
X132760Y253798D01*
X132583Y253987D01*
X132430Y254162D01*
X129285Y257306D01*
X129285Y265934D01*
X135386Y272035D01*
X144014Y272035D01*
X147479Y268569D01*
X147534Y268521D01*
X147584Y268468D01*
X147773Y268310D01*
X147957Y268148D01*
X148017Y268107D01*
X148074Y268060D01*
X148281Y267928D01*
X148484Y267790D01*
X148549Y267757D01*
X148611Y267717D01*
X148833Y267612D01*
X149052Y267500D01*
X149120Y267476D01*
X149186Y267444D01*
X149420Y267368D01*
X149651Y267284D01*
X149722Y267268D01*
X149792Y267245D01*
X150033Y267199D01*
X150273Y267145D01*
X150345Y267138D01*
X150417Y267124D01*
X150648Y267109D01*
X150907Y267084D01*
X150990Y267087D01*
X151071Y267082D01*
X172371Y267082D01*
X174425Y266231D01*
X194516Y246140D01*
X194601Y246065D01*
X194680Y245983D01*
X194840Y245854D01*
X194994Y245719D01*
X195088Y245655D01*
X195177Y245583D01*
X195351Y245476D01*
X195521Y245361D01*
X195622Y245309D01*
X195719Y245249D01*
X195906Y245164D01*
X196088Y245071D01*
X196195Y245033D01*
X196299Y244985D01*
X196495Y244925D01*
X196688Y244855D01*
X196799Y244830D01*
X196908Y244796D01*
X197109Y244761D01*
X197309Y244716D01*
X197423Y244705D01*
X197535Y244685D01*
X197740Y244675D01*
X197944Y244655D01*
X198057Y244659D01*
X198171Y244653D01*
X198376Y244668D01*
X198580Y244675D01*
X198693Y244692D01*
X198807Y244701D01*
X199007Y244742D01*
X199210Y244774D01*
X199319Y244805D01*
X199431Y244828D01*
X199617Y244892D01*
X199822Y244951D01*
X199937Y245001D01*
X200051Y245039D01*
X201141Y245491D01*
X205259Y245491D01*
X209063Y243915D01*
X212308Y240670D01*
X212425Y240567D01*
X212534Y240458D01*
X212663Y240357D01*
X212786Y240248D01*
X212914Y240161D01*
X213037Y240066D01*
X213178Y239982D01*
X213313Y239890D01*
X213451Y239820D01*
X213584Y239741D01*
X213735Y239675D01*
X213881Y239601D01*
X214027Y239548D01*
X214169Y239486D01*
X214326Y239440D01*
X214480Y239385D01*
X214631Y239351D01*
X214780Y239307D01*
X214942Y239281D01*
X215102Y239245D01*
X215256Y239230D01*
X215409Y239206D01*
X215573Y239200D01*
X215736Y239185D01*
X215891Y239189D01*
X216046Y239184D01*
X216209Y239199D01*
X216373Y239204D01*
X216526Y239228D01*
X216680Y239242D01*
X216840Y239278D01*
X217002Y239303D01*
X217151Y239346D01*
X217302Y239380D01*
X217457Y239434D01*
X217614Y239480D01*
X217757Y239542D01*
X217903Y239593D01*
X218049Y239667D01*
X218199Y239732D01*
X218333Y239811D01*
X218471Y239881D01*
X218607Y239973D01*
X218748Y240056D01*
X218871Y240151D01*
X218999Y240237D01*
X219119Y240343D01*
X219252Y240446D01*
X219372Y240564D01*
X219492Y240670D01*
X222737Y243915D01*
X226541Y245491D01*
X230659Y245491D01*
X234463Y243915D01*
X237708Y240670D01*
X237825Y240567D01*
X237934Y240458D01*
X238063Y240357D01*
X238186Y240248D01*
X238314Y240161D01*
X238437Y240066D01*
X238578Y239982D01*
X238713Y239890D01*
X238851Y239820D01*
X238984Y239741D01*
X239135Y239675D01*
X239281Y239601D01*
X239427Y239548D01*
X239569Y239486D01*
X239726Y239440D01*
X239880Y239385D01*
X240031Y239351D01*
X240180Y239307D01*
X240342Y239281D01*
X240502Y239245D01*
X240656Y239230D01*
X240809Y239206D01*
X240973Y239200D01*
X241136Y239185D01*
X241291Y239189D01*
X241446Y239184D01*
X241609Y239199D01*
X241773Y239204D01*
X241926Y239228D01*
X242080Y239242D01*
X242240Y239278D01*
X242402Y239303D01*
X242551Y239346D01*
X242702Y239380D01*
X242857Y239434D01*
X243014Y239480D01*
X243157Y239542D01*
X243303Y239593D01*
X243449Y239667D01*
X243599Y239732D01*
X243733Y239811D01*
X243871Y239881D01*
X244007Y239973D01*
X244148Y240056D01*
X244271Y240151D01*
X244399Y240237D01*
X244519Y240343D01*
X244652Y240446D01*
X244772Y240564D01*
X244892Y240670D01*
X248137Y243915D01*
X251941Y245491D01*
X256059Y245491D01*
X259863Y243915D01*
X263108Y240670D01*
X263225Y240567D01*
X263334Y240458D01*
X263463Y240357D01*
X263586Y240248D01*
X263714Y240161D01*
X263837Y240066D01*
X263978Y239982D01*
X264113Y239890D01*
X264251Y239820D01*
X264384Y239741D01*
X264535Y239675D01*
X264681Y239601D01*
X264827Y239548D01*
X264969Y239486D01*
X265126Y239440D01*
X265280Y239385D01*
X265431Y239351D01*
X265580Y239307D01*
X265742Y239281D01*
X265902Y239245D01*
X266056Y239230D01*
X266209Y239206D01*
X266373Y239200D01*
X266536Y239185D01*
X266691Y239189D01*
X266846Y239184D01*
X267009Y239199D01*
X267173Y239204D01*
X267326Y239228D01*
X267480Y239242D01*
X267640Y239278D01*
X267802Y239303D01*
X267951Y239346D01*
X268102Y239380D01*
X268257Y239434D01*
X268414Y239480D01*
X268557Y239542D01*
X268703Y239593D01*
X268849Y239667D01*
X268999Y239732D01*
X269133Y239811D01*
X269271Y239881D01*
X269407Y239973D01*
X269548Y240056D01*
X269671Y240151D01*
X269799Y240237D01*
X269919Y240343D01*
X270052Y240446D01*
X270172Y240564D01*
X270292Y240670D01*
X273537Y243915D01*
X277341Y245491D01*
X281459Y245491D01*
X284430Y244260D01*
X284538Y244223D01*
X284643Y244177D01*
X284839Y244120D01*
X285033Y244053D01*
X285145Y244030D01*
X285254Y243998D01*
X285456Y243966D01*
X285657Y243924D01*
X285771Y243915D01*
X285883Y243897D01*
X286088Y243890D01*
X286292Y243874D01*
X286406Y243879D01*
X286520Y243875D01*
X286724Y243894D01*
X286929Y243904D01*
X287041Y243923D01*
X287155Y243934D01*
X287355Y243978D01*
X287556Y244013D01*
X287665Y244046D01*
X287777Y244071D01*
X287970Y244140D01*
X288165Y244200D01*
X288270Y244247D01*
X288377Y244285D01*
X288559Y244377D01*
X288746Y244461D01*
X288844Y244521D01*
X288946Y244572D01*
X289115Y244687D01*
X289290Y244794D01*
X289379Y244865D01*
X289474Y244929D01*
X289622Y245059D01*
X289788Y245191D01*
X289875Y245282D01*
X289966Y245361D01*
X290221Y245616D01*
X296611Y252006D01*
X298665Y252857D01*
X310935Y252857D01*
X312989Y252006D01*
X319634Y245361D01*
X319720Y245285D01*
X319799Y245204D01*
X319958Y245075D01*
X320112Y244940D01*
X320206Y244876D01*
X320295Y244804D01*
X320470Y244697D01*
X320639Y244581D01*
X320741Y244530D01*
X320838Y244470D01*
X321024Y244385D01*
X321207Y244292D01*
X321314Y244253D01*
X321418Y244206D01*
X321613Y244145D01*
X321806Y244076D01*
X321917Y244051D01*
X322026Y244017D01*
X322228Y243981D01*
X322428Y243936D01*
X322541Y243926D01*
X322653Y243906D01*
X322858Y243895D01*
X323062Y243876D01*
X323176Y243879D01*
X323290Y243874D01*
X323494Y243889D01*
X323699Y243895D01*
X323811Y243913D01*
X323925Y243922D01*
X324126Y243963D01*
X324328Y243994D01*
X324438Y244026D01*
X324549Y244049D01*
X324736Y244112D01*
X324940Y244171D01*
X325056Y244221D01*
X325170Y244260D01*
X328141Y245491D01*
X332259Y245491D01*
X336063Y243915D01*
X338975Y241003D01*
X339012Y240914D01*
X339133Y240666D01*
X339250Y240416D01*
X339273Y240380D01*
X339292Y240342D01*
X339444Y240111D01*
X339591Y239878D01*
X339618Y239845D01*
X339642Y239809D01*
X339821Y239599D01*
X339996Y239386D01*
X340028Y239357D01*
X340055Y239325D01*
X340259Y239139D01*
X340460Y238950D01*
X340495Y238924D01*
X340526Y238896D01*
X340752Y238737D01*
X340975Y238574D01*
X341012Y238554D01*
X341047Y238529D01*
X341291Y238399D01*
X341533Y238266D01*
X341572Y238250D01*
X341610Y238230D01*
X341869Y238132D01*
X342125Y238030D01*
X342166Y238020D01*
X342206Y238004D01*
X342475Y237940D01*
X342741Y237871D01*
X342784Y237865D01*
X342825Y237855D01*
X343100Y237824D01*
X343373Y237789D01*
X343416Y237789D01*
X343459Y237784D01*
X343734Y237788D01*
X344010Y237788D01*
X344053Y237793D01*
X344096Y237794D01*
X344368Y237832D01*
X344643Y237866D01*
X344684Y237876D01*
X344727Y237882D01*
X344993Y237955D01*
X345260Y238023D01*
X345300Y238038D01*
X345341Y238049D01*
X345597Y238155D01*
X345853Y238255D01*
X345891Y238276D01*
X345930Y238292D01*
X346170Y238428D01*
X346413Y238561D01*
X346447Y238586D01*
X346485Y238607D01*
X346706Y238772D01*
X346929Y238933D01*
X346960Y238963D01*
X346995Y238988D01*
X347194Y239181D01*
X347395Y239368D01*
X347422Y239400D01*
X347453Y239431D01*
X347653Y239679D01*
X347814Y239872D01*
X348674Y241056D01*
X349684Y242066D01*
X350521Y242674D01*
X350521Y228600D01*
X350530Y228446D01*
X350530Y228291D01*
X350550Y228128D01*
X350561Y227964D01*
X350589Y227813D01*
X350609Y227659D01*
X350649Y227499D01*
X350680Y227339D01*
X350728Y227191D01*
X350766Y227041D01*
X350826Y226889D01*
X350876Y226733D01*
X350942Y226592D01*
X350999Y226448D01*
X351078Y226304D01*
X351147Y226156D01*
X351230Y226025D01*
X351305Y225889D01*
X351401Y225756D01*
X351488Y225618D01*
X351587Y225498D01*
X351678Y225373D01*
X351790Y225253D01*
X351894Y225127D01*
X352007Y225020D01*
X352113Y224907D01*
X352239Y224802D01*
X352358Y224690D01*
X352484Y224599D01*
X352603Y224500D01*
X352741Y224411D01*
X352873Y224315D01*
X353009Y224240D01*
X353140Y224157D01*
X353288Y224086D01*
X353431Y224007D01*
X353575Y223950D01*
X353715Y223884D01*
X353871Y223832D01*
X354023Y223772D01*
X354173Y223733D01*
X354321Y223685D01*
X354481Y223654D01*
X354640Y223613D01*
X354794Y223593D01*
X354946Y223563D01*
X355105Y223553D01*
X355272Y223532D01*
X355441Y223531D01*
X355600Y223521D01*
X355755Y223531D01*
X355909Y223531D01*
X355910Y223531D01*
X356073Y223551D01*
X356236Y223561D01*
X356388Y223590D01*
X356542Y223609D01*
X356701Y223650D01*
X356862Y223680D01*
X357009Y223728D01*
X357159Y223766D01*
X357312Y223826D01*
X357468Y223877D01*
X357608Y223943D01*
X357752Y224000D01*
X357896Y224078D01*
X358045Y224148D01*
X358175Y224231D01*
X358311Y224305D01*
X358444Y224401D01*
X358583Y224489D01*
X358702Y224588D01*
X358828Y224678D01*
X358947Y224790D01*
X359074Y224895D01*
X359180Y225008D01*
X359293Y225113D01*
X359398Y225239D01*
X359511Y225359D01*
X359602Y225484D01*
X359701Y225603D01*
X359789Y225741D01*
X359886Y225874D01*
X359960Y226009D01*
X360044Y226140D01*
X360114Y226288D01*
X360193Y226432D01*
X360250Y226576D01*
X360317Y226716D01*
X360368Y226872D01*
X360429Y227024D01*
X360467Y227174D01*
X360516Y227321D01*
X360547Y227482D01*
X360588Y227641D01*
X360608Y227794D01*
X360637Y227946D01*
X360647Y228105D01*
X360669Y228273D01*
X360669Y228441D01*
X360679Y228600D01*
X360679Y242674D01*
X361516Y242066D01*
X362526Y241056D01*
X363386Y239872D01*
X363562Y239659D01*
X363734Y239444D01*
X363765Y239414D01*
X363792Y239381D01*
X363994Y239192D01*
X364191Y239000D01*
X364225Y238974D01*
X364257Y238945D01*
X364480Y238783D01*
X364700Y238617D01*
X364738Y238595D01*
X364772Y238570D01*
X365013Y238438D01*
X365253Y238300D01*
X365293Y238284D01*
X365330Y238263D01*
X365587Y238161D01*
X365841Y238055D01*
X365883Y238044D01*
X365922Y238028D01*
X366190Y237959D01*
X366456Y237886D01*
X366498Y237880D01*
X366539Y237869D01*
X366813Y237834D01*
X367086Y237795D01*
X367129Y237794D01*
X367171Y237789D01*
X367448Y237788D01*
X367723Y237784D01*
X367766Y237788D01*
X367809Y237788D01*
X368083Y237822D01*
X368357Y237852D01*
X368398Y237862D01*
X368441Y237867D01*
X368708Y237935D01*
X368977Y237999D01*
X369017Y238014D01*
X369058Y238025D01*
X369315Y238126D01*
X369573Y238223D01*
X369611Y238243D01*
X369651Y238258D01*
X369893Y238391D01*
X370137Y238519D01*
X370172Y238544D01*
X370210Y238564D01*
X370434Y238726D01*
X370659Y238884D01*
X370691Y238913D01*
X370726Y238938D01*
X370928Y239127D01*
X371132Y239312D01*
X371160Y239344D01*
X371191Y239373D01*
X371367Y239585D01*
X371547Y239795D01*
X371571Y239831D01*
X371598Y239863D01*
X371747Y240096D01*
X371899Y240326D01*
X371917Y240364D01*
X371941Y240401D01*
X372078Y240689D01*
X372188Y240914D01*
X372225Y241003D01*
X375137Y243915D01*
X379596Y245762D01*
X379698Y245812D01*
X379804Y245854D01*
X379984Y245952D01*
X380168Y246042D01*
X380263Y246105D01*
X380363Y246159D01*
X380529Y246279D01*
X380701Y246392D01*
X380787Y246466D01*
X380880Y246533D01*
X381029Y246672D01*
X381185Y246805D01*
X381262Y246890D01*
X381345Y246968D01*
X381476Y247125D01*
X381614Y247276D01*
X381680Y247370D01*
X381753Y247457D01*
X381863Y247630D01*
X381981Y247798D01*
X382034Y247898D01*
X382096Y247994D01*
X382184Y248180D01*
X382279Y248360D01*
X382320Y248467D01*
X382369Y248570D01*
X382433Y248765D01*
X382505Y248956D01*
X382532Y249067D01*
X382568Y249175D01*
X382607Y249376D01*
X382655Y249576D01*
X382667Y249689D01*
X382689Y249801D01*
X382702Y249997D01*
X382725Y250209D01*
X382724Y250335D01*
X382731Y250455D01*
X382731Y257001D01*
X384084Y258353D01*
X384132Y258408D01*
X384185Y258458D01*
X384343Y258647D01*
X384505Y258831D01*
X384546Y258891D01*
X384593Y258948D01*
X384725Y259155D01*
X384863Y259358D01*
X384896Y259423D01*
X384936Y259484D01*
X385041Y259706D01*
X385153Y259926D01*
X385177Y259994D01*
X385209Y260060D01*
X385285Y260294D01*
X385369Y260525D01*
X385385Y260596D01*
X385408Y260665D01*
X385454Y260907D01*
X385508Y261147D01*
X385515Y261219D01*
X385529Y261291D01*
X385544Y261522D01*
X385569Y261781D01*
X385566Y261864D01*
X385571Y261945D01*
X385571Y269901D01*
X385567Y269974D01*
X385569Y270047D01*
X385547Y270292D01*
X385531Y270537D01*
X385518Y270609D01*
X385511Y270681D01*
X385458Y270922D01*
X385412Y271163D01*
X385390Y271232D01*
X385374Y271304D01*
X385291Y271535D01*
X385215Y271769D01*
X385184Y271835D01*
X385160Y271904D01*
X385049Y272123D01*
X384944Y272346D01*
X384905Y272407D01*
X384872Y272472D01*
X384735Y272676D01*
X384603Y272884D01*
X384557Y272940D01*
X384516Y273000D01*
X384363Y273174D01*
X384198Y273375D01*
X384137Y273432D01*
X384084Y273493D01*
X381036Y276541D01*
X380858Y276697D01*
X380686Y276860D01*
X380619Y276908D01*
X380558Y276962D01*
X380362Y277095D01*
X380170Y277235D01*
X380099Y277274D01*
X380031Y277320D01*
X379820Y277428D01*
X379613Y277542D01*
X379536Y277573D01*
X379463Y277610D01*
X379241Y277690D01*
X379020Y277778D01*
X378941Y277798D01*
X378864Y277826D01*
X378633Y277878D01*
X378404Y277937D01*
X378322Y277947D01*
X378242Y277965D01*
X378007Y277988D01*
X377772Y278018D01*
X377689Y278018D01*
X377608Y278026D01*
X377372Y278019D01*
X377134Y278019D01*
X377053Y278009D01*
X376971Y278006D01*
X376737Y277970D01*
X376502Y277940D01*
X376423Y277920D01*
X376342Y277907D01*
X376114Y277842D01*
X375885Y277783D01*
X375808Y277753D01*
X375730Y277730D01*
X375512Y277637D01*
X375292Y277550D01*
X375220Y277511D01*
X375145Y277478D01*
X374941Y277358D01*
X374733Y277244D01*
X374666Y277196D01*
X374596Y277155D01*
X374409Y277010D01*
X374216Y276871D01*
X374156Y276815D01*
X374092Y276765D01*
X373924Y276598D01*
X373751Y276436D01*
X373698Y276373D01*
X373640Y276315D01*
X373495Y276128D01*
X373343Y275946D01*
X373299Y275877D01*
X373249Y275813D01*
X373128Y275609D01*
X373000Y275410D01*
X372965Y275335D01*
X372923Y275265D01*
X372829Y275048D01*
X372727Y274834D01*
X372702Y274756D01*
X372669Y274681D01*
X372602Y274453D01*
X372528Y274229D01*
X372513Y274148D01*
X372490Y274069D01*
X372452Y273835D01*
X372407Y273603D01*
X372402Y273523D01*
X372389Y273440D01*
X372380Y273180D01*
X372365Y272949D01*
X372365Y269262D01*
X368299Y265197D01*
X368299Y273050D01*
X368290Y273204D01*
X368290Y273359D01*
X368270Y273522D01*
X368259Y273686D01*
X368230Y273837D01*
X368211Y273991D01*
X368171Y274151D01*
X368140Y274311D01*
X368092Y274459D01*
X368054Y274609D01*
X367994Y274761D01*
X367944Y274917D01*
X367878Y275058D01*
X367821Y275202D01*
X367742Y275346D01*
X367673Y275494D01*
X367590Y275625D01*
X367515Y275761D01*
X367419Y275894D01*
X367331Y276032D01*
X367233Y276152D01*
X367142Y276277D01*
X367030Y276397D01*
X366926Y276523D01*
X366925Y276524D01*
X366813Y276630D01*
X366707Y276743D01*
X366581Y276848D01*
X366461Y276961D01*
X366336Y277052D01*
X366217Y277151D01*
X366079Y277239D01*
X365946Y277336D01*
X365811Y277410D01*
X365680Y277494D01*
X365532Y277564D01*
X365388Y277643D01*
X365244Y277700D01*
X365104Y277767D01*
X364948Y277818D01*
X364796Y277879D01*
X364646Y277917D01*
X364499Y277966D01*
X364338Y277997D01*
X364179Y278038D01*
X364026Y278058D01*
X363874Y278087D01*
X363715Y278097D01*
X363547Y278119D01*
X363379Y278119D01*
X363220Y278129D01*
X353749Y278129D01*
X353719Y278220D01*
X353654Y278360D01*
X353597Y278504D01*
X353518Y278648D01*
X353448Y278796D01*
X353366Y278927D01*
X353291Y279063D01*
X353195Y279196D01*
X353107Y279335D01*
X353009Y279454D01*
X352918Y279580D01*
X352806Y279699D01*
X352702Y279826D01*
X352589Y279932D01*
X352483Y280045D01*
X352357Y280150D01*
X352238Y280262D01*
X352112Y280354D01*
X351993Y280453D01*
X351855Y280541D01*
X351723Y280637D01*
X351587Y280712D01*
X351456Y280796D01*
X351308Y280866D01*
X351165Y280945D01*
X351021Y281002D01*
X350881Y281069D01*
X350725Y281120D01*
X350572Y281180D01*
X350422Y281219D01*
X350275Y281268D01*
X350114Y281299D01*
X349956Y281340D01*
X349802Y281359D01*
X349650Y281389D01*
X349491Y281399D01*
X349324Y281421D01*
X349155Y281421D01*
X348996Y281431D01*
X344328Y281431D01*
X342274Y282282D01*
X335111Y289446D01*
X335056Y289494D01*
X335006Y289547D01*
X334817Y289705D01*
X334633Y289867D01*
X334573Y289908D01*
X334516Y289955D01*
X334309Y290087D01*
X334106Y290225D01*
X334041Y290258D01*
X333979Y290298D01*
X333757Y290403D01*
X333538Y290515D01*
X333470Y290539D01*
X333404Y290571D01*
X333170Y290647D01*
X332939Y290731D01*
X332868Y290747D01*
X332798Y290770D01*
X332557Y290816D01*
X332317Y290870D01*
X332245Y290877D01*
X332173Y290891D01*
X331942Y290906D01*
X331683Y290931D01*
X331600Y290928D01*
X331519Y290933D01*
X317167Y290933D01*
X317094Y290929D01*
X317021Y290931D01*
X316776Y290909D01*
X316531Y290893D01*
X316459Y290880D01*
X316386Y290873D01*
X316146Y290820D01*
X315905Y290774D01*
X315835Y290751D01*
X315764Y290736D01*
X315533Y290653D01*
X315299Y290577D01*
X315233Y290546D01*
X315164Y290522D01*
X314945Y290411D01*
X314722Y290306D01*
X314661Y290267D01*
X314596Y290234D01*
X314392Y290097D01*
X314184Y289965D01*
X314128Y289919D01*
X314067Y289878D01*
X313894Y289725D01*
X313693Y289560D01*
X313636Y289499D01*
X313575Y289446D01*
X310341Y286211D01*
X301799Y286211D01*
X295759Y292251D01*
X295759Y300793D01*
X301799Y306833D01*
X310341Y306833D01*
X313575Y303598D01*
X313630Y303550D01*
X313680Y303497D01*
X313869Y303339D01*
X314053Y303177D01*
X314113Y303136D01*
X314170Y303089D01*
X314377Y302957D01*
X314580Y302819D01*
X314645Y302786D01*
X314706Y302746D01*
X314928Y302641D01*
X315148Y302529D01*
X315216Y302505D01*
X315282Y302473D01*
X315516Y302397D01*
X315747Y302313D01*
X315818Y302297D01*
X315887Y302274D01*
X316129Y302228D01*
X316369Y302174D01*
X316441Y302167D01*
X316513Y302153D01*
X316744Y302138D01*
X317003Y302113D01*
X317086Y302116D01*
X317167Y302111D01*
X336550Y302111D01*
X336705Y302120D01*
X336860Y302120D01*
X337022Y302140D01*
X337186Y302151D01*
X337338Y302180D01*
X337492Y302199D01*
X337651Y302239D01*
X337812Y302270D01*
X337959Y302318D01*
X338109Y302356D01*
X338262Y302416D01*
X338418Y302467D01*
X338558Y302532D01*
X338702Y302589D01*
X338846Y302668D01*
X338994Y302738D01*
X339125Y302820D01*
X339261Y302895D01*
X339394Y302991D01*
X339533Y303079D01*
X339652Y303177D01*
X339778Y303268D01*
X339897Y303380D01*
X340024Y303484D01*
X340130Y303597D01*
X340243Y303703D01*
X340348Y303829D01*
X340460Y303948D01*
X340552Y304074D01*
X340651Y304193D01*
X340739Y304331D01*
X340835Y304463D01*
X340910Y304599D01*
X340994Y304730D01*
X341064Y304878D01*
X341143Y305021D01*
X341200Y305165D01*
X341267Y305305D01*
X341318Y305461D01*
X341378Y305614D01*
X341417Y305764D01*
X341466Y305911D01*
X341497Y306072D01*
X341538Y306230D01*
X341557Y306384D01*
X341587Y306536D01*
X341597Y306695D01*
X341619Y306862D01*
X341619Y307031D01*
X341629Y307190D01*
X341629Y326124D01*
X343370Y330325D01*
X346585Y333540D01*
X350786Y335281D01*
X355334Y335281D01*
X357575Y334353D01*
X357683Y334316D01*
X357787Y334270D01*
X357984Y334212D01*
X358177Y334146D01*
X358289Y334123D01*
X358398Y334091D01*
X358601Y334058D01*
X358801Y334017D01*
X358915Y334008D01*
X359027Y333990D01*
X359232Y333983D01*
X359436Y333967D01*
X359550Y333972D01*
X359664Y333968D01*
X359868Y333987D01*
X360073Y333996D01*
X360185Y334016D01*
X360299Y334026D01*
X360499Y334070D01*
X360701Y334105D01*
X360810Y334139D01*
X360921Y334163D01*
X361114Y334232D01*
X361310Y334292D01*
X361414Y334339D01*
X361521Y334377D01*
X361704Y334470D01*
X361891Y334554D01*
X361988Y334613D01*
X362090Y334665D01*
X362259Y334779D01*
X362434Y334886D01*
X362523Y334957D01*
X362618Y335021D01*
X362766Y335151D01*
X362932Y335284D01*
X363020Y335374D01*
X363110Y335454D01*
X365595Y337938D01*
X365751Y338116D01*
X365914Y338288D01*
X365962Y338355D01*
X366016Y338416D01*
X366149Y338612D01*
X366289Y338804D01*
X366328Y338875D01*
X366374Y338943D01*
X366482Y339154D01*
X366596Y339361D01*
X366627Y339438D01*
X366664Y339511D01*
X366744Y339734D01*
X366832Y339954D01*
X366852Y340033D01*
X366880Y340110D01*
X366932Y340341D01*
X366991Y340570D01*
X367001Y340652D01*
X367019Y340732D01*
X367042Y340967D01*
X367072Y341202D01*
X367072Y341285D01*
X367080Y341366D01*
X367073Y341602D01*
X367073Y341840D01*
X367063Y341921D01*
X367060Y342003D01*
X367024Y342237D01*
X366994Y342472D01*
X366974Y342551D01*
X366961Y342632D01*
X366896Y342860D01*
X366837Y343089D01*
X366807Y343165D01*
X366784Y343244D01*
X366691Y343462D01*
X366604Y343682D01*
X366565Y343754D01*
X366532Y343829D01*
X366412Y344033D01*
X366298Y344241D01*
X366250Y344308D01*
X366209Y344378D01*
X366064Y344566D01*
X365925Y344758D01*
X365869Y344817D01*
X365819Y344882D01*
X365652Y345050D01*
X365490Y345223D01*
X365427Y345276D01*
X365369Y345334D01*
X365182Y345479D01*
X365000Y345631D01*
X364931Y345675D01*
X364867Y345725D01*
X364663Y345846D01*
X364464Y345974D01*
X364389Y346009D01*
X364319Y346051D01*
X364102Y346145D01*
X363888Y346247D01*
X363810Y346272D01*
X363735Y346305D01*
X363507Y346372D01*
X363283Y346446D01*
X363202Y346461D01*
X363123Y346484D01*
X362890Y346522D01*
X362657Y346567D01*
X362577Y346572D01*
X362494Y346585D01*
X362234Y346594D01*
X362003Y346609D01*
X54011Y346609D01*
X53829Y346598D01*
X53647Y346596D01*
X53512Y346578D01*
X53375Y346569D01*
X53196Y346535D01*
X53016Y346511D01*
X52884Y346476D01*
X52749Y346450D01*
X52576Y346394D01*
X52400Y346347D01*
X52273Y346296D01*
X52143Y346253D01*
X51978Y346176D01*
X51810Y346107D01*
X51690Y346041D01*
X51567Y345982D01*
X51413Y345885D01*
X51254Y345796D01*
X51144Y345715D01*
X51029Y345641D01*
X50888Y345525D01*
X50742Y345417D01*
X50643Y345323D01*
X50537Y345236D01*
X50412Y345103D01*
X50281Y344977D01*
X50194Y344871D01*
X50101Y344772D01*
X49994Y344624D01*
X49878Y344483D01*
X49806Y344367D01*
X49726Y344257D01*
X49638Y344097D01*
X49541Y343942D01*
X49484Y343818D01*
X49418Y343699D01*
X49351Y343529D01*
X49274Y343364D01*
X49233Y343233D01*
X49183Y343106D01*
X49137Y342930D01*
X49082Y342756D01*
X49057Y342622D01*
X49023Y342490D01*
X49000Y342309D01*
X48967Y342130D01*
X48960Y341993D01*
X48942Y341858D01*
X48942Y341675D01*
X48932Y341493D01*
X48942Y341357D01*
X48941Y341220D01*
X48964Y341040D01*
X48977Y340858D01*
X49003Y340727D01*
X49020Y340588D01*
X49069Y340397D01*
X49105Y340215D01*
X50561Y334782D01*
X50561Y328158D01*
X48846Y321758D01*
X45534Y316021D01*
X40849Y311336D01*
X35112Y308024D01*
X28712Y306309D01*
X22088Y306309D01*
X16555Y307792D01*
X16376Y307828D01*
X16200Y307873D01*
X16064Y307891D01*
X15930Y307918D01*
X15748Y307931D01*
X15568Y307954D01*
X15431Y307955D01*
X15295Y307965D01*
X15113Y307955D01*
X14930Y307955D01*
X14795Y307939D01*
X14658Y307931D01*
X14479Y307899D01*
X14298Y307877D01*
X14166Y307843D01*
X14031Y307819D01*
X13857Y307765D01*
X13681Y307720D01*
X13554Y307670D01*
X13423Y307629D01*
X13258Y307553D01*
X13088Y307486D01*
X12968Y307421D01*
X12844Y307364D01*
X12689Y307268D01*
X12529Y307181D01*
X12418Y307101D01*
X12302Y307029D01*
X12160Y306914D01*
X12012Y306808D01*
X11913Y306714D01*
X11806Y306628D01*
X11680Y306497D01*
X11547Y306373D01*
X11459Y306268D01*
X11365Y306169D01*
X11256Y306023D01*
X11139Y305883D01*
X11066Y305768D01*
X10984Y305658D01*
X10894Y305499D01*
X10796Y305346D01*
X10738Y305222D01*
X10671Y305103D01*
X10602Y304935D01*
X10523Y304770D01*
X10481Y304640D01*
X10429Y304514D01*
X10381Y304338D01*
X10324Y304165D01*
X10298Y304031D01*
X10263Y303899D01*
X10238Y303719D01*
X10203Y303539D01*
X10194Y303406D01*
X10175Y303268D01*
X10173Y303070D01*
X10161Y302886D01*
X10161Y53984D01*
X10172Y53803D01*
X10174Y53620D01*
X10192Y53485D01*
X10201Y53348D01*
X10235Y53170D01*
X10259Y52989D01*
X10294Y52857D01*
X10320Y52723D01*
X10376Y52549D01*
X10423Y52373D01*
X10474Y52247D01*
X10517Y52117D01*
X10594Y51951D01*
X10663Y51783D01*
X10729Y51664D01*
X10788Y51540D01*
X10885Y51386D01*
X10974Y51227D01*
X11055Y51117D01*
X11129Y51002D01*
X11245Y50861D01*
X11353Y50715D01*
X11447Y50616D01*
X11534Y50511D01*
X11667Y50386D01*
X11793Y50254D01*
X11899Y50168D01*
X11998Y50074D01*
X12146Y49967D01*
X12287Y49852D01*
X12403Y49779D01*
X12513Y49699D01*
X12673Y49611D01*
X12828Y49515D01*
X12952Y49457D01*
X13071Y49391D01*
X13241Y49324D01*
X13406Y49248D01*
X13537Y49206D01*
X13664Y49156D01*
X13840Y49110D01*
X14014Y49055D01*
X14148Y49031D01*
X14280Y48997D01*
X14461Y48973D01*
X14640Y48941D01*
X14777Y48933D01*
X14912Y48916D01*
X15095Y48915D01*
X15277Y48905D01*
X15413Y48915D01*
X15550Y48915D01*
X15730Y48937D01*
X15912Y48950D01*
X16043Y48976D01*
X16182Y48993D01*
X16373Y49042D01*
X16555Y49078D01*
X22088Y50561D01*
X28712Y50561D01*
X35112Y48846D01*
X40849Y45534D01*
X45534Y40849D01*
X48846Y35112D01*
X50561Y28712D01*
X50561Y22088D01*
X49078Y16555D01*
X49042Y16376D01*
X48997Y16200D01*
X48979Y16064D01*
X48952Y15930D01*
X48939Y15748D01*
X48916Y15568D01*
X48915Y15431D01*
X48905Y15295D01*
X48915Y15113D01*
X48915Y14930D01*
X48931Y14795D01*
X48939Y14658D01*
X48971Y14479D01*
X48993Y14298D01*
X49027Y14166D01*
X49051Y14031D01*
X49105Y13857D01*
X49150Y13681D01*
X49200Y13554D01*
X49241Y13423D01*
X49317Y13258D01*
X49384Y13088D01*
X49449Y12968D01*
X49506Y12844D01*
X49602Y12689D01*
X49689Y12529D01*
X49769Y12418D01*
X49841Y12302D01*
X49956Y12160D01*
X50062Y12012D01*
X50156Y11913D01*
X50242Y11806D01*
X50373Y11680D01*
X50497Y11547D01*
X50602Y11459D01*
X50701Y11365D01*
X50847Y11256D01*
X50987Y11139D01*
X51102Y11066D01*
X51212Y10984D01*
X51371Y10894D01*
X51524Y10796D01*
X51648Y10738D01*
X51767Y10671D01*
X51935Y10602D01*
X52100Y10523D01*
X52230Y10481D01*
X52356Y10429D01*
X52532Y10381D01*
X52705Y10324D01*
X52839Y10298D01*
X52971Y10263D01*
X53151Y10238D01*
X53331Y10203D01*
X53464Y10194D01*
X53602Y10175D01*
X53800Y10173D01*
X53984Y10161D01*
X212357Y10161D01*
X212593Y10176D01*
G37*
G36*
X982361Y10176D02*
X982361Y10176D01*
X982597Y10183D01*
X982678Y10196D01*
X982760Y10201D01*
X982993Y10245D01*
X983227Y10282D01*
X983306Y10305D01*
X983386Y10320D01*
X983611Y10393D01*
X983839Y10459D01*
X983914Y10491D01*
X983992Y10517D01*
X984207Y10617D01*
X984424Y10711D01*
X984494Y10753D01*
X984569Y10788D01*
X984769Y10914D01*
X984973Y11035D01*
X985038Y11085D01*
X985107Y11129D01*
X985290Y11280D01*
X985477Y11424D01*
X985535Y11482D01*
X985598Y11534D01*
X985760Y11707D01*
X985928Y11874D01*
X985978Y11939D01*
X986035Y11998D01*
X986174Y12190D01*
X986320Y12377D01*
X986362Y12447D01*
X986410Y12513D01*
X986524Y12721D01*
X986645Y12925D01*
X986678Y13000D01*
X986717Y13071D01*
X986805Y13291D01*
X986899Y13509D01*
X986922Y13587D01*
X986953Y13664D01*
X987012Y13893D01*
X987078Y14120D01*
X987091Y14201D01*
X987112Y14280D01*
X987142Y14516D01*
X987180Y14749D01*
X987182Y14831D01*
X987193Y14912D01*
X987193Y15150D01*
X987201Y15386D01*
X987194Y15468D01*
X987194Y15550D01*
X987165Y15785D01*
X987143Y16020D01*
X987126Y16100D01*
X987115Y16182D01*
X987057Y16412D01*
X987006Y16643D01*
X986978Y16720D01*
X986958Y16799D01*
X986871Y17020D01*
X986792Y17243D01*
X986755Y17316D01*
X986725Y17392D01*
X986611Y17600D01*
X986505Y17811D01*
X986459Y17879D01*
X986419Y17951D01*
X986281Y18143D01*
X986148Y18339D01*
X986095Y18400D01*
X986046Y18468D01*
X985869Y18658D01*
X985716Y18832D01*
X985706Y18841D01*
X982394Y24578D01*
X980679Y30978D01*
X980679Y37602D01*
X982394Y44002D01*
X985706Y49739D01*
X990391Y54424D01*
X996128Y57736D01*
X1002528Y59451D01*
X1009152Y59451D01*
X1015552Y57736D01*
X1020320Y54983D01*
X1020508Y54890D01*
X1020691Y54789D01*
X1020793Y54748D01*
X1020891Y54700D01*
X1021089Y54631D01*
X1021284Y54553D01*
X1021389Y54526D01*
X1021493Y54490D01*
X1021698Y54446D01*
X1021900Y54394D01*
X1022009Y54380D01*
X1022116Y54357D01*
X1022324Y54340D01*
X1022532Y54313D01*
X1022642Y54313D01*
X1022751Y54304D01*
X1022960Y54312D01*
X1023170Y54312D01*
X1023278Y54325D01*
X1023387Y54330D01*
X1023594Y54365D01*
X1023802Y54390D01*
X1023908Y54417D01*
X1024016Y54436D01*
X1024216Y54496D01*
X1024419Y54548D01*
X1024521Y54588D01*
X1024626Y54619D01*
X1024817Y54704D01*
X1025012Y54781D01*
X1025108Y54833D01*
X1025208Y54878D01*
X1025387Y54986D01*
X1025571Y55086D01*
X1025660Y55151D01*
X1025753Y55207D01*
X1025918Y55337D01*
X1026088Y55460D01*
X1026168Y55534D01*
X1026253Y55602D01*
X1026400Y55752D01*
X1026553Y55895D01*
X1026623Y55979D01*
X1026700Y56057D01*
X1026827Y56223D01*
X1026961Y56384D01*
X1027020Y56477D01*
X1027086Y56564D01*
X1027191Y56745D01*
X1027304Y56921D01*
X1027351Y57020D01*
X1027405Y57115D01*
X1027487Y57307D01*
X1027577Y57497D01*
X1027611Y57601D01*
X1027653Y57702D01*
X1027710Y57903D01*
X1027776Y58102D01*
X1027796Y58210D01*
X1027826Y58315D01*
X1027857Y58522D01*
X1027897Y58728D01*
X1027904Y58835D01*
X1027920Y58945D01*
X1027926Y59172D01*
X1027939Y59382D01*
X1027939Y129427D01*
X1027924Y129664D01*
X1027917Y129900D01*
X1027904Y129981D01*
X1027899Y130063D01*
X1027855Y130296D01*
X1027818Y130530D01*
X1027795Y130609D01*
X1027780Y130689D01*
X1027707Y130914D01*
X1027641Y131142D01*
X1027609Y131217D01*
X1027583Y131295D01*
X1027483Y131509D01*
X1027389Y131727D01*
X1027347Y131797D01*
X1027312Y131872D01*
X1027186Y132072D01*
X1027065Y132276D01*
X1027015Y132341D01*
X1026971Y132410D01*
X1026821Y132592D01*
X1026676Y132780D01*
X1026618Y132838D01*
X1026566Y132901D01*
X1026393Y133063D01*
X1026226Y133231D01*
X1026161Y133281D01*
X1026102Y133338D01*
X1025910Y133477D01*
X1025723Y133623D01*
X1025653Y133664D01*
X1025587Y133713D01*
X1025379Y133827D01*
X1025175Y133948D01*
X1025100Y133981D01*
X1025029Y134020D01*
X1024809Y134108D01*
X1024591Y134202D01*
X1024512Y134225D01*
X1024436Y134256D01*
X1024207Y134315D01*
X1023980Y134381D01*
X1023899Y134394D01*
X1023820Y134415D01*
X1023584Y134445D01*
X1023351Y134483D01*
X1023269Y134485D01*
X1023188Y134496D01*
X1022950Y134496D01*
X1022714Y134504D01*
X1022632Y134497D01*
X1022550Y134497D01*
X1022315Y134468D01*
X1022080Y134446D01*
X1022000Y134429D01*
X1021918Y134418D01*
X1021688Y134360D01*
X1021457Y134309D01*
X1021380Y134281D01*
X1021301Y134261D01*
X1021080Y134174D01*
X1020857Y134095D01*
X1020784Y134058D01*
X1020708Y134028D01*
X1020500Y133914D01*
X1020289Y133808D01*
X1020221Y133762D01*
X1020149Y133722D01*
X1019957Y133583D01*
X1019761Y133451D01*
X1019700Y133398D01*
X1019632Y133349D01*
X1019442Y133172D01*
X1019268Y133019D01*
X1018969Y132719D01*
X1017318Y131452D01*
X1015516Y130412D01*
X1013593Y129616D01*
X1013558Y129606D01*
X1013558Y144681D01*
X1013558Y159756D01*
X1013593Y159746D01*
X1015516Y158950D01*
X1017318Y157910D01*
X1018969Y156643D01*
X1019268Y156343D01*
X1019446Y156186D01*
X1019618Y156024D01*
X1019685Y155976D01*
X1019746Y155922D01*
X1019943Y155788D01*
X1020134Y155649D01*
X1020205Y155610D01*
X1020273Y155564D01*
X1020485Y155456D01*
X1020691Y155342D01*
X1020768Y155312D01*
X1020841Y155274D01*
X1021064Y155194D01*
X1021284Y155106D01*
X1021363Y155086D01*
X1021440Y155058D01*
X1021671Y155006D01*
X1021900Y154947D01*
X1021982Y154937D01*
X1022062Y154919D01*
X1022297Y154896D01*
X1022532Y154866D01*
X1022615Y154866D01*
X1022696Y154858D01*
X1022932Y154865D01*
X1023170Y154865D01*
X1023251Y154875D01*
X1023333Y154878D01*
X1023566Y154914D01*
X1023802Y154944D01*
X1023881Y154964D01*
X1023962Y154977D01*
X1024190Y155042D01*
X1024419Y155101D01*
X1024496Y155131D01*
X1024574Y155154D01*
X1024791Y155247D01*
X1025012Y155334D01*
X1025084Y155373D01*
X1025159Y155406D01*
X1025363Y155526D01*
X1025571Y155640D01*
X1025638Y155688D01*
X1025708Y155729D01*
X1025895Y155874D01*
X1026088Y156013D01*
X1026147Y156069D01*
X1026212Y156119D01*
X1026380Y156286D01*
X1026553Y156448D01*
X1026606Y156511D01*
X1026664Y156569D01*
X1026809Y156756D01*
X1026961Y156938D01*
X1027005Y157007D01*
X1027055Y157071D01*
X1027176Y157275D01*
X1027304Y157475D01*
X1027339Y157548D01*
X1027381Y157619D01*
X1027475Y157836D01*
X1027577Y158050D01*
X1027602Y158128D01*
X1027635Y158203D01*
X1027702Y158430D01*
X1027776Y158656D01*
X1027791Y158736D01*
X1027814Y158815D01*
X1027852Y159048D01*
X1027897Y159281D01*
X1027902Y159361D01*
X1027915Y159444D01*
X1027924Y159703D01*
X1027939Y159935D01*
X1027939Y180425D01*
X1027924Y180661D01*
X1027917Y180898D01*
X1027904Y180979D01*
X1027899Y181061D01*
X1027855Y181294D01*
X1027818Y181528D01*
X1027795Y181607D01*
X1027780Y181687D01*
X1027707Y181912D01*
X1027641Y182140D01*
X1027609Y182215D01*
X1027583Y182293D01*
X1027483Y182507D01*
X1027389Y182725D01*
X1027347Y182795D01*
X1027312Y182870D01*
X1027186Y183070D01*
X1027065Y183274D01*
X1027015Y183339D01*
X1026971Y183408D01*
X1026821Y183590D01*
X1026676Y183778D01*
X1026618Y183836D01*
X1026566Y183899D01*
X1026393Y184061D01*
X1026226Y184229D01*
X1026161Y184279D01*
X1026102Y184336D01*
X1025910Y184475D01*
X1025723Y184621D01*
X1025653Y184662D01*
X1025587Y184711D01*
X1025379Y184825D01*
X1025175Y184946D01*
X1025100Y184979D01*
X1025029Y185018D01*
X1024809Y185106D01*
X1024591Y185200D01*
X1024512Y185223D01*
X1024436Y185254D01*
X1024207Y185313D01*
X1023980Y185379D01*
X1023899Y185392D01*
X1023820Y185413D01*
X1023584Y185443D01*
X1023351Y185481D01*
X1023269Y185483D01*
X1023188Y185494D01*
X1022950Y185494D01*
X1022714Y185502D01*
X1022632Y185495D01*
X1022550Y185495D01*
X1022315Y185466D01*
X1022080Y185444D01*
X1022000Y185427D01*
X1021918Y185416D01*
X1021688Y185358D01*
X1021457Y185307D01*
X1021380Y185279D01*
X1021301Y185259D01*
X1021080Y185172D01*
X1020857Y185093D01*
X1020784Y185056D01*
X1020708Y185026D01*
X1020500Y184912D01*
X1020289Y184806D01*
X1020221Y184760D01*
X1020149Y184720D01*
X1019957Y184581D01*
X1019761Y184449D01*
X1019700Y184396D01*
X1019632Y184347D01*
X1019442Y184170D01*
X1019268Y184017D01*
X1018969Y183717D01*
X1017318Y182450D01*
X1015516Y181410D01*
X1013593Y180614D01*
X1013558Y180604D01*
X1013558Y195679D01*
X1013558Y210754D01*
X1013593Y210744D01*
X1015516Y209948D01*
X1017318Y208908D01*
X1018969Y207641D01*
X1019268Y207341D01*
X1019446Y207184D01*
X1019618Y207022D01*
X1019685Y206974D01*
X1019746Y206920D01*
X1019943Y206786D01*
X1020134Y206647D01*
X1020205Y206608D01*
X1020273Y206562D01*
X1020485Y206454D01*
X1020691Y206340D01*
X1020768Y206310D01*
X1020841Y206272D01*
X1021064Y206192D01*
X1021284Y206104D01*
X1021363Y206084D01*
X1021440Y206056D01*
X1021671Y206004D01*
X1021900Y205945D01*
X1021982Y205935D01*
X1022062Y205917D01*
X1022297Y205894D01*
X1022532Y205864D01*
X1022615Y205864D01*
X1022696Y205856D01*
X1022932Y205863D01*
X1023170Y205863D01*
X1023251Y205873D01*
X1023333Y205876D01*
X1023566Y205912D01*
X1023802Y205942D01*
X1023881Y205962D01*
X1023962Y205975D01*
X1024190Y206040D01*
X1024419Y206099D01*
X1024496Y206129D01*
X1024574Y206152D01*
X1024791Y206245D01*
X1025012Y206332D01*
X1025084Y206371D01*
X1025159Y206404D01*
X1025363Y206524D01*
X1025571Y206638D01*
X1025638Y206686D01*
X1025708Y206727D01*
X1025896Y206872D01*
X1026088Y207011D01*
X1026147Y207067D01*
X1026212Y207117D01*
X1026380Y207284D01*
X1026553Y207446D01*
X1026606Y207509D01*
X1026664Y207567D01*
X1026809Y207754D01*
X1026961Y207936D01*
X1027005Y208005D01*
X1027055Y208069D01*
X1027176Y208273D01*
X1027304Y208473D01*
X1027339Y208546D01*
X1027381Y208617D01*
X1027475Y208834D01*
X1027577Y209048D01*
X1027602Y209126D01*
X1027635Y209201D01*
X1027702Y209428D01*
X1027776Y209654D01*
X1027791Y209734D01*
X1027814Y209813D01*
X1027852Y210046D01*
X1027897Y210279D01*
X1027902Y210359D01*
X1027915Y210442D01*
X1027924Y210701D01*
X1027939Y210933D01*
X1027939Y302682D01*
X1027928Y302864D01*
X1027926Y303046D01*
X1027908Y303182D01*
X1027899Y303318D01*
X1027865Y303497D01*
X1027841Y303677D01*
X1027806Y303810D01*
X1027780Y303944D01*
X1027724Y304117D01*
X1027677Y304293D01*
X1027626Y304420D01*
X1027583Y304550D01*
X1027506Y304715D01*
X1027437Y304884D01*
X1027371Y305003D01*
X1027312Y305126D01*
X1027215Y305280D01*
X1027126Y305439D01*
X1027045Y305549D01*
X1026971Y305665D01*
X1026855Y305805D01*
X1026747Y305952D01*
X1026653Y306050D01*
X1026566Y306156D01*
X1026433Y306281D01*
X1026307Y306413D01*
X1026201Y306499D01*
X1026102Y306592D01*
X1025954Y306700D01*
X1025813Y306815D01*
X1025697Y306887D01*
X1025587Y306967D01*
X1025427Y307055D01*
X1025272Y307152D01*
X1025148Y307209D01*
X1025029Y307275D01*
X1024859Y307342D01*
X1024694Y307419D01*
X1024563Y307460D01*
X1024436Y307510D01*
X1024260Y307556D01*
X1024086Y307611D01*
X1023952Y307636D01*
X1023820Y307670D01*
X1023639Y307693D01*
X1023460Y307726D01*
X1023323Y307733D01*
X1023188Y307751D01*
X1023005Y307751D01*
X1022823Y307761D01*
X1022687Y307752D01*
X1022550Y307752D01*
X1022370Y307729D01*
X1022188Y307717D01*
X1022057Y307690D01*
X1021918Y307673D01*
X1021727Y307624D01*
X1021545Y307588D01*
X1016772Y306309D01*
X1010148Y306309D01*
X1003748Y308024D01*
X998011Y311336D01*
X993326Y316021D01*
X990014Y321758D01*
X988299Y328158D01*
X988299Y334782D01*
X989755Y340215D01*
X989791Y340394D01*
X989837Y340570D01*
X989854Y340706D01*
X989881Y340840D01*
X989894Y341022D01*
X989918Y341202D01*
X989918Y341339D01*
X989928Y341475D01*
X989918Y341657D01*
X989919Y341840D01*
X989902Y341975D01*
X989895Y342112D01*
X989863Y342291D01*
X989840Y342472D01*
X989806Y342604D01*
X989782Y342739D01*
X989728Y342913D01*
X989683Y343089D01*
X989633Y343216D01*
X989592Y343347D01*
X989516Y343512D01*
X989450Y343682D01*
X989384Y343802D01*
X989327Y343926D01*
X989232Y344081D01*
X989144Y344241D01*
X989064Y344352D01*
X988992Y344468D01*
X988878Y344610D01*
X988771Y344758D01*
X988678Y344857D01*
X988592Y344964D01*
X988460Y345090D01*
X988336Y345223D01*
X988231Y345311D01*
X988132Y345405D01*
X987986Y345514D01*
X987846Y345631D01*
X987731Y345704D01*
X987621Y345786D01*
X987463Y345875D01*
X987309Y345974D01*
X987186Y346032D01*
X987067Y346099D01*
X986898Y346169D01*
X986733Y346247D01*
X986603Y346289D01*
X986477Y346341D01*
X986301Y346389D01*
X986128Y346446D01*
X985994Y346472D01*
X985862Y346507D01*
X985682Y346532D01*
X985503Y346567D01*
X985369Y346576D01*
X985231Y346595D01*
X985033Y346597D01*
X984849Y346609D01*
X831797Y346609D01*
X831561Y346594D01*
X831324Y346587D01*
X831243Y346574D01*
X831161Y346569D01*
X830929Y346525D01*
X830694Y346488D01*
X830616Y346465D01*
X830535Y346450D01*
X830310Y346377D01*
X830082Y346311D01*
X830007Y346279D01*
X829929Y346253D01*
X829715Y346153D01*
X829497Y346059D01*
X829427Y346017D01*
X829352Y345982D01*
X829152Y345856D01*
X828948Y345735D01*
X828884Y345685D01*
X828814Y345641D01*
X828632Y345490D01*
X828444Y345346D01*
X828386Y345288D01*
X828323Y345236D01*
X828161Y345063D01*
X827993Y344896D01*
X827943Y344831D01*
X827886Y344772D01*
X827747Y344580D01*
X827602Y344393D01*
X827560Y344323D01*
X827511Y344257D01*
X827397Y344049D01*
X827276Y343846D01*
X827243Y343771D01*
X827204Y343699D01*
X827116Y343478D01*
X827022Y343261D01*
X826999Y343183D01*
X826968Y343106D01*
X826909Y342877D01*
X826843Y342650D01*
X826830Y342569D01*
X826809Y342490D01*
X826779Y342255D01*
X826741Y342021D01*
X826739Y341939D01*
X826728Y341858D01*
X826728Y341621D01*
X826720Y341384D01*
X826727Y341303D01*
X826727Y341220D01*
X826756Y340985D01*
X826778Y340750D01*
X826795Y340670D01*
X826806Y340588D01*
X826864Y340358D01*
X826915Y340128D01*
X826942Y340050D01*
X826963Y339971D01*
X827050Y339750D01*
X827129Y339527D01*
X827166Y339454D01*
X827196Y339378D01*
X827310Y339169D01*
X827416Y338959D01*
X827462Y338891D01*
X827502Y338819D01*
X827641Y338627D01*
X827773Y338431D01*
X827826Y338370D01*
X827875Y338302D01*
X828053Y338112D01*
X828205Y337938D01*
X841668Y324476D01*
X842519Y322422D01*
X842519Y272720D01*
X842531Y272525D01*
X842534Y272329D01*
X842551Y272207D01*
X842559Y272084D01*
X842595Y271892D01*
X842623Y271698D01*
X842655Y271579D01*
X842678Y271459D01*
X842738Y271272D01*
X842790Y271083D01*
X842837Y270970D01*
X842875Y270853D01*
X842958Y270675D01*
X843033Y270494D01*
X843093Y270387D01*
X843146Y270276D01*
X843250Y270111D01*
X843347Y269940D01*
X843421Y269842D01*
X843487Y269738D01*
X843612Y269587D01*
X843729Y269430D01*
X843814Y269341D01*
X843892Y269247D01*
X844035Y269112D01*
X844171Y268971D01*
X844267Y268894D01*
X844356Y268810D01*
X844515Y268695D01*
X844667Y268572D01*
X844772Y268507D01*
X844871Y268435D01*
X845043Y268340D01*
X845210Y268237D01*
X845322Y268187D01*
X845429Y268127D01*
X845611Y268055D01*
X845790Y267974D01*
X845907Y267937D01*
X846022Y267892D01*
X846211Y267843D01*
X846398Y267785D01*
X846519Y267763D01*
X846638Y267733D01*
X846833Y267708D01*
X847026Y267673D01*
X847148Y267667D01*
X847270Y267652D01*
X847467Y267651D01*
X847662Y267641D01*
X847784Y267651D01*
X847908Y267651D01*
X848102Y267675D01*
X848297Y267689D01*
X848418Y267714D01*
X848540Y267729D01*
X848730Y267777D01*
X848922Y267817D01*
X849035Y267855D01*
X849157Y267886D01*
X849355Y267964D01*
X849492Y268011D01*
X869839Y268011D01*
X870795Y267615D01*
X871527Y266883D01*
X871923Y265927D01*
X871923Y260090D01*
X871932Y259935D01*
X871932Y259780D01*
X871952Y259618D01*
X871963Y259454D01*
X871992Y259302D01*
X872011Y259148D01*
X872051Y258989D01*
X872082Y258828D01*
X872130Y258681D01*
X872168Y258531D01*
X872228Y258378D01*
X872279Y258222D01*
X872344Y258082D01*
X872401Y257938D01*
X872480Y257794D01*
X872550Y257646D01*
X872632Y257515D01*
X872707Y257379D01*
X872803Y257246D01*
X872891Y257107D01*
X872989Y256988D01*
X873080Y256862D01*
X873192Y256743D01*
X873296Y256616D01*
X873409Y256510D01*
X873515Y256397D01*
X873641Y256292D01*
X873760Y256180D01*
X873886Y256088D01*
X874005Y255989D01*
X874143Y255901D01*
X874275Y255805D01*
X874411Y255730D01*
X874542Y255646D01*
X874690Y255576D01*
X874833Y255497D01*
X874977Y255440D01*
X875117Y255373D01*
X875273Y255322D01*
X875426Y255262D01*
X875576Y255223D01*
X875723Y255174D01*
X875884Y255143D01*
X876042Y255102D01*
X876196Y255083D01*
X876348Y255053D01*
X876507Y255043D01*
X876674Y255021D01*
X876843Y255021D01*
X877002Y255011D01*
X947891Y255011D01*
X951070Y253694D01*
X954218Y250546D01*
X990314Y214450D01*
X991772Y210930D01*
X991852Y210766D01*
X991923Y210598D01*
X991992Y210480D01*
X992052Y210357D01*
X992152Y210205D01*
X992244Y210047D01*
X992327Y209939D01*
X992402Y209825D01*
X992520Y209686D01*
X992631Y209541D01*
X992727Y209444D01*
X992816Y209340D01*
X992950Y209217D01*
X993078Y209088D01*
X993186Y209003D01*
X993287Y208911D01*
X993436Y208806D01*
X993579Y208693D01*
X993696Y208623D01*
X993808Y208544D01*
X993969Y208459D01*
X994125Y208365D01*
X994250Y208310D01*
X994370Y208246D01*
X994541Y208181D01*
X994708Y208108D01*
X994839Y208068D01*
X994966Y208020D01*
X995144Y207977D01*
X995318Y207925D01*
X995453Y207903D01*
X995586Y207871D01*
X995767Y207850D01*
X995947Y207821D01*
X996083Y207815D01*
X996219Y207800D01*
X996401Y207803D01*
X996583Y207795D01*
X996719Y207807D01*
X996856Y207809D01*
X997036Y207835D01*
X997218Y207850D01*
X997351Y207879D01*
X997487Y207898D01*
X997663Y207946D01*
X997841Y207984D01*
X997970Y208029D01*
X998102Y208065D01*
X998270Y208135D01*
X998442Y208195D01*
X998564Y208256D01*
X998691Y208308D01*
X998849Y208398D01*
X999012Y208479D01*
X999123Y208553D01*
X999245Y208622D01*
X999403Y208741D01*
X999557Y208844D01*
X999640Y208908D01*
X1001442Y209948D01*
X1003365Y210744D01*
X1003400Y210754D01*
X1003400Y195679D01*
X1003400Y180604D01*
X1003365Y180614D01*
X1001442Y181410D01*
X1001272Y181508D01*
X1001048Y181620D01*
X1000826Y181737D01*
X1000762Y181761D01*
X1000701Y181792D01*
X1000465Y181874D01*
X1000231Y181963D01*
X1000164Y181979D01*
X1000100Y182001D01*
X999855Y182054D01*
X999611Y182112D01*
X999543Y182120D01*
X999476Y182134D01*
X999227Y182155D01*
X998978Y182183D01*
X998909Y182182D01*
X998842Y182188D01*
X998592Y182177D01*
X998341Y182174D01*
X998273Y182164D01*
X998205Y182161D01*
X997958Y182120D01*
X997710Y182085D01*
X997644Y182067D01*
X997577Y182056D01*
X997337Y181984D01*
X997095Y181918D01*
X997032Y181892D01*
X996967Y181872D01*
X996738Y181771D01*
X996506Y181675D01*
X996447Y181641D01*
X996384Y181614D01*
X996169Y181484D01*
X995952Y181360D01*
X995898Y181320D01*
X995839Y181284D01*
X995642Y181129D01*
X995442Y180979D01*
X995393Y180932D01*
X995339Y180889D01*
X995163Y180710D01*
X994983Y180537D01*
X994940Y180483D01*
X994893Y180435D01*
X994741Y180236D01*
X994584Y180040D01*
X994548Y179982D01*
X994506Y179928D01*
X994381Y179711D01*
X994249Y179498D01*
X994221Y179436D01*
X994187Y179377D01*
X994089Y179146D01*
X993986Y178918D01*
X993966Y178853D01*
X993939Y178790D01*
X993871Y178548D01*
X993797Y178309D01*
X993785Y178242D01*
X993766Y178176D01*
X993729Y177928D01*
X993685Y177682D01*
X993682Y177614D01*
X993672Y177546D01*
X993666Y177295D01*
X993653Y177046D01*
X993658Y176978D01*
X993657Y176909D01*
X993682Y176660D01*
X993701Y176410D01*
X993715Y176343D01*
X993722Y176276D01*
X993778Y176031D01*
X993828Y175786D01*
X993850Y175723D01*
X993866Y175655D01*
X993962Y175393D01*
X994040Y175166D01*
X995106Y172592D01*
X995106Y167768D01*
X994040Y165194D01*
X993959Y164958D01*
X993871Y164723D01*
X993855Y164656D01*
X993833Y164591D01*
X993782Y164346D01*
X993725Y164102D01*
X993718Y164035D01*
X993704Y163968D01*
X993684Y163718D01*
X993658Y163469D01*
X993659Y163400D01*
X993654Y163332D01*
X993665Y163082D01*
X993670Y162832D01*
X993680Y162764D01*
X993683Y162696D01*
X993726Y162449D01*
X993762Y162201D01*
X993781Y162136D01*
X993792Y162068D01*
X993866Y161829D01*
X993933Y161587D01*
X993959Y161524D01*
X993979Y161459D01*
X994082Y161231D01*
X994179Y161000D01*
X994213Y160940D01*
X994241Y160878D01*
X994372Y160664D01*
X994496Y160447D01*
X994538Y160393D01*
X994573Y160335D01*
X994730Y160139D01*
X994881Y159939D01*
X994928Y159890D01*
X994971Y159837D01*
X995151Y159662D01*
X995326Y159483D01*
X995379Y159440D01*
X995428Y159393D01*
X995627Y159243D01*
X995824Y159086D01*
X995882Y159051D01*
X995937Y159010D01*
X996154Y158885D01*
X996368Y158755D01*
X996431Y158727D01*
X996490Y158693D01*
X996721Y158597D01*
X996950Y158494D01*
X997015Y158474D01*
X997078Y158448D01*
X997320Y158381D01*
X997559Y158309D01*
X997626Y158297D01*
X997692Y158279D01*
X997940Y158243D01*
X998187Y158201D01*
X998255Y158197D01*
X998323Y158188D01*
X998573Y158183D01*
X998823Y158172D01*
X998892Y158177D01*
X998960Y158176D01*
X999209Y158203D01*
X999459Y158223D01*
X999526Y158237D01*
X999593Y158245D01*
X999837Y158302D01*
X1000082Y158354D01*
X1000147Y158376D01*
X1000213Y158392D01*
X1000448Y158480D01*
X1000685Y158561D01*
X1000745Y158591D01*
X1000810Y158616D01*
X1001056Y158745D01*
X1001272Y158852D01*
X1001442Y158950D01*
X1003365Y159746D01*
X1003400Y159756D01*
X1003400Y149760D01*
X993404Y149760D01*
X993414Y149795D01*
X994210Y151718D01*
X994308Y151888D01*
X994420Y152112D01*
X994537Y152334D01*
X994561Y152398D01*
X994592Y152459D01*
X994674Y152695D01*
X994763Y152929D01*
X994779Y152996D01*
X994801Y153060D01*
X994854Y153305D01*
X994912Y153549D01*
X994920Y153617D01*
X994934Y153684D01*
X994955Y153933D01*
X994983Y154182D01*
X994982Y154251D01*
X994988Y154318D01*
X994977Y154568D01*
X994974Y154819D01*
X994964Y154887D01*
X994961Y154955D01*
X994920Y155202D01*
X994885Y155450D01*
X994867Y155516D01*
X994856Y155583D01*
X994784Y155823D01*
X994718Y156065D01*
X994692Y156128D01*
X994672Y156193D01*
X994571Y156422D01*
X994475Y156654D01*
X994441Y156713D01*
X994414Y156776D01*
X994284Y156991D01*
X994160Y157208D01*
X994120Y157262D01*
X994084Y157321D01*
X993929Y157518D01*
X993779Y157718D01*
X993732Y157767D01*
X993689Y157821D01*
X993510Y157997D01*
X993337Y158177D01*
X993283Y158220D01*
X993235Y158267D01*
X993036Y158419D01*
X992840Y158576D01*
X992782Y158612D01*
X992728Y158654D01*
X992511Y158779D01*
X992298Y158911D01*
X992236Y158939D01*
X992177Y158973D01*
X991946Y159071D01*
X991718Y159174D01*
X991653Y159194D01*
X991590Y159221D01*
X991348Y159289D01*
X991109Y159363D01*
X991042Y159375D01*
X990976Y159394D01*
X990728Y159431D01*
X990482Y159475D01*
X990414Y159478D01*
X990346Y159488D01*
X990096Y159494D01*
X989846Y159507D01*
X989778Y159502D01*
X989709Y159503D01*
X989460Y159478D01*
X989210Y159459D01*
X989143Y159445D01*
X989076Y159438D01*
X988831Y159382D01*
X988586Y159332D01*
X988523Y159310D01*
X988455Y159294D01*
X988193Y159198D01*
X987966Y159120D01*
X985392Y158054D01*
X980568Y158054D01*
X977994Y159120D01*
X977758Y159201D01*
X977523Y159289D01*
X977456Y159305D01*
X977391Y159327D01*
X977146Y159378D01*
X976902Y159435D01*
X976835Y159442D01*
X976768Y159456D01*
X976518Y159476D01*
X976269Y159502D01*
X976200Y159501D01*
X976132Y159506D01*
X975882Y159495D01*
X975632Y159490D01*
X975564Y159480D01*
X975496Y159477D01*
X975249Y159434D01*
X975001Y159398D01*
X974936Y159379D01*
X974868Y159368D01*
X974629Y159294D01*
X974387Y159227D01*
X974324Y159201D01*
X974259Y159181D01*
X974031Y159078D01*
X973800Y158981D01*
X973740Y158947D01*
X973678Y158919D01*
X973464Y158788D01*
X973247Y158664D01*
X973193Y158622D01*
X973135Y158587D01*
X972939Y158430D01*
X972739Y158279D01*
X972690Y158232D01*
X972637Y158189D01*
X972462Y158009D01*
X972283Y157834D01*
X972240Y157781D01*
X972193Y157732D01*
X972043Y157533D01*
X971886Y157336D01*
X971851Y157278D01*
X971810Y157223D01*
X971685Y157006D01*
X971555Y156792D01*
X971527Y156729D01*
X971493Y156670D01*
X971397Y156439D01*
X971294Y156210D01*
X971274Y156145D01*
X971248Y156082D01*
X971181Y155840D01*
X971109Y155601D01*
X971097Y155534D01*
X971079Y155468D01*
X971043Y155219D01*
X971001Y154973D01*
X970997Y154905D01*
X970988Y154837D01*
X970983Y154586D01*
X970972Y154337D01*
X970977Y154268D01*
X970976Y154200D01*
X971003Y153951D01*
X971023Y153701D01*
X971037Y153634D01*
X971045Y153567D01*
X971102Y153323D01*
X971154Y153078D01*
X971176Y153013D01*
X971192Y152947D01*
X971280Y152712D01*
X971361Y152475D01*
X971391Y152415D01*
X971416Y152350D01*
X971545Y152104D01*
X971652Y151888D01*
X971750Y151718D01*
X972546Y149795D01*
X972556Y149760D01*
X962560Y149760D01*
X962560Y159756D01*
X962595Y159746D01*
X964518Y158950D01*
X964688Y158852D01*
X964912Y158740D01*
X965134Y158623D01*
X965198Y158599D01*
X965259Y158568D01*
X965495Y158486D01*
X965729Y158397D01*
X965796Y158381D01*
X965860Y158359D01*
X966105Y158306D01*
X966349Y158248D01*
X966417Y158240D01*
X966484Y158226D01*
X966733Y158205D01*
X966982Y158177D01*
X967051Y158178D01*
X967118Y158172D01*
X967368Y158183D01*
X967619Y158186D01*
X967687Y158196D01*
X967755Y158199D01*
X968002Y158240D01*
X968250Y158275D01*
X968316Y158293D01*
X968383Y158304D01*
X968623Y158376D01*
X968865Y158442D01*
X968928Y158468D01*
X968993Y158488D01*
X969222Y158589D01*
X969454Y158685D01*
X969513Y158719D01*
X969576Y158746D01*
X969791Y158876D01*
X970008Y159000D01*
X970062Y159040D01*
X970121Y159076D01*
X970318Y159231D01*
X970518Y159381D01*
X970567Y159428D01*
X970621Y159471D01*
X970797Y159650D01*
X970977Y159823D01*
X971020Y159877D01*
X971067Y159925D01*
X971219Y160124D01*
X971376Y160320D01*
X971412Y160378D01*
X971454Y160432D01*
X971579Y160649D01*
X971711Y160862D01*
X971739Y160924D01*
X971773Y160983D01*
X971871Y161214D01*
X971974Y161442D01*
X971994Y161507D01*
X972021Y161570D01*
X972089Y161812D01*
X972163Y162051D01*
X972175Y162118D01*
X972194Y162184D01*
X972231Y162432D01*
X972275Y162678D01*
X972278Y162746D01*
X972288Y162814D01*
X972294Y163064D01*
X972307Y163314D01*
X972302Y163382D01*
X972303Y163451D01*
X972278Y163700D01*
X972259Y163950D01*
X972245Y164017D01*
X972238Y164084D01*
X972182Y164329D01*
X972132Y164574D01*
X972110Y164637D01*
X972094Y164705D01*
X971998Y164967D01*
X971920Y165194D01*
X970854Y167768D01*
X970854Y172592D01*
X971920Y175166D01*
X972001Y175402D01*
X972089Y175637D01*
X972105Y175704D01*
X972127Y175769D01*
X972178Y176014D01*
X972235Y176258D01*
X972242Y176325D01*
X972256Y176392D01*
X972276Y176642D01*
X972302Y176891D01*
X972301Y176960D01*
X972306Y177028D01*
X972295Y177278D01*
X972290Y177528D01*
X972280Y177596D01*
X972277Y177664D01*
X972234Y177911D01*
X972198Y178159D01*
X972179Y178224D01*
X972168Y178292D01*
X972094Y178531D01*
X972027Y178773D01*
X972001Y178835D01*
X971981Y178901D01*
X971878Y179129D01*
X971781Y179360D01*
X971747Y179420D01*
X971719Y179482D01*
X971588Y179696D01*
X971464Y179913D01*
X971422Y179967D01*
X971387Y180025D01*
X971230Y180221D01*
X971079Y180421D01*
X971032Y180470D01*
X970989Y180523D01*
X970809Y180698D01*
X970634Y180877D01*
X970581Y180920D01*
X970532Y180967D01*
X970333Y181117D01*
X970136Y181274D01*
X970078Y181309D01*
X970023Y181350D01*
X969806Y181475D01*
X969592Y181605D01*
X969529Y181633D01*
X969470Y181667D01*
X969239Y181763D01*
X969010Y181866D01*
X968945Y181886D01*
X968882Y181912D01*
X968640Y181979D01*
X968401Y182051D01*
X968334Y182063D01*
X968268Y182081D01*
X968020Y182117D01*
X967773Y182159D01*
X967705Y182163D01*
X967637Y182172D01*
X967387Y182177D01*
X967137Y182188D01*
X967068Y182183D01*
X967000Y182184D01*
X966751Y182157D01*
X966501Y182137D01*
X966434Y182123D01*
X966367Y182115D01*
X966123Y182058D01*
X965878Y182006D01*
X965813Y181984D01*
X965747Y181968D01*
X965512Y181880D01*
X965275Y181799D01*
X965215Y181769D01*
X965150Y181744D01*
X964904Y181615D01*
X964688Y181508D01*
X964518Y181410D01*
X962595Y180614D01*
X962560Y180604D01*
X962560Y195679D01*
X962551Y195833D01*
X962551Y195988D01*
X962531Y196151D01*
X962520Y196315D01*
X962491Y196466D01*
X962472Y196620D01*
X962432Y196780D01*
X962401Y196940D01*
X962353Y197088D01*
X962315Y197238D01*
X962255Y197390D01*
X962205Y197546D01*
X962139Y197687D01*
X962082Y197831D01*
X962003Y197975D01*
X961934Y198123D01*
X961851Y198254D01*
X961776Y198390D01*
X961680Y198523D01*
X961592Y198661D01*
X961494Y198781D01*
X961403Y198906D01*
X961291Y199026D01*
X961187Y199152D01*
X961186Y199153D01*
X961074Y199259D01*
X960968Y199372D01*
X960842Y199477D01*
X960722Y199590D01*
X960597Y199681D01*
X960478Y199780D01*
X960340Y199868D01*
X960207Y199965D01*
X960072Y200039D01*
X959941Y200123D01*
X959793Y200193D01*
X959649Y200272D01*
X959505Y200329D01*
X959365Y200396D01*
X959209Y200447D01*
X959057Y200508D01*
X958907Y200546D01*
X958760Y200595D01*
X958599Y200626D01*
X958440Y200667D01*
X958287Y200687D01*
X958135Y200716D01*
X957976Y200726D01*
X957808Y200748D01*
X957640Y200748D01*
X957481Y200758D01*
X942406Y200758D01*
X942416Y200793D01*
X943212Y202716D01*
X944252Y204518D01*
X945520Y206169D01*
X946991Y207640D01*
X948642Y208908D01*
X950444Y209948D01*
X952367Y210744D01*
X954377Y211283D01*
X956441Y211555D01*
X956479Y211555D01*
X956715Y211570D01*
X956952Y211577D01*
X957033Y211590D01*
X957115Y211595D01*
X957347Y211639D01*
X957581Y211676D01*
X957660Y211699D01*
X957741Y211714D01*
X957966Y211787D01*
X958193Y211853D01*
X958269Y211885D01*
X958347Y211911D01*
X958561Y212011D01*
X958778Y212105D01*
X958849Y212147D01*
X958923Y212182D01*
X959123Y212308D01*
X959327Y212429D01*
X959392Y212479D01*
X959461Y212523D01*
X959644Y212673D01*
X959831Y212818D01*
X959889Y212876D01*
X959953Y212928D01*
X960115Y213101D01*
X960283Y213268D01*
X960333Y213333D01*
X960389Y213392D01*
X960529Y213584D01*
X960674Y213771D01*
X960716Y213841D01*
X960764Y213907D01*
X960879Y214115D01*
X961000Y214318D01*
X961032Y214394D01*
X961072Y214465D01*
X961159Y214685D01*
X961254Y214903D01*
X961277Y214981D01*
X961307Y215058D01*
X961367Y215287D01*
X961433Y215514D01*
X961446Y215595D01*
X961467Y215674D01*
X961497Y215909D01*
X961534Y216143D01*
X961537Y216225D01*
X961548Y216306D01*
X961548Y216543D01*
X961556Y216780D01*
X961549Y216861D01*
X961549Y216944D01*
X961519Y217179D01*
X961498Y217414D01*
X961480Y217494D01*
X961470Y217576D01*
X961412Y217806D01*
X961361Y218036D01*
X961333Y218114D01*
X961313Y218193D01*
X961226Y218414D01*
X961147Y218637D01*
X961110Y218710D01*
X961080Y218786D01*
X960966Y218995D01*
X960859Y219205D01*
X960814Y219273D01*
X960774Y219345D01*
X960635Y219537D01*
X960503Y219733D01*
X960450Y219794D01*
X960401Y219862D01*
X960223Y220052D01*
X960070Y220226D01*
X944074Y236222D01*
X944020Y236270D01*
X943970Y236323D01*
X943781Y236481D01*
X943597Y236643D01*
X943536Y236684D01*
X943480Y236731D01*
X943273Y236863D01*
X943070Y237001D01*
X943005Y237034D01*
X942943Y237074D01*
X942721Y237179D01*
X942502Y237291D01*
X942433Y237315D01*
X942367Y237347D01*
X942134Y237423D01*
X941903Y237507D01*
X941832Y237523D01*
X941762Y237546D01*
X941521Y237592D01*
X941281Y237646D01*
X941208Y237653D01*
X941137Y237667D01*
X940905Y237682D01*
X940647Y237707D01*
X940563Y237704D01*
X940483Y237709D01*
X932051Y237709D01*
X931856Y237697D01*
X931660Y237694D01*
X931538Y237677D01*
X931415Y237669D01*
X931223Y237633D01*
X931029Y237605D01*
X930910Y237573D01*
X930789Y237550D01*
X930603Y237490D01*
X930414Y237438D01*
X930300Y237391D01*
X930183Y237353D01*
X930006Y237270D01*
X929825Y237195D01*
X929718Y237135D01*
X929607Y237082D01*
X929441Y236978D01*
X929271Y236881D01*
X929172Y236807D01*
X929068Y236741D01*
X928917Y236617D01*
X928760Y236499D01*
X928672Y236414D01*
X928577Y236336D01*
X928443Y236193D01*
X928302Y236057D01*
X928225Y235961D01*
X928141Y235872D01*
X928025Y235713D01*
X927902Y235561D01*
X927838Y235456D01*
X927765Y235357D01*
X927671Y235185D01*
X927568Y235018D01*
X927517Y234906D01*
X927458Y234799D01*
X927386Y234617D01*
X927304Y234438D01*
X927268Y234321D01*
X927223Y234206D01*
X927173Y234017D01*
X927115Y233830D01*
X927094Y233709D01*
X927063Y233590D01*
X927038Y233395D01*
X927004Y233202D01*
X926998Y233080D01*
X926982Y232958D01*
X926982Y232761D01*
X926972Y232566D01*
X926981Y232444D01*
X926981Y232320D01*
X927005Y232126D01*
X927020Y231931D01*
X927045Y231810D01*
X927060Y231688D01*
X927108Y231498D01*
X927147Y231307D01*
X927186Y231193D01*
X927217Y231071D01*
X927295Y230873D01*
X927358Y230686D01*
X927531Y230270D01*
X927531Y209450D01*
X926951Y208049D01*
X925879Y206977D01*
X924478Y206397D01*
X884862Y206397D01*
X883461Y206977D01*
X882389Y208049D01*
X881809Y209450D01*
X881809Y225126D01*
X881792Y225403D01*
X881779Y225680D01*
X881772Y225721D01*
X881769Y225762D01*
X881717Y226034D01*
X881670Y226308D01*
X881658Y226347D01*
X881650Y226388D01*
X881564Y226652D01*
X881483Y226917D01*
X881466Y226954D01*
X881453Y226994D01*
X881335Y227245D01*
X881221Y227498D01*
X881200Y227533D01*
X881182Y227570D01*
X881034Y227805D01*
X880889Y228042D01*
X880863Y228074D01*
X880841Y228108D01*
X880664Y228323D01*
X880491Y228539D01*
X880462Y228568D01*
X880436Y228600D01*
X880233Y228790D01*
X880034Y228983D01*
X880002Y229008D01*
X879972Y229036D01*
X879747Y229200D01*
X879525Y229367D01*
X879490Y229387D01*
X879457Y229411D01*
X879214Y229545D01*
X878972Y229683D01*
X878934Y229699D01*
X878899Y229719D01*
X878641Y229821D01*
X878384Y229928D01*
X878345Y229939D01*
X878306Y229954D01*
X878038Y230024D01*
X877770Y230097D01*
X877729Y230103D01*
X877690Y230114D01*
X877413Y230149D01*
X877139Y230189D01*
X877099Y230189D01*
X877058Y230195D01*
X876780Y230195D01*
X876502Y230200D01*
X876461Y230196D01*
X876420Y230196D01*
X876145Y230161D01*
X875869Y230132D01*
X875829Y230122D01*
X875788Y230117D01*
X875519Y230049D01*
X875249Y229984D01*
X875210Y229970D01*
X875171Y229960D01*
X874912Y229858D01*
X874652Y229761D01*
X874616Y229742D01*
X874578Y229727D01*
X874333Y229593D01*
X874088Y229464D01*
X874055Y229441D01*
X874019Y229421D01*
X873793Y229258D01*
X873566Y229099D01*
X873536Y229072D01*
X873502Y229048D01*
X873299Y228858D01*
X873094Y228672D01*
X873067Y228641D01*
X873037Y228613D01*
X872859Y228399D01*
X872678Y228189D01*
X872656Y228155D01*
X872629Y228123D01*
X872480Y227889D01*
X872327Y227657D01*
X872309Y227621D01*
X872286Y227586D01*
X872148Y227294D01*
X872037Y227070D01*
X871527Y225837D01*
X870795Y225105D01*
X869839Y224709D01*
X849492Y224709D01*
X849356Y224756D01*
X849174Y224828D01*
X849056Y224859D01*
X848939Y224899D01*
X848747Y224938D01*
X848558Y224987D01*
X848436Y225003D01*
X848315Y225028D01*
X848120Y225043D01*
X847926Y225068D01*
X847803Y225069D01*
X847680Y225078D01*
X847484Y225069D01*
X847288Y225069D01*
X847166Y225054D01*
X847044Y225049D01*
X846851Y225015D01*
X846656Y224991D01*
X846537Y224960D01*
X846416Y224939D01*
X846229Y224882D01*
X846039Y224834D01*
X845924Y224789D01*
X845807Y224753D01*
X845629Y224672D01*
X845446Y224600D01*
X845338Y224541D01*
X845226Y224491D01*
X845059Y224389D01*
X844887Y224295D01*
X844787Y224223D01*
X844682Y224159D01*
X844529Y224036D01*
X844370Y223922D01*
X844281Y223838D01*
X844185Y223761D01*
X844048Y223620D01*
X843905Y223487D01*
X843826Y223392D01*
X843741Y223304D01*
X843623Y223147D01*
X843497Y222997D01*
X843431Y222894D01*
X843357Y222795D01*
X843260Y222625D01*
X843154Y222460D01*
X843102Y222349D01*
X843041Y222242D01*
X842965Y222061D01*
X842881Y221884D01*
X842843Y221767D01*
X842796Y221654D01*
X842744Y221465D01*
X842682Y221279D01*
X842659Y221158D01*
X842626Y221040D01*
X842598Y220846D01*
X842561Y220654D01*
X842553Y220534D01*
X842535Y220409D01*
X842531Y220196D01*
X842519Y220000D01*
X842519Y142595D01*
X842523Y142522D01*
X842521Y142449D01*
X842543Y142204D01*
X842559Y141959D01*
X842572Y141887D01*
X842579Y141815D01*
X842632Y141574D01*
X842678Y141333D01*
X842701Y141263D01*
X842716Y141192D01*
X842799Y140961D01*
X842875Y140727D01*
X842906Y140661D01*
X842930Y140592D01*
X843041Y140373D01*
X843146Y140150D01*
X843185Y140089D01*
X843218Y140024D01*
X843355Y139820D01*
X843487Y139612D01*
X843533Y139556D01*
X843574Y139495D01*
X843727Y139322D01*
X843892Y139121D01*
X843953Y139064D01*
X844006Y139003D01*
X860617Y122392D01*
X860672Y122344D01*
X860722Y122291D01*
X860911Y122133D01*
X861095Y121971D01*
X861155Y121930D01*
X861212Y121883D01*
X861419Y121751D01*
X861622Y121613D01*
X861687Y121580D01*
X861749Y121540D01*
X861971Y121435D01*
X862190Y121323D01*
X862258Y121299D01*
X862324Y121267D01*
X862558Y121191D01*
X862789Y121107D01*
X862860Y121091D01*
X862930Y121068D01*
X863171Y121022D01*
X863411Y120968D01*
X863483Y120961D01*
X863555Y120947D01*
X863786Y120932D01*
X864045Y120907D01*
X864128Y120910D01*
X864209Y120905D01*
X872326Y120905D01*
X874380Y120054D01*
X874408Y120025D01*
X874586Y119868D01*
X874759Y119706D01*
X874825Y119658D01*
X874886Y119604D01*
X875082Y119471D01*
X875274Y119331D01*
X875346Y119292D01*
X875413Y119246D01*
X875624Y119138D01*
X875832Y119024D01*
X875908Y118993D01*
X875981Y118956D01*
X876204Y118876D01*
X876424Y118788D01*
X876503Y118768D01*
X876580Y118740D01*
X876811Y118688D01*
X877040Y118629D01*
X877122Y118619D01*
X877202Y118601D01*
X877437Y118578D01*
X877672Y118548D01*
X877755Y118548D01*
X877836Y118540D01*
X878072Y118547D01*
X878310Y118547D01*
X878391Y118557D01*
X878473Y118560D01*
X878707Y118596D01*
X878942Y118626D01*
X879021Y118646D01*
X879102Y118659D01*
X879330Y118724D01*
X879559Y118783D01*
X879636Y118813D01*
X879714Y118836D01*
X879932Y118929D01*
X880152Y119016D01*
X880224Y119055D01*
X880299Y119088D01*
X880503Y119208D01*
X880711Y119322D01*
X880778Y119370D01*
X880848Y119411D01*
X881036Y119556D01*
X881228Y119695D01*
X881287Y119751D01*
X881352Y119801D01*
X881521Y119969D01*
X881693Y120130D01*
X881745Y120193D01*
X881804Y120251D01*
X881950Y120438D01*
X882101Y120620D01*
X882145Y120689D01*
X882195Y120753D01*
X882316Y120957D01*
X882444Y121157D01*
X882479Y121231D01*
X882521Y121301D01*
X882615Y121518D01*
X882717Y121732D01*
X882742Y121810D01*
X882775Y121885D01*
X882842Y122113D01*
X882916Y122338D01*
X882931Y122418D01*
X882954Y122497D01*
X882992Y122730D01*
X883002Y122781D01*
X899591Y122781D01*
X899591Y115667D01*
X891029Y115667D01*
X890793Y115652D01*
X890556Y115645D01*
X890475Y115632D01*
X890393Y115627D01*
X890161Y115583D01*
X889926Y115546D01*
X889848Y115523D01*
X889767Y115508D01*
X889542Y115435D01*
X889314Y115369D01*
X889239Y115337D01*
X889161Y115311D01*
X888947Y115211D01*
X888729Y115117D01*
X888659Y115075D01*
X888584Y115040D01*
X888385Y114914D01*
X888180Y114793D01*
X888115Y114743D01*
X888046Y114699D01*
X887864Y114549D01*
X887676Y114404D01*
X887618Y114346D01*
X887555Y114294D01*
X887393Y114121D01*
X887225Y113954D01*
X887175Y113889D01*
X887118Y113830D01*
X886979Y113638D01*
X886834Y113451D01*
X886792Y113381D01*
X886743Y113315D01*
X886629Y113107D01*
X886508Y112904D01*
X886475Y112829D01*
X886436Y112757D01*
X886348Y112536D01*
X886254Y112319D01*
X886231Y112241D01*
X886200Y112164D01*
X886141Y111935D01*
X886075Y111708D01*
X886062Y111627D01*
X886041Y111548D01*
X886011Y111313D01*
X885973Y111079D01*
X885971Y110997D01*
X885960Y110916D01*
X885960Y110679D01*
X885952Y110442D01*
X885959Y110361D01*
X885959Y110279D01*
X885988Y110044D01*
X886010Y109808D01*
X886027Y109728D01*
X886038Y109646D01*
X886096Y109416D01*
X886147Y109186D01*
X886174Y109108D01*
X886195Y109029D01*
X886282Y108808D01*
X886361Y108585D01*
X886398Y108512D01*
X886428Y108436D01*
X886542Y108228D01*
X886648Y108017D01*
X886694Y107949D01*
X886734Y107877D01*
X886873Y107685D01*
X887005Y107489D01*
X887058Y107428D01*
X887107Y107360D01*
X887285Y107170D01*
X887437Y106996D01*
X897623Y96810D01*
X897678Y96762D01*
X897728Y96709D01*
X897917Y96551D01*
X898101Y96389D01*
X898161Y96348D01*
X898218Y96301D01*
X898425Y96169D01*
X898628Y96031D01*
X898693Y95998D01*
X898755Y95958D01*
X898977Y95853D01*
X899196Y95741D01*
X899264Y95717D01*
X899330Y95685D01*
X899564Y95609D01*
X899795Y95525D01*
X899866Y95509D01*
X899936Y95486D01*
X900177Y95440D01*
X900417Y95386D01*
X900489Y95379D01*
X900561Y95365D01*
X900792Y95350D01*
X901051Y95325D01*
X901134Y95328D01*
X901215Y95323D01*
X924478Y95323D01*
X925879Y94743D01*
X926951Y93671D01*
X927531Y92270D01*
X927531Y71450D01*
X926951Y70049D01*
X925879Y68977D01*
X924478Y68397D01*
X884862Y68397D01*
X883461Y68977D01*
X881804Y70635D01*
X881626Y70792D01*
X881454Y70954D01*
X881387Y71002D01*
X881326Y71057D01*
X881130Y71190D01*
X880938Y71329D01*
X880867Y71369D01*
X880799Y71415D01*
X880588Y71522D01*
X880381Y71637D01*
X880304Y71667D01*
X880231Y71704D01*
X880008Y71785D01*
X879788Y71872D01*
X879709Y71893D01*
X879632Y71920D01*
X879401Y71972D01*
X879172Y72031D01*
X879090Y72042D01*
X879010Y72060D01*
X878775Y72082D01*
X878540Y72112D01*
X878457Y72113D01*
X878376Y72120D01*
X878140Y72113D01*
X877902Y72114D01*
X877821Y72103D01*
X877739Y72101D01*
X877506Y72064D01*
X877270Y72035D01*
X877191Y72015D01*
X877110Y72002D01*
X876882Y71936D01*
X876653Y71878D01*
X876576Y71848D01*
X876498Y71825D01*
X876280Y71731D01*
X876060Y71644D01*
X875988Y71605D01*
X875913Y71573D01*
X875709Y71453D01*
X875501Y71339D01*
X875434Y71291D01*
X875364Y71249D01*
X875176Y71104D01*
X874984Y70966D01*
X874925Y70910D01*
X874860Y70859D01*
X874692Y70692D01*
X874519Y70531D01*
X874466Y70468D01*
X874408Y70410D01*
X874263Y70223D01*
X874111Y70041D01*
X874067Y69972D01*
X874017Y69907D01*
X873896Y69703D01*
X873768Y69504D01*
X873733Y69430D01*
X873691Y69359D01*
X873597Y69142D01*
X873495Y68928D01*
X873470Y68850D01*
X873437Y68775D01*
X873370Y68548D01*
X873296Y68323D01*
X873281Y68243D01*
X873258Y68164D01*
X873220Y67930D01*
X873175Y67698D01*
X873170Y67617D01*
X873157Y67535D01*
X873148Y67275D01*
X873133Y67044D01*
X873133Y35552D01*
X872553Y34151D01*
X871481Y33079D01*
X870080Y32499D01*
X849260Y32499D01*
X847859Y33079D01*
X846787Y34151D01*
X846207Y35552D01*
X846207Y53460D01*
X846203Y53533D01*
X846205Y53606D01*
X846183Y53851D01*
X846167Y54096D01*
X846154Y54167D01*
X846147Y54240D01*
X846094Y54480D01*
X846048Y54722D01*
X846025Y54791D01*
X846010Y54862D01*
X845927Y55093D01*
X845851Y55328D01*
X845820Y55394D01*
X845796Y55462D01*
X845685Y55681D01*
X845580Y55904D01*
X845541Y55966D01*
X845508Y56031D01*
X845371Y56235D01*
X845239Y56442D01*
X845193Y56499D01*
X845152Y56559D01*
X844999Y56733D01*
X844834Y56934D01*
X844773Y56991D01*
X844720Y57051D01*
X837304Y64467D01*
X837126Y64624D01*
X836954Y64786D01*
X836887Y64835D01*
X836826Y64889D01*
X836630Y65022D01*
X836438Y65161D01*
X836367Y65201D01*
X836299Y65247D01*
X836088Y65355D01*
X835881Y65469D01*
X835804Y65499D01*
X835731Y65537D01*
X835508Y65617D01*
X835288Y65704D01*
X835209Y65725D01*
X835132Y65753D01*
X834901Y65804D01*
X834672Y65864D01*
X834590Y65874D01*
X834510Y65892D01*
X834275Y65914D01*
X834040Y65945D01*
X833957Y65945D01*
X833876Y65952D01*
X833640Y65945D01*
X833402Y65946D01*
X833321Y65936D01*
X833239Y65933D01*
X833005Y65896D01*
X832770Y65867D01*
X832691Y65847D01*
X832610Y65834D01*
X832382Y65768D01*
X832153Y65710D01*
X832077Y65680D01*
X831998Y65657D01*
X831780Y65563D01*
X831560Y65477D01*
X831488Y65437D01*
X831413Y65405D01*
X831209Y65285D01*
X831001Y65171D01*
X830934Y65123D01*
X830864Y65081D01*
X830676Y64936D01*
X830484Y64798D01*
X830425Y64742D01*
X830360Y64692D01*
X830192Y64525D01*
X830019Y64363D01*
X829966Y64300D01*
X829908Y64242D01*
X829763Y64055D01*
X829611Y63873D01*
X829567Y63804D01*
X829517Y63739D01*
X829396Y63536D01*
X829268Y63336D01*
X829233Y63262D01*
X829191Y63191D01*
X829097Y62975D01*
X828995Y62760D01*
X828970Y62682D01*
X828937Y62607D01*
X828870Y62380D01*
X828796Y62155D01*
X828781Y62075D01*
X828758Y61996D01*
X828720Y61762D01*
X828675Y61530D01*
X828670Y61449D01*
X828657Y61367D01*
X828648Y61107D01*
X828633Y60876D01*
X828633Y35552D01*
X828053Y34151D01*
X826981Y33079D01*
X825580Y32499D01*
X825465Y32499D01*
X825351Y32492D01*
X825237Y32494D01*
X825033Y32472D01*
X824829Y32459D01*
X824717Y32438D01*
X824604Y32426D01*
X824404Y32378D01*
X824203Y32340D01*
X824095Y32305D01*
X823984Y32279D01*
X823792Y32207D01*
X823597Y32143D01*
X823494Y32095D01*
X823387Y32055D01*
X823206Y31959D01*
X823021Y31872D01*
X822925Y31811D01*
X822824Y31758D01*
X822655Y31641D01*
X822483Y31531D01*
X822395Y31459D01*
X822301Y31394D01*
X822149Y31256D01*
X821991Y31126D01*
X821913Y31043D01*
X821829Y30966D01*
X821695Y30811D01*
X821555Y30662D01*
X821488Y30569D01*
X821413Y30483D01*
X821300Y30312D01*
X821180Y30147D01*
X821125Y30047D01*
X821062Y29952D01*
X820975Y29775D01*
X820872Y29589D01*
X820826Y29472D01*
X820772Y29364D01*
X819633Y26612D01*
X817346Y24325D01*
X811852Y18832D01*
X811696Y18654D01*
X811533Y18482D01*
X811485Y18415D01*
X811431Y18354D01*
X811298Y18158D01*
X811158Y17966D01*
X811119Y17895D01*
X811073Y17827D01*
X810965Y17616D01*
X810851Y17409D01*
X810821Y17332D01*
X810783Y17259D01*
X810703Y17037D01*
X810615Y16816D01*
X810595Y16737D01*
X810567Y16660D01*
X810515Y16429D01*
X810456Y16200D01*
X810446Y16118D01*
X810428Y16038D01*
X810405Y15803D01*
X810375Y15568D01*
X810375Y15485D01*
X810367Y15404D01*
X810374Y15168D01*
X810374Y14930D01*
X810384Y14849D01*
X810387Y14767D01*
X810423Y14533D01*
X810453Y14298D01*
X810473Y14219D01*
X810486Y14138D01*
X810551Y13910D01*
X810610Y13681D01*
X810640Y13605D01*
X810663Y13526D01*
X810756Y13308D01*
X810843Y13088D01*
X810883Y13016D01*
X810915Y12941D01*
X811035Y12737D01*
X811149Y12529D01*
X811197Y12462D01*
X811238Y12392D01*
X811383Y12204D01*
X811522Y12012D01*
X811578Y11952D01*
X811628Y11888D01*
X811795Y11720D01*
X811957Y11547D01*
X812020Y11494D01*
X812078Y11436D01*
X812265Y11291D01*
X812447Y11139D01*
X812516Y11095D01*
X812581Y11045D01*
X812784Y10924D01*
X812984Y10796D01*
X813058Y10761D01*
X813128Y10719D01*
X813345Y10625D01*
X813559Y10523D01*
X813637Y10498D01*
X813712Y10465D01*
X813940Y10398D01*
X814165Y10324D01*
X814245Y10309D01*
X814324Y10286D01*
X814558Y10248D01*
X814790Y10203D01*
X814870Y10198D01*
X814953Y10185D01*
X815213Y10176D01*
X815444Y10161D01*
X982124Y10161D01*
X982361Y10176D01*
G37*
G36*
X539323Y251964D02*
X539323Y251964D01*
X539560Y251971D01*
X539642Y251984D01*
X539723Y251989D01*
X539956Y252033D01*
X540190Y252070D01*
X540268Y252093D01*
X540349Y252108D01*
X540575Y252181D01*
X540802Y252247D01*
X540877Y252279D01*
X540955Y252305D01*
X541170Y252406D01*
X541387Y252499D01*
X541457Y252541D01*
X541532Y252576D01*
X541732Y252702D01*
X541936Y252823D01*
X542001Y252873D01*
X542070Y252917D01*
X542252Y253067D01*
X542440Y253212D01*
X542498Y253270D01*
X542561Y253322D01*
X542723Y253495D01*
X542891Y253662D01*
X542942Y253727D01*
X542998Y253786D01*
X543137Y253978D01*
X543283Y254165D01*
X543324Y254235D01*
X543373Y254301D01*
X543487Y254509D01*
X543608Y254712D01*
X543641Y254788D01*
X543680Y254859D01*
X543768Y255079D01*
X543862Y255297D01*
X543885Y255375D01*
X543916Y255452D01*
X543975Y255681D01*
X544042Y255908D01*
X544055Y255989D01*
X544075Y256068D01*
X544105Y256303D01*
X544143Y256537D01*
X544146Y256619D01*
X544156Y256700D01*
X544156Y256938D01*
X544164Y257174D01*
X544157Y257255D01*
X544157Y257338D01*
X544128Y257573D01*
X544106Y257808D01*
X544089Y257888D01*
X544079Y257970D01*
X544020Y258199D01*
X543969Y258431D01*
X543942Y258508D01*
X543921Y258587D01*
X543835Y258807D01*
X543755Y259031D01*
X543718Y259104D01*
X543688Y259180D01*
X543574Y259388D01*
X543468Y259599D01*
X543422Y259667D01*
X543409Y259690D01*
X543409Y268431D01*
X546644Y271665D01*
X546692Y271720D01*
X546745Y271770D01*
X546903Y271959D01*
X547065Y272143D01*
X547106Y272203D01*
X547153Y272260D01*
X547285Y272467D01*
X547423Y272670D01*
X547456Y272735D01*
X547496Y272796D01*
X547601Y273018D01*
X547713Y273238D01*
X547737Y273306D01*
X547769Y273372D01*
X547845Y273606D01*
X547929Y273837D01*
X547945Y273908D01*
X547968Y273977D01*
X548014Y274219D01*
X548068Y274459D01*
X548075Y274531D01*
X548089Y274603D01*
X548104Y274834D01*
X548129Y275093D01*
X548126Y275176D01*
X548131Y275257D01*
X548131Y307342D01*
X549363Y310314D01*
X549373Y310345D01*
X549387Y310374D01*
X549476Y310646D01*
X549569Y310917D01*
X549576Y310949D01*
X549586Y310979D01*
X549640Y311260D01*
X549698Y311541D01*
X549701Y311573D01*
X549707Y311604D01*
X549723Y311855D01*
X549749Y312176D01*
X549747Y312218D01*
X549749Y312258D01*
X549749Y323621D01*
X549769Y323671D01*
X549800Y323790D01*
X549840Y323906D01*
X549879Y324098D01*
X549928Y324287D01*
X549944Y324410D01*
X549969Y324530D01*
X549984Y324725D01*
X550009Y324919D01*
X550009Y325043D01*
X550019Y325165D01*
X550010Y325361D01*
X550010Y325557D01*
X549995Y325679D01*
X549989Y325802D01*
X549956Y325994D01*
X549932Y326189D01*
X549901Y326308D01*
X549880Y326429D01*
X549823Y326616D01*
X549774Y326806D01*
X549729Y326921D01*
X549693Y327038D01*
X549613Y327217D01*
X549541Y327399D01*
X549482Y327507D01*
X549432Y327619D01*
X549330Y327786D01*
X549236Y327958D01*
X549163Y328058D01*
X549099Y328163D01*
X548977Y328316D01*
X548862Y328475D01*
X548778Y328565D01*
X548702Y328661D01*
X548561Y328797D01*
X548427Y328940D01*
X548333Y329019D01*
X548245Y329105D01*
X548088Y329223D01*
X547938Y329348D01*
X547834Y329414D01*
X547736Y329488D01*
X547566Y329585D01*
X547401Y329691D01*
X547290Y329743D01*
X547183Y329804D01*
X547002Y329880D01*
X546825Y329964D01*
X546708Y330002D01*
X546595Y330049D01*
X546406Y330101D01*
X546220Y330163D01*
X546099Y330186D01*
X545980Y330219D01*
X545787Y330247D01*
X545594Y330284D01*
X545474Y330292D01*
X545350Y330310D01*
X545137Y330314D01*
X544940Y330326D01*
X510514Y330326D01*
X510441Y330322D01*
X510368Y330324D01*
X510123Y330302D01*
X509878Y330286D01*
X509806Y330273D01*
X509734Y330266D01*
X509493Y330213D01*
X509252Y330167D01*
X509183Y330144D01*
X509111Y330129D01*
X508880Y330046D01*
X508646Y329970D01*
X508580Y329939D01*
X508511Y329915D01*
X508292Y329804D01*
X508069Y329699D01*
X508008Y329660D01*
X507943Y329627D01*
X507739Y329490D01*
X507531Y329358D01*
X507475Y329312D01*
X507414Y329271D01*
X507241Y329118D01*
X507040Y328953D01*
X506983Y328892D01*
X506922Y328839D01*
X501106Y323023D01*
X501058Y322968D01*
X501005Y322918D01*
X500847Y322729D01*
X500685Y322545D01*
X500644Y322485D01*
X500597Y322428D01*
X500465Y322221D01*
X500327Y322018D01*
X500294Y321953D01*
X500254Y321891D01*
X500149Y321669D01*
X500037Y321450D01*
X500013Y321382D01*
X499981Y321316D01*
X499905Y321082D01*
X499821Y320851D01*
X499805Y320780D01*
X499782Y320710D01*
X499736Y320469D01*
X499682Y320229D01*
X499675Y320157D01*
X499661Y320085D01*
X499646Y319854D01*
X499621Y319595D01*
X499624Y319512D01*
X499619Y319431D01*
X499619Y318170D01*
X498188Y314716D01*
X495544Y312072D01*
X492090Y310641D01*
X488313Y310641D01*
X488199Y310675D01*
X488005Y310741D01*
X487893Y310764D01*
X487784Y310796D01*
X487582Y310829D01*
X487381Y310870D01*
X487268Y310879D01*
X487155Y310898D01*
X486950Y310905D01*
X486746Y310921D01*
X486632Y310915D01*
X486518Y310919D01*
X486314Y310901D01*
X486110Y310891D01*
X485997Y310872D01*
X485884Y310861D01*
X485683Y310817D01*
X485482Y310782D01*
X485373Y310748D01*
X485261Y310724D01*
X485069Y310655D01*
X484873Y310595D01*
X484769Y310548D01*
X484661Y310510D01*
X484479Y310418D01*
X484292Y310333D01*
X484195Y310274D01*
X484093Y310223D01*
X483923Y310108D01*
X483748Y310001D01*
X483659Y309930D01*
X483565Y309866D01*
X483417Y309736D01*
X483250Y309603D01*
X483163Y309513D01*
X483072Y309434D01*
X475426Y301788D01*
X475351Y301702D01*
X475269Y301623D01*
X475140Y301463D01*
X475005Y301310D01*
X474941Y301216D01*
X474869Y301127D01*
X474762Y300952D01*
X474647Y300783D01*
X474595Y300681D01*
X474535Y300584D01*
X474450Y300398D01*
X474357Y300215D01*
X474318Y300108D01*
X474271Y300004D01*
X474211Y299809D01*
X474141Y299616D01*
X474116Y299505D01*
X474082Y299396D01*
X474047Y299194D01*
X474002Y298994D01*
X473991Y298881D01*
X473971Y298768D01*
X473961Y298564D01*
X473941Y298360D01*
X473945Y298246D01*
X473939Y298132D01*
X473954Y297928D01*
X473961Y297723D01*
X473978Y297610D01*
X473987Y297497D01*
X474028Y297296D01*
X474060Y297094D01*
X474091Y296984D01*
X474114Y296872D01*
X474178Y296686D01*
X474219Y296544D01*
X474219Y292770D01*
X472788Y289316D01*
X470144Y286672D01*
X466690Y285241D01*
X462950Y285241D01*
X459496Y286672D01*
X456852Y289316D01*
X455421Y292770D01*
X455421Y296510D01*
X456852Y299964D01*
X459496Y302608D01*
X461867Y303590D01*
X462014Y303662D01*
X462165Y303725D01*
X462300Y303802D01*
X462439Y303870D01*
X462576Y303960D01*
X462718Y304041D01*
X462842Y304135D01*
X462972Y304220D01*
X463096Y304326D01*
X463227Y304425D01*
X463338Y304533D01*
X463456Y304633D01*
X463567Y304755D01*
X463684Y304869D01*
X463781Y304990D01*
X463885Y305104D01*
X463979Y305238D01*
X464082Y305366D01*
X464160Y305495D01*
X464252Y305625D01*
X464335Y305782D01*
X464423Y305926D01*
X464536Y306143D01*
X464634Y306361D01*
X464730Y306556D01*
X465010Y307233D01*
X465028Y307253D01*
X465097Y307354D01*
X465173Y307450D01*
X465195Y307486D01*
X465760Y307958D01*
X465934Y308122D01*
X466097Y308265D01*
X479619Y321788D01*
X479696Y321854D01*
X479803Y321932D01*
X479939Y322060D01*
X480080Y322181D01*
X480169Y322279D01*
X480266Y322371D01*
X480380Y322510D01*
X480509Y322652D01*
X480593Y322771D01*
X480680Y322878D01*
X481424Y323919D01*
X481525Y324037D01*
X481540Y324060D01*
X481558Y324081D01*
X481716Y324325D01*
X481877Y324569D01*
X481889Y324593D01*
X481904Y324616D01*
X482059Y324939D01*
X482166Y325157D01*
X482359Y325622D01*
X482412Y325696D01*
X482452Y325767D01*
X482498Y325835D01*
X482606Y326046D01*
X482720Y326253D01*
X482750Y326329D01*
X482788Y326402D01*
X482868Y326625D01*
X482955Y326846D01*
X482976Y326925D01*
X483004Y327002D01*
X483056Y327233D01*
X483115Y327462D01*
X483125Y327543D01*
X483143Y327623D01*
X483166Y327859D01*
X483196Y328094D01*
X483196Y328176D01*
X483204Y328258D01*
X483196Y328494D01*
X483197Y328732D01*
X483187Y328813D01*
X483184Y328895D01*
X483148Y329128D01*
X483118Y329364D01*
X483098Y329443D01*
X483085Y329524D01*
X483020Y329751D01*
X482961Y329981D01*
X482931Y330057D01*
X482908Y330136D01*
X482815Y330353D01*
X482728Y330574D01*
X482688Y330646D01*
X482656Y330721D01*
X482536Y330925D01*
X482422Y331133D01*
X482374Y331200D01*
X482333Y331270D01*
X482188Y331457D01*
X482049Y331650D01*
X481993Y331709D01*
X481943Y331774D01*
X481776Y331942D01*
X481614Y332115D01*
X481551Y332168D01*
X481493Y332225D01*
X481306Y332371D01*
X481124Y332523D01*
X481055Y332567D01*
X480991Y332617D01*
X480787Y332738D01*
X480587Y332866D01*
X480513Y332901D01*
X480443Y332943D01*
X480226Y333037D01*
X480012Y333139D01*
X479934Y333164D01*
X479859Y333197D01*
X479632Y333264D01*
X479406Y333338D01*
X479326Y333353D01*
X479247Y333376D01*
X479014Y333414D01*
X478781Y333459D01*
X478701Y333464D01*
X478618Y333477D01*
X478359Y333486D01*
X478127Y333501D01*
X443799Y333501D01*
X443489Y333482D01*
X443170Y333462D01*
X443166Y333462D01*
X443163Y333461D01*
X442854Y333402D01*
X442544Y333344D01*
X442541Y333343D01*
X442537Y333342D01*
X442236Y333244D01*
X441938Y333148D01*
X441934Y333146D01*
X441931Y333145D01*
X441645Y333011D01*
X441361Y332878D01*
X441358Y332876D01*
X441354Y332874D01*
X441082Y332702D01*
X440822Y332538D01*
X440819Y332535D01*
X440816Y332533D01*
X440568Y332328D01*
X440330Y332133D01*
X440328Y332130D01*
X440325Y332128D01*
X440102Y331891D01*
X439893Y331669D01*
X439891Y331666D01*
X439888Y331664D01*
X439700Y331404D01*
X439517Y331155D01*
X439515Y331151D01*
X439513Y331149D01*
X439362Y330874D01*
X439209Y330597D01*
X439207Y330594D01*
X439206Y330591D01*
X439085Y330286D01*
X438973Y330005D01*
X438972Y330002D01*
X438970Y329998D01*
X438887Y329675D01*
X438812Y329389D01*
X438812Y329385D01*
X438811Y329382D01*
X438769Y329058D01*
X438731Y328757D01*
X438731Y328753D01*
X438730Y328750D01*
X438729Y328426D01*
X438728Y328120D01*
X438729Y328116D01*
X438729Y328112D01*
X438769Y327793D01*
X438806Y327487D01*
X438807Y327484D01*
X438808Y327480D01*
X438965Y326863D01*
X438967Y326858D01*
X438968Y326852D01*
X439171Y326229D01*
X439421Y324650D01*
X439421Y321309D01*
X429260Y321309D01*
X429106Y321300D01*
X428951Y321300D01*
X428788Y321280D01*
X428624Y321269D01*
X428473Y321240D01*
X428319Y321221D01*
X428159Y321181D01*
X427999Y321150D01*
X427851Y321102D01*
X427701Y321064D01*
X427549Y321004D01*
X427393Y320954D01*
X427252Y320888D01*
X427108Y320831D01*
X426964Y320752D01*
X426816Y320683D01*
X426685Y320600D01*
X426549Y320525D01*
X426416Y320429D01*
X426278Y320341D01*
X426158Y320243D01*
X426033Y320152D01*
X425913Y320040D01*
X425787Y319936D01*
X425786Y319935D01*
X425680Y319822D01*
X425567Y319717D01*
X425462Y319591D01*
X425349Y319471D01*
X425258Y319346D01*
X425159Y319227D01*
X425071Y319089D01*
X424974Y318956D01*
X424900Y318821D01*
X424816Y318690D01*
X424746Y318542D01*
X424667Y318398D01*
X424610Y318254D01*
X424543Y318114D01*
X424492Y317958D01*
X424431Y317806D01*
X424393Y317656D01*
X424344Y317509D01*
X424313Y317348D01*
X424272Y317189D01*
X424252Y317036D01*
X424223Y316884D01*
X424213Y316725D01*
X424191Y316557D01*
X424191Y316389D01*
X424181Y316230D01*
X424181Y299585D01*
X424124Y299600D01*
X423883Y299630D01*
X423645Y299668D01*
X423568Y299671D01*
X423492Y299681D01*
X423249Y299681D01*
X423008Y299689D01*
X422931Y299682D01*
X422854Y299682D01*
X422614Y299652D01*
X422374Y299629D01*
X422298Y299613D01*
X422222Y299603D01*
X421988Y299543D01*
X421752Y299491D01*
X421679Y299465D01*
X421605Y299446D01*
X421379Y299357D01*
X421152Y299276D01*
X421084Y299241D01*
X421012Y299213D01*
X420799Y299096D01*
X420584Y298987D01*
X420520Y298944D01*
X420453Y298907D01*
X420257Y298765D01*
X420056Y298630D01*
X419999Y298579D01*
X419936Y298534D01*
X419760Y298369D01*
X419578Y298209D01*
X419527Y298151D01*
X419471Y298099D01*
X419316Y297913D01*
X419156Y297732D01*
X419112Y297668D01*
X419063Y297609D01*
X418933Y297406D01*
X418797Y297205D01*
X418762Y297137D01*
X418720Y297072D01*
X418617Y296853D01*
X418593Y296808D01*
X418571Y296767D01*
X418565Y296753D01*
X418506Y296638D01*
X418480Y296566D01*
X418447Y296496D01*
X418372Y296266D01*
X418371Y296264D01*
X418336Y296175D01*
X418328Y296145D01*
X418289Y296039D01*
X418272Y295964D01*
X418248Y295891D01*
X418207Y295677D01*
X418176Y295558D01*
X418170Y295511D01*
X418149Y295418D01*
X418142Y295341D01*
X418127Y295266D01*
X418115Y295080D01*
X418095Y294926D01*
X418095Y294861D01*
X418088Y294784D01*
X418090Y294696D01*
X418085Y294612D01*
X418085Y278802D01*
X418089Y278730D01*
X418087Y278657D01*
X418109Y278412D01*
X418125Y278166D01*
X418138Y278095D01*
X418145Y278022D01*
X418198Y277782D01*
X418244Y277541D01*
X418266Y277471D01*
X418282Y277400D01*
X418365Y277169D01*
X418441Y276935D01*
X418472Y276868D01*
X418496Y276800D01*
X418607Y276581D01*
X418712Y276358D01*
X418751Y276296D01*
X418784Y276231D01*
X418921Y276028D01*
X419053Y275820D01*
X419099Y275763D01*
X419140Y275703D01*
X419293Y275529D01*
X419458Y275329D01*
X419519Y275271D01*
X419572Y275211D01*
X420334Y274449D01*
X420512Y274292D01*
X420684Y274130D01*
X420751Y274081D01*
X420812Y274027D01*
X421008Y273895D01*
X421200Y273755D01*
X421271Y273715D01*
X421339Y273669D01*
X421550Y273562D01*
X421757Y273447D01*
X421834Y273417D01*
X421907Y273380D01*
X422129Y273299D01*
X422350Y273212D01*
X422429Y273191D01*
X422506Y273164D01*
X422737Y273112D01*
X422966Y273052D01*
X423048Y273042D01*
X423128Y273024D01*
X423363Y273002D01*
X423598Y272972D01*
X423681Y272971D01*
X423762Y272964D01*
X423998Y272971D01*
X424236Y272970D01*
X424317Y272981D01*
X424399Y272983D01*
X424633Y273020D01*
X424868Y273049D01*
X424947Y273069D01*
X425028Y273082D01*
X425256Y273148D01*
X425485Y273206D01*
X425561Y273236D01*
X425640Y273259D01*
X425858Y273353D01*
X426078Y273439D01*
X426150Y273479D01*
X426225Y273511D01*
X426429Y273631D01*
X426637Y273745D01*
X426704Y273793D01*
X426774Y273835D01*
X426961Y273979D01*
X427154Y274118D01*
X427213Y274174D01*
X427278Y274224D01*
X427446Y274392D01*
X427619Y274553D01*
X427672Y274616D01*
X427730Y274674D01*
X427875Y274861D01*
X428027Y275043D01*
X428071Y275112D01*
X428121Y275177D01*
X428242Y275381D01*
X428370Y275580D01*
X428405Y275654D01*
X428447Y275725D01*
X428541Y275942D01*
X428643Y276156D01*
X428668Y276234D01*
X428701Y276309D01*
X428768Y276536D01*
X428842Y276761D01*
X428857Y276842D01*
X428880Y276920D01*
X428918Y277154D01*
X428947Y277306D01*
X435106Y283465D01*
X443734Y283465D01*
X450126Y277073D01*
X450162Y276988D01*
X450191Y276899D01*
X450287Y276695D01*
X450375Y276488D01*
X450422Y276407D01*
X450462Y276323D01*
X450582Y276133D01*
X450696Y275938D01*
X450753Y275864D01*
X450803Y275785D01*
X450946Y275611D01*
X451083Y275432D01*
X451149Y275366D01*
X451208Y275293D01*
X451373Y275139D01*
X451531Y274979D01*
X451604Y274921D01*
X451672Y274857D01*
X451854Y274724D01*
X452032Y274585D01*
X452112Y274537D01*
X452187Y274482D01*
X452385Y274373D01*
X452578Y274257D01*
X452662Y274220D01*
X452745Y274174D01*
X452974Y274083D01*
X453178Y273994D01*
X461217Y271071D01*
X461446Y271003D01*
X461674Y270928D01*
X461752Y270913D01*
X461828Y270891D01*
X462064Y270853D01*
X462299Y270807D01*
X462377Y270802D01*
X462457Y270789D01*
X462720Y270780D01*
X462953Y270765D01*
X477285Y270765D01*
X477398Y270772D01*
X477512Y270770D01*
X477716Y270792D01*
X477920Y270805D01*
X478032Y270826D01*
X478146Y270838D01*
X478345Y270886D01*
X478546Y270924D01*
X478655Y270959D01*
X478766Y270985D01*
X478957Y271057D01*
X479152Y271121D01*
X479255Y271169D01*
X479362Y271209D01*
X479544Y271304D01*
X479729Y271392D01*
X479825Y271453D01*
X479926Y271506D01*
X480094Y271623D01*
X480267Y271733D01*
X480355Y271805D01*
X480448Y271870D01*
X480600Y272008D01*
X480758Y272138D01*
X480836Y272221D01*
X480921Y272298D01*
X481055Y272453D01*
X481195Y272602D01*
X481262Y272694D01*
X481336Y272781D01*
X481449Y272952D01*
X481570Y273117D01*
X481625Y273217D01*
X481688Y273312D01*
X481775Y273489D01*
X481878Y273675D01*
X481924Y273792D01*
X481977Y273900D01*
X482252Y274564D01*
X484896Y277208D01*
X488350Y278639D01*
X492090Y278639D01*
X495544Y277208D01*
X498188Y274564D01*
X499619Y271110D01*
X499619Y269849D01*
X499623Y269776D01*
X499621Y269703D01*
X499643Y269458D01*
X499659Y269213D01*
X499672Y269141D01*
X499679Y269069D01*
X499732Y268828D01*
X499778Y268587D01*
X499801Y268518D01*
X499816Y268446D01*
X499899Y268215D01*
X499975Y267981D01*
X500006Y267915D01*
X500030Y267846D01*
X500141Y267627D01*
X500246Y267404D01*
X500285Y267343D01*
X500318Y267278D01*
X500455Y267074D01*
X500587Y266866D01*
X500633Y266810D01*
X500674Y266749D01*
X500827Y266576D01*
X500992Y266375D01*
X501053Y266318D01*
X501106Y266257D01*
X513927Y253436D01*
X513982Y253388D01*
X514032Y253335D01*
X514221Y253178D01*
X514405Y253015D01*
X514466Y252974D01*
X514522Y252927D01*
X514729Y252795D01*
X514932Y252657D01*
X514997Y252624D01*
X515059Y252584D01*
X515281Y252479D01*
X515500Y252367D01*
X515568Y252343D01*
X515634Y252311D01*
X515868Y252234D01*
X516099Y252151D01*
X516170Y252135D01*
X516240Y252112D01*
X516481Y252066D01*
X516721Y252012D01*
X516793Y252005D01*
X516865Y251991D01*
X517096Y251976D01*
X517355Y251951D01*
X517438Y251954D01*
X517519Y251949D01*
X539087Y251949D01*
X539323Y251964D01*
G37*
%LPC*%
G36*
X719708Y160179D02*
X719708Y160179D01*
X713308Y161894D01*
X707571Y165206D01*
X702886Y169891D01*
X699574Y175628D01*
X697859Y182028D01*
X697859Y188652D01*
X699574Y195052D01*
X702886Y200789D01*
X707571Y205474D01*
X713308Y208786D01*
X719708Y210501D01*
X726332Y210501D01*
X732732Y208786D01*
X738469Y205474D01*
X743154Y200789D01*
X746466Y195052D01*
X748181Y188652D01*
X748181Y182028D01*
X746466Y175628D01*
X743154Y169891D01*
X738469Y165206D01*
X732732Y161894D01*
X726332Y160179D01*
X719708Y160179D01*
G37*
%LPD*%
G36*
X421046Y27194D02*
X421046Y27194D01*
X421283Y27201D01*
X421364Y27214D01*
X421446Y27219D01*
X421678Y27263D01*
X421913Y27300D01*
X421992Y27323D01*
X422072Y27338D01*
X422297Y27411D01*
X422525Y27477D01*
X422600Y27509D01*
X422678Y27535D01*
X422892Y27635D01*
X423110Y27729D01*
X423181Y27771D01*
X423255Y27806D01*
X423455Y27932D01*
X423659Y28053D01*
X423723Y28103D01*
X423793Y28147D01*
X423975Y28297D01*
X424163Y28442D01*
X424221Y28500D01*
X424284Y28552D01*
X424446Y28724D01*
X424614Y28892D01*
X424665Y28957D01*
X424721Y29016D01*
X424860Y29208D01*
X425006Y29395D01*
X425047Y29465D01*
X425096Y29531D01*
X425210Y29739D01*
X425331Y29942D01*
X425364Y30018D01*
X425403Y30089D01*
X425491Y30309D01*
X425585Y30527D01*
X425608Y30605D01*
X425639Y30682D01*
X425698Y30911D01*
X425764Y31138D01*
X425778Y31219D01*
X425798Y31298D01*
X425828Y31533D01*
X425866Y31767D01*
X425869Y31849D01*
X425879Y31930D01*
X425879Y32167D01*
X425887Y32404D01*
X425880Y32485D01*
X425880Y32568D01*
X425851Y32802D01*
X425829Y33038D01*
X425812Y33118D01*
X425801Y33200D01*
X425743Y33429D01*
X425692Y33660D01*
X425665Y33738D01*
X425644Y33817D01*
X425558Y34038D01*
X425478Y34261D01*
X425441Y34334D01*
X425411Y34410D01*
X425297Y34618D01*
X425191Y34829D01*
X425145Y34897D01*
X425105Y34969D01*
X424967Y35161D01*
X424834Y35357D01*
X424781Y35418D01*
X424732Y35486D01*
X424555Y35675D01*
X424402Y35850D01*
X421385Y38866D01*
X421385Y47494D01*
X426812Y52921D01*
X426942Y53068D01*
X427078Y53208D01*
X427152Y53307D01*
X427234Y53399D01*
X427344Y53561D01*
X427462Y53717D01*
X427523Y53824D01*
X427592Y53926D01*
X427681Y54100D01*
X427778Y54270D01*
X427825Y54384D01*
X427881Y54493D01*
X427948Y54677D01*
X428023Y54859D01*
X428056Y54977D01*
X428097Y55093D01*
X428140Y55284D01*
X428192Y55473D01*
X428210Y55594D01*
X428237Y55714D01*
X428255Y55910D01*
X428283Y56103D01*
X428286Y56226D01*
X428297Y56348D01*
X428291Y56544D01*
X428295Y56740D01*
X428282Y56863D01*
X428278Y56985D01*
X428247Y57179D01*
X428226Y57374D01*
X428198Y57493D01*
X428179Y57615D01*
X428124Y57803D01*
X428079Y57994D01*
X428036Y58109D01*
X428002Y58227D01*
X427924Y58407D01*
X427855Y58590D01*
X427798Y58699D01*
X427750Y58812D01*
X427650Y58981D01*
X427559Y59154D01*
X427488Y59255D01*
X427426Y59361D01*
X427306Y59516D01*
X427194Y59677D01*
X427111Y59768D01*
X427036Y59865D01*
X426898Y60004D01*
X426767Y60149D01*
X426673Y60229D01*
X426587Y60316D01*
X426432Y60436D01*
X426283Y60564D01*
X426207Y60615D01*
X423025Y63797D01*
X422988Y63886D01*
X422867Y64134D01*
X422750Y64384D01*
X422727Y64420D01*
X422708Y64458D01*
X422556Y64689D01*
X422409Y64922D01*
X422382Y64955D01*
X422358Y64991D01*
X422179Y65201D01*
X422004Y65414D01*
X421972Y65443D01*
X421945Y65475D01*
X421741Y65661D01*
X421540Y65850D01*
X421505Y65876D01*
X421474Y65904D01*
X421248Y66063D01*
X421025Y66226D01*
X420988Y66246D01*
X420953Y66271D01*
X420709Y66400D01*
X420467Y66534D01*
X420428Y66550D01*
X420390Y66570D01*
X420131Y66668D01*
X419875Y66770D01*
X419834Y66780D01*
X419794Y66796D01*
X419525Y66860D01*
X419259Y66929D01*
X419216Y66935D01*
X419175Y66945D01*
X418900Y66976D01*
X418627Y67011D01*
X418584Y67011D01*
X418541Y67016D01*
X418266Y67012D01*
X417990Y67012D01*
X417947Y67007D01*
X417904Y67006D01*
X417632Y66968D01*
X417357Y66934D01*
X417316Y66924D01*
X417273Y66918D01*
X417007Y66845D01*
X416740Y66777D01*
X416700Y66762D01*
X416659Y66751D01*
X416403Y66645D01*
X416147Y66545D01*
X416109Y66524D01*
X416070Y66508D01*
X415830Y66372D01*
X415587Y66239D01*
X415553Y66214D01*
X415515Y66193D01*
X415294Y66028D01*
X415071Y65867D01*
X415040Y65837D01*
X415005Y65812D01*
X414806Y65619D01*
X414605Y65432D01*
X414578Y65400D01*
X414547Y65369D01*
X414347Y65121D01*
X414186Y64928D01*
X413326Y63744D01*
X412316Y62734D01*
X411479Y62126D01*
X411479Y76200D01*
X411470Y76354D01*
X411470Y76501D01*
X411470Y76509D01*
X411450Y76672D01*
X411439Y76836D01*
X411410Y76987D01*
X411391Y77141D01*
X411351Y77301D01*
X411320Y77461D01*
X411272Y77609D01*
X411234Y77759D01*
X411174Y77911D01*
X411124Y78067D01*
X411058Y78208D01*
X411001Y78352D01*
X410922Y78496D01*
X410853Y78644D01*
X410770Y78775D01*
X410695Y78911D01*
X410599Y79044D01*
X410511Y79182D01*
X410413Y79302D01*
X410322Y79427D01*
X410210Y79547D01*
X410106Y79673D01*
X409993Y79780D01*
X409887Y79893D01*
X409761Y79998D01*
X409642Y80110D01*
X409516Y80201D01*
X409397Y80300D01*
X409259Y80389D01*
X409127Y80485D01*
X408991Y80560D01*
X408860Y80643D01*
X408712Y80714D01*
X408569Y80793D01*
X408425Y80850D01*
X408285Y80916D01*
X408129Y80968D01*
X407977Y81028D01*
X407827Y81067D01*
X407679Y81115D01*
X407519Y81146D01*
X407360Y81187D01*
X407206Y81207D01*
X407054Y81237D01*
X406895Y81247D01*
X406728Y81268D01*
X406559Y81269D01*
X406400Y81279D01*
X406245Y81269D01*
X406091Y81269D01*
X406090Y81269D01*
X405927Y81249D01*
X405764Y81239D01*
X405612Y81210D01*
X405458Y81191D01*
X405299Y81150D01*
X405138Y81120D01*
X404991Y81072D01*
X404841Y81034D01*
X404688Y80974D01*
X404532Y80923D01*
X404392Y80857D01*
X404248Y80800D01*
X404104Y80722D01*
X403955Y80652D01*
X403825Y80569D01*
X403689Y80495D01*
X403556Y80399D01*
X403417Y80311D01*
X403298Y80212D01*
X403172Y80122D01*
X403052Y80010D01*
X402926Y79905D01*
X402820Y79792D01*
X402707Y79687D01*
X402602Y79561D01*
X402489Y79441D01*
X402398Y79316D01*
X402299Y79197D01*
X402211Y79059D01*
X402114Y78926D01*
X402040Y78791D01*
X401956Y78660D01*
X401886Y78512D01*
X401807Y78368D01*
X401750Y78224D01*
X401683Y78084D01*
X401632Y77928D01*
X401571Y77776D01*
X401533Y77626D01*
X401484Y77479D01*
X401453Y77318D01*
X401412Y77159D01*
X401392Y77006D01*
X401363Y76854D01*
X401353Y76695D01*
X401331Y76527D01*
X401331Y76359D01*
X401321Y76200D01*
X401321Y61528D01*
X401295Y61528D01*
X401062Y61536D01*
X400976Y61528D01*
X400891Y61528D01*
X400659Y61499D01*
X400427Y61477D01*
X400344Y61459D01*
X400259Y61448D01*
X400032Y61390D01*
X399805Y61340D01*
X399724Y61312D01*
X399641Y61290D01*
X399425Y61205D01*
X399205Y61126D01*
X399128Y61088D01*
X399049Y61056D01*
X398845Y60944D01*
X398636Y60839D01*
X398565Y60791D01*
X398490Y60750D01*
X398301Y60613D01*
X398108Y60482D01*
X398045Y60427D01*
X397974Y60376D01*
X397787Y60201D01*
X397616Y60050D01*
X395579Y58014D01*
X373415Y35850D01*
X373259Y35672D01*
X373096Y35500D01*
X373048Y35433D01*
X372994Y35372D01*
X372861Y35176D01*
X372721Y34984D01*
X372682Y34913D01*
X372636Y34845D01*
X372528Y34634D01*
X372414Y34427D01*
X372384Y34350D01*
X372346Y34277D01*
X372266Y34055D01*
X372178Y33834D01*
X372158Y33755D01*
X372130Y33678D01*
X372078Y33447D01*
X372019Y33218D01*
X372009Y33136D01*
X371991Y33056D01*
X371968Y32821D01*
X371938Y32586D01*
X371938Y32503D01*
X371930Y32422D01*
X371937Y32186D01*
X371937Y31948D01*
X371947Y31867D01*
X371950Y31785D01*
X371986Y31551D01*
X372016Y31316D01*
X372036Y31237D01*
X372049Y31156D01*
X372115Y30928D01*
X372173Y30699D01*
X372203Y30623D01*
X372226Y30544D01*
X372319Y30326D01*
X372406Y30106D01*
X372446Y30034D01*
X372478Y29959D01*
X372598Y29755D01*
X372712Y29547D01*
X372760Y29480D01*
X372801Y29410D01*
X372946Y29222D01*
X373085Y29030D01*
X373141Y28971D01*
X373191Y28906D01*
X373358Y28738D01*
X373520Y28565D01*
X373583Y28512D01*
X373641Y28454D01*
X373828Y28309D01*
X374010Y28157D01*
X374079Y28113D01*
X374144Y28063D01*
X374347Y27942D01*
X374547Y27814D01*
X374621Y27779D01*
X374691Y27737D01*
X374908Y27643D01*
X375122Y27541D01*
X375200Y27516D01*
X375275Y27483D01*
X375503Y27416D01*
X375728Y27342D01*
X375808Y27327D01*
X375887Y27304D01*
X376121Y27266D01*
X376353Y27221D01*
X376433Y27216D01*
X376516Y27203D01*
X376776Y27194D01*
X377007Y27179D01*
X420810Y27179D01*
X421046Y27194D01*
G37*
%LPC*%
G36*
X760260Y223499D02*
X760260Y223499D01*
X758859Y224079D01*
X757787Y225151D01*
X757207Y226552D01*
X757207Y266168D01*
X757787Y267569D01*
X758859Y268641D01*
X760260Y269221D01*
X781080Y269221D01*
X782481Y268641D01*
X783553Y267569D01*
X784133Y266168D01*
X784133Y226552D01*
X783553Y225151D01*
X782481Y224079D01*
X781080Y223499D01*
X760260Y223499D01*
G37*
%LPD*%
%LPC*%
G36*
X715760Y223499D02*
X715760Y223499D01*
X714359Y224079D01*
X713287Y225151D01*
X712707Y226552D01*
X712707Y266168D01*
X713287Y267569D01*
X714359Y268641D01*
X715760Y269221D01*
X736580Y269221D01*
X737981Y268641D01*
X739053Y267569D01*
X739633Y266168D01*
X739633Y226552D01*
X739053Y225151D01*
X737981Y224079D01*
X736580Y223499D01*
X715760Y223499D01*
G37*
%LPD*%
%LPC*%
G36*
X115066Y149605D02*
X115066Y149605D01*
X108965Y155706D01*
X108965Y164334D01*
X115066Y170435D01*
X123694Y170435D01*
X126842Y167287D01*
X126896Y167239D01*
X126946Y167185D01*
X127135Y167028D01*
X127320Y166866D01*
X127380Y166825D01*
X127436Y166778D01*
X127643Y166645D01*
X127847Y166507D01*
X127911Y166474D01*
X127973Y166435D01*
X128195Y166330D01*
X128414Y166218D01*
X128483Y166193D01*
X128549Y166162D01*
X128782Y166085D01*
X129013Y166002D01*
X129085Y165986D01*
X129154Y165963D01*
X129395Y165916D01*
X129635Y165862D01*
X129708Y165855D01*
X129779Y165841D01*
X130011Y165827D01*
X130269Y165802D01*
X130353Y165804D01*
X130433Y165799D01*
X137537Y165799D01*
X137610Y165804D01*
X137682Y165801D01*
X137927Y165824D01*
X138173Y165839D01*
X138244Y165853D01*
X138317Y165860D01*
X138557Y165912D01*
X138798Y165958D01*
X138868Y165981D01*
X138939Y165997D01*
X139170Y166079D01*
X139404Y166155D01*
X139471Y166186D01*
X139539Y166211D01*
X139758Y166321D01*
X139981Y166426D01*
X140043Y166465D01*
X140108Y166498D01*
X140311Y166635D01*
X140519Y166767D01*
X140576Y166814D01*
X140636Y166854D01*
X140810Y167007D01*
X141011Y167173D01*
X141068Y167234D01*
X141128Y167287D01*
X148086Y174245D01*
X156743Y174245D01*
X156851Y174128D01*
X157004Y173954D01*
X162815Y168144D01*
X162815Y159516D01*
X156714Y153415D01*
X148048Y153415D01*
X147889Y153555D01*
X147829Y153596D01*
X147773Y153643D01*
X147566Y153776D01*
X147362Y153914D01*
X147298Y153947D01*
X147236Y153986D01*
X147014Y154091D01*
X146795Y154203D01*
X146726Y154228D01*
X146660Y154259D01*
X146427Y154336D01*
X146196Y154419D01*
X146124Y154435D01*
X146055Y154458D01*
X145814Y154505D01*
X145574Y154559D01*
X145501Y154566D01*
X145430Y154580D01*
X145198Y154594D01*
X144940Y154619D01*
X144856Y154617D01*
X144776Y154622D01*
X130814Y154622D01*
X130741Y154617D01*
X130669Y154620D01*
X130424Y154597D01*
X130178Y154582D01*
X130107Y154568D01*
X130034Y154561D01*
X129794Y154509D01*
X129553Y154463D01*
X129483Y154440D01*
X129412Y154424D01*
X129181Y154342D01*
X128947Y154266D01*
X128880Y154235D01*
X128812Y154210D01*
X128593Y154100D01*
X128370Y153995D01*
X128308Y153956D01*
X128243Y153923D01*
X128040Y153786D01*
X127832Y153654D01*
X127775Y153607D01*
X127715Y153567D01*
X127541Y153414D01*
X127340Y153248D01*
X127283Y153187D01*
X127223Y153134D01*
X123694Y149605D01*
X115066Y149605D01*
G37*
%LPD*%
%LPC*%
G36*
X684026Y302005D02*
X684026Y302005D01*
X677925Y308106D01*
X677925Y316734D01*
X684026Y322835D01*
X688708Y322835D01*
X688828Y322842D01*
X688948Y322840D01*
X689146Y322862D01*
X689344Y322875D01*
X689462Y322897D01*
X689581Y322910D01*
X689774Y322957D01*
X689970Y322994D01*
X690084Y323031D01*
X690200Y323059D01*
X690386Y323129D01*
X690576Y323191D01*
X690685Y323242D01*
X690797Y323284D01*
X690973Y323377D01*
X691153Y323462D01*
X691254Y323526D01*
X691360Y323582D01*
X691523Y323696D01*
X691691Y323803D01*
X691783Y323879D01*
X691881Y323948D01*
X691998Y324054D01*
X693058Y324493D01*
X693101Y324514D01*
X693144Y324530D01*
X694122Y324956D01*
X695189Y324956D01*
X695237Y324959D01*
X695283Y324957D01*
X696350Y324977D01*
X697336Y324568D01*
X697381Y324553D01*
X697422Y324533D01*
X701428Y322960D01*
X701492Y322939D01*
X701554Y322912D01*
X701795Y322841D01*
X702035Y322764D01*
X702101Y322752D01*
X702165Y322733D01*
X702414Y322693D01*
X702661Y322646D01*
X702728Y322642D01*
X702794Y322632D01*
X703046Y322623D01*
X703297Y322608D01*
X703364Y322612D01*
X703431Y322610D01*
X703682Y322633D01*
X703933Y322649D01*
X703998Y322662D01*
X704066Y322668D01*
X704312Y322723D01*
X704558Y322770D01*
X704622Y322791D01*
X704688Y322805D01*
X704925Y322890D01*
X705164Y322968D01*
X705225Y322997D01*
X705288Y323019D01*
X705512Y323132D01*
X705740Y323240D01*
X705797Y323277D01*
X705857Y323307D01*
X706064Y323447D01*
X706277Y323583D01*
X706329Y323626D01*
X706385Y323663D01*
X706561Y323818D01*
X706768Y323989D01*
X706821Y324046D01*
X706877Y324096D01*
X706886Y324105D01*
X715514Y324105D01*
X721615Y318004D01*
X721615Y309376D01*
X715514Y303275D01*
X706886Y303275D01*
X703997Y306165D01*
X703881Y306267D01*
X703771Y306377D01*
X703641Y306478D01*
X703519Y306586D01*
X703391Y306673D01*
X703268Y306768D01*
X703127Y306852D01*
X702992Y306944D01*
X702854Y307015D01*
X702721Y307094D01*
X702570Y307159D01*
X702424Y307234D01*
X702278Y307286D01*
X702136Y307348D01*
X701979Y307394D01*
X701825Y307450D01*
X701674Y307484D01*
X701525Y307527D01*
X701363Y307553D01*
X701203Y307589D01*
X701049Y307604D01*
X700896Y307629D01*
X700732Y307634D01*
X700569Y307650D01*
X700414Y307645D01*
X700259Y307650D01*
X700096Y307635D01*
X699932Y307630D01*
X699779Y307606D01*
X699625Y307592D01*
X699465Y307557D01*
X699303Y307531D01*
X699154Y307488D01*
X699003Y307455D01*
X698848Y307400D01*
X698691Y307354D01*
X698548Y307293D01*
X698402Y307241D01*
X698256Y307167D01*
X698106Y307102D01*
X697972Y307023D01*
X697834Y306954D01*
X697698Y306862D01*
X697557Y306779D01*
X697434Y306684D01*
X697306Y306597D01*
X697186Y306492D01*
X697053Y306389D01*
X696933Y306270D01*
X696813Y306165D01*
X692654Y302005D01*
X684026Y302005D01*
G37*
%LPD*%
%LPC*%
G36*
X253887Y307974D02*
X253887Y307974D01*
X248986Y310005D01*
X245235Y313756D01*
X243204Y318657D01*
X243204Y323963D01*
X245235Y328864D01*
X248986Y332615D01*
X253887Y334646D01*
X259193Y334646D01*
X264094Y332615D01*
X267845Y328864D01*
X269876Y323963D01*
X269876Y318657D01*
X267845Y313756D01*
X264094Y310005D01*
X259193Y307974D01*
X253887Y307974D01*
G37*
%LPD*%
%LPC*%
G36*
X199277Y285114D02*
X199277Y285114D01*
X194376Y287145D01*
X190625Y290896D01*
X188594Y295797D01*
X188594Y301103D01*
X190625Y306004D01*
X194376Y309755D01*
X199277Y311786D01*
X204583Y311786D01*
X209484Y309755D01*
X213235Y306004D01*
X215266Y301103D01*
X215266Y295797D01*
X213235Y290896D01*
X209484Y287145D01*
X204583Y285114D01*
X199277Y285114D01*
G37*
%LPD*%
%LPC*%
G36*
X909749Y132939D02*
X909749Y132939D01*
X909749Y140053D01*
X923970Y140053D01*
X924461Y139955D01*
X924923Y139764D01*
X925340Y139485D01*
X925693Y139132D01*
X925972Y138715D01*
X926163Y138253D01*
X926261Y137762D01*
X926261Y132939D01*
X909749Y132939D01*
G37*
%LPD*%
%LPC*%
G36*
X909749Y178939D02*
X909749Y178939D01*
X909749Y186053D01*
X923970Y186053D01*
X924461Y185955D01*
X924923Y185764D01*
X925340Y185485D01*
X925693Y185132D01*
X925972Y184715D01*
X926163Y184253D01*
X926261Y183762D01*
X926261Y178939D01*
X909749Y178939D01*
G37*
%LPD*%
%LPC*%
G36*
X883079Y132939D02*
X883079Y132939D01*
X883079Y137762D01*
X883177Y138253D01*
X883368Y138715D01*
X883647Y139132D01*
X884000Y139485D01*
X884417Y139764D01*
X884879Y139955D01*
X885370Y140053D01*
X899591Y140053D01*
X899591Y132939D01*
X883079Y132939D01*
G37*
%LPD*%
%LPC*%
G36*
X883079Y178939D02*
X883079Y178939D01*
X883079Y183762D01*
X883177Y184253D01*
X883368Y184715D01*
X883647Y185132D01*
X884000Y185485D01*
X884417Y185764D01*
X884879Y185955D01*
X885370Y186053D01*
X899591Y186053D01*
X899591Y178939D01*
X883079Y178939D01*
G37*
%LPD*%
%LPC*%
G36*
X885370Y161667D02*
X885370Y161667D01*
X884879Y161765D01*
X884417Y161956D01*
X884000Y162235D01*
X883647Y162588D01*
X883368Y163005D01*
X883177Y163467D01*
X883079Y163958D01*
X883079Y168781D01*
X899591Y168781D01*
X899591Y161667D01*
X885370Y161667D01*
G37*
%LPD*%
%LPC*%
G36*
X909749Y115667D02*
X909749Y115667D01*
X909749Y122781D01*
X926261Y122781D01*
X926261Y117958D01*
X926163Y117467D01*
X925972Y117005D01*
X925693Y116588D01*
X925340Y116235D01*
X924923Y115956D01*
X924461Y115765D01*
X923970Y115667D01*
X909749Y115667D01*
G37*
%LPD*%
%LPC*%
G36*
X909749Y161667D02*
X909749Y161667D01*
X909749Y168781D01*
X926261Y168781D01*
X926261Y163958D01*
X926163Y163467D01*
X925972Y163005D01*
X925693Y162588D01*
X925340Y162235D01*
X924923Y161956D01*
X924461Y161765D01*
X923970Y161667D01*
X909749Y161667D01*
G37*
%LPD*%
%LPC*%
G36*
X942406Y149760D02*
X942406Y149760D01*
X942416Y149795D01*
X943212Y151718D01*
X944252Y153520D01*
X945520Y155171D01*
X946991Y156642D01*
X948642Y157910D01*
X950444Y158950D01*
X952367Y159746D01*
X952402Y159756D01*
X952402Y149760D01*
X942406Y149760D01*
G37*
%LPD*%
%LPC*%
G36*
X962560Y139602D02*
X962560Y139602D01*
X972556Y139602D01*
X972546Y139567D01*
X971750Y137644D01*
X970710Y135842D01*
X969442Y134191D01*
X967971Y132720D01*
X966320Y131452D01*
X964518Y130412D01*
X962595Y129616D01*
X962560Y129606D01*
X962560Y139602D01*
G37*
%LPD*%
%LPC*%
G36*
X952367Y180614D02*
X952367Y180614D01*
X950444Y181410D01*
X948642Y182450D01*
X946991Y183718D01*
X945520Y185189D01*
X944252Y186840D01*
X943212Y188642D01*
X942416Y190565D01*
X942406Y190600D01*
X952402Y190600D01*
X952402Y180604D01*
X952367Y180614D01*
G37*
%LPD*%
%LPC*%
G36*
X952367Y129616D02*
X952367Y129616D01*
X950444Y130412D01*
X948642Y131452D01*
X946991Y132720D01*
X945520Y134191D01*
X944252Y135842D01*
X943212Y137644D01*
X942416Y139567D01*
X942406Y139602D01*
X952402Y139602D01*
X952402Y129606D01*
X952367Y129616D01*
G37*
%LPD*%
%LPC*%
G36*
X1003365Y129616D02*
X1003365Y129616D01*
X1001442Y130412D01*
X999640Y131452D01*
X997989Y132720D01*
X996518Y134191D01*
X995250Y135842D01*
X994210Y137644D01*
X993414Y139567D01*
X993404Y139602D01*
X1003400Y139602D01*
X1003400Y129606D01*
X1003365Y129616D01*
G37*
%LPD*%
%LPC*%
G36*
X434339Y311151D02*
X434339Y311151D01*
X439421Y311151D01*
X439421Y307810D01*
X439171Y306231D01*
X438676Y304710D01*
X437950Y303285D01*
X437010Y301991D01*
X435879Y300860D01*
X434585Y299920D01*
X434339Y299794D01*
X434339Y311151D01*
G37*
%LPD*%
%LPC*%
G36*
X591659Y308611D02*
X591659Y308611D01*
X596741Y308611D01*
X596741Y305270D01*
X596491Y303691D01*
X595996Y302170D01*
X595270Y300745D01*
X594330Y299451D01*
X593199Y298320D01*
X591905Y297380D01*
X591659Y297254D01*
X591659Y308611D01*
G37*
%LPD*%
%LPC*%
G36*
X261619Y275589D02*
X261619Y275589D01*
X261619Y282494D01*
X268524Y275589D01*
X261619Y275589D01*
G37*
%LPD*%
%LPC*%
G36*
X156209Y303529D02*
X156209Y303529D01*
X156209Y310434D01*
X163114Y303529D01*
X156209Y303529D01*
G37*
%LPD*%
%LPC*%
G36*
X244556Y275589D02*
X244556Y275589D01*
X251461Y282494D01*
X251461Y275589D01*
X244556Y275589D01*
G37*
%LPD*%
%LPC*%
G36*
X156209Y293371D02*
X156209Y293371D01*
X163114Y293371D01*
X156209Y286466D01*
X156209Y293371D01*
G37*
%LPD*%
%LPC*%
G36*
X261619Y265431D02*
X261619Y265431D01*
X268524Y265431D01*
X261619Y258526D01*
X261619Y265431D01*
G37*
%LPD*%
%LPC*%
G36*
X139146Y303529D02*
X139146Y303529D01*
X146051Y310434D01*
X146051Y303529D01*
X139146Y303529D01*
G37*
%LPD*%
%LPC*%
G36*
X244556Y265431D02*
X244556Y265431D01*
X251461Y265431D01*
X251461Y258526D01*
X244556Y265431D01*
G37*
%LPD*%
%LPC*%
G36*
X139146Y293371D02*
X139146Y293371D01*
X146051Y293371D01*
X146051Y286466D01*
X139146Y293371D01*
G37*
%LPD*%
%LPC*%
G36*
X94835Y322579D02*
X94835Y322579D01*
X94912Y322656D01*
X95032Y322761D01*
X99061Y326790D01*
X99061Y322579D01*
X94835Y322579D01*
G37*
%LPD*%
%LPC*%
G36*
X83819Y322579D02*
X83819Y322579D01*
X83819Y326790D01*
X87848Y322761D01*
X87965Y322658D01*
X88043Y322579D01*
X83819Y322579D01*
G37*
%LPD*%
%LPC*%
G36*
X109219Y322579D02*
X109219Y322579D01*
X109219Y326790D01*
X113430Y322579D01*
X109219Y322579D01*
G37*
%LPD*%
%LPC*%
G36*
X69450Y322579D02*
X69450Y322579D01*
X73661Y326790D01*
X73661Y322579D01*
X69450Y322579D01*
G37*
%LPD*%
%LPC*%
G36*
X767079Y318769D02*
X767079Y318769D01*
X767079Y321543D01*
X769853Y318769D01*
X767079Y318769D01*
G37*
%LPD*%
%LPC*%
G36*
X754147Y318769D02*
X754147Y318769D01*
X756921Y321543D01*
X756921Y318769D01*
X754147Y318769D01*
G37*
%LPD*%
%LPC*%
G36*
X30247Y276859D02*
X30247Y276859D01*
X33021Y279633D01*
X33021Y276859D01*
X30247Y276859D01*
G37*
%LPD*%
%LPC*%
G36*
X767079Y308611D02*
X767079Y308611D01*
X769853Y308611D01*
X767079Y305837D01*
X767079Y308611D01*
G37*
%LPD*%
%LPC*%
G36*
X30247Y266701D02*
X30247Y266701D01*
X33021Y266701D01*
X33021Y263927D01*
X30247Y266701D01*
G37*
%LPD*%
%LPC*%
G36*
X355367Y267971D02*
X355367Y267971D01*
X358141Y267971D01*
X358141Y265197D01*
X355367Y267971D01*
G37*
%LPD*%
%LPC*%
G36*
X754147Y308611D02*
X754147Y308611D01*
X756921Y308611D01*
X756921Y305837D01*
X754147Y308611D01*
G37*
%LPD*%
D10*
X637540Y312420D03*
X688340Y312420D03*
D11*
X201930Y298450D03*
D12*
X151130Y298450D03*
D10*
X711200Y313690D03*
X762000Y313690D03*
D11*
X256540Y321310D03*
D13*
X256540Y270510D03*
D14*
X353060Y308610D02*
X353060Y323850D01*
X378460Y323850D02*
X378460Y308610D01*
X403860Y308610D02*
X403860Y323850D01*
X429260Y323850D02*
X429260Y308610D01*
D15*
X486918Y177800D02*
X503682Y177800D01*
X503682Y152400D02*
X486918Y152400D01*
X486918Y127000D02*
X503682Y127000D01*
D16*
X78740Y317500D03*
X78740Y292100D03*
X104140Y317500D03*
X104140Y292100D03*
D14*
X279400Y50800D02*
X279400Y35560D01*
X254000Y35560D02*
X254000Y50800D01*
X586580Y306070D02*
X586580Y321310D01*
X561180Y321310D02*
X561180Y306070D01*
D17*
X228600Y163830D03*
X152400Y163830D03*
D10*
X462280Y223520D03*
X538480Y223520D03*
D17*
X431800Y43180D03*
X355600Y43180D03*
X119380Y160020D03*
X43180Y160020D03*
X242570Y193040D03*
X166370Y193040D03*
D18*
X38100Y195580D03*
X38100Y271780D03*
D17*
X254000Y130810D03*
X177800Y130810D03*
X134620Y124460D03*
X58420Y124460D03*
X139700Y261620D03*
X63500Y261620D03*
X439420Y273050D03*
X363220Y273050D03*
D19*
X490220Y320040D03*
X464820Y294640D03*
X490220Y269240D03*
D20*
X488696Y88900D02*
X501904Y88900D01*
X501904Y38100D02*
X488696Y38100D01*
X488696Y63500D02*
X501904Y63500D01*
D21*
X592670Y246360D03*
X726170Y246360D03*
X592670Y55360D03*
X637170Y246360D03*
X637170Y55360D03*
X681670Y245860D03*
X681670Y55360D03*
X770670Y246360D03*
X815170Y246360D03*
X859670Y246360D03*
X726170Y55360D03*
X770670Y55360D03*
X815170Y55360D03*
X859670Y55360D03*
D22*
X904670Y127860D03*
X904670Y219860D03*
X904670Y173860D03*
X904670Y81860D03*
D23*
X431800Y222060D02*
X431800Y235140D01*
X406400Y235140D02*
X406400Y222060D01*
X381000Y222060D02*
X381000Y235140D01*
X355600Y235140D02*
X355600Y222060D01*
X330200Y222060D02*
X330200Y235140D01*
X304800Y235140D02*
X304800Y222060D01*
X279400Y222060D02*
X279400Y235140D01*
X254000Y235140D02*
X254000Y222060D01*
X228600Y222060D02*
X228600Y235140D01*
X203200Y235140D02*
X203200Y222060D01*
X177800Y222060D02*
X177800Y235140D01*
X152400Y235140D02*
X152400Y222060D01*
X431800Y82740D02*
X431800Y69660D01*
X406400Y69660D02*
X406400Y82740D01*
X381000Y82740D02*
X381000Y69660D01*
X228600Y69660D02*
X228600Y82740D01*
X203200Y82740D02*
X203200Y69660D01*
X177800Y69660D02*
X177800Y82740D01*
X152400Y82740D02*
X152400Y69660D01*
X76200Y69660D02*
X76200Y82740D01*
X76200Y222060D02*
X76200Y235140D01*
X101600Y235140D02*
X101600Y222060D01*
X127000Y222060D02*
X127000Y235140D01*
X101600Y82740D02*
X101600Y69660D01*
X127000Y69660D02*
X127000Y82740D01*
X355600Y82740D02*
X355600Y69660D01*
X254000Y69660D02*
X254000Y82740D01*
X279400Y82740D02*
X279400Y69660D01*
X304800Y69660D02*
X304800Y82740D01*
X330200Y82740D02*
X330200Y69660D01*
D11*
X982980Y170180D03*
D24*
X957481Y195679D03*
X1008479Y195679D03*
X1008479Y144681D03*
X957481Y144681D03*
D25*
X289560Y262890D03*
X670560Y284480D03*
X527050Y269240D03*
D26*
X355600Y76200D02*
X355600Y43180D01*
X590550Y125730D02*
X600964Y115316D01*
X871214Y115316D02*
X904670Y81860D01*
X871214Y115316D02*
X859790Y115316D01*
D25*
X523240Y125730D03*
D26*
X600964Y115316D02*
X859790Y115316D01*
X590550Y125730D02*
X523240Y125730D01*
X836930Y138176D02*
X859790Y115316D01*
X836930Y138176D02*
X836930Y321310D01*
X493211Y343916D02*
X488385Y339090D01*
X374650Y339090D01*
X814324Y343916D02*
X836930Y321310D01*
X814324Y343916D02*
X493211Y343916D01*
X374650Y339090D02*
X353060Y317500D01*
X353060Y316230D01*
X386842Y107442D02*
X355600Y76200D01*
X386842Y107442D02*
X520954Y107442D01*
X523240Y109728D01*
X523240Y125730D01*
X205486Y73914D02*
X203200Y76200D01*
X205486Y73914D02*
X205486Y37198D01*
X228460Y14224D02*
X799341Y14224D01*
X228460Y14224D02*
X205486Y37198D01*
X799341Y14224D02*
X814895Y29778D01*
X814895Y47815D01*
X815170Y48090D01*
X815170Y55360D01*
X228600Y76200D02*
X226892Y76200D01*
X804545Y82538D02*
X827137Y82538D01*
X804545Y82538D02*
X792289Y70282D01*
X854315Y55360D02*
X859670Y55360D01*
X854315Y55360D02*
X827137Y82538D01*
X228092Y75000D02*
X226892Y76200D01*
X228092Y75000D02*
X228092Y38979D01*
X245481Y21590D02*
X792289Y21590D01*
X245481Y21590D02*
X228092Y38979D01*
X792289Y21590D02*
X792289Y70282D01*
X592670Y246360D02*
X513100Y246360D01*
X490220Y269240D01*
X489881Y265176D02*
X461074Y265176D01*
X439420Y273050D01*
X490220Y269240D02*
X489881Y265176D01*
X633830Y198020D02*
X681670Y245860D01*
X602141Y194564D02*
X313944Y194564D01*
X602141Y194564D02*
X605597Y198020D01*
X633830Y198020D01*
X183706Y82106D02*
X177800Y76200D01*
X183706Y82106D02*
X183706Y90815D01*
X195125Y102234D01*
X260350Y102234D01*
X295910Y137794D01*
X295910Y176530D02*
X313944Y194564D01*
X295910Y176530D02*
X295910Y137794D01*
X592740Y201930D02*
X637170Y246360D01*
X592740Y201930D02*
X317500Y201930D01*
X257299Y109600D02*
X185800Y109600D01*
X257299Y109600D02*
X288544Y140845D01*
X288544Y179581D01*
X310893Y201930D01*
X317500Y201930D01*
X185800Y109600D02*
X152400Y76200D01*
X299776Y247268D02*
X309824Y247268D01*
X299776Y247268D02*
X292672Y240164D01*
X292672Y210820D01*
X328492Y228600D02*
X330200Y228600D01*
X328492Y228600D02*
X309824Y247268D01*
X550240Y97790D02*
X592670Y55360D01*
X350550Y30988D02*
X343408Y38130D01*
X350550Y30988D02*
X360650Y30988D01*
X483646Y76708D02*
X506954Y76708D01*
X528036Y97790D02*
X550240Y97790D01*
X528036Y97790D02*
X506954Y76708D01*
X401376Y94868D02*
X393128Y86620D01*
X401376Y94868D02*
X465486Y94868D01*
X483646Y76708D01*
X393128Y63466D02*
X360650Y30988D01*
X393128Y63466D02*
X393128Y86620D01*
X343408Y99822D02*
X343408Y38130D01*
X343408Y99822D02*
X325120Y118110D01*
X139700Y93980D02*
X139700Y59690D01*
X148590Y50800D01*
X191072Y87764D02*
X198176Y94868D01*
X265048Y94868D02*
X288290Y118110D01*
X191072Y65780D02*
X176092Y50800D01*
X191072Y65780D02*
X191072Y87764D01*
X198176Y94868D02*
X265048Y94868D01*
X288290Y118110D02*
X325120Y118110D01*
X176092Y50800D02*
X148590Y50800D01*
X139700Y93980D02*
X162686Y116966D01*
X196850Y116966D01*
X240792Y158780D02*
X240792Y158940D01*
X240792Y158780D02*
X198978Y116966D01*
X196850Y116966D01*
X240792Y158940D02*
X292672Y210820D01*
X278067Y209931D02*
X278067Y228346D01*
X278067Y209931D02*
X230188Y162052D01*
X278067Y228346D02*
X279400Y228600D01*
X228600Y163830D02*
X230188Y162052D01*
X252286Y202565D02*
X252286Y228346D01*
X252286Y202565D02*
X243078Y193358D01*
X252286Y228346D02*
X254000Y228600D01*
X243078Y193358D02*
X242570Y193040D01*
X202565Y230188D02*
X171260Y261493D01*
X139954Y261493D01*
X202565Y230188D02*
X203200Y228600D01*
X139954Y261493D02*
X139700Y261620D01*
X149162Y160211D02*
X119698Y160211D01*
X149162Y160211D02*
X151003Y162052D01*
X119698Y160211D02*
X119380Y160020D01*
X151003Y162052D02*
X152400Y163830D01*
X136271Y125222D02*
X174075Y125222D01*
X136271Y125222D02*
X134620Y124460D01*
X174075Y125222D02*
X177800Y130810D01*
X688340Y312420D02*
X695288Y319368D01*
X711200Y313116D01*
X711200Y313690D01*
X42355Y191516D02*
X42355Y160211D01*
X42355Y191516D02*
X38672Y195199D01*
X42355Y160211D02*
X43180Y160020D01*
X38672Y195199D02*
X38100Y195580D01*
X57087Y145479D02*
X57087Y125222D01*
X57087Y145479D02*
X44196Y158369D01*
X57087Y125222D02*
X58420Y124460D01*
X44196Y158369D02*
X43180Y160020D01*
X62611Y220980D02*
X62611Y261493D01*
X59849Y218218D02*
X38672Y197041D01*
X59849Y218218D02*
X62611Y220980D01*
X62611Y261493D02*
X63500Y261620D01*
X38672Y197041D02*
X38100Y195580D01*
X84709Y193358D02*
X165735Y193358D01*
X84709Y193358D02*
X59849Y218218D01*
X165735Y193358D02*
X166370Y193040D01*
X469710Y303975D02*
X482473Y316738D01*
X469710Y303975D02*
X464820Y294640D01*
X484886Y319151D02*
X490220Y320040D01*
X506095Y335915D01*
X614045Y335915D02*
X637540Y312420D01*
X614045Y335915D02*
X506095Y335915D01*
D27*
X859670Y246360D02*
X946170Y246360D01*
X982980Y209550D02*
X982980Y170180D01*
X982980Y209550D02*
X946170Y246360D01*
D26*
X405130Y230188D02*
X405130Y281877D01*
X378460Y308547D01*
X405130Y230188D02*
X406400Y228600D01*
X378460Y308547D02*
X378460Y316230D01*
X430911Y255969D02*
X430911Y230188D01*
X430911Y255969D02*
X412496Y274384D01*
X412496Y308483D01*
X404749Y316230D02*
X403860Y316230D01*
X404749Y316230D02*
X412496Y308483D01*
X430911Y230188D02*
X431800Y228600D01*
D25*
X306070Y296522D03*
D26*
X335938Y296522D01*
X345440Y287020D02*
X378460Y287020D01*
X391160Y274320D01*
X391160Y252730D01*
X393042Y252730D01*
D25*
X393042Y252730D03*
D26*
X345440Y287020D02*
X335938Y296522D01*
D25*
X553720Y264160D03*
D26*
X553720Y306230D01*
X561180Y313690D01*
X324104Y209296D02*
X304800Y228600D01*
X324104Y209296D02*
X452120Y209296D01*
X462280Y219456D01*
X462280Y223520D01*
X490220Y43180D02*
X431800Y43180D01*
X490220Y43180D02*
X495300Y38100D01*
X573325Y38100D01*
X580703Y30722D01*
X739670Y86360D02*
X770670Y55360D01*
X739670Y86360D02*
X675640Y86360D01*
X662940Y43180D02*
X650482Y30722D01*
X580703Y30722D01*
X662940Y73660D02*
X675640Y86360D01*
X662940Y73660D02*
X662940Y43180D01*
D25*
X536575Y141628D03*
X535940Y63500D03*
D26*
X77343Y230188D02*
X77343Y290957D01*
X77343Y230188D02*
X76200Y228600D01*
X77343Y290957D02*
X78740Y292100D01*
X103124Y290957D02*
X103124Y230188D01*
X101600Y228600D01*
X103124Y290957D02*
X104140Y292100D01*
X254127Y75502D02*
X254127Y44196D01*
X254127Y75502D02*
X254000Y76200D01*
X254127Y44196D02*
X254000Y43180D01*
X279908Y44196D02*
X279908Y75502D01*
X279400Y76200D01*
X279908Y44196D02*
X279400Y43180D01*
M02*
