G04 EAGLE Gerber RS-274X export*
G75*
%MOMM*%
%FSLAX34Y34*%
%LPD*%
%INSolderpaste Top*%
%IPPOS*%
%AMOC8*
5,1,8,0,0,1.08239X$1,22.5*%
G01*
%ADD10R,1.600000X1.800000*%
%ADD11R,0.635000X1.270000*%
%ADD12R,1.000000X2.000000*%
%ADD13R,1.200000X1.200000*%
%ADD14R,1.300000X1.500000*%
%ADD15R,1.500000X1.300000*%


D10*
X648780Y336550D03*
X676780Y336550D03*
D11*
X431800Y127000D03*
X419100Y127000D03*
X419100Y152400D03*
X419100Y177800D03*
X431800Y152400D03*
X431800Y177800D03*
D12*
X664020Y105340D03*
X679020Y105340D03*
X694020Y105340D03*
X709020Y105340D03*
X724020Y105340D03*
X739020Y105340D03*
X754020Y105340D03*
X769020Y105340D03*
X784020Y105340D03*
X799020Y105340D03*
X799020Y255340D03*
X784020Y255340D03*
X769020Y255340D03*
X754020Y255340D03*
X739020Y255340D03*
X724020Y255340D03*
X709020Y255340D03*
X694020Y255340D03*
X679020Y255340D03*
X664020Y255340D03*
D13*
X818220Y287020D03*
X797220Y287020D03*
X304800Y30140D03*
X304800Y51140D03*
X331470Y278470D03*
X331470Y257470D03*
D14*
X862940Y287020D03*
X843940Y287020D03*
X210210Y21590D03*
X229210Y21590D03*
D15*
X308610Y259740D03*
X308610Y278740D03*
D13*
X330200Y30140D03*
X330200Y51140D03*
D14*
X393040Y20320D03*
X374040Y20320D03*
M02*
