M48
;GenerationSoftware,Autodesk,EAGLE,9.6.2*%
;CreationDate,2023-10-09T16:27:50Z*%
FMAT,2
ICI,OFF
METRIC,TZ,000.000
T10C0.610
T9C0.800
T8C0.813
T7C1.016
T6C1.118
T5C1.270
T4C1.778
T3C3.000
T2C3.302
%
G90
M71
T2
X34544Y15240
T3
X100584Y3429
X101346Y33147
X2540Y2540
X2540Y33147
X72302Y18534
T4
X95748Y14468
X95748Y19568
X100848Y19568
X100848Y14468
T5
X98298Y17018
T6
X49530Y12700
X49530Y15240
X49530Y17780
T7
X7874Y31750
X7874Y29210
X42926Y31623
X40386Y31623
X37846Y31623
X35306Y31623
X10414Y31750
X10414Y29210
X27940Y4318
X25400Y4318
X58658Y31369
X56118Y31369
T8
X3810Y19558
X16637Y19304
X24257Y19304
X4318Y16002
X3810Y27178
X11938Y16002
X25400Y13081
X17780Y13081
X13462Y12446
X5842Y12446
X13970Y26162
X6350Y26162
X43942Y27305
X36322Y27305
X49530Y8890
X49530Y3810
X49530Y6350
X43180Y4318
X63754Y31242
X68834Y31242
X20193Y29845
X15113Y29845
X71120Y31369
X76200Y31369
X25654Y32131
X35560Y4318
X22860Y16383
X15240Y16383
X46228Y22352
X53848Y22352
X25654Y27051
T9
X10160Y7620
X12700Y22860
X10160Y22860
X7620Y22860
X7620Y7620
X15240Y7620
X17780Y7620
X20320Y7620
X22860Y7620
X67056Y28448
X38100Y7620
X12700Y7620
X35560Y7620
X25400Y7620
X27940Y7620
X30480Y7620
X33020Y7620
X39304Y25273
X30607Y29652
X52324Y12573
X52705Y26924
X35560Y22860
X28956Y26289
X53594Y6350
X53657Y14163
X55372Y26416
X43180Y22860
X40640Y22860
X38100Y22860
X40640Y7620
X33020Y22860
X30480Y22860
X27940Y22860
X25400Y22860
X22860Y22860
X20320Y22860
X17780Y22860
X15240Y22860
X43180Y7620
T10
X49022Y26924
X46482Y29464
X49022Y32004
M30